<?xml version="1.0" encoding="UTF-8"?>
<!-- Generator: visioncortex VTracer 0.6.12 -->
<svg version="1.1" xmlns="http://www.w3.org/2000/svg" width="77" height="97">
<path d="M0 0 C9.041 7.02 13.732 19.107 15.301 30.24 C15.522 32.842 15.661 35.43 15.75 38.039 C15.785 38.955 15.82 39.871 15.856 40.815 C16.139 50.884 15.97 60.779 8.938 68.664 C3.416 73.466 -2.237 73.321 -9.395 73.109 C-16.137 72.291 -20.638 69.405 -25.312 64.602 C-30.978 57.358 -33.609 48.732 -34.062 39.664 C-34.846 39.561 -35.63 39.458 -36.438 39.352 C-39.062 38.664 -39.062 38.664 -41.062 35.664 C-42.663 23.546 -38.782 11.654 -32.062 1.664 C-24.145 -7.34 -9.408 -6.094 0 0 Z M-26.062 5.664 C-30.207 11.298 -33.245 16.656 -34.062 23.664 C-33.403 23.664 -32.742 23.664 -32.062 23.664 C-31.402 22.674 -30.742 21.684 -30.062 20.664 C-28.742 20.994 -27.422 21.324 -26.062 21.664 C-26.227 22.448 -26.392 23.232 -26.562 24.039 C-28.19 35.835 -26.187 47.089 -19.359 57.078 C-16.679 60.356 -13.41 63.424 -9.074 63.867 C-4.255 63.964 -0.905 63.925 2.938 60.664 C8.754 52.23 6.586 35.72 5.188 26.102 C3.613 18.141 0.704 11.43 -5.062 5.664 C-11.189 1.58 -20.083 0.706 -26.062 5.664 Z M-35.062 26.664 C-35.062 28.974 -35.062 31.284 -35.062 33.664 C-34.733 33.664 -34.403 33.664 -34.062 33.664 C-34.062 31.354 -34.062 29.044 -34.062 26.664 C-34.392 26.664 -34.722 26.664 -35.062 26.664 Z " fill="#000000" transform="translate(51.0625,14.3359375)"/>
</svg>
