<?xml version="1.0" encoding="UTF-8"?>
<!-- Generator: visioncortex VTracer 0.6.12 -->
<svg version="1.1" xmlns="http://www.w3.org/2000/svg" width="164" height="159">
<path d="M0 0 C2.97 0 5.94 0 9 0 C9 1.98 9 3.96 9 6 C6.36 5.67 3.72 5.34 1 5 C0.67 3.35 0.34 1.7 0 0 Z " fill="#000000" transform="translate(63,39)"/>
<path d="M0 0 C7.26 0 14.52 0 22 0 C22 1.65 22 3.3 22 5 C23.98 5 25.96 5 28 5 C28 11.27 28 17.54 28 24 C26.35 24.33 24.7 24.66 23 25 C22.67 30.61 22.34 36.22 22 42 C20.515 42.165 20.515 42.165 13 43 C13 44.32 13 45.64 13 47 C11.35 47 9.7 47 8 47 C8 48.98 8 50.96 8 53 C5.03 53 2.06 53 -1 53 C-0.67 54.32 -0.34 55.64 0 57 C-3.63 57 -7.26 57 -11 57 C-11 55.68 -11 54.36 -11 53 C-13.97 53 -16.94 53 -20 53 C-20.33 51.35 -20.66 49.7 -21 48 C-22.32 47.67 -23.64 47.34 -25 47 C-25 42.38 -25 37.76 -25 33 C-23.68 33 -22.36 33 -21 33 C-20.67 28.05 -20.34 23.1 -20 18 C-18.68 18.33 -17.36 18.66 -16 19 C-16 17.35 -16 15.7 -16 14 C-14.68 13.67 -13.36 13.34 -12 13 C-11.67 10.36 -11.34 7.72 -11 5 C-10.374 4.974 -9.747 4.948 -9.102 4.922 C-8.284 4.865 -7.467 4.808 -6.625 4.75 C-5.813 4.704 -5.001 4.657 -4.164 4.609 C-3.45 4.408 -2.736 4.207 -2 4 C-1.34 2.68 -0.68 1.36 0 0 Z M18 38 C19 41 19 41 19 41 Z " fill="#000000" transform="translate(88,49)"/>
<path d="M0 0 C-0.33 1.65 -0.66 3.3 -1 5 C-3.64 4.67 -6.28 4.34 -9 4 C-9 2.68 -9 1.36 -9 0 C-2.25 -1.125 -2.25 -1.125 0 0 Z M-7 1 C-6 3 -6 3 -6 3 Z " fill="#000000" transform="translate(44,78)"/>
<path d="M0 0 C0.892 0.102 1.784 0.204 2.703 0.309 C3.379 0.392 4.054 0.476 4.75 0.562 C4.75 3.532 4.75 6.502 4.75 9.562 C3.1 9.562 1.45 9.562 -0.25 9.562 C-0.25 11.213 -0.25 12.862 -0.25 14.562 C-9.66 14.747 -9.66 14.747 -14.25 13.562 C-14.58 10.922 -14.91 8.282 -15.25 5.562 C-13.27 5.562 -11.29 5.562 -9.25 5.562 C-9.25 3.912 -9.25 2.263 -9.25 0.562 C-5.981 -0.469 -3.39 -0.401 0 0 Z M-13.25 10.562 C-12.755 10.892 -12.755 10.892 -10.25 12.562 C-10.25 11.903 -10.25 11.243 -10.25 10.562 C-11.24 10.562 -12.23 10.562 -13.25 10.562 Z " fill="#000000" transform="translate(125.25,101.4375)"/>
<path d="M0 0 C0.892 0.102 1.784 0.204 2.703 0.309 C3.379 0.392 4.054 0.476 4.75 0.562 C4.75 2.213 4.75 3.863 4.75 5.562 C3.1 5.562 1.45 5.562 -0.25 5.562 C-0.58 6.882 -0.91 8.202 -1.25 9.562 C-2.57 9.562 -3.89 9.562 -5.25 9.562 C-5.58 8.243 -5.91 6.923 -6.25 5.562 C-7.24 5.562 -8.23 5.562 -9.25 5.562 C-9.25 3.912 -9.25 2.262 -9.25 0.562 C-5.981 -0.469 -3.39 -0.401 0 0 Z " fill="#000000" transform="translate(53.25,130.4375)"/>
</svg>
