<?xml version="1.0" encoding="UTF-8"?>
<!-- Generator: visioncortex VTracer 0.6.12 -->
<svg version="1.1" xmlns="http://www.w3.org/2000/svg" width="65" height="102">
<path d="M0 0 C3 0.562 3 0.562 4.664 1.992 C6.729 5.965 6.36 9.835 6.375 14.25 C6.627 26.263 8.364 37.894 10.273 49.729 C10.329 50.077 10.329 50.077 10.613 51.839 C10.923 53.746 11.24 55.652 11.557 57.558 C12 60.562 12 60.562 12 63.562 C14.812 63.375 14.812 63.375 18 62.562 C19.875 60 19.875 60 21 57.562 C25.875 58.438 25.875 58.438 27 59.562 C26.659 66.491 26.659 66.491 24.5 70 C20.851 72.281 17.235 72.381 13 72.562 C12.918 73.656 12.835 74.749 12.75 75.875 C12 79.563 12 79.563 10.375 81.562 C6.925 83.015 4.457 82.69 1 81.562 C-3.089 79.724 -7.039 77.66 -11 75.562 C-12.092 75.024 -13.184 74.485 -14.309 73.93 C-17 72.562 -17 72.562 -18 71.562 C-18.188 69.125 -18.188 69.125 -18 66.562 C-17.67 66.233 -17.67 66.233 -16 64.562 C-13.244 64.58 -10.612 64.701 -7.875 64.938 C-7.498 64.966 -7.498 64.966 -5.59 65.109 C-3.726 65.251 -1.863 65.405 0 65.562 C-0.205 64.619 -0.41 63.675 -0.621 62.703 C-2.311 54.649 -3.555 46.801 -4 38.562 C-5.65 38.233 -7.3 37.903 -9 37.562 C-10.249 33.815 -9.151 32.428 -7.734 28.908 C-6.14 23.817 -6.524 18.365 -6.473 13.076 C-6.181 1.159 -6.181 1.159 0 0 Z " fill="#000000" transform="translate(28,9.4375)"/>
</svg>
