<?xml version="1.0" encoding="UTF-8"?>
<!-- Generator: visioncortex VTracer 0.6.12 -->
<svg version="1.1" xmlns="http://www.w3.org/2000/svg" width="115" height="257">
<path d="M0 0 C8.25 0 16.5 0 25 0 C25 1.32 25 2.64 25 4 C26.32 4 27.64 4 29 4 C29 5.65 29 7.3 29 9 C30.32 9 31.64 9 33 9 C33 11.64 33 14.28 33 17 C31.68 17 30.36 17 29 17 C29 20.96 29 24.92 29 29 C30.32 29 31.64 29 33 29 C33 31.97 33 34.94 33 38 C34.32 38 35.64 38 37 38 C37 58.46 37 78.92 37 100 C38.32 100 39.64 100 41 100 C41 104.29 41 108.58 41 113 C42.32 113 43.64 113 45 113 C45 115.64 45 118.28 45 121 C43.68 121 42.36 121 41 121 C41 123.64 41 126.28 41 129 C42.32 129 43.64 129 45 129 C45 134.61 45 140.22 45 146 C43.68 146 42.36 146 41 146 C41 147.32 41 148.64 41 150 C42.32 150 43.64 150 45 150 C45 152.97 45 155.94 45 159 C46.65 159 48.3 159 50 159 C50 171.21 50 183.42 50 196 C48.35 196 46.7 196 45 196 C45 197.32 45 198.64 45 200 C46.65 200 48.3 200 50 200 C50 201.32 50 202.64 50 204 C51.32 204 52.64 204 54 204 C54 205.65 54 207.3 54 209 C55.32 209 56.64 209 58 209 C58 211.64 58 214.28 58 217 C56.68 217 55.36 217 54 217 C54 215.68 54 214.36 54 213 C49.71 213 45.42 213 41 213 C41 211.68 41 210.36 41 209 C39.68 209 38.36 209 37 209 C37 210.32 37 211.64 37 213 C34.36 213 31.72 213 29 213 C29 214.32 29 215.64 29 217 C23.39 217 17.78 217 12 217 C12 214.36 12 211.72 12 209 C10.68 209 9.36 209 8 209 C8 207.35 8 205.7 8 204 C5.36 204 2.72 204 0 204 C0 205.65 0 207.3 0 209 C-4.29 209 -8.58 209 -13 209 C-13 210.32 -13 211.64 -13 213 C-15.64 213 -18.28 213 -21 213 C-21 211.68 -21 210.36 -21 209 C-23.97 209 -26.94 209 -30 209 C-30 204.71 -30 200.42 -30 196 C-28.35 196 -26.7 196 -25 196 C-25 194.68 -25 193.36 -25 192 C-22.36 192 -19.72 192 -17 192 C-17 190.68 -17 189.36 -17 188 C-15.68 188 -14.36 188 -13 188 C-13 186.68 -13 185.36 -13 184 C-11.68 184 -10.36 184 -9 184 C-9 182.35 -9 180.7 -9 179 C-6.03 179 -3.06 179 0 179 C0 175.04 0 171.08 0 167 C-1.65 167 -3.3 167 -5 167 C-5 164.36 -5 161.72 -5 159 C-2.03 159 0.94 159 4 159 C4 157.35 4 155.7 4 154 C6.64 154 9.28 154 12 154 C12 152.68 12 151.36 12 150 C14.64 150 17.28 150 20 150 C20 151.32 20 152.64 20 154 C21.65 154 23.3 154 25 154 C25 152.68 25 151.36 25 150 C28.96 150 32.92 150 37 150 C37 148.68 37 147.36 37 146 C33.04 146 29.08 146 25 146 C25 144.68 25 143.36 25 142 C23.35 142 21.7 142 20 142 C20 140.68 20 139.36 20 138 C18.68 138 17.36 138 16 138 C16 136.68 16 135.36 16 134 C17.32 134 18.64 134 20 134 C20 132.35 20 130.7 20 129 C16.04 129 12.08 129 8 129 C8 133.29 8 137.58 8 142 C3.71 142 -0.58 142 -5 142 C-5 140.68 -5 139.36 -5 138 C-6.32 138 -7.64 138 -9 138 C-9 139.32 -9 140.64 -9 142 C-10.32 142 -11.64 142 -13 142 C-13 144.64 -13 147.28 -13 150 C-15.64 150 -18.28 150 -21 150 C-21 146.04 -21 142.08 -21 138 C-19.68 138 -18.36 138 -17 138 C-17 136.68 -17 135.36 -17 134 C-14.36 134 -11.72 134 -9 134 C-9 132.35 -9 130.7 -9 129 C-10.32 129 -11.64 129 -13 129 C-13 127.68 -13 126.36 -13 125 C-14.32 125 -15.64 125 -17 125 C-17 122.36 -17 119.72 -17 117 C-15.68 117 -14.36 117 -13 117 C-13 108.75 -13 100.5 -13 92 C-11.68 92 -10.36 92 -9 92 C-9 89.36 -9 86.72 -9 84 C-6.03 84 -3.06 84 0 84 C0 85.32 0 86.64 0 88 C1.32 88 2.64 88 4 88 C4 86.68 4 85.36 4 84 C5.32 84 6.64 84 8 84 C8 82.35 8 80.7 8 79 C1.07 79 -5.86 79 -13 79 C-13 58.54 -13 38.08 -13 17 C-11.68 17 -10.36 17 -9 17 C-9 14.36 -9 11.72 -9 9 C-7.68 9 -6.36 9 -5 9 C-5 7.35 -5 5.7 -5 4 C-3.35 4 -1.7 4 0 4 C0 2.68 0 1.36 0 0 Z M29 167 C29 169.64 29 172.28 29 175 C30.32 175 31.64 175 33 175 C33 172.36 33 169.72 33 167 C31.68 167 30.36 167 29 167 Z M20 192 C20 193.32 20 194.64 20 196 C18.68 196 17.36 196 16 196 C16 198.64 16 201.28 16 204 C18.97 204 21.94 204 25 204 C25 202.68 25 201.36 25 200 C26.32 200 27.64 200 29 200 C29 197.36 29 194.72 29 192 C26.03 192 23.06 192 20 192 Z " fill="#000000" transform="translate(44,9)"/>
<path d="M0 0 C1.32 0 2.64 0 4 0 C4 1.32 4 2.64 4 4 C2.68 4 1.36 4 0 4 C0 2.68 0 1.36 0 0 Z " fill="#000000" transform="translate(31,159)"/>
<path d="M0 0 C1.32 0 2.64 0 4 0 C4 1.65 4 3.3 4 5 C2.68 5 1.36 5 0 5 C0 3.35 0 1.7 0 0 Z " fill="#000000" transform="translate(35,163)"/>
<path d="M0 0 C5.28 0 10.56 0 16 0 C16 1.32 16 2.64 16 4 C17.32 4 18.64 4 20 4 C20 5.32 20 6.64 20 8 C21.65 8 23.3 8 25 8 C25 6.68 25 5.36 25 4 C33.25 4 41.5 4 50 4 C50 5.32 50 6.64 50 8 C58.25 8 66.5 8 75 8 C75 9.32 75 10.64 75 12 C73.35 12 71.7 12 70 12 C70 13.65 70 15.3 70 17 C66.04 17 62.08 17 58 17 C58 18.32 58 19.64 58 21 C44.14 21 30.28 21 16 21 C16 19.68 16 18.36 16 17 C13.36 17 10.72 17 8 17 C8 15.35 8 13.7 8 12 C6.68 12 5.36 12 4 12 C4 10.68 4 9.36 4 8 C2.68 8 1.36 8 0 8 C0 5.36 0 2.72 0 0 Z " fill="#000000" transform="translate(19,226)"/>
</svg>
