<?xml version="1.0" encoding="UTF-8"?>
<!-- Generator: visioncortex VTracer 0.6.12 -->
<svg version="1.1" xmlns="http://www.w3.org/2000/svg" width="178" height="234">
<path d="M0 0 C5.61 0 11.22 0 17 0 C17 1.32 17 2.64 17 4 C22.61 4 28.22 4 34 4 C34 2.68 34 1.36 34 0 C39.28 0 44.56 0 50 0 C50 1.32 50 2.64 50 4 C54.29 4 58.58 4 63 4 C63 5.65 63 7.3 63 9 C64.32 9 65.64 9 67 9 C67 10.32 67 11.64 67 13 C68.32 13 69.64 13 71 13 C71 14.32 71 15.64 71 17 C72.32 17 73.64 17 75 17 C75 30.86 75 44.72 75 59 C73.68 59 72.36 59 71 59 C71 64.28 71 69.56 71 75 C69.68 75 68.36 75 67 75 C67 79.29 67 83.58 67 88 C65.68 88 64.36 88 63 88 C63 91.96 63 95.92 63 100 C61.68 100 60.36 100 59 100 C59 101.32 59 102.64 59 104 C57.68 104 56.36 104 55 104 C55 106.97 55 109.94 55 113 C53.35 113 51.7 113 50 113 C50 115.64 50 118.28 50 121 C48.68 121 47.36 121 46 121 C46 122.32 46 123.64 46 125 C44.68 125 43.36 125 42 125 C42 127.97 42 130.94 42 134 C40.68 134 39.36 134 38 134 C38 135.32 38 136.64 38 138 C36.68 138 35.36 138 34 138 C34 139.32 34 140.64 34 142 C32.68 142 31.36 142 30 142 C30 143.32 30 144.64 30 146 C28.35 146 26.7 146 25 146 C25 150.29 25 154.58 25 159 C29.29 159 33.58 159 38 159 C38 157.35 38 155.7 38 154 C44.93 154 51.86 154 59 154 C59 152.68 59 151.36 59 150 C67.25 150 75.5 150 84 150 C84 151.32 84 152.64 84 154 C86.64 154 89.28 154 92 154 C92 155.65 92 157.3 92 159 C93.32 159 94.64 159 96 159 C96 160.32 96 161.64 96 163 C97.32 163 98.64 163 100 163 C100 164.32 100 165.64 100 167 C101.65 167 103.3 167 105 167 C105 172.61 105 178.22 105 184 C103.35 184 101.7 184 100 184 C100 185.32 100 186.64 100 188 C97.36 188 94.72 188 92 188 C92 189.32 92 190.64 92 192 C90.68 192 89.36 192 88 192 C88 193.32 88 194.64 88 196 C86.68 196 85.36 196 84 196 C84 197.32 84 198.64 84 200 C78.39 200 72.78 200 67 200 C67 198.68 67 197.36 67 196 C60.07 196 53.14 196 46 196 C46 194.68 46 193.36 46 192 C43.36 192 40.72 192 38 192 C38 193.32 38 194.64 38 196 C29.75 196 21.5 196 13 196 C13 197.32 13 198.64 13 200 C6.07 200 -0.86 200 -8 200 C-8 201.32 -8 202.64 -8 204 C-13.61 204 -19.22 204 -25 204 C-25 202.68 -25 201.36 -25 200 C-31.6 200 -38.2 200 -45 200 C-45 198.68 -45 197.36 -45 196 C-43.68 196 -42.36 196 -41 196 C-41 192.04 -41 188.08 -41 184 C-43.97 184 -46.94 184 -50 184 C-50 181.03 -50 178.06 -50 175 C-48.35 175 -46.7 175 -45 175 C-45 173.68 -45 172.36 -45 171 C-43.68 171 -42.36 171 -41 171 C-41 168.36 -41 165.72 -41 163 C-39.68 163 -38.36 163 -37 163 C-37 158.71 -37 154.42 -37 150 C-35.68 150 -34.36 150 -33 150 C-33 148.68 -33 147.36 -33 146 C-31.68 146 -30.36 146 -29 146 C-29 144.68 -29 143.36 -29 142 C-27.68 142 -26.36 142 -25 142 C-25 140.68 -25 139.36 -25 138 C-23.35 138 -21.7 138 -20 138 C-20 136.68 -20 135.36 -20 134 C-18.68 134 -17.36 134 -16 134 C-16 132.35 -16 130.7 -16 129 C-14.68 129 -13.36 129 -12 129 C-12 127.68 -12 126.36 -12 125 C-10.68 125 -9.36 125 -8 125 C-8 123.68 -8 122.36 -8 121 C-6.68 121 -5.36 121 -4 121 C-4 119.68 -4 118.36 -4 117 C-2.68 117 -1.36 117 0 117 C0 115.68 0 114.36 0 113 C1.65 113 3.3 113 5 113 C5 111.68 5 110.36 5 109 C6.32 109 7.64 109 9 109 C9 107.35 9 105.7 9 104 C10.32 104 11.64 104 13 104 C13 102.68 13 101.36 13 100 C14.32 100 15.64 100 17 100 C17 98.68 17 97.36 17 96 C18.32 96 19.64 96 21 96 C21 92.04 21 88.08 21 84 C22.32 84 23.64 84 25 84 C25 82.35 25 80.7 25 79 C31.93 79 38.86 79 46 79 C46 77.68 46 76.36 46 75 C47.32 75 48.64 75 50 75 C50 73.68 50 72.36 50 71 C43.4 71 36.8 71 30 71 C30 68.36 30 65.72 30 63 C31.32 63 32.64 63 34 63 C34 56.07 34 49.14 34 42 C29.71 42 25.42 42 21 42 C21 43.32 21 44.64 21 46 C18.36 46 15.72 46 13 46 C13 47.32 13 48.64 13 50 C11.68 50 10.36 50 9 50 C9 51.32 9 52.64 9 54 C7.68 54 6.36 54 5 54 C5 55.65 5 57.3 5 59 C3.35 59 1.7 59 0 59 C0 61.64 0 64.28 0 67 C-1.32 67 -2.64 67 -4 67 C-4 68.32 -4 69.64 -4 71 C-5.32 71 -6.64 71 -8 71 C-8 72.32 -8 73.64 -8 75 C-10.64 75 -13.28 75 -16 75 C-16 76.32 -16 77.64 -16 79 C-20.29 79 -24.58 79 -29 79 C-29 77.68 -29 76.36 -29 75 C-30.32 75 -31.64 75 -33 75 C-33 73.68 -33 72.36 -33 71 C-34.32 71 -35.64 71 -37 71 C-37 69.68 -37 68.36 -37 67 C-38.32 67 -39.64 67 -41 67 C-41 64.36 -41 61.72 -41 59 C-42.32 59 -43.64 59 -45 59 C-45 53.39 -45 47.78 -45 42 C-43.68 42 -42.36 42 -41 42 C-41 37.71 -41 33.42 -41 29 C-39.68 29 -38.36 29 -37 29 C-37 27.68 -37 26.36 -37 25 C-34.36 25 -31.72 25 -29 25 C-29 23.68 -29 22.36 -29 21 C-27.68 21 -26.36 21 -25 21 C-25 19.68 -25 18.36 -25 17 C-22.03 17 -19.06 17 -16 17 C-16 15.68 -16 14.36 -16 13 C-14.68 13 -13.36 13 -12 13 C-12 11.68 -12 10.36 -12 9 C-9.36 9 -6.72 9 -4 9 C-4 7.35 -4 5.7 -4 4 C-2.68 4 -1.36 4 0 4 C0 2.68 0 1.36 0 0 Z M5 29 C5 31.97 5 34.94 5 38 C8.96 38 12.92 38 17 38 C17 35.03 17 32.06 17 29 C13.04 29 9.08 29 5 29 Z M-12 42 C-12 44.64 -12 47.28 -12 50 C-8.04 50 -4.08 50 0 50 C0 47.36 0 44.72 0 42 C-3.96 42 -7.92 42 -12 42 Z M-33 50 C-33 52.97 -33 55.94 -33 59 C-31.68 59 -30.36 59 -29 59 C-29 60.32 -29 61.64 -29 63 C-27.68 63 -26.36 63 -25 63 C-25 64.32 -25 65.64 -25 67 C-23.35 67 -21.7 67 -20 67 C-20 61.39 -20 55.78 -20 50 C-24.29 50 -28.58 50 -33 50 Z M50 63 C50 65.64 50 68.28 50 71 C54.29 71 58.58 71 63 71 C63 69.68 63 68.36 63 67 C61.68 67 60.36 67 59 67 C59 65.68 59 64.36 59 63 C56.03 63 53.06 63 50 63 Z M42 84 C42 85.32 42 86.64 42 88 C40.68 88 39.36 88 38 88 C38 89.32 38 90.64 38 92 C39.32 92 40.64 92 42 92 C42 93.32 42 94.64 42 96 C44.64 96 47.28 96 50 96 C50 94.68 50 93.36 50 92 C51.65 92 53.3 92 55 92 C55 90.68 55 89.36 55 88 C53.35 88 51.7 88 50 88 C50 86.68 50 85.36 50 84 C47.36 84 44.72 84 42 84 Z M38 100 C38 102.97 38 105.94 38 109 C40.64 109 43.28 109 46 109 C46 106.03 46 103.06 46 100 C43.36 100 40.72 100 38 100 Z M55 171 C55 172.32 55 173.64 55 175 C53.35 175 51.7 175 50 175 C50 177.97 50 180.94 50 184 C55.61 184 61.22 184 67 184 C67 182.35 67 180.7 67 179 C68.32 179 69.64 179 71 179 C71 177.68 71 176.36 71 175 C69.68 175 68.36 175 67 175 C67 173.68 67 172.36 67 171 C63.04 171 59.08 171 55 171 Z " fill="#000000" transform="translate(63,12)"/>
</svg>
