<?xml version="1.0" encoding="UTF-8"?>
<!-- Generator: visioncortex VTracer 0.6.12 -->
<svg version="1.1" xmlns="http://www.w3.org/2000/svg" width="79" height="90">
<path d="M0 0 C5.744 4.69 8.38 9.499 9.441 16.863 C9.555 18.403 9.639 19.945 9.691 21.488 C9.717 22.152 9.743 22.816 9.77 23.5 C9.458 31.685 5.112 39.209 1.691 46.488 C4.42 46.684 7.149 46.87 9.879 47.051 C10.263 47.079 10.263 47.079 12.209 47.221 C15.531 47.435 18.337 47.561 21.617 46.891 C21.959 46.824 21.959 46.824 23.691 46.488 C24.351 47.148 25.011 47.808 25.691 48.488 C25.597 51.329 24.69 52.49 22.852 54.656 C17.324 57.86 11.228 56.242 5.062 55.6 C-2.649 54.988 -2.649 54.988 -6.383 57.82 C-6.701 58.261 -6.701 58.261 -8.309 60.488 C-11.817 63.902 -14.518 65.199 -19.312 65.598 C-23.488 65.369 -26.434 63.362 -29.309 60.488 C-29.683 57.115 -29.498 54.941 -28.184 51.801 C-25.786 48.844 -23.861 47.87 -20.309 46.488 C-19.601 46.444 -18.893 46.401 -18.164 46.355 C-15.422 46.141 -13.737 45.825 -11.309 44.488 C-5.484 36.137 -1.357 25.767 -2.309 15.488 C-3.9 10.809 -6.219 8.126 -10.277 5.469 C-13.86 3.739 -17.352 3.222 -21.309 3.488 C-24.309 4.738 -24.309 4.738 -26.309 6.488 C-26.639 7.478 -26.969 8.468 -27.309 9.488 C-29.246 10.238 -29.246 10.238 -31.309 10.488 C-31.969 10.158 -32.629 9.828 -33.309 9.488 C-33.309 3.523 -33.309 3.523 -30.602 0.723 C-21.378 -6.327 -9.827 -6.435 0 0 Z " fill="#000000" transform="translate(43.30859375,14.51171875)"/>
</svg>
