<?xml version="1.0" encoding="UTF-8"?>
<!-- Generator: visioncortex VTracer 0.6.12 -->
<svg version="1.1" xmlns="http://www.w3.org/2000/svg" width="183" height="221">
<path d="M0 0 C6.6 0 13.2 0 20 0 C20 1.32 20 2.64 20 4 C24.29 4 28.58 4 33 4 C33 5.32 33 6.64 33 8 C36.96 8 40.92 8 45 8 C45 9.32 45 10.64 45 12 C46.65 12 48.3 12 50 12 C50 13.32 50 14.64 50 16 C51.32 16 52.64 16 54 16 C54 18.97 54 21.94 54 25 C55.32 25 56.64 25 58 25 C58 27.64 58 30.28 58 33 C59.32 33 60.64 33 62 33 C62 37.29 62 41.58 62 46 C63.32 46 64.64 46 66 46 C66 48.64 66 51.28 66 54 C64.68 54 63.36 54 62 54 C62 57.96 62 61.92 62 66 C60.68 66 59.36 66 58 66 C58 68.97 58 71.94 58 75 C56.68 75 55.36 75 54 75 C54 77.64 54 80.28 54 83 C55.32 83 56.64 83 58 83 C58 84.32 58 85.64 58 87 C60.64 87 63.28 87 66 87 C66 88.32 66 89.64 66 91 C67.32 91 68.64 91 70 91 C70 92.65 70 94.3 70 96 C71.65 96 73.3 96 75 96 C75 97.32 75 98.64 75 100 C76.32 100 77.64 100 79 100 C79 102.64 79 105.28 79 108 C80.32 108 81.64 108 83 108 C83 109.32 83 110.64 83 112 C84.32 112 85.64 112 87 112 C87 120.25 87 128.5 87 137 C85.68 137 84.36 137 83 137 C83 141.29 83 145.58 83 150 C81.68 150 80.36 150 79 150 C79 151.32 79 152.64 79 154 C77.68 154 76.36 154 75 154 C75 157.96 75 161.92 75 166 C73.35 166 71.7 166 70 166 C70 167.65 70 169.3 70 171 C68.68 171 67.36 171 66 171 C66 172.32 66 173.64 66 175 C64.68 175 63.36 175 62 175 C62 176.32 62 177.64 62 179 C60.68 179 59.36 179 58 179 C58 180.32 58 181.64 58 183 C56.68 183 55.36 183 54 183 C54 184.32 54 185.64 54 187 C52.68 187 51.36 187 50 187 C50 188.32 50 189.64 50 191 C48.35 191 46.7 191 45 191 C45 192.65 45 194.3 45 196 C42.36 196 39.72 196 37 196 C37 197.32 37 198.64 37 200 C33.04 200 29.08 200 25 200 C25 201.32 25 202.64 25 204 C22.03 204 19.06 204 16 204 C16 202.68 16 201.36 16 200 C2.14 200 -11.72 200 -26 200 C-26 198.68 -26 197.36 -26 196 C-32.6 196 -39.2 196 -46 196 C-46 194.35 -46 192.7 -46 191 C-48.97 191 -51.94 191 -55 191 C-55 189.68 -55 188.36 -55 187 C-57.64 187 -60.28 187 -63 187 C-63 185.68 -63 184.36 -63 183 C-64.32 183 -65.64 183 -67 183 C-67 181.68 -67 180.36 -67 179 C-68.32 179 -69.64 179 -71 179 C-71 177.68 -71 176.36 -71 175 C-72.65 175 -74.3 175 -76 175 C-76 172.03 -76 169.06 -76 166 C-74.35 166 -72.7 166 -71 166 C-71 163.36 -71 160.72 -71 158 C-68.36 158 -65.72 158 -63 158 C-63 156.68 -63 155.36 -63 154 C-60.36 154 -57.72 154 -55 154 C-55 155.32 -55 156.64 -55 158 C-52.03 158 -49.06 158 -46 158 C-46 156.68 -46 155.36 -46 154 C-39.4 154 -32.8 154 -26 154 C-26 155.32 -26 156.64 -26 158 C-20.39 158 -14.78 158 -9 158 C-9 159.32 -9 160.64 -9 162 C-7.68 162 -6.36 162 -5 162 C-5 160.68 -5 159.36 -5 158 C-2.03 158 0.94 158 4 158 C4 159.32 4 160.64 4 162 C7.96 162 11.92 162 16 162 C16 160.68 16 159.36 16 158 C20.29 158 24.58 158 29 158 C29 156.68 29 155.36 29 154 C30.32 154 31.64 154 33 154 C33 152.68 33 151.36 33 150 C34.32 150 35.64 150 37 150 C37 148.68 37 147.36 37 146 C38.32 146 39.64 146 41 146 C41 139.07 41 132.14 41 125 C39.68 125 38.36 125 37 125 C37 123.68 37 122.36 37 121 C34.36 121 31.72 121 29 121 C29 119.35 29 117.7 29 116 C16.46 116 3.92 116 -9 116 C-9 114.68 -9 113.36 -9 112 C-11.64 112 -14.28 112 -17 112 C-17 110.68 -17 109.36 -17 108 C-18.32 108 -19.64 108 -21 108 C-21 102.39 -21 96.78 -21 91 C-19.68 91 -18.36 91 -17 91 C-17 88.36 -17 85.72 -17 83 C-15.68 83 -14.36 83 -13 83 C-13 81.68 -13 80.36 -13 79 C-11.68 79 -10.36 79 -9 79 C-9 77.68 -9 76.36 -9 75 C-4.71 75 -0.42 75 4 75 C4 73.68 4 72.36 4 71 C5.32 71 6.64 71 8 71 C8 69.35 8 67.7 8 66 C9.32 66 10.64 66 12 66 C12 64.68 12 63.36 12 62 C13.32 62 14.64 62 16 62 C16 60.68 16 59.36 16 58 C17.32 58 18.64 58 20 58 C20 55.36 20 52.72 20 50 C18.68 50 17.36 50 16 50 C16 48.68 16 47.36 16 46 C14.68 46 13.36 46 12 46 C12 44.35 12 42.7 12 41 C3.75 41 -4.5 41 -13 41 C-13 42.65 -13 44.3 -13 46 C-17.29 46 -21.58 46 -26 46 C-26 47.32 -26 48.64 -26 50 C-34.25 50 -42.5 50 -51 50 C-51 48.68 -51 47.36 -51 46 C-52.32 46 -53.64 46 -55 46 C-55 44.35 -55 42.7 -55 41 C-56.32 41 -57.64 41 -59 41 C-59 39.68 -59 38.36 -59 37 C-60.32 37 -61.64 37 -63 37 C-63 35.68 -63 34.36 -63 33 C-64.32 33 -65.64 33 -67 33 C-67 30.36 -67 27.72 -67 25 C-65.68 25 -64.36 25 -63 25 C-63 23.68 -63 22.36 -63 21 C-61.68 21 -60.36 21 -59 21 C-59 19.35 -59 17.7 -59 16 C-57.68 16 -56.36 16 -55 16 C-55 14.68 -55 13.36 -55 12 C-52.03 12 -49.06 12 -46 12 C-46 10.68 -46 9.36 -46 8 C-40.72 8 -35.44 8 -30 8 C-30 6.68 -30 5.36 -30 4 C-20.1 4 -10.2 4 0 4 C0 2.68 0 1.36 0 0 Z M-17 96 C-17 97.32 -17 98.64 -17 100 C-15.68 100 -14.36 100 -13 100 C-13 98.68 -13 97.36 -13 96 C-14.32 96 -15.64 96 -17 96 Z M41 166 C41 167.65 41 169.3 41 171 C43.97 171 46.94 171 50 171 C50 169.35 50 167.7 50 166 C47.03 166 44.06 166 41 166 Z " fill="#000000" transform="translate(86,8)"/>
</svg>
