<?xml version="1.0" encoding="UTF-8"?>
<!-- Generator: visioncortex VTracer 0.6.12 -->
<svg version="1.1" xmlns="http://www.w3.org/2000/svg" width="65" height="98">
<path d="M0 0 C8.76 0.021 15.558 2.189 21.938 8.375 C24.634 12.857 24.822 17.284 23.938 22.375 C20.948 28.099 16.708 30.076 10.938 32.375 C11.396 32.702 11.855 33.029 12.327 33.365 C14.435 34.878 16.53 36.408 18.625 37.938 C19.346 38.451 20.067 38.965 20.811 39.494 C26.376 43.585 31.352 47.73 32.5 54.875 C31.602 60.46 30.028 63.716 25.645 67.195 C16.191 73.498 4.647 79.721 -7.062 78.375 C-10.562 76.875 -10.562 76.875 -13.062 75.375 C-13.188 73 -13.188 73 -13.062 70.375 C-12.732 70.045 -12.732 70.045 -11.062 68.375 C-9.511 68.607 -7.97 68.912 -6.438 69.25 C2.02 70.244 8.899 65.544 15.938 61.375 C17.086 60.729 18.235 60.083 19.418 59.418 C21.938 57.375 21.938 57.375 22.512 54.832 C21.325 49.756 16.485 47.011 12.283 44.312 C9.38 42.52 6.454 40.783 3.5 39.074 C2.654 38.513 1.809 37.953 0.938 37.375 C0.938 36.715 0.938 36.055 0.938 35.375 C-0.053 35.045 -1.043 34.715 -2.062 34.375 C-2.75 32.125 -2.75 32.125 -3.062 29.375 C-0.932 25.554 1.356 24.556 5.438 23.25 C8.721 22.182 11.04 21.307 13.938 19.375 C14.5 17 14.5 17 13.938 14.375 C9.521 10.4 5.686 9.567 -0.062 9.375 C-0.723 10.035 -1.383 10.695 -2.062 11.375 C-4.841 11.161 -6.614 10.674 -8.938 9.125 C-10.062 7.375 -10.062 7.375 -9.875 4.812 C-8.103 -0.503 -5.077 0.051 0 0 Z " fill="#000000" transform="translate(23.0625,9.625)"/>
</svg>
