<?xml version="1.0" encoding="UTF-8"?>
<!-- Generator: visioncortex VTracer 0.6.12 -->
<svg version="1.1" xmlns="http://www.w3.org/2000/svg" width="69" height="98">
<path d="M0 0 C1.625 2 1.625 2 2 5 C0.753 9.08 -1.317 12.774 -3.387 16.488 C-6.403 22.046 -8.321 26.629 -7 33 C-4.805 37.308 -2.203 40.556 2 43 C5.563 43.062 5.563 43.062 9 42 C15.568 34.906 18.302 25.587 19.543 16.18 C20 14 20 14 22 12 C25.125 12.375 25.125 12.375 28 13 C27.998 13.302 27.998 13.302 27.987 14.831 C27.942 21.158 27.912 27.486 27.89 33.813 C27.88 36.17 27.867 38.527 27.849 40.883 C27.825 44.284 27.813 47.685 27.805 51.086 C27.794 52.128 27.784 53.17 27.773 54.244 C27.773 60.067 28.276 65.318 29.722 70.969 C30 73 30 73 28.438 75.688 C26 77 26 77 23.438 77.062 C20.213 75.657 19.466 74.151 18 71 C17.115 68.084 16.882 65.494 16.902 62.453 C16.906 61.609 16.909 60.764 16.912 59.895 C16.916 59.458 16.916 59.458 16.938 57.25 C16.942 56.362 16.947 55.474 16.951 54.559 C16.963 52.372 16.979 50.186 17 48 C16.481 48.354 15.962 48.709 15.428 49.074 C9.733 52.825 5.847 54.22 -1 53 C-3.739 51.954 -5.552 50.728 -8 49 C-8.866 48.443 -9.733 47.886 -10.625 47.312 C-16.281 41.805 -18.347 36.604 -18.688 28.688 C-18.453 20.931 -15.876 15.572 -12 9 C-11 6 -11 6 -10.688 3.438 C-10 1 -10 1 -8.312 -0.375 C-5.131 -1.235 -3.129 -1.02 0 0 Z " fill="#000000" transform="translate(29,11)"/>
</svg>
