<?xml version="1.0" encoding="UTF-8"?>
<!-- Generator: visioncortex VTracer 0.6.12 -->
<svg version="1.1" xmlns="http://www.w3.org/2000/svg" width="163" height="226">
<path d="M0 0 C4.29 0 8.58 0 13 0 C13 1.32 13 2.64 13 4 C15.64 4 18.28 4 21 4 C21 5.32 21 6.64 21 8 C23.64 8 26.28 8 29 8 C29 13.61 29 19.22 29 25 C30.32 25 31.64 25 33 25 C33 26.32 33 27.64 33 29 C31.68 29 30.36 29 29 29 C29 38.57 29 48.14 29 58 C27.68 58 26.36 58 25 58 C25 63.61 25 69.22 25 75 C26.32 75 27.64 75 29 75 C29 77.64 29 80.28 29 83 C31.97 83 34.94 83 38 83 C38 84.32 38 85.64 38 87 C44.6 87 51.2 87 58 87 C58 85.68 58 84.36 58 83 C59.65 83 61.3 83 63 83 C63 81.68 63 80.36 63 79 C64.32 79 65.64 79 67 79 C67 76.36 67 73.72 67 71 C68.32 71 69.64 71 71 71 C71 65.39 71 59.78 71 54 C72.32 54 73.64 54 75 54 C75 51.36 75 48.72 75 46 C76.32 46 77.64 46 79 46 C79 43.03 79 40.06 79 37 C80.32 37 81.64 37 83 37 C83 35.68 83 34.36 83 33 C92.9 33 102.8 33 113 33 C113 48.18 113 63.36 113 79 C114.32 79 115.64 79 117 79 C117 92.86 117 106.72 117 121 C118.32 121 119.64 121 121 121 C121 131.89 121 142.78 121 154 C119.68 154 118.36 154 117 154 C117 155.32 117 156.64 117 158 C118.32 158 119.64 158 121 158 C121 162.29 121 166.58 121 171 C122.32 171 123.64 171 125 171 C125 177.93 125 184.86 125 192 C123.68 192 122.36 192 121 192 C121 193.32 121 194.64 121 196 C119.68 196 118.36 196 117 196 C117 197.32 117 198.64 117 200 C115.68 200 114.36 200 113 200 C113 201.32 113 202.64 113 204 C107.39 204 101.78 204 96 204 C96 202.68 96 201.36 96 200 C91.71 200 87.42 200 83 200 C83 198.68 83 197.36 83 196 C81.68 196 80.36 196 79 196 C79 193.03 79 190.06 79 187 C77.68 187 76.36 187 75 187 C75 183.04 75 179.08 75 175 C76.32 175 77.64 175 79 175 C79 173.68 79 172.36 79 171 C77.68 171 76.36 171 75 171 C75 169.68 75 168.36 75 167 C76.32 167 77.64 167 79 167 C79 157.1 79 147.2 79 137 C77.68 137 76.36 137 75 137 C75 133.04 75 129.08 75 125 C69.39 125 63.78 125 58 125 C58 126.32 58 127.64 58 129 C55.36 129 52.72 129 50 129 C50 127.68 50 126.36 50 125 C44.39 125 38.78 125 33 125 C33 123.68 33 122.36 33 121 C29.04 121 25.08 121 21 121 C21 119.68 21 118.36 21 117 C18.36 117 15.72 117 13 117 C13 115.35 13 113.7 13 112 C11.35 112 9.7 112 8 112 C8 110.68 8 109.36 8 108 C5.36 108 2.72 108 0 108 C0 105.36 0 102.72 0 100 C-1.32 100 -2.64 100 -4 100 C-4 98.68 -4 97.36 -4 96 C-5.32 96 -6.64 96 -8 96 C-8 94.68 -8 93.36 -8 92 C-9.32 92 -10.64 92 -12 92 C-12 89.03 -12 86.06 -12 83 C-13.65 83 -15.3 83 -17 83 C-17 69.47 -17 55.94 -17 42 C-15.35 42 -13.7 42 -12 42 C-12 33.75 -12 25.5 -12 17 C-10.68 17 -9.36 17 -8 17 C-8 14.03 -8 11.06 -8 8 C-6.68 8 -5.36 8 -4 8 C-4 6.68 -4 5.36 -4 4 C-2.68 4 -1.36 4 0 4 C0 2.68 0 1.36 0 0 Z M88 171 C88 173.64 88 176.28 88 179 C89.32 179 90.64 179 92 179 C92 180.32 92 181.64 92 183 C94.64 183 97.28 183 100 183 C100 179.04 100 175.08 100 171 C96.04 171 92.08 171 88 171 Z " fill="#000000" transform="translate(27,9)"/>
</svg>
