<?xml version="1.0" encoding="UTF-8"?>
<!-- Generator: visioncortex VTracer 0.6.12 -->
<svg version="1.1" xmlns="http://www.w3.org/2000/svg" width="82" height="113">
<path d="M0 0 C3.531 0.025 7.047 -0.026 10.576 -0.127 C15.141 -0.195 18.696 0.255 23 2 C23.165 3.155 23.165 3.155 24 9 C22.344 9.382 20.675 9.714 19 10 C18.835 9.835 18.835 9.835 18 9 C16 8.959 14 8.957 12 9 C11.34 10.98 10.68 12.96 10 15 C7.69 15.33 5.38 15.66 3 16 C2.835 15.34 2.835 15.34 2 12 C-10.554 9.092 -10.554 9.092 -16.25 11.75 C-20.824 15.017 -24.7 20.538 -26 26 C-26.145 29.341 -26.117 32.659 -26 36 C-22.342 37.219 -21.752 36.654 -18.375 35.062 C-10.878 31.929 -4.591 32.2 2.996 35.023 C8.085 37.504 11.306 42.17 14 47 C16.347 54.252 17.21 61.61 14.23 68.828 C8.12 79.613 -2.295 87.886 -14.078 91.34 C-20.719 92.84 -26.235 92.82 -32.27 89.387 C-35.439 86.846 -36.943 83.881 -38 80 C-38.283 76.963 -38.253 74.038 -38 71 C-35.75 69.812 -35.75 69.812 -33 69 C-30.813 69.938 -30.813 69.938 -29 72 C-27.812 75.625 -27.812 75.625 -27 79 C-26 80 -26 80 -23.062 80.312 C-14.092 80.129 -7.042 75.223 -1 69 C2.811 64.603 4.278 62.222 4.234 56.309 C3.831 52.332 2.441 48.706 1 45 C-7.194 43.556 -12.093 44.111 -19.469 47.895 C-23.617 49.706 -25.679 49.368 -30 48 C-33.249 45.817 -36.23 43.541 -38 40 C-39.021 26.608 -36.854 17.501 -28.078 7.133 C-20.98 -0.152 -9.74 -3.247 0 0 Z " fill="#000000" transform="translate(48,11)"/>
</svg>
