<?xml version="1.0" encoding="UTF-8"?>
<!-- Generator: visioncortex VTracer 0.6.12 -->
<svg version="1.1" xmlns="http://www.w3.org/2000/svg" width="165" height="244">
<path d="M0 0 C2.97 0 5.94 0 9 0 C9 1.32 9 2.64 9 4 C11.64 4 14.28 4 17 4 C17 6.64 17 9.28 17 12 C18.32 12 19.64 12 21 12 C21 13.32 21 14.64 21 16 C19.68 16 18.36 16 17 16 C17 18.97 17 21.94 17 25 C15.68 25 14.36 25 13 25 C13 28.96 13 32.92 13 37 C11.68 37 10.36 37 9 37 C9 39.64 9 42.28 9 45 C6.03 45 3.06 45 0 45 C0 46.65 0 48.3 0 50 C-13.53 50 -27.06 50 -41 50 C-41 51.32 -41 52.64 -41 54 C-42.65 54 -44.3 54 -46 54 C-46 56.64 -46 59.28 -46 62 C-47.32 62 -48.64 62 -50 62 C-50 63.32 -50 64.64 -50 66 C-51.32 66 -52.64 66 -54 66 C-54 68.97 -54 71.94 -54 75 C-41.46 75 -28.92 75 -16 75 C-16 76.32 -16 77.64 -16 79 C-10.72 79 -5.44 79 0 79 C0 80.32 0 81.64 0 83 C2.97 83 5.94 83 9 83 C9 84.32 9 85.64 9 87 C10.32 87 11.64 87 13 87 C13 88.32 13 89.64 13 91 C15.64 91 18.28 91 21 91 C21 92.32 21 93.64 21 95 C23.64 95 26.28 95 29 95 C29 97.97 29 100.94 29 104 C30.65 104 32.3 104 34 104 C34 105.32 34 106.64 34 108 C35.32 108 36.64 108 38 108 C38 110.64 38 113.28 38 116 C39.32 116 40.64 116 42 116 C42 121.61 42 127.22 42 133 C43.32 133 44.64 133 46 133 C46 136.96 46 140.92 46 145 C44.68 145 43.36 145 42 145 C42 150.61 42 156.22 42 162 C40.68 162 39.36 162 38 162 C38 166.29 38 170.58 38 175 C36.68 175 35.36 175 34 175 C34 177.64 34 180.28 34 183 C32.35 183 30.7 183 29 183 C29 185.64 29 188.28 29 191 C27.68 191 26.36 191 25 191 C25 192.32 25 193.64 25 195 C23.68 195 22.36 195 21 195 C21 197.97 21 200.94 21 204 C19.68 204 18.36 204 17 204 C17 205.32 17 206.64 17 208 C15.68 208 14.36 208 13 208 C13 209.32 13 210.64 13 212 C11.68 212 10.36 212 9 212 C9 213.32 9 214.64 9 216 C7.35 216 5.7 216 4 216 C4 217.65 4 219.3 4 221 C0.04 221 -3.92 221 -8 221 C-8 222.32 -8 223.64 -8 225 C-23.18 225 -38.36 225 -54 225 C-54 223.68 -54 222.36 -54 221 C-56.64 221 -59.28 221 -62 221 C-62 219.35 -62 217.7 -62 216 C-64.97 216 -67.94 216 -71 216 C-71 214.68 -71 213.36 -71 212 C-74.96 212 -78.92 212 -83 212 C-83 210.68 -83 209.36 -83 208 C-85.64 208 -88.28 208 -91 208 C-91 206.68 -91 205.36 -91 204 C-92.65 204 -94.3 204 -96 204 C-96 202.68 -96 201.36 -96 200 C-97.32 200 -98.64 200 -100 200 C-100 194.39 -100 188.78 -100 183 C-98.68 183 -97.36 183 -96 183 C-96 181.68 -96 180.36 -96 179 C-94.35 179 -92.7 179 -91 179 C-91 177.68 -91 176.36 -91 175 C-78.79 175 -66.58 175 -54 175 C-54 176.32 -54 177.64 -54 179 C-52.68 179 -51.36 179 -50 179 C-50 180.32 -50 181.64 -50 183 C-37.46 183 -24.92 183 -12 183 C-12 181.68 -12 180.36 -12 179 C-10.68 179 -9.36 179 -8 179 C-8 177.68 -8 176.36 -8 175 C-6.68 175 -5.36 175 -4 175 C-4 172.03 -4 169.06 -4 166 C-2.68 166 -1.36 166 0 166 C0 163.36 0 160.72 0 158 C1.32 158 2.64 158 4 158 C4 151.07 4 144.14 4 137 C2.68 137 1.36 137 0 137 C0 134.36 0 131.72 0 129 C-1.32 129 -2.64 129 -4 129 C-4 127.68 -4 126.36 -4 125 C-5.32 125 -6.64 125 -8 125 C-8 123.35 -8 121.7 -8 120 C-9.32 120 -10.64 120 -12 120 C-12 118.68 -12 117.36 -12 116 C-23.22 116 -34.44 116 -46 116 C-46 117.32 -46 118.64 -46 120 C-48.64 120 -51.28 120 -54 120 C-54 121.65 -54 123.3 -54 125 C-56.64 125 -59.28 125 -62 125 C-62 126.32 -62 127.64 -62 129 C-68.93 129 -75.86 129 -83 129 C-83 127.68 -83 126.36 -83 125 C-84.32 125 -85.64 125 -87 125 C-87 123.35 -87 121.7 -87 120 C-88.32 120 -89.64 120 -91 120 C-91 118.68 -91 117.36 -91 116 C-92.65 116 -94.3 116 -96 116 C-96 112.04 -96 108.08 -96 104 C-97.32 104 -98.64 104 -100 104 C-100 97.07 -100 90.14 -100 83 C-98.68 83 -97.36 83 -96 83 C-96 76.07 -96 69.14 -96 62 C-94.35 62 -92.7 62 -91 62 C-91 59.36 -91 56.72 -91 54 C-89.68 54 -88.36 54 -87 54 C-87 45.75 -87 37.5 -87 29 C-85.68 29 -84.36 29 -83 29 C-83 26.03 -83 23.06 -83 20 C-81.68 20 -80.36 20 -79 20 C-79 18.68 -79 17.36 -79 16 C-76.36 16 -73.72 16 -71 16 C-71 14.68 -71 13.36 -71 12 C-65.39 12 -59.78 12 -54 12 C-54 10.68 -54 9.36 -54 8 C-43.11 8 -32.22 8 -21 8 C-21 6.68 -21 5.36 -21 4 C-14.07 4 -7.14 4 0 4 C0 2.68 0 1.36 0 0 Z " fill="#000000" transform="translate(110,9)"/>
</svg>
