<?xml version="1.0" encoding="UTF-8"?>
<!-- Generator: visioncortex VTracer 0.6.12 -->
<svg version="1.1" xmlns="http://www.w3.org/2000/svg" width="77" height="122">
<path d="M0 0 C3.062 1.687 3.062 1.687 5 4 C5.625 6.937 5.625 6.937 5 10 C2.946 12.888 1.396 14.649 -2.113 15.531 C-4.066 15.781 -6.034 15.9 -8 16 C-8.99 14.68 -9.98 13.36 -11 12 C-11.784 12.825 -12.568 13.65 -13.375 14.5 C-16 17 -16 17 -18 17 C-18.276 17.574 -18.552 18.147 -18.836 18.738 C-19.989 20.979 -21.276 23.059 -22.625 25.188 C-29.899 37.329 -35.678 49.958 -38 64 C-37.67 64.33 -37.34 64.66 -37 65 C-36.319 64.402 -35.639 63.804 -34.938 63.188 C-27.319 57.514 -20.384 57.019 -11 58 C-6.85 59.218 -4.575 61.184 -2.062 64.75 C0.209 71.698 -0.813 76.868 -3.668 83.406 C-7.177 90.24 -11.036 96.441 -18 100 C-24.534 101.997 -31.764 101.813 -38.051 99.109 C-43.945 95.755 -48.619 91.442 -51 85 C-56.294 64.648 -45.22 40.847 -35.529 23.699 C-28.224 11.293 -15.853 -3.927 0 0 Z M-7 8 C-7.33 8.66 -7.66 9.32 -8 10 C-7.01 10 -6.02 10 -5 10 C-5 9.34 -5 8.68 -5 8 C-5.66 8 -6.32 8 -7 8 Z M-33.125 74.438 C-33.744 75.283 -34.362 76.129 -35 77 C-36.333 78.667 -37.667 80.333 -39 82 C-33.634 89.052 -33.634 89.052 -29 90 C-25.684 90.382 -23.11 90.276 -20 89 C-15.403 84.273 -11.27 77.957 -10.812 71.25 C-11 69 -11 69 -12 68 C-20.992 67.215 -26.946 67.35 -33.125 74.438 Z " fill="#000000" transform="translate(62,11)"/>
</svg>
