<?xml version="1.0" encoding="UTF-8"?>
<!-- Generator: visioncortex VTracer 0.6.12 -->
<svg version="1.1" xmlns="http://www.w3.org/2000/svg" width="154" height="208">
<path d="M0 0 C9.57 0 19.14 0 29 0 C29 1.65 29 3.3 29 5 C30.32 5 31.64 5 33 5 C33 13.25 33 21.5 33 30 C31.68 30 30.36 30 29 30 C29 31.32 29 32.64 29 34 C27.68 34 26.36 34 25 34 C25 35.32 25 36.64 25 38 C21.04 38 17.08 38 13 38 C13 39.32 13 40.64 13 42 C11.35 42 9.7 42 8 42 C8 43.32 8 44.64 8 46 C6.68 46 5.36 46 4 46 C4 47.32 4 48.64 4 50 C2.68 50 1.36 50 0 50 C0 51.65 0 53.3 0 55 C-1.32 55 -2.64 55 -4 55 C-4 56.32 -4 57.64 -4 59 C-5.32 59 -6.64 59 -8 59 C-8 60.32 -8 61.64 -8 63 C-9.32 63 -10.64 63 -12 63 C-12 65.64 -12 68.28 -12 71 C-13.65 71 -15.3 71 -17 71 C-17 73.97 -17 76.94 -17 80 C-18.32 80 -19.64 80 -21 80 C-21 81.32 -21 82.64 -21 84 C-16.71 84 -12.42 84 -8 84 C-8 82.68 -8 81.36 -8 80 C-2.72 80 2.56 80 8 80 C8 78.35 8 76.7 8 75 C12.29 75 16.58 75 21 75 C21 76.65 21 78.3 21 80 C29.25 80 37.5 80 46 80 C46 81.32 46 82.64 46 84 C48.64 84 51.28 84 54 84 C54 85.32 54 86.64 54 88 C55.32 88 56.64 88 58 88 C58 89.32 58 90.64 58 92 C59.65 92 61.3 92 63 92 C63 100.25 63 108.5 63 117 C64.32 117 65.64 117 67 117 C67 121.29 67 125.58 67 130 C65.68 130 64.36 130 63 130 C63 135.28 63 140.56 63 146 C61.35 146 59.7 146 58 146 C58 150.29 58 154.58 58 159 C56.68 159 55.36 159 54 159 C54 161.64 54 164.28 54 167 C52.68 167 51.36 167 50 167 C50 168.32 50 169.64 50 171 C48.68 171 47.36 171 46 171 C46 172.32 46 173.64 46 175 C44.68 175 43.36 175 42 175 C42 176.65 42 178.3 42 180 C40.68 180 39.36 180 38 180 C38 181.32 38 182.64 38 184 C33.71 184 29.42 184 25 184 C25 185.32 25 186.64 25 188 C11.14 188 -2.72 188 -17 188 C-17 186.68 -17 185.36 -17 184 C-20.96 184 -24.92 184 -29 184 C-29 182.68 -29 181.36 -29 180 C-31.64 180 -34.28 180 -37 180 C-37 178.35 -37 176.7 -37 175 C-39.97 175 -42.94 175 -46 175 C-46 173.68 -46 172.36 -46 171 C-47.32 171 -48.64 171 -50 171 C-50 169.68 -50 168.36 -50 167 C-51.32 167 -52.64 167 -54 167 C-54 165.68 -54 164.36 -54 163 C-55.32 163 -56.64 163 -58 163 C-58 160.36 -58 157.72 -58 155 C-59.32 155 -60.64 155 -62 155 C-62 148.07 -62 141.14 -62 134 C-63.65 134 -65.3 134 -67 134 C-67 128.39 -67 122.78 -67 117 C-68.32 117 -69.64 117 -71 117 C-71 114.36 -71 111.72 -71 109 C-69.68 109 -68.36 109 -67 109 C-67 102.07 -67 95.14 -67 88 C-65.35 88 -63.7 88 -62 88 C-62 85.36 -62 82.72 -62 80 C-60.68 80 -59.36 80 -58 80 C-58 74.39 -58 68.78 -58 63 C-56.68 63 -55.36 63 -54 63 C-54 60.36 -54 57.72 -54 55 C-52.68 55 -51.36 55 -50 55 C-50 52.03 -50 49.06 -50 46 C-48.68 46 -47.36 46 -46 46 C-46 44.68 -46 43.36 -46 42 C-44.68 42 -43.36 42 -42 42 C-42 39.36 -42 36.72 -42 34 C-40.35 34 -38.7 34 -37 34 C-37 32.68 -37 31.36 -37 30 C-35.68 30 -34.36 30 -33 30 C-33 28.35 -33 26.7 -33 25 C-31.68 25 -30.36 25 -29 25 C-29 23.68 -29 22.36 -29 21 C-27.68 21 -26.36 21 -25 21 C-25 19.68 -25 18.36 -25 17 C-23.68 17 -22.36 17 -21 17 C-21 15.68 -21 14.36 -21 13 C-18.03 13 -15.06 13 -12 13 C-12 11.68 -12 10.36 -12 9 C-10.68 9 -9.36 9 -8 9 C-8 7.68 -8 6.36 -8 5 C-5.36 5 -2.72 5 0 5 C0 3.35 0 1.7 0 0 Z M-12 121 C-12 123.97 -12 126.94 -12 130 C-10.68 130 -9.36 130 -8 130 C-8 132.64 -8 135.28 -8 138 C-9.32 138 -10.64 138 -12 138 C-12 140.64 -12 143.28 -12 146 C-6.72 146 -1.44 146 4 146 C4 147.32 4 148.64 4 150 C5.32 150 6.64 150 8 150 C8 148.68 8 147.36 8 146 C12.29 146 16.58 146 21 146 C21 144.68 21 143.36 21 142 C22.32 142 23.64 142 25 142 C25 139.36 25 136.72 25 134 C26.32 134 27.64 134 29 134 C29 131.03 29 128.06 29 125 C27.68 125 26.36 125 25 125 C25 123.68 25 122.36 25 121 C18.07 121 11.14 121 4 121 C4 122.32 4 123.64 4 125 C2.68 125 1.36 125 0 125 C0 126.65 0 128.3 0 130 C-1.32 130 -2.64 130 -4 130 C-4 127.03 -4 124.06 -4 121 C-6.64 121 -9.28 121 -12 121 Z " fill="#000000" transform="translate(78,10)"/>
</svg>
