<?xml version="1.0" encoding="UTF-8"?>
<!-- Generator: visioncortex VTracer 0.6.12 -->
<svg version="1.1" xmlns="http://www.w3.org/2000/svg" width="185" height="195">
<path d="M0 0 C10.89 0 21.78 0 33 0 C33 1.32 33 2.64 33 4 C34.32 4 35.64 4 37 4 C37 7.96 37 11.92 37 16 C35.68 16 34.36 16 33 16 C33 18.97 33 21.94 33 25 C31.68 25 30.36 25 29 25 C29 31.93 29 38.86 29 46 C27.68 46 26.36 46 25 46 C25 48.64 25 51.28 25 54 C23.68 54 22.36 54 21 54 C21 57.96 21 61.92 21 66 C19.35 66 17.7 66 16 66 C16 71.61 16 77.22 16 83 C25.9 83 35.8 83 46 83 C46 84.32 46 85.64 46 87 C48.64 87 51.28 87 54 87 C54 88.32 54 89.64 54 91 C55.32 91 56.64 91 58 91 C58 92.65 58 94.3 58 96 C59.32 96 60.64 96 62 96 C62 99.96 62 103.92 62 108 C60.68 108 59.36 108 58 108 C58 109.32 58 110.64 58 112 C55.36 112 52.72 112 50 112 C50 113.32 50 114.64 50 116 C45.71 116 41.42 116 37 116 C37 117.65 37 119.3 37 121 C26.11 121 15.22 121 4 121 C4 126.28 4 131.56 4 137 C6.64 137 9.28 137 12 137 C12 142.61 12 148.22 12 154 C10.68 154 9.36 154 8 154 C8 156.64 8 159.28 8 162 C6.68 162 5.36 162 4 162 C4 163.32 4 164.64 4 166 C2.68 166 1.36 166 0 166 C0 167.65 0 169.3 0 171 C-1.32 171 -2.64 171 -4 171 C-4 172.32 -4 173.64 -4 175 C-10.93 175 -17.86 175 -25 175 C-25 173.68 -25 172.36 -25 171 C-26.32 171 -27.64 171 -29 171 C-29 169.35 -29 167.7 -29 166 C-30.65 166 -32.3 166 -34 166 C-34 164.68 -34 163.36 -34 162 C-35.32 162 -36.64 162 -38 162 C-38 160.68 -38 159.36 -38 158 C-39.32 158 -40.64 158 -42 158 C-42 148.43 -42 138.86 -42 129 C-45.96 129 -49.92 129 -54 129 C-54 127.68 -54 126.36 -54 125 C-55.65 125 -57.3 125 -59 125 C-59 123.68 -59 122.36 -59 121 C-60.32 121 -61.64 121 -63 121 C-63 119.35 -63 117.7 -63 116 C-64.32 116 -65.64 116 -67 116 C-67 113.36 -67 110.72 -67 108 C-68.32 108 -69.64 108 -71 108 C-71 105.36 -71 102.72 -71 100 C-69.68 100 -68.36 100 -67 100 C-67 98.68 -67 97.36 -67 96 C-65.68 96 -64.36 96 -63 96 C-63 94.35 -63 92.7 -63 91 C-60.03 91 -57.06 91 -54 91 C-54 89.68 -54 88.36 -54 87 C-47.4 87 -40.8 87 -34 87 C-34 85.68 -34 84.36 -34 83 C-31.03 83 -28.06 83 -25 83 C-25 79.04 -25 75.08 -25 71 C-23.68 71 -22.36 71 -21 71 C-21 68.03 -21 65.06 -21 62 C-19.68 62 -18.36 62 -17 62 C-17 60.68 -17 59.36 -17 58 C-29.21 58 -41.42 58 -54 58 C-54 56.68 -54 55.36 -54 54 C-62.25 54 -70.5 54 -79 54 C-79 52.68 -79 51.36 -79 50 C-81.97 50 -84.94 50 -88 50 C-88 48.68 -88 47.36 -88 46 C-89.32 46 -90.64 46 -92 46 C-92 43.03 -92 40.06 -92 37 C-93.32 37 -94.64 37 -96 37 C-96 35.68 -96 34.36 -96 33 C-97.32 33 -98.64 33 -100 33 C-100 30.36 -100 27.72 -100 25 C-101.32 25 -102.64 25 -104 25 C-104 23.68 -104 22.36 -104 21 C-102.68 21 -101.36 21 -100 21 C-100 18.03 -100 15.06 -100 12 C-87.79 12 -75.58 12 -63 12 C-63 13.32 -63 14.64 -63 16 C-51.78 16 -40.56 16 -29 16 C-29 14.68 -29 13.36 -29 12 C-22.4 12 -15.8 12 -9 12 C-9 10.68 -9 9.36 -9 8 C-7.35 8 -5.7 8 -4 8 C-4 6.68 -4 5.36 -4 4 C-2.68 4 -1.36 4 0 4 C0 2.68 0 1.36 0 0 Z M-9 58 C-9 60.64 -9 63.28 -9 66 C-6.03 66 -3.06 66 0 66 C0 63.36 0 60.72 0 58 C-2.97 58 -5.94 58 -9 58 Z " fill="#000000" transform="translate(113,9)"/>
</svg>
