<?xml version="1.0" encoding="UTF-8"?>
<!-- Generator: visioncortex VTracer 0.6.12 -->
<svg version="1.1" xmlns="http://www.w3.org/2000/svg" width="90" height="95">
<path d="M0 0 C6.139 3.746 9.967 7.502 12.262 14.387 C13.142 24.158 11.355 32.175 8.262 41.387 C10.158 40.764 12.054 40.138 13.949 39.512 C15.005 39.164 16.061 38.816 17.148 38.457 C19.125 37.777 21.085 37.041 23.012 36.23 C25.58 35.267 26.729 35.449 29.262 36.387 C29.427 37.212 29.427 37.212 30.262 41.387 C22.048 45.871 14.73 49.44 5.262 50.387 C4.936 51.423 4.609 52.46 4.273 53.527 C3.832 54.897 3.391 56.267 2.949 57.637 C2.736 58.319 2.523 59.001 2.303 59.703 C1.092 63.425 -0.142 66.433 -2.738 69.387 C-5.551 69.262 -5.551 69.262 -8.738 68.387 C-10.738 65.574 -10.738 65.574 -11.738 62.387 C-10.934 60.484 -10.934 60.484 -9.738 58.387 C-9.022 56.807 -8.313 55.224 -7.613 53.637 C-7.26 52.838 -6.907 52.038 -6.543 51.215 C-6.277 50.612 -6.012 50.008 -5.738 49.387 C-6.601 49.306 -7.464 49.226 -8.353 49.143 C-11.557 48.84 -14.761 48.53 -17.964 48.215 C-19.349 48.08 -20.735 47.948 -22.122 47.819 C-24.116 47.634 -26.109 47.436 -28.102 47.238 C-29.301 47.123 -30.5 47.008 -31.736 46.889 C-34.738 46.387 -34.738 46.387 -37.738 44.387 C-38.051 41.887 -38.051 41.887 -37.738 39.387 C-35.738 37.387 -35.738 37.387 -33.113 37.262 C-32.33 37.303 -31.546 37.344 -30.738 37.387 C-30.738 38.047 -30.738 38.707 -30.738 39.387 C-29.89 39.375 -29.042 39.364 -28.168 39.352 C-19.624 39.286 -11.254 39.662 -2.738 40.387 C4.043 22.659 4.043 22.659 2.262 13.387 C-1.732 7.203 -9.495 4.767 -16.426 3.137 C-21.854 2.155 -27.236 2.275 -32.734 2.414 C-35.738 2.387 -35.738 2.387 -38.738 1.387 C-39.068 -0.263 -39.398 -1.913 -39.738 -3.613 C-28.423 -8.139 -10.819 -5.254 0 0 Z " fill="#000000" transform="translate(49.73828125,15.61328125)"/>
</svg>
