<?xml version="1.0" encoding="UTF-8"?>
<!-- Generator: visioncortex VTracer 0.6.12 -->
<svg version="1.1" xmlns="http://www.w3.org/2000/svg" width="157" height="203">
<path d="M0 0 C1.32 0 2.64 0 4 0 C4 1.65 4 3.3 4 5 C5.32 5 6.64 5 8 5 C8 7.64 8 10.28 8 13 C6.68 13 5.36 13 4 13 C4 15.64 4 18.28 4 21 C1.36 21 -1.28 21 -4 21 C-4 22.32 -4 23.64 -4 25 C-5.65 25 -7.3 25 -9 25 C-9 23.68 -9 22.36 -9 21 C-10.32 21 -11.64 21 -13 21 C-13 17.04 -13 13.08 -13 9 C-11.68 9 -10.36 9 -9 9 C-9 7.68 -9 6.36 -9 5 C-6.03 5 -3.06 5 0 5 C0 3.35 0 1.7 0 0 Z " fill="#000000" transform="translate(72,51)"/>
<path d="M0 0 C2.64 0 5.28 0 8 0 C8 2.97 8 5.94 8 9 C4.04 9 0.08 9 -4 9 C-4 7.68 -4 6.36 -4 5 C-2.68 5 -1.36 5 0 5 C0 3.35 0 1.7 0 0 Z " fill="#000000" transform="translate(97,76)"/>
<path d="M0 0 C11.22 0 22.44 0 34 0 C34 1.32 34 2.64 34 4 C35.32 4 36.64 4 38 4 C38 9.61 38 15.22 38 21 C36.68 21 35.36 21 34 21 C34 23.64 34 26.28 34 29 C32.68 29 31.36 29 30 29 C30 30.65 30 32.3 30 34 C20.1 34 10.2 34 0 34 C0 32.35 0 30.7 0 29 C-1.32 29 -2.64 29 -4 29 C-4 27.68 -4 26.36 -4 25 C-5.32 25 -6.64 25 -8 25 C-8 21.04 -8 17.08 -8 13 C-6.68 13 -5.36 13 -4 13 C-4 10.03 -4 7.06 -4 4 C-2.68 4 -1.36 4 0 4 C0 2.68 0 1.36 0 0 Z " fill="#000000" transform="translate(63,122)"/>
</svg>
