<?xml version="1.0" encoding="UTF-8"?>
<!-- Generator: visioncortex VTracer 0.6.12 -->
<svg version="1.1" xmlns="http://www.w3.org/2000/svg" width="67" height="97">
<path d="M0 0 C3.084 2.783 3.868 4.223 4.562 8.312 C3.819 13.184 2.324 16.356 -1 20 C-4.174 22.319 -7.542 24.143 -11 26 C-12.549 26.946 -14.092 27.903 -15.625 28.875 C-16.739 29.576 -17.852 30.278 -19 31 C-15.676 34.905 -12.316 38.76 -8.875 42.562 C-0.134 52.423 -0.134 52.423 0 59 C-1.203 63.359 -2.299 65.452 -5.875 68.25 C-13.609 72.043 -22.581 74.068 -31 72 C-36.491 70.062 -39.189 66.928 -42 62 C-44.329 55.013 -43.09 48.937 -40.227 42.293 C-39.06 40.112 -37.837 38.455 -36.188 36.625 C-34 34 -34 34 -33.938 32 C-35 30 -35 30 -36.938 27.188 C-40.708 21.36 -41.511 16.139 -40.586 9.363 C-39.664 5.645 -38.054 3.204 -35 1 C-23.935 -4.568 -10.979 -7.103 0 0 Z M-28.625 7 C-31.163 10.206 -31.632 11.94 -31.363 16.004 C-30.805 19.07 -29.676 21.392 -28 24 C-27.01 24.66 -26.02 25.32 -25 26 C-24.443 25.613 -23.886 25.227 -23.312 24.828 C-19.55 22.261 -15.909 19.873 -11.75 18 C-7.665 16.043 -5.495 13.782 -3 10 C-3.33 9.01 -3.66 8.02 -4 7 C-10.324 6.341 -14.064 7.048 -19.176 10.906 C-21 12 -21 12 -25 12 C-24.67 9.69 -24.34 7.38 -24 5 C-26 5 -26 5 -28.625 7 Z M-27 38 C-27.987 39.244 -28.964 40.495 -29.938 41.75 C-30.483 42.446 -31.028 43.142 -31.59 43.859 C-34.327 48.014 -34.344 52.098 -34 57 C-31.8 61.6 -31.8 61.6 -29 63 C-22.818 63.68 -16.529 62.999 -11 60 C-10.67 59.01 -10.34 58.02 -10 57 C-11.145 54.738 -11.145 54.738 -12.812 52.312 C-13.355 51.504 -13.898 50.696 -14.457 49.863 C-14.966 49.248 -15.475 48.634 -16 48 C-16.66 48 -17.32 48 -18 48 C-18.255 47.407 -18.51 46.814 -18.773 46.203 C-20.118 43.788 -21.492 42.488 -23.625 40.75 C-23.941 40.49 -23.941 40.49 -25.539 39.172 C-26.021 38.785 -26.503 38.398 -27 38 Z " fill="#000000" transform="translate(53,14)"/>
</svg>
