<?xml version="1.0" encoding="UTF-8"?>
<!-- Generator: visioncortex VTracer 0.6.12 -->
<svg version="1.1" xmlns="http://www.w3.org/2000/svg" width="169" height="224">
<path d="M0 0 C16.5 0 33 0 50 0 C50 1.32 50 2.64 50 4 C54.29 4 58.58 4 63 4 C63 5.32 63 6.64 63 8 C64.32 8 65.64 8 67 8 C67 9.65 67 11.3 67 13 C69.64 13 72.28 13 75 13 C75 14.32 75 15.64 75 17 C76.32 17 77.64 17 79 17 C79 18.32 79 19.64 79 21 C80.65 21 82.3 21 84 21 C84 24.96 84 28.92 84 33 C85.32 33 86.64 33 88 33 C88 34.65 88 36.3 88 38 C89.32 38 90.64 38 92 38 C92 48.89 92 59.78 92 71 C90.68 71 89.36 71 88 71 C88 81.89 88 92.78 88 104 C86.68 104 85.36 104 84 104 C84 123.47 84 142.94 84 163 C85.32 163 86.64 163 88 163 C88 166.96 88 170.92 88 175 C86.68 175 85.36 175 84 175 C84 177.64 84 180.28 84 183 C82.35 183 80.7 183 79 183 C79 185.97 79 188.94 79 192 C77.68 192 76.36 192 75 192 C75 193.32 75 194.64 75 196 C73.68 196 72.36 196 71 196 C71 197.32 71 198.64 71 200 C69.68 200 68.36 200 67 200 C67 201.32 67 202.64 67 204 C61.39 204 55.78 204 50 204 C50 202.68 50 201.36 50 200 C48.68 200 47.36 200 46 200 C46 198.68 46 197.36 46 196 C44.68 196 43.36 196 42 196 C42 193.36 42 190.72 42 188 C40.68 188 39.36 188 38 188 C38 186.35 38 184.7 38 183 C36.68 183 35.36 183 34 183 C34 172.11 34 161.22 34 150 C35.32 150 36.64 150 38 150 C38 141.75 38 133.5 38 125 C24.14 125 10.28 125 -4 125 C-4 123.68 -4 122.36 -4 121 C-6.64 121 -9.28 121 -12 121 C-12 119.68 -12 118.36 -12 117 C-14.97 117 -17.94 117 -21 117 C-21 115.68 -21 114.36 -21 113 C-23.64 113 -26.28 113 -29 113 C-29 111.35 -29 109.7 -29 108 C-30.32 108 -31.64 108 -33 108 C-33 106.68 -33 105.36 -33 104 C-34.32 104 -35.64 104 -37 104 C-37 102.68 -37 101.36 -37 100 C-38.32 100 -39.64 100 -41 100 C-41 98.68 -41 97.36 -41 96 C-42.65 96 -44.3 96 -46 96 C-46 94.68 -46 93.36 -46 92 C-47.32 92 -48.64 92 -50 92 C-50 89.03 -50 86.06 -50 83 C-51.32 83 -52.64 83 -54 83 C-54 77.72 -54 72.44 -54 67 C-55.32 67 -56.64 67 -58 67 C-58 64.03 -58 61.06 -58 58 C-56.68 58 -55.36 58 -54 58 C-54 52.72 -54 47.44 -54 42 C-52.68 42 -51.36 42 -50 42 C-50 40.68 -50 39.36 -50 38 C-48.68 38 -47.36 38 -46 38 C-46 36.35 -46 34.7 -46 33 C-44.35 33 -42.7 33 -41 33 C-41 31.68 -41 30.36 -41 29 C-39.68 29 -38.36 29 -37 29 C-37 27.68 -37 26.36 -37 25 C-35.68 25 -34.36 25 -33 25 C-33 22.36 -33 19.72 -33 17 C-30.36 17 -27.72 17 -25 17 C-25 15.68 -25 14.36 -25 13 C-22.03 13 -19.06 13 -16 13 C-16 11.35 -16 9.7 -16 8 C-13.36 8 -10.72 8 -8 8 C-8 6.68 -8 5.36 -8 4 C-5.36 4 -2.72 4 0 4 C0 2.68 0 1.36 0 0 Z M9 42 C9 43.32 9 44.64 9 46 C7.35 46 5.7 46 4 46 C4 47.32 4 48.64 4 50 C2.68 50 1.36 50 0 50 C0 51.32 0 52.64 0 54 C-1.32 54 -2.64 54 -4 54 C-4 59.61 -4 65.22 -4 71 C-2.68 71 -1.36 71 0 71 C0 73.64 0 76.28 0 79 C1.32 79 2.64 79 4 79 C4 80.32 4 81.64 4 83 C8.29 83 12.58 83 17 83 C17 81.68 17 80.36 17 79 C19.64 79 22.28 79 25 79 C25 77.68 25 76.36 25 75 C27.97 75 30.94 75 34 75 C34 72.36 34 69.72 34 67 C35.32 67 36.64 67 38 67 C38 62.71 38 58.42 38 54 C39.32 54 40.64 54 42 54 C42 52.68 42 51.36 42 50 C40.68 50 39.36 50 38 50 C38 48.68 38 47.36 38 46 C36.68 46 35.36 46 34 46 C34 44.68 34 43.36 34 42 C25.75 42 17.5 42 9 42 Z " fill="#000000" transform="translate(67,10)"/>
</svg>
