<?xml version="1.0" encoding="UTF-8"?>
<!-- Generator: visioncortex VTracer 0.6.12 -->
<svg version="1.1" xmlns="http://www.w3.org/2000/svg" width="66" height="101">
<path d="M0 0 C4.658 3.838 5.409 9.237 6.098 14.949 C6.256 16.194 6.415 17.44 6.578 18.723 C8.133 36.759 3.167 58.897 -6.09 74.574 C-11.518 74.936 -11.518 74.936 -13.965 73.387 C-15.582 70.782 -15.557 69.642 -15.09 66.574 C-14.528 65.316 -13.936 64.072 -13.328 62.836 C-10.367 56.314 -8.675 49.411 -6.84 42.512 C-6.473 41.155 -6.106 39.799 -5.738 38.443 C-4.849 35.155 -3.966 31.866 -3.09 28.574 C-4.012 28.897 -4.934 29.219 -5.884 29.551 C-13.269 31.908 -21.571 31.739 -28.652 28.512 C-33.509 25.7 -36.913 22.19 -38.691 16.727 C-39.745 11.036 -40.55 3.995 -37.277 -1.051 C-27.443 -11.728 -10.983 -5.681 0 0 Z M-28.09 5.574 C-29.965 8.574 -29.965 8.574 -31.09 11.574 C-31.42 12.234 -31.75 12.894 -32.09 13.574 C-30.333 17.181 -28.49 19.449 -25.09 21.574 C-19.1 23.571 -13.532 22.961 -7.793 20.555 C-5.122 19.017 -4.115 17.445 -3.09 14.574 C-3.277 12.012 -3.277 12.012 -4.09 9.574 C-4.296 8.852 -4.502 8.13 -4.715 7.387 C-6.96 4.427 -9.527 4.264 -13.09 3.574 C-18.354 3.079 -23.184 3.458 -28.09 5.574 Z " fill="#000000" transform="translate(49.08984375,16.42578125)"/>
</svg>
