<?xml version="1.0" encoding="UTF-8"?>
<!-- Generator: visioncortex VTracer 0.6.12 -->
<svg version="1.1" xmlns="http://www.w3.org/2000/svg" width="78" height="101">
<path d="M0 0 C3.602 5.764 4.977 10.643 4.562 17.5 C3.574 21.035 3.574 21.035 2.25 24.562 C1.821 25.729 1.391 26.896 0.949 28.098 C-0.438 31.5 -0.438 31.5 -2.168 34.621 C-3.637 37.952 -3.665 39.12 -2.438 42.5 C-1.02 44.973 -1.02 44.973 0.75 47.562 C10.562 62.504 10.562 62.504 10.562 68.5 C12.212 68.83 13.862 69.16 15.562 69.5 C16.424 71.913 16.65 73.195 15.938 75.688 C14.562 77.5 14.562 77.5 12.25 78.5 C8.422 78.5 7.285 77.148 4.562 74.5 C3.279 71.964 2.203 69.572 1.188 66.938 C-1.69 59.896 -5.075 53.758 -9.438 47.5 C-9.822 47.662 -9.822 47.662 -11.77 48.484 C-14.583 49.556 -16.457 49.822 -19.438 49.5 C-21.82 47.118 -21.758 46.45 -21.812 43.188 C-21.731 39.818 -21.454 38.53 -19.75 35.5 C-17.438 33.5 -17.438 33.5 -15.031 33.352 C-12.438 32.5 -12.438 32.5 -10.418 29.148 C-9.8 27.733 -9.203 26.307 -8.625 24.875 C-8.469 24.525 -8.469 24.525 -7.682 22.754 C-5.236 16.96 -4.476 11.63 -6.438 5.5 C-18.401 7.715 -18.401 7.715 -21.777 12.332 C-23.515 15.046 -25.104 17.735 -26.395 20.691 C-27.438 22.5 -27.438 22.5 -30.438 23.5 C-30.819 48.92 -30.819 48.92 -29.158 60.967 C-28.408 66.414 -27.711 72.016 -28.438 77.5 C-28.767 77.83 -28.767 77.83 -30.438 79.5 C-33.341 79.351 -34.906 79.01 -37.023 76.977 C-39.033 73.457 -39.29 69.964 -39.625 66 C-39.703 65.12 -39.781 64.24 -39.862 63.334 C-40.594 53.756 -40.687 44.163 -40.75 34.562 C-40.76 33.764 -40.769 32.965 -40.779 32.143 C-40.803 29.836 -40.805 27.53 -40.801 25.223 C-40.81 24.533 -40.819 23.843 -40.828 23.132 C-40.785 18.54 -39.854 15.398 -37.438 11.5 C-35.25 10.125 -35.25 10.125 -33.438 9.5 C-32.447 10.49 -31.457 11.48 -30.438 12.5 C-30.165 12.162 -30.165 12.162 -28.785 10.453 C-22.003 2.43 -10.972 -6.752 0 0 Z " fill="#000000" transform="translate(51.4375,11.5)"/>
</svg>
