<?xml version="1.0" encoding="UTF-8"?>
<!-- Generator: visioncortex VTracer 0.6.12 -->
<svg version="1.1" xmlns="http://www.w3.org/2000/svg" width="208" height="266">
<path d="M0 0 C5.61 0 11.22 0 17 0 C17 1.32 17 2.64 17 4 C18.32 4 19.64 4 21 4 C21 10.93 21 17.86 21 25 C18.36 25 15.72 25 13 25 C13 26.65 13 28.3 13 30 C11.68 30 10.36 30 9 30 C9 31.32 9 32.64 9 34 C7.68 34 6.36 34 5 34 C5 35.32 5 36.64 5 38 C3.35 38 1.7 38 0 38 C0 40.64 0 43.28 0 46 C-1.32 46 -2.64 46 -4 46 C-4 48.97 -4 51.94 -4 55 C-5.32 55 -6.64 55 -8 55 C-8 57.64 -8 60.28 -8 63 C-9.32 63 -10.64 63 -12 63 C-12 64.32 -12 65.64 -12 67 C-13.32 67 -14.64 67 -16 67 C-16 68.32 -16 69.64 -16 71 C-17.32 71 -18.64 71 -20 71 C-20 73.97 -20 76.94 -20 80 C-21.65 80 -23.3 80 -25 80 C-25 82.64 -25 85.28 -25 88 C-28.96 88 -32.92 88 -37 88 C-37 89.32 -37 90.64 -37 92 C-35.68 92 -34.36 92 -33 92 C-33 94.64 -33 97.28 -33 100 C-34.32 100 -35.64 100 -37 100 C-37 102.97 -37 105.94 -37 109 C-35.68 109 -34.36 109 -33 109 C-33 110.32 -33 111.64 -33 113 C-31.68 113 -30.36 113 -29 113 C-29 115.64 -29 118.28 -29 121 C-27.68 121 -26.36 121 -25 121 C-25 127.93 -25 134.86 -25 142 C-23.35 142 -21.7 142 -20 142 C-20 140.68 -20 139.36 -20 138 C-18.68 138 -17.36 138 -16 138 C-16 140.64 -16 143.28 -16 146 C-14.68 146 -13.36 146 -12 146 C-12 148.97 -12 151.94 -12 155 C-10.68 155 -9.36 155 -8 155 C-8 158.96 -8 162.92 -8 167 C-6.68 167 -5.36 167 -4 167 C-4 173.93 -4 180.86 -4 188 C-2.68 188 -1.36 188 0 188 C0 191.96 0 195.92 0 200 C1.65 200 3.3 200 5 200 C5 202.97 5 205.94 5 209 C6.32 209 7.64 209 9 209 C9 210.32 9 211.64 9 213 C12.96 213 16.92 213 21 213 C21 211.68 21 210.36 21 209 C22.32 209 23.64 209 25 209 C25 206.03 25 203.06 25 200 C26.65 200 28.3 200 30 200 C30 197.36 30 194.72 30 192 C32.64 192 35.28 192 38 192 C38 190.68 38 189.36 38 188 C40.64 188 43.28 188 46 188 C46 189.32 46 190.64 46 192 C47.32 192 48.64 192 50 192 C50 193.32 50 194.64 50 196 C51.65 196 53.3 196 55 196 C55 198.97 55 201.94 55 205 C53.35 205 51.7 205 50 205 C50 207.64 50 210.28 50 213 C48.68 213 47.36 213 46 213 C46 215.64 46 218.28 46 221 C44.68 221 43.36 221 42 221 C42 222.32 42 223.64 42 225 C40.68 225 39.36 225 38 225 C38 227.97 38 230.94 38 234 C36.68 234 35.36 234 34 234 C34 235.32 34 236.64 34 238 C32.68 238 31.36 238 30 238 C30 239.32 30 240.64 30 242 C21.75 242 13.5 242 5 242 C5 240.68 5 239.36 5 238 C2.03 238 -0.94 238 -4 238 C-4 236.68 -4 235.36 -4 234 C-5.32 234 -6.64 234 -8 234 C-8 232.68 -8 231.36 -8 230 C-9.32 230 -10.64 230 -12 230 C-12 228.35 -12 226.7 -12 225 C-13.32 225 -14.64 225 -16 225 C-16 223.68 -16 222.36 -16 221 C-17.32 221 -18.64 221 -20 221 C-20 218.36 -20 215.72 -20 213 C-21.65 213 -23.3 213 -25 213 C-25 208.71 -25 204.42 -25 200 C-26.32 200 -27.64 200 -29 200 C-29 196.04 -29 192.08 -29 188 C-30.32 188 -31.64 188 -33 188 C-33 182.39 -33 176.78 -33 171 C-34.32 171 -35.64 171 -37 171 C-37 168.36 -37 165.72 -37 163 C-38.32 163 -39.64 163 -41 163 C-41 156.07 -41 149.14 -41 142 C-42.32 142 -43.64 142 -45 142 C-45 139.36 -45 136.72 -45 134 C-47.97 134 -50.94 134 -54 134 C-54 132.68 -54 131.36 -54 130 C-59.28 130 -64.56 130 -70 130 C-70 131.32 -70 132.64 -70 134 C-71.65 134 -73.3 134 -75 134 C-75 135.32 -75 136.64 -75 138 C-76.32 138 -77.64 138 -79 138 C-79 139.32 -79 140.64 -79 142 C-80.32 142 -81.64 142 -83 142 C-83 143.32 -83 144.64 -83 146 C-86.96 146 -90.92 146 -95 146 C-95 148.97 -95 151.94 -95 155 C-96.65 155 -98.3 155 -100 155 C-100 174.14 -100 193.28 -100 213 C-98.35 213 -96.7 213 -95 213 C-95 219.93 -95 226.86 -95 234 C-96.65 234 -98.3 234 -100 234 C-100 237.96 -100 241.92 -100 246 C-106.6 246 -113.2 246 -120 246 C-120 243.36 -120 240.72 -120 238 C-121.65 238 -123.3 238 -125 238 C-125 235.36 -125 232.72 -125 230 C-123.35 230 -121.7 230 -120 230 C-120 224.39 -120 218.78 -120 213 C-121.65 213 -123.3 213 -125 213 C-125 210.36 -125 207.72 -125 205 C-123.35 205 -121.7 205 -120 205 C-120 199.39 -120 193.78 -120 188 C-121.65 188 -123.3 188 -125 188 C-125 186.68 -125 185.36 -125 184 C-123.35 184 -121.7 184 -120 184 C-120 182.68 -120 181.36 -120 180 C-118.68 180 -117.36 180 -116 180 C-116 181.32 -116 182.64 -116 184 C-114.68 184 -113.36 184 -112 184 C-112 182.68 -112 181.36 -112 180 C-110.68 180 -109.36 180 -108 180 C-108 177.03 -108 174.06 -108 171 C-111.96 171 -115.92 171 -120 171 C-120 161.43 -120 151.86 -120 142 C-121.65 142 -123.3 142 -125 142 C-125 118.57 -125 95.14 -125 71 C-126.32 71 -127.64 71 -129 71 C-129 58.79 -129 46.58 -129 34 C-130.32 34 -131.64 34 -133 34 C-133 25.75 -133 17.5 -133 9 C-130.36 9 -127.72 9 -125 9 C-125 7.35 -125 5.7 -125 4 C-120.71 4 -116.42 4 -112 4 C-112 6.97 -112 9.94 -112 13 C-110.68 13 -109.36 13 -108 13 C-108 28.18 -108 43.36 -108 59 C-106.68 59 -105.36 59 -104 59 C-104 68.57 -104 78.14 -104 88 C-102.68 88 -101.36 88 -100 88 C-100 94.93 -100 101.86 -100 109 C-95.71 109 -91.42 109 -87 109 C-87 107.68 -87 106.36 -87 105 C-85.68 105 -84.36 105 -83 105 C-83 103.35 -83 101.7 -83 100 C-80.36 100 -77.72 100 -75 100 C-75 98.68 -75 97.36 -75 96 C-70.71 96 -66.42 96 -62 96 C-62 93.36 -62 90.72 -62 88 C-59.36 88 -56.72 88 -54 88 C-54 83.71 -54 79.42 -54 75 C-52.68 75 -51.36 75 -50 75 C-50 73.68 -50 72.36 -50 71 C-48.35 71 -46.7 71 -45 71 C-45 68.36 -45 65.72 -45 63 C-43.68 63 -42.36 63 -41 63 C-41 60.36 -41 57.72 -41 55 C-39.68 55 -38.36 55 -37 55 C-37 53.35 -37 51.7 -37 50 C-35.68 50 -34.36 50 -33 50 C-33 47.36 -33 44.72 -33 42 C-31.68 42 -30.36 42 -29 42 C-29 39.36 -29 36.72 -29 34 C-27.68 34 -26.36 34 -25 34 C-25 32.68 -25 31.36 -25 30 C-23.35 30 -21.7 30 -20 30 C-20 27.03 -20 24.06 -20 21 C-18.68 21 -17.36 21 -16 21 C-16 19.68 -16 18.36 -16 17 C-14.68 17 -13.36 17 -12 17 C-12 18.32 -12 19.64 -12 21 C-9.36 21 -6.72 21 -4 21 C-4 18.36 -4 15.72 -4 13 C-5.32 13 -6.64 13 -8 13 C-8 11.68 -8 10.36 -8 9 C-6.68 9 -5.36 9 -4 9 C-4 7.35 -4 5.7 -4 4 C-2.68 4 -1.36 4 0 4 C0 2.68 0 1.36 0 0 Z M-29 63 C-29 64.32 -29 65.64 -29 67 C-27.68 67 -26.36 67 -25 67 C-25 65.68 -25 64.36 -25 63 C-26.32 63 -27.64 63 -29 63 Z M-116 71 C-116 73.97 -116 76.94 -116 80 C-113.36 80 -110.72 80 -108 80 C-108 77.03 -108 74.06 -108 71 C-110.64 71 -113.28 71 -116 71 Z M-116 100 C-116 101.65 -116 103.3 -116 105 C-113.36 105 -110.72 105 -108 105 C-108 103.35 -108 101.7 -108 100 C-110.64 100 -113.28 100 -116 100 Z M-70 117 C-70 118.32 -70 119.64 -70 121 C-68.68 121 -67.36 121 -66 121 C-66 122.32 -66 123.64 -66 125 C-64.68 125 -63.36 125 -62 125 C-62 122.36 -62 119.72 -62 117 C-64.64 117 -67.28 117 -70 117 Z M34 209 C34 210.32 34 211.64 34 213 C37.96 213 41.92 213 46 213 C46 211.68 46 210.36 46 209 C42.04 209 38.08 209 34 209 Z M0 225 C0 227.97 0 230.94 0 234 C1.65 234 3.3 234 5 234 C5 232.68 5 231.36 5 230 C6.32 230 7.64 230 9 230 C9 228.35 9 226.7 9 225 C6.03 225 3.06 225 0 225 Z M13 225 C13 226.65 13 228.3 13 230 C11.68 230 10.36 230 9 230 C9 231.32 9 232.64 9 234 C12.96 234 16.92 234 21 234 C21 232.68 21 231.36 21 230 C19.68 230 18.36 230 17 230 C17 228.35 17 226.7 17 225 C15.68 225 14.36 225 13 225 Z " fill="#000000" transform="translate(143,10)"/>
<path d="M0 0 C1.65 0 3.3 0 5 0 C5 1.65 5 3.3 5 5 C3.35 5 1.7 5 0 5 C0 3.35 0 1.7 0 0 Z " fill="#000000" transform="translate(18,185)"/>
</svg>
