<?xml version="1.0" encoding="UTF-8"?>
<!-- Generator: visioncortex VTracer 0.6.12 -->
<svg version="1.1" xmlns="http://www.w3.org/2000/svg" width="110" height="101">
<path d="M0 0 C0.307 0.136 0.307 0.136 1.863 0.824 C2.028 1.319 2.028 1.319 2.863 3.824 C-2.558 11.869 -9.729 15.172 -19.016 17.266 C-23.707 18.105 -28.385 18.523 -33.137 18.824 C-33.129 19.153 -33.129 19.153 -33.088 20.818 C-32.954 31.498 -33.632 42.121 -34.309 52.776 C-34.514 56.042 -34.704 59.309 -34.895 62.576 C-35.024 64.652 -35.154 66.729 -35.285 68.805 C-35.34 69.782 -35.396 70.759 -35.453 71.765 C-35.513 72.664 -35.573 73.563 -35.634 74.489 C-35.683 75.28 -35.732 76.072 -35.782 76.887 C-36.137 78.824 -36.137 78.824 -38.137 80.824 C-40.637 81.137 -40.637 81.137 -43.137 80.824 C-45.593 77.139 -45.394 75.298 -45.402 70.902 C-45.404 70.558 -45.404 70.558 -45.41 68.814 C-45.414 66.567 -45.401 64.321 -45.387 62.074 C-45.385 61.314 -45.383 60.553 -45.381 59.77 C-45.346 46.709 -44.617 33.806 -43.137 20.824 C-43.539 20.945 -43.539 20.945 -45.574 21.559 C-53.894 23.931 -62.232 25.68 -70.762 27.137 C-71.805 27.32 -72.847 27.503 -73.922 27.692 C-74.913 27.856 -75.904 28.019 -76.926 28.188 C-77.81 28.335 -78.693 28.482 -79.604 28.634 C-82.318 28.838 -84.506 28.477 -87.137 27.824 C-87.137 26.174 -87.137 24.524 -87.137 22.824 C-83.313 21.163 -79.59 20.171 -75.512 19.324 C-74.892 19.195 -74.892 19.195 -71.758 18.543 C-68.701 17.936 -65.643 17.365 -62.574 16.824 C-61.704 16.662 -60.834 16.499 -59.938 16.332 C-57.878 15.959 -55.812 15.626 -53.742 15.316 C-45.073 13.779 -45.073 13.779 -42.203 10.852 C-40.974 8.878 -39.975 6.99 -39.137 4.824 C-38.312 4.989 -38.312 4.989 -34.137 5.824 C-33.972 6.649 -33.972 6.649 -33.137 10.824 C-22.64 9.773 -13.895 8.508 -5.324 2.012 C-2.137 -0.176 -2.137 -0.176 0 0 Z " fill="#000000" transform="translate(97.13671875,10.17578125)"/>
</svg>
