<?xml version="1.0" encoding="UTF-8"?>
<!-- Generator: visioncortex VTracer 0.6.12 -->
<svg version="1.1" xmlns="http://www.w3.org/2000/svg" width="199" height="221">
<path d="M0 0 C5.28 0 10.56 0 16 0 C16 1.65 16 3.3 16 5 C24.25 5 32.5 5 41 5 C41 6.32 41 7.64 41 9 C43.97 9 46.94 9 50 9 C50 10.32 50 11.64 50 13 C53.96 13 57.92 13 62 13 C62 14.32 62 15.64 62 17 C66.29 17 70.58 17 75 17 C75 18.32 75 19.64 75 21 C76.32 21 77.64 21 79 21 C79 22.32 79 23.64 79 25 C80.32 25 81.64 25 83 25 C83 26.65 83 28.3 83 30 C84.32 30 85.64 30 87 30 C87 33.96 87 37.92 87 42 C88.32 42 89.64 42 91 42 C91 44.64 91 47.28 91 50 C92.65 50 94.3 50 96 50 C96 52.97 96 55.94 96 59 C97.32 59 98.64 59 100 59 C100 78.14 100 97.28 100 117 C98.68 117 97.36 117 96 117 C96 121.29 96 125.58 96 130 C94.35 130 92.7 130 91 130 C91 132.64 91 135.28 91 138 C89.68 138 88.36 138 87 138 C87 141.96 87 145.92 87 150 C85.68 150 84.36 150 83 150 C83 152.97 83 155.94 83 159 C81.68 159 80.36 159 79 159 C79 161.64 79 164.28 79 167 C77.68 167 76.36 167 75 167 C75 168.32 75 169.64 75 171 C73.68 171 72.36 171 71 171 C71 172.32 71 173.64 71 175 C69.35 175 67.7 175 66 175 C66 176.65 66 178.3 66 180 C64.68 180 63.36 180 62 180 C62 181.32 62 182.64 62 184 C60.68 184 59.36 184 58 184 C58 185.32 58 186.64 58 188 C55.36 188 52.72 188 50 188 C50 189.32 50 190.64 50 192 C48.68 192 47.36 192 46 192 C46 193.32 46 194.64 46 196 C44.35 196 42.7 196 41 196 C41 197.32 41 198.64 41 200 C37.04 200 33.08 200 29 200 C29 201.65 29 203.3 29 205 C23.39 205 17.78 205 12 205 C12 203.35 12 201.7 12 200 C6.72 200 1.44 200 -4 200 C-4 198.68 -4 197.36 -4 196 C-9.61 196 -15.22 196 -21 196 C-21 194.68 -21 193.36 -21 192 C-25.29 192 -29.58 192 -34 192 C-34 190.68 -34 189.36 -34 188 C-35.32 188 -36.64 188 -38 188 C-38 186.68 -38 185.36 -38 184 C-40.64 184 -43.28 184 -46 184 C-46 182.68 -46 181.36 -46 180 C-47.32 180 -48.64 180 -50 180 C-50 178.35 -50 176.7 -50 175 C-52.97 175 -55.94 175 -59 175 C-59 173.68 -59 172.36 -59 171 C-60.32 171 -61.64 171 -63 171 C-63 168.36 -63 165.72 -63 163 C-64.32 163 -65.64 163 -67 163 C-67 160.36 -67 157.72 -67 155 C-68.32 155 -69.64 155 -71 155 C-71 150.71 -71 146.42 -71 142 C-72.32 142 -73.64 142 -75 142 C-75 135.07 -75 128.14 -75 121 C-76.32 121 -77.64 121 -79 121 C-79 100.54 -79 80.08 -79 59 C-77.68 59 -76.36 59 -75 59 C-75 54.71 -75 50.42 -75 46 C-73.68 46 -72.36 46 -71 46 C-71 44.68 -71 43.36 -71 42 C-69.68 42 -68.36 42 -67 42 C-67 40.68 -67 39.36 -67 38 C-65.68 38 -64.36 38 -63 38 C-63 36.68 -63 35.36 -63 34 C-61.68 34 -60.36 34 -59 34 C-59 32.68 -59 31.36 -59 30 C-57.35 30 -55.7 30 -54 30 C-54 28.35 -54 26.7 -54 25 C-50.04 25 -46.08 25 -42 25 C-42 23.68 -42 22.36 -42 21 C-39.36 21 -36.72 21 -34 21 C-34 19.68 -34 18.36 -34 17 C-32.35 17 -30.7 17 -29 17 C-29 15.68 -29 14.36 -29 13 C-26.36 13 -23.72 13 -21 13 C-21 11.68 -21 10.36 -21 9 C-18.36 9 -15.72 9 -13 9 C-13 7.68 -13 6.36 -13 5 C-8.71 5 -4.42 5 0 5 C0 3.35 0 1.7 0 0 Z M-13 17 C-13 18.32 -13 19.64 -13 21 C-11.68 21 -10.36 21 -9 21 C-9 19.68 -9 18.36 -9 17 C-10.32 17 -11.64 17 -13 17 Z M-21 21 C-21 22.32 -21 23.64 -21 25 C-19.68 25 -18.36 25 -17 25 C-17 23.68 -17 22.36 -17 21 C-18.32 21 -19.64 21 -21 21 Z M-29 25 C-29 26.65 -29 28.3 -29 30 C-27.68 30 -26.36 30 -25 30 C-25 28.35 -25 26.7 -25 25 C-26.32 25 -27.64 25 -29 25 Z M16 30 C16 31.32 16 32.64 16 34 C12.04 34 8.08 34 4 34 C4 35.32 4 36.64 4 38 C1.36 38 -1.28 38 -4 38 C-4 39.32 -4 40.64 -4 42 C-5.65 42 -7.3 42 -9 42 C-9 40.68 -9 39.36 -9 38 C-10.32 38 -11.64 38 -13 38 C-13 36.68 -13 35.36 -13 34 C-14.32 34 -15.64 34 -17 34 C-17 35.32 -17 36.64 -17 38 C-18.32 38 -19.64 38 -21 38 C-21 39.32 -21 40.64 -21 42 C-19.68 42 -18.36 42 -17 42 C-17 43.32 -17 44.64 -17 46 C-15.68 46 -14.36 46 -13 46 C-13 47.32 -13 48.64 -13 50 C-15.64 50 -18.28 50 -21 50 C-21 51.65 -21 53.3 -21 55 C-22.32 55 -23.64 55 -25 55 C-25 56.32 -25 57.64 -25 59 C-26.32 59 -27.64 59 -29 59 C-29 60.32 -29 61.64 -29 63 C-30.65 63 -32.3 63 -34 63 C-34 65.64 -34 68.28 -34 71 C-35.32 71 -36.64 71 -38 71 C-38 73.97 -38 76.94 -38 80 C-39.32 80 -40.64 80 -42 80 C-42 82.64 -42 85.28 -42 88 C-43.32 88 -44.64 88 -46 88 C-46 103.18 -46 118.36 -46 134 C-44.68 134 -43.36 134 -42 134 C-42 135.32 -42 136.64 -42 138 C-40.68 138 -39.36 138 -38 138 C-38 139.32 -38 140.64 -38 142 C-36.68 142 -35.36 142 -34 142 C-34 144.64 -34 147.28 -34 150 C-32.35 150 -30.7 150 -29 150 C-29 151.65 -29 153.3 -29 155 C-27.68 155 -26.36 155 -25 155 C-25 156.32 -25 157.64 -25 159 C-22.36 159 -19.72 159 -17 159 C-17 160.32 -17 161.64 -17 163 C-15.68 163 -14.36 163 -13 163 C-13 164.32 -13 165.64 -13 167 C-10.03 167 -7.06 167 -4 167 C-4 168.32 -4 169.64 -4 171 C6.89 171 17.78 171 29 171 C29 169.68 29 168.36 29 167 C31.64 167 34.28 167 37 167 C37 165.68 37 164.36 37 163 C38.32 163 39.64 163 41 163 C41 161.68 41 160.36 41 159 C42.65 159 44.3 159 46 159 C46 157.68 46 156.36 46 155 C47.32 155 48.64 155 50 155 C50 153.35 50 151.7 50 150 C51.32 150 52.64 150 54 150 C54 147.36 54 144.72 54 142 C55.32 142 56.64 142 58 142 C58 140.68 58 139.36 58 138 C59.32 138 60.64 138 62 138 C62 135.36 62 132.72 62 130 C63.32 130 64.64 130 66 130 C66 127.03 66 124.06 66 121 C67.65 121 69.3 121 71 121 C71 118.36 71 115.72 71 113 C72.32 113 73.64 113 75 113 C75 102.11 75 91.22 75 80 C73.68 80 72.36 80 71 80 C71 75.71 71 71.42 71 67 C69.35 67 67.7 67 66 67 C66 64.36 66 61.72 66 59 C64.68 59 63.36 59 62 59 C62 57.68 62 56.36 62 55 C60.68 55 59.36 55 58 55 C58 52.03 58 49.06 58 46 C56.68 46 55.36 46 54 46 C54 44.68 54 43.36 54 42 C52.68 42 51.36 42 50 42 C50 40.68 50 39.36 50 38 C47.03 38 44.06 38 41 38 C41 36.68 41 35.36 41 34 C37.04 34 33.08 34 29 34 C29 32.68 29 31.36 29 30 C24.71 30 20.42 30 16 30 Z M-42 42 C-42 43.32 -42 44.64 -42 46 C-40.68 46 -39.36 46 -38 46 C-38 44.68 -38 43.36 -38 42 C-39.32 42 -40.64 42 -42 42 Z M-38 55 C-38 56.32 -38 57.64 -38 59 C-36.68 59 -35.36 59 -34 59 C-34 57.68 -34 56.36 -34 55 C-35.32 55 -36.64 55 -38 55 Z M-59 134 C-59 135.32 -59 136.64 -59 138 C-57.35 138 -55.7 138 -54 138 C-54 136.68 -54 135.36 -54 134 C-55.65 134 -57.3 134 -59 134 Z M-59 142 C-59 143.32 -59 144.64 -59 146 C-57.35 146 -55.7 146 -54 146 C-54 144.68 -54 143.36 -54 142 C-55.65 142 -57.3 142 -59 142 Z M62 150 C62 151.65 62 153.3 62 155 C64.97 155 67.94 155 71 155 C71 153.35 71 151.7 71 150 C68.03 150 65.06 150 62 150 Z M54 167 C54 169.64 54 172.28 54 175 C56.64 175 59.28 175 62 175 C62 173.68 62 172.36 62 171 C60.68 171 59.36 171 58 171 C58 169.68 58 168.36 58 167 C56.68 167 55.36 167 54 167 Z M16 180 C16 181.32 16 182.64 16 184 C18.97 184 21.94 184 25 184 C25 182.68 25 181.36 25 180 C22.03 180 19.06 180 16 180 Z M37 180 C37 181.32 37 182.64 37 184 C38.32 184 39.64 184 41 184 C41 182.68 41 181.36 41 180 C39.68 180 38.36 180 37 180 Z M46 184 C46 185.32 46 186.64 46 188 C47.32 188 48.64 188 50 188 C50 186.68 50 185.36 50 184 C48.68 184 47.36 184 46 184 Z M29 188 C29 189.32 29 190.64 29 192 C31.64 192 34.28 192 37 192 C37 190.68 37 189.36 37 188 C34.36 188 31.72 188 29 188 Z " fill="#000000" transform="translate(89,6)"/>
</svg>
