<?xml version="1.0" encoding="UTF-8"?>
<!-- Generator: visioncortex VTracer 0.6.12 -->
<svg version="1.1" xmlns="http://www.w3.org/2000/svg" width="191" height="230">
<path d="M0 0 C4.29 0 8.58 0 13 0 C13 1.65 13 3.3 13 5 C14.32 5 15.64 5 17 5 C17 13.25 17 21.5 17 30 C15.68 30 14.36 30 13 30 C13 60.03 13 90.06 13 121 C11.68 121 10.36 121 9 121 C9 137.5 9 154 9 171 C7.68 171 6.36 171 5 171 C5 173.97 5 176.94 5 180 C3.35 180 1.7 180 0 180 C0 178.35 0 176.7 0 175 C-3.96 175 -7.92 175 -12 175 C-12 176.65 -12 178.3 -12 180 C-9.36 180 -6.72 180 -4 180 C-4 181.32 -4 182.64 -4 184 C-2.68 184 -1.36 184 0 184 C0 187.96 0 191.92 0 196 C-5.28 196 -10.56 196 -16 196 C-16 194.68 -16 193.36 -16 192 C-18.97 192 -21.94 192 -25 192 C-25 188.04 -25 184.08 -25 180 C-26.32 180 -27.64 180 -29 180 C-29 178.35 -29 176.7 -29 175 C-30.32 175 -31.64 175 -33 175 C-33 172.36 -33 169.72 -33 167 C-34.32 167 -35.64 167 -37 167 C-37 164.36 -37 161.72 -37 159 C-38.32 159 -39.64 159 -41 159 C-41 156.03 -41 153.06 -41 150 C-42.32 150 -43.64 150 -45 150 C-45 147.36 -45 144.72 -45 142 C-46.65 142 -48.3 142 -50 142 C-50 140.68 -50 139.36 -50 138 C-51.32 138 -52.64 138 -54 138 C-54 133.71 -54 129.42 -54 125 C-55.32 125 -56.64 125 -58 125 C-58 123.68 -58 122.36 -58 121 C-59.32 121 -60.64 121 -62 121 C-62 118.36 -62 115.72 -62 113 C-63.32 113 -64.64 113 -66 113 C-66 110.36 -66 107.72 -66 105 C-67.65 105 -69.3 105 -71 105 C-71 119.85 -71 134.7 -71 150 C-72.32 150 -73.64 150 -75 150 C-75 156.93 -75 163.86 -75 171 C-76.32 171 -77.64 171 -79 171 C-79 173.97 -79 176.94 -79 180 C-80.32 180 -81.64 180 -83 180 C-83 182.64 -83 185.28 -83 188 C-84.32 188 -85.64 188 -87 188 C-87 189.32 -87 190.64 -87 192 C-88.32 192 -89.64 192 -91 192 C-91 193.32 -91 194.64 -91 196 C-92.65 196 -94.3 196 -96 196 C-96 197.32 -96 198.64 -96 200 C-97.32 200 -98.64 200 -100 200 C-100 201.65 -100 203.3 -100 205 C-101.32 205 -102.64 205 -104 205 C-104 206.32 -104 207.64 -104 209 C-114.89 209 -125.78 209 -137 209 C-137 207.68 -137 206.36 -137 205 C-139.97 205 -142.94 205 -146 205 C-146 202.03 -146 199.06 -146 196 C-147.32 196 -148.64 196 -150 196 C-150 192.04 -150 188.08 -150 184 C-151.32 184 -152.64 184 -154 184 C-154 177.07 -154 170.14 -154 163 C-152.68 163 -151.36 163 -150 163 C-150 157.39 -150 151.78 -150 146 C-148.68 146 -147.36 146 -146 146 C-146 144.68 -146 143.36 -146 142 C-141.71 142 -137.42 142 -133 142 C-133 140.68 -133 139.36 -133 138 C-131.68 138 -130.36 138 -129 138 C-129 139.32 -129 140.64 -129 142 C-127.68 142 -126.36 142 -125 142 C-125 144.64 -125 147.28 -125 150 C-127.64 150 -130.28 150 -133 150 C-133 151.65 -133 153.3 -133 155 C-131.68 155 -130.36 155 -129 155 C-129 161.6 -129 168.2 -129 175 C-127.68 175 -126.36 175 -125 175 C-125 176.65 -125 178.3 -125 180 C-123.68 180 -122.36 180 -121 180 C-121 181.32 -121 182.64 -121 184 C-119.35 184 -117.7 184 -116 184 C-116 182.68 -116 181.36 -116 180 C-113.36 180 -110.72 180 -108 180 C-108 178.35 -108 176.7 -108 175 C-106.68 175 -105.36 175 -104 175 C-104 172.36 -104 169.72 -104 167 C-102.68 167 -101.36 167 -100 167 C-100 161.39 -100 155.78 -100 150 C-98.68 150 -97.36 150 -96 150 C-96 136.47 -96 122.94 -96 109 C-94.35 109 -92.7 109 -91 109 C-91 95.14 -91 81.28 -91 67 C-92.65 67 -94.3 67 -96 67 C-96 56.11 -96 45.22 -96 34 C-97.32 34 -98.64 34 -100 34 C-100 29.71 -100 25.42 -100 21 C-98.68 21 -97.36 21 -96 21 C-96 19.68 -96 18.36 -96 17 C-91.71 17 -87.42 17 -83 17 C-83 15.68 -83 14.36 -83 13 C-80.36 13 -77.72 13 -75 13 C-75 14.32 -75 15.64 -75 17 C-73.68 17 -72.36 17 -71 17 C-71 21.29 -71 25.58 -71 30 C-69.35 30 -67.7 30 -66 30 C-66 35.28 -66 40.56 -66 46 C-64.68 46 -63.36 46 -62 46 C-62 50.29 -62 54.58 -62 59 C-60.68 59 -59.36 59 -58 59 C-58 61.64 -58 64.28 -58 67 C-56.68 67 -55.36 67 -54 67 C-54 71.29 -54 75.58 -54 80 C-52.68 80 -51.36 80 -50 80 C-50 82.64 -50 85.28 -50 88 C-48.35 88 -46.7 88 -45 88 C-45 90.64 -45 93.28 -45 96 C-43.68 96 -42.36 96 -41 96 C-41 97.32 -41 98.64 -41 100 C-39.68 100 -38.36 100 -37 100 C-37 102.97 -37 105.94 -37 109 C-35.68 109 -34.36 109 -33 109 C-33 111.64 -33 114.28 -33 117 C-31.68 117 -30.36 117 -29 117 C-29 121.29 -29 125.58 -29 130 C-27.68 130 -26.36 130 -25 130 C-25 131.32 -25 132.64 -25 134 C-23.35 134 -21.7 134 -20 134 C-20 131.03 -20 128.06 -20 125 C-18.68 125 -17.36 125 -16 125 C-16 114.11 -16 103.22 -16 92 C-14.68 92 -13.36 92 -12 92 C-12 65.93 -12 39.86 -12 13 C-10.68 13 -9.36 13 -8 13 C-8 10.36 -8 7.72 -8 5 C-5.36 5 -2.72 5 0 5 C0 3.35 0 1.7 0 0 Z M-4 59 C-4 62.96 -4 66.92 -4 71 C-1.03 71 1.94 71 5 71 C5 69.68 5 68.36 5 67 C3.35 67 1.7 67 0 67 C0 65.68 0 64.36 0 63 C1.65 63 3.3 63 5 63 C5 61.68 5 60.36 5 59 C2.03 59 -0.94 59 -4 59 Z M-79 100 C-79 101.65 -79 103.3 -79 105 C-77.68 105 -76.36 105 -75 105 C-75 103.35 -75 101.7 -75 100 C-76.32 100 -77.64 100 -79 100 Z M-37 130 C-37 131.32 -37 132.64 -37 134 C-38.32 134 -39.64 134 -41 134 C-41 135.32 -41 136.64 -41 138 C-38.36 138 -35.72 138 -33 138 C-33 135.36 -33 132.72 -33 130 C-34.32 130 -35.64 130 -37 130 Z M-8 146 C-8 148.97 -8 151.94 -8 155 C-5.36 155 -2.72 155 0 155 C0 152.03 0 149.06 0 146 C-2.64 146 -5.28 146 -8 146 Z M-4 163 C-4 165.64 -4 168.28 -4 171 C-2.68 171 -1.36 171 0 171 C0 168.36 0 165.72 0 163 C-1.32 163 -2.64 163 -4 163 Z M-20 180 C-20 181.32 -20 182.64 -20 184 C-18.68 184 -17.36 184 -16 184 C-16 182.68 -16 181.36 -16 180 C-17.32 180 -18.64 180 -20 180 Z M-108 192 C-108 193.32 -108 194.64 -108 196 C-105.36 196 -102.72 196 -100 196 C-100 194.68 -100 193.36 -100 192 C-102.64 192 -105.28 192 -108 192 Z " fill="#000000" transform="translate(164,10)"/>
</svg>
