<?xml version="1.0" encoding="UTF-8"?>
<!-- Generator: visioncortex VTracer 0.6.12 -->
<svg version="1.1" xmlns="http://www.w3.org/2000/svg" width="208" height="211">
<path d="M0 0 C2.64 0 5.28 0 8 0 C8 1.32 8 2.64 8 4 C9.32 4 10.64 4 12 4 C12 5.32 12 6.64 12 8 C13.65 8 15.3 8 17 8 C17 16.25 17 24.5 17 33 C18.32 33 19.64 33 21 33 C21 38.61 21 44.22 21 50 C19.68 50 18.36 50 17 50 C17 76.07 17 102.14 17 129 C18.32 129 19.64 129 21 129 C21 134.61 21 140.22 21 146 C22.32 146 23.64 146 25 146 C25 148.64 25 151.28 25 154 C26.32 154 27.64 154 29 154 C29 155.32 29 156.64 29 158 C30.32 158 31.64 158 33 158 C33 159.32 33 160.64 33 162 C35.97 162 38.94 162 42 162 C42 160.68 42 159.36 42 158 C44.64 158 47.28 158 50 158 C50 152.72 50 147.44 50 142 C51.32 142 52.64 142 54 142 C54 135.07 54 128.14 54 121 C60.93 121 67.86 121 75 121 C75 122.32 75 123.64 75 125 C76.32 125 77.64 125 79 125 C79 134.57 79 144.14 79 154 C77.68 154 76.36 154 75 154 C75 156.64 75 159.28 75 162 C73.68 162 72.36 162 71 162 C71 164.97 71 167.94 71 171 C69.68 171 68.36 171 67 171 C67 172.32 67 173.64 67 175 C65.35 175 63.7 175 62 175 C62 176.32 62 177.64 62 179 C60.68 179 59.36 179 58 179 C58 180.32 58 181.64 58 183 C56.68 183 55.36 183 54 183 C54 184.32 54 185.64 54 187 C52.68 187 51.36 187 50 187 C50 188.65 50 190.3 50 192 C44.39 192 38.78 192 33 192 C33 190.35 33 188.7 33 187 C30.36 187 27.72 187 25 187 C25 185.68 25 184.36 25 183 C20.71 183 16.42 183 12 183 C12 181.68 12 180.36 12 179 C10.68 179 9.36 179 8 179 C8 176.36 8 173.72 8 171 C6.68 171 5.36 171 4 171 C4 168.03 4 165.06 4 162 C2.68 162 1.36 162 0 162 C0 160.68 0 159.36 0 158 C-1.32 158 -2.64 158 -4 158 C-4 151.07 -4 144.14 -4 137 C-5.65 137 -7.3 137 -9 137 C-9 131.72 -9 126.44 -9 121 C-10.32 121 -11.64 121 -13 121 C-13 114.07 -13 107.14 -13 100 C-15.64 100 -18.28 100 -21 100 C-21 101.32 -21 102.64 -21 104 C-23.64 104 -26.28 104 -29 104 C-29 105.32 -29 106.64 -29 108 C-35.93 108 -42.86 108 -50 108 C-50 106.68 -50 105.36 -50 104 C-55.61 104 -61.22 104 -67 104 C-67 105.32 -67 106.64 -67 108 C-68.32 108 -69.64 108 -71 108 C-71 109.32 -71 110.64 -71 112 C-69.68 112 -68.36 112 -67 112 C-67 130.15 -67 148.3 -67 167 C-68.32 167 -69.64 167 -71 167 C-71 172.28 -71 177.56 -71 183 C-72.32 183 -73.64 183 -75 183 C-75 184.32 -75 185.64 -75 187 C-77.97 187 -80.94 187 -84 187 C-84 185.68 -84 184.36 -84 183 C-86.64 183 -89.28 183 -92 183 C-92 181.68 -92 180.36 -92 179 C-93.32 179 -94.64 179 -96 179 C-96 156.89 -96 134.78 -96 112 C-97.32 112 -98.64 112 -100 112 C-100 109.36 -100 106.72 -100 104 C-98.68 104 -97.36 104 -96 104 C-96 100.04 -96 96.08 -96 92 C-97.32 92 -98.64 92 -100 92 C-100 79.46 -100 66.92 -100 54 C-101.32 54 -102.64 54 -104 54 C-104 47.07 -104 40.14 -104 33 C-105.65 33 -107.3 33 -109 33 C-109 27.72 -109 22.44 -109 17 C-107.35 17 -105.7 17 -104 17 C-104 15.35 -104 13.7 -104 12 C-101.36 12 -98.72 12 -96 12 C-96 10.68 -96 9.36 -96 8 C-92.04 8 -88.08 8 -84 8 C-84 9.32 -84 10.64 -84 12 C-82.35 12 -80.7 12 -79 12 C-79 17.61 -79 23.22 -79 29 C-77.68 29 -76.36 29 -75 29 C-75 39.89 -75 50.78 -75 62 C-73.68 62 -72.36 62 -71 62 C-71 64.97 -71 67.94 -71 71 C-68.36 71 -65.72 71 -63 71 C-63 72.32 -63 73.64 -63 75 C-60.03 75 -57.06 75 -54 75 C-54 76.32 -54 77.64 -54 79 C-44.43 79 -34.86 79 -25 79 C-25 77.68 -25 76.36 -25 75 C-23.68 75 -22.36 75 -21 75 C-21 73.68 -21 72.36 -21 71 C-19.68 71 -18.36 71 -17 71 C-17 69.68 -17 68.36 -17 67 C-15.68 67 -14.36 67 -13 67 C-13 62.71 -13 58.42 -13 54 C-11.68 54 -10.36 54 -9 54 C-9 38.82 -9 23.64 -9 8 C-7.35 8 -5.7 8 -4 8 C-4 6.68 -4 5.36 -4 4 C-2.68 4 -1.36 4 0 4 C0 2.68 0 1.36 0 0 Z M4 117 C4 118.32 4 119.64 4 121 C5.32 121 6.64 121 8 121 C8 119.68 8 118.36 8 117 C6.68 117 5.36 117 4 117 Z M8 142 C8 143.32 8 144.64 8 146 C9.32 146 10.64 146 12 146 C12 144.68 12 143.36 12 142 C10.68 142 9.36 142 8 142 Z " fill="#000000" transform="translate(119,9)"/>
</svg>
