<?xml version="1.0" encoding="UTF-8"?>
<!-- Generator: visioncortex VTracer 0.6.12 -->
<svg version="1.1" xmlns="http://www.w3.org/2000/svg" width="70" height="102">
<path d="M0 0 C2.483 2.483 2.646 4.434 2.875 7.875 C1 8.937 1 8.937 -1.125 9.875 C-1.785 9.545 -2.445 9.215 -3.125 8.875 C-3.125 7.885 -3.125 6.895 -3.125 5.875 C-11.153 6.218 -11.153 6.218 -14.438 8.438 C-18.5 14.306 -22.005 20.532 -20.789 27.914 C-19.607 32.012 -18.135 34.236 -14.5 36.5 C-13.046 37.3 -11.588 38.092 -10.125 38.875 C2.413 46.49 2.413 46.49 4.875 53.875 C5.021 55.997 5.096 58.124 5.125 60.25 C5.151 61.371 5.177 62.493 5.203 63.648 C4.696 68.639 2.408 71.765 -1.312 75 C-1.842 75.477 -2.372 75.954 -2.918 76.445 C-9.374 80.628 -15.495 81.401 -23 81.312 C-23.439 81.309 -23.439 81.309 -25.664 81.294 C-31.838 81.145 -38.019 80.722 -43.125 76.875 C-44.367 74.734 -44.367 74.734 -45.125 72.875 C-44.135 71.885 -43.145 70.895 -42.125 69.875 C-41.459 70.092 -40.792 70.308 -40.105 70.531 C-29.895 73.616 -20.062 74.423 -10.125 69.875 C-7.453 67.639 -5.673 65.97 -4.125 62.875 C-3.914 58.206 -4.291 54.848 -7.375 51.25 C-11.628 48.242 -16.443 46.021 -21.102 43.719 C-26.336 40.527 -29.534 35.78 -31.125 29.875 C-32.813 20.438 -29.244 12.648 -24.125 4.875 C-17.354 -1.504 -8.796 -3.167 0 0 Z " fill="#000000" transform="translate(55.125,11.125)"/>
</svg>
