<?xml version="1.0" encoding="UTF-8"?>
<!-- Generator: visioncortex VTracer 0.6.12 -->
<svg version="1.1" xmlns="http://www.w3.org/2000/svg" width="175" height="231">
<path d="M0 0 C5.61 0 11.22 0 17 0 C17 1.32 17 2.64 17 4 C18.32 4 19.64 4 21 4 C21 7.96 21 11.92 21 16 C19.68 16 18.36 16 17 16 C17 17.32 17 18.64 17 20 C15.68 20 14.36 20 13 20 C13 21.65 13 23.3 13 25 C11.35 25 9.7 25 8 25 C8 26.32 8 27.64 8 29 C6.68 29 5.36 29 4 29 C4 30.32 4 31.64 4 33 C1.36 33 -1.28 33 -4 33 C-4 36.96 -4 40.92 -4 45 C-5.32 45 -6.64 45 -8 45 C-8 47.97 -8 50.94 -8 54 C-6.68 54 -5.36 54 -4 54 C-4 70.5 -4 87 -4 104 C-2.68 104 -1.36 104 0 104 C0 119.18 0 134.36 0 150 C1.32 150 2.64 150 4 150 C4 151.32 4 152.64 4 154 C5.32 154 6.64 154 8 154 C8 156.64 8 159.28 8 162 C10.97 162 13.94 162 17 162 C17 163.32 17 164.64 17 166 C18.32 166 19.64 166 21 166 C21 167.32 21 168.64 21 170 C23.64 170 26.28 170 29 170 C29 171.65 29 173.3 29 175 C33.29 175 37.58 175 42 175 C42 173.35 42 171.7 42 170 C44.64 170 47.28 170 50 170 C50 168.68 50 167.36 50 166 C55.61 166 61.22 166 67 166 C67 167.32 67 168.64 67 170 C68.32 170 69.64 170 71 170 C71 174.29 71 178.58 71 183 C69.68 183 68.36 183 67 183 C67 184.32 67 185.64 67 187 C65.68 187 64.36 187 63 187 C63 189.64 63 192.28 63 195 C61.35 195 59.7 195 58 195 C58 196.65 58 198.3 58 200 C55.36 200 52.72 200 50 200 C50 201.32 50 202.64 50 204 C41.75 204 33.5 204 25 204 C25 202.68 25 201.36 25 200 C22.36 200 19.72 200 17 200 C17 198.35 17 196.7 17 195 C14.03 195 11.06 195 8 195 C8 193.68 8 192.36 8 191 C6.68 191 5.36 191 4 191 C4 189.68 4 188.36 4 187 C2.68 187 1.36 187 0 187 C0 188.32 0 189.64 0 191 C-1.32 191 -2.64 191 -4 191 C-4 195.29 -4 199.58 -4 204 C-5.32 204 -6.64 204 -8 204 C-8 205.32 -8 206.64 -8 208 C-10.97 208 -13.94 208 -17 208 C-17 209.32 -17 210.64 -17 212 C-27.89 212 -38.78 212 -50 212 C-50 210.68 -50 209.36 -50 208 C-52.64 208 -55.28 208 -58 208 C-58 205.36 -58 202.72 -58 200 C-59.32 200 -60.64 200 -62 200 C-62 191.75 -62 183.5 -62 175 C-60.68 175 -59.36 175 -58 175 C-58 173.35 -58 171.7 -58 170 C-56.68 170 -55.36 170 -54 170 C-54 168.68 -54 167.36 -54 166 C-52.68 166 -51.36 166 -50 166 C-50 164.68 -50 163.36 -50 162 C-47.36 162 -44.72 162 -42 162 C-42 160.68 -42 159.36 -42 158 C-40.35 158 -38.7 158 -37 158 C-37 156.68 -37 155.36 -37 154 C-34.36 154 -31.72 154 -29 154 C-29 152.68 -29 151.36 -29 150 C-27.68 150 -26.36 150 -25 150 C-25 140.1 -25 130.2 -25 120 C-26.32 120 -27.64 120 -29 120 C-29 100.86 -29 81.72 -29 62 C-30.32 62 -31.64 62 -33 62 C-33 53.75 -33 45.5 -33 37 C-34.32 37 -35.64 37 -37 37 C-37 38.32 -37 39.64 -37 41 C-41.29 41 -45.58 41 -50 41 C-50 42.32 -50 43.64 -50 45 C-52.64 45 -55.28 45 -58 45 C-58 50.61 -58 56.22 -58 62 C-59.32 62 -60.64 62 -62 62 C-62 63.32 -62 64.64 -62 66 C-67.61 66 -73.22 66 -79 66 C-79 64.68 -79 63.36 -79 62 C-80.32 62 -81.64 62 -83 62 C-83 59.36 -83 56.72 -83 54 C-84.32 54 -85.64 54 -87 54 C-87 51.03 -87 48.06 -87 45 C-85.68 45 -84.36 45 -83 45 C-83 39.72 -83 34.44 -83 29 C-81.68 29 -80.36 29 -79 29 C-79 27.68 -79 26.36 -79 25 C-76.36 25 -73.72 25 -71 25 C-71 23.35 -71 21.7 -71 20 C-69.68 20 -68.36 20 -67 20 C-67 18.68 -67 17.36 -67 16 C-64.03 16 -61.06 16 -58 16 C-58 14.68 -58 13.36 -58 12 C-42.82 12 -27.64 12 -12 12 C-12 10.68 -12 9.36 -12 8 C-9.36 8 -6.72 8 -4 8 C-4 6.68 -4 5.36 -4 4 C-2.68 4 -1.36 4 0 4 C0 2.68 0 1.36 0 0 Z M-33 179 C-33 180.32 -33 181.64 -33 183 C-34.32 183 -35.64 183 -37 183 C-37 184.32 -37 185.64 -37 187 C-34.36 187 -31.72 187 -29 187 C-29 185.68 -29 184.36 -29 183 C-27.68 183 -26.36 183 -25 183 C-25 181.68 -25 180.36 -25 179 C-27.64 179 -30.28 179 -33 179 Z M54 179 C54 180.32 54 181.64 54 183 C55.32 183 56.64 183 58 183 C58 181.68 58 180.36 58 179 C56.68 179 55.36 179 54 179 Z " fill="#000000" transform="translate(94,10)"/>
</svg>
