<?xml version="1.0" encoding="UTF-8"?>
<!-- Generator: visioncortex VTracer 0.6.12 -->
<svg version="1.1" xmlns="http://www.w3.org/2000/svg" width="109" height="115">
<path d="M0 0 C2.5 0.125 2.5 0.125 3.5 1.125 C4.831 16.481 0.601 31.278 -3.375 45.938 C-3.702 47.153 -4.03 48.369 -4.367 49.621 C-11.546 75.365 -11.546 75.365 -19.875 80.625 C-23.463 81.308 -25.965 81.072 -29.5 80.125 C-37.083 74.167 -40.786 65.13 -43.5 56.125 C-43.5 55.465 -43.5 54.805 -43.5 54.125 C-44.16 54.125 -44.82 54.125 -45.5 54.125 C-45.61 55.155 -45.719 56.185 -45.832 57.246 C-46.682 64.985 -47.655 72.695 -48.938 80.375 C-49.047 81.077 -49.157 81.779 -49.271 82.502 C-49.987 86.621 -51.02 89.744 -53.5 93.125 C-55.813 94.625 -55.813 94.625 -58.5 95.125 C-63.984 93.411 -66.644 89.893 -69.5 85.125 C-70.717 82.435 -71.627 79.694 -72.5 76.875 C-72.75 76.099 -73 75.323 -73.258 74.524 C-75.291 68.093 -77.019 61.589 -78.663 55.049 C-80.281 48.68 -82.358 42.567 -84.68 36.422 C-85.621 32.64 -85.279 29.914 -84.5 26.125 C-82.85 25.465 -81.2 24.805 -79.5 24.125 C-77.225 26.617 -76.112 29.009 -75.102 32.172 C-74.842 32.974 -74.582 33.777 -74.314 34.603 C-74.046 35.435 -73.777 36.268 -73.5 37.125 C-72.965 38.716 -72.427 40.306 -71.887 41.895 C-68.528 51.846 -65.319 61.823 -62.366 71.904 C-62.134 72.692 -61.903 73.481 -61.664 74.293 C-61.462 74.987 -61.261 75.68 -61.053 76.395 C-60.5 78.125 -60.5 78.125 -59.5 80.125 C-57.616 75.116 -56.847 70.263 -56.125 65 C-53.238 45.597 -53.238 45.597 -48.527 41.344 C-45.884 39.755 -44.531 39.519 -41.5 40.125 C-36.143 45.358 -34.008 53.113 -31.299 59.93 C-30.882 60.935 -30.465 61.941 -30.035 62.977 C-29.852 63.435 -29.852 63.435 -28.922 65.752 C-27.207 68.614 -25.446 69.643 -22.5 71.125 C-22.252 70.486 -22.005 69.846 -21.75 69.188 C-21.077 67.538 -20.389 65.892 -19.626 64.281 C-16.693 58.049 -14.792 51.702 -13 45.062 C-12.698 43.959 -12.396 42.856 -12.085 41.719 C-11.215 38.523 -10.357 35.325 -9.5 32.125 C-9.277 31.309 -9.055 30.493 -8.826 29.652 C-6.506 21.127 -4.873 12.715 -3.895 3.941 C-3.366 0.168 -3.366 0.168 0 0 Z " fill="#000000" transform="translate(95.5,9.875)"/>
</svg>
