<?xml version="1.0" encoding="UTF-8"?>
<!-- Generator: visioncortex VTracer 0.6.12 -->
<svg version="1.1" xmlns="http://www.w3.org/2000/svg" width="180" height="233">
<path d="M0 0 C4.29 0 8.58 0 13 0 C13 1.32 13 2.64 13 4 C14.32 4 15.64 4 17 4 C17 9.61 17 15.22 17 21 C15.68 21 14.36 21 13 21 C13 23.64 13 26.28 13 29 C11.35 29 9.7 29 8 29 C8 30.32 8 31.64 8 33 C5.36 33 2.72 33 0 33 C0 34.32 0 35.64 0 37 C-1.32 37 -2.64 37 -4 37 C-4 38.32 -4 39.64 -4 41 C-8.29 41 -12.58 41 -17 41 C-17 42.65 -17 44.3 -17 46 C-23.6 46 -30.2 46 -37 46 C-37 67.78 -37 89.56 -37 112 C-35.68 112 -34.36 112 -33 112 C-33 132.79 -33 153.58 -33 175 C-31.68 175 -30.36 175 -29 175 C-29 185.89 -29 196.78 -29 208 C-30.32 208 -31.64 208 -33 208 C-33 209.32 -33 210.64 -33 212 C-38.61 212 -44.22 212 -50 212 C-50 210.68 -50 209.36 -50 208 C-51.32 208 -52.64 208 -54 208 C-54 206.68 -54 205.36 -54 204 C-55.32 204 -56.64 204 -58 204 C-58 172.32 -58 140.64 -58 108 C-59.32 108 -60.64 108 -62 108 C-62 88.86 -62 69.72 -62 50 C-77.18 50 -92.36 50 -108 50 C-108 51.32 -108 52.64 -108 54 C-109.32 54 -110.64 54 -112 54 C-112 55.32 -112 56.64 -112 58 C-113.65 58 -115.3 58 -117 58 C-117 60.64 -117 63.28 -117 66 C-118.32 66 -119.64 66 -121 66 C-121 67.65 -121 69.3 -121 71 C-122.32 71 -123.64 71 -125 71 C-125 72.32 -125 73.64 -125 75 C-127.64 75 -130.28 75 -133 75 C-133 73.68 -133 72.36 -133 71 C-134.32 71 -135.64 71 -137 71 C-137 69.35 -137 67.7 -137 66 C-138.65 66 -140.3 66 -142 66 C-142 59.4 -142 52.8 -142 46 C-140.35 46 -138.7 46 -137 46 C-137 44.35 -137 42.7 -137 41 C-135.68 41 -134.36 41 -133 41 C-133 39.68 -133 38.36 -133 37 C-131.68 37 -130.36 37 -129 37 C-129 35.68 -129 34.36 -129 33 C-126.36 33 -123.72 33 -121 33 C-121 31.68 -121 30.36 -121 29 C-116.71 29 -112.42 29 -108 29 C-108 27.68 -108 26.36 -108 25 C-104.04 25 -100.08 25 -96 25 C-96 23.68 -96 22.36 -96 21 C-89.07 21 -82.14 21 -75 21 C-75 22.32 -75 23.64 -75 25 C-65.43 25 -55.86 25 -46 25 C-46 23.68 -46 22.36 -46 21 C-40.39 21 -34.78 21 -29 21 C-29 19.35 -29 17.7 -29 16 C-25.04 16 -21.08 16 -17 16 C-17 14.68 -17 13.36 -17 12 C-14.03 12 -11.06 12 -8 12 C-8 10.68 -8 9.36 -8 8 C-6.68 8 -5.36 8 -4 8 C-4 6.68 -4 5.36 -4 4 C-2.68 4 -1.36 4 0 4 C0 2.68 0 1.36 0 0 Z " fill="#000000" transform="translate(152,10)"/>
</svg>
