<?xml version="1.0" encoding="UTF-8"?>
<!-- Generator: visioncortex VTracer 0.6.12 -->
<svg version="1.1" xmlns="http://www.w3.org/2000/svg" width="82" height="123">
<path d="M0 0 C0.941 -0.017 1.882 -0.034 2.852 -0.051 C5.782 0.371 6.606 0.997 8.375 3.312 C9.614 5.79 9.542 7.549 9.562 10.312 C9.577 11.199 9.591 12.086 9.605 13 C9.375 15.313 9.375 15.313 7.375 17.312 C6.055 16.983 4.735 16.652 3.375 16.312 C3.21 14.828 3.21 14.828 2.375 7.312 C-2.545 7.799 -5.378 9.167 -9.312 12.125 C-10.244 12.812 -11.176 13.499 -12.137 14.207 C-14.389 16.112 -15.881 17.968 -17.625 20.312 C-18.285 20.312 -18.945 20.312 -19.625 20.312 C-19.876 20.85 -20.128 21.388 -20.387 21.941 C-21.898 24.834 -23.666 27.509 -25.438 30.25 C-33.625 43.34 -37.803 57.818 -38 73.25 C-38.014 73.948 -38.028 74.645 -38.042 75.364 C-37.986 81.477 -36.636 86.247 -32.312 90.688 C-29.188 92.577 -27.268 93.038 -23.625 93.312 C-22.87 93.376 -22.114 93.439 -21.336 93.504 C-13.647 93.873 -7.916 91.991 -1.938 87.125 C0.653 83.975 2.816 80.678 4.945 77.203 C6.375 75.312 6.375 75.312 9.375 74.312 C10.365 74.972 11.355 75.632 12.375 76.312 C12.375 83.836 8.159 88.796 3.375 94.312 C-3.994 101.34 -12.008 103.891 -22.062 103.812 C-22.899 103.808 -23.736 103.803 -24.598 103.797 C-31.976 103.588 -36.721 101.938 -42.156 96.891 C-48.471 90.062 -49.917 81.566 -49.613 72.568 C-48.292 48.405 -38.357 26.118 -20.859 9.254 C-14.769 3.963 -8.229 0.034 0 0 Z " fill="#000000" transform="translate(59.625,9.6875)"/>
<path d="M0 0 C0 1.65 0 3.3 0 5 C-0.892 5.133 -1.784 5.266 -2.703 5.402 C-3.874 5.579 -5.044 5.756 -6.25 5.938 C-6.83 6.025 -6.83 6.025 -9.766 6.465 C-13 7 -13 7 -15.297 7.691 C-15.859 7.793 -16.421 7.895 -17 8 C-17.66 7.34 -18.32 6.68 -19 6 C-18.444 1.444 -18.444 1.444 -17 0 C-4.026 -2.013 -4.026 -2.013 0 0 Z " fill="#000000" transform="translate(46,55)"/>
</svg>
