<?xml version="1.0" encoding="UTF-8"?>
<!-- Generator: visioncortex VTracer 0.6.12 -->
<svg version="1.1" xmlns="http://www.w3.org/2000/svg" width="219" height="250">
<path d="M0 0 C9.9 0 19.8 0 30 0 C30 1.32 30 2.64 30 4 C35.28 4 40.56 4 46 4 C46 5.32 46 6.64 46 8 C48.97 8 51.94 8 55 8 C55 9.32 55 10.64 55 12 C57.64 12 60.28 12 63 12 C63 14.97 63 17.94 63 21 C64.32 21 65.64 21 67 21 C67 22.32 67 23.64 67 25 C68.32 25 69.64 25 71 25 C71 27.64 71 30.28 71 33 C72.32 33 73.64 33 75 33 C75 35.64 75 38.28 75 41 C76.65 41 78.3 41 80 41 C80 52.22 80 63.44 80 75 C78.35 75 76.7 75 75 75 C75 78.96 75 82.92 75 87 C73.68 87 72.36 87 71 87 C71 89.97 71 92.94 71 96 C69.68 96 68.36 96 67 96 C67 98.64 67 101.28 67 104 C65.68 104 64.36 104 63 104 C63 106.64 63 109.28 63 112 C61.68 112 60.36 112 59 112 C59 113.32 59 114.64 59 116 C54.71 116 50.42 116 46 116 C46 117.65 46 119.3 46 121 C44.68 121 43.36 121 42 121 C42 122.32 42 123.64 42 125 C38.04 125 34.08 125 30 125 C30 131.93 30 138.86 30 146 C31.32 146 32.64 146 34 146 C34 149.96 34 153.92 34 158 C35.32 158 36.64 158 38 158 C38 163.61 38 169.22 38 175 C39.32 175 40.64 175 42 175 C42 180.28 42 185.56 42 191 C43.32 191 44.64 191 46 191 C46 192.65 46 194.3 46 196 C47.32 196 48.64 196 50 196 C50 197.32 50 198.64 50 200 C52.97 200 55.94 200 59 200 C59 201.32 59 202.64 59 204 C60.32 204 61.64 204 63 204 C63 202.68 63 201.36 63 200 C64.32 200 65.64 200 67 200 C67 198.68 67 197.36 67 196 C69.64 196 72.28 196 75 196 C75 194.35 75 192.7 75 191 C76.65 191 78.3 191 80 191 C80 189.68 80 188.36 80 187 C81.32 187 82.64 187 84 187 C84 185.68 84 184.36 84 183 C86.64 183 89.28 183 92 183 C92 184.32 92 185.64 92 187 C93.32 187 94.64 187 96 187 C96 188.32 96 189.64 96 191 C97.32 191 98.64 191 100 191 C100 192.65 100 194.3 100 196 C98.68 196 97.36 196 96 196 C96 198.64 96 201.28 96 204 C94.68 204 93.36 204 92 204 C92 206.64 92 209.28 92 212 C90.68 212 89.36 212 88 212 C88 213.32 88 214.64 88 216 C86.68 216 85.36 216 84 216 C84 218.97 84 221.94 84 225 C81.03 225 78.06 225 75 225 C75 226.32 75 227.64 75 229 C64.11 229 53.22 229 42 229 C42 227.68 42 226.36 42 225 C40.68 225 39.36 225 38 225 C38 223.68 38 222.36 38 221 C36.68 221 35.36 221 34 221 C34 219.35 34 217.7 34 216 C32.68 216 31.36 216 30 216 C30 214.68 30 213.36 30 212 C28.35 212 26.7 212 25 212 C25 209.36 25 206.72 25 204 C23.68 204 22.36 204 21 204 C21 199.71 21 195.42 21 191 C19.68 191 18.36 191 17 191 C17 184.4 17 177.8 17 171 C15.68 171 14.36 171 13 171 C13 166.71 13 162.42 13 158 C11.68 158 10.36 158 9 158 C9 155.36 9 152.72 9 150 C7.35 150 5.7 150 4 150 C4 148.68 4 147.36 4 146 C2.68 146 1.36 146 0 146 C0 144.35 0 142.7 0 141 C-3.96 141 -7.92 141 -12 141 C-12 142.65 -12 144.3 -12 146 C-14.97 146 -17.94 146 -21 146 C-21 154.25 -21 162.5 -21 171 C-22.32 171 -23.64 171 -25 171 C-25 176.28 -25 181.56 -25 187 C-23.68 187 -22.36 187 -21 187 C-21 191.29 -21 195.58 -21 200 C-22.32 200 -23.64 200 -25 200 C-25 203.96 -25 207.92 -25 212 C-26.32 212 -27.64 212 -29 212 C-29 213.32 -29 214.64 -29 216 C-32.96 216 -36.92 216 -41 216 C-41 214.68 -41 213.36 -41 212 C-43.97 212 -46.94 212 -50 212 C-50 188.57 -50 165.14 -50 141 C-51.32 141 -52.64 141 -54 141 C-54 132.75 -54 124.5 -54 116 C-52.68 116 -51.36 116 -50 116 C-50 112.04 -50 108.08 -50 104 C-51.32 104 -52.64 104 -54 104 C-54 93.11 -54 82.22 -54 71 C-55.32 71 -56.64 71 -58 71 C-58 72.32 -58 73.64 -58 75 C-60.64 75 -63.28 75 -66 75 C-66 76.32 -66 77.64 -66 79 C-72.93 79 -79.86 79 -87 79 C-87 77.68 -87 76.36 -87 75 C-89.97 75 -92.94 75 -96 75 C-96 73.68 -96 72.36 -96 71 C-97.32 71 -98.64 71 -100 71 C-100 68.03 -100 65.06 -100 62 C-98.68 62 -97.36 62 -96 62 C-96 59.36 -96 56.72 -96 54 C-87.75 54 -79.5 54 -71 54 C-71 52.68 -71 51.36 -71 50 C-68.03 50 -65.06 50 -62 50 C-62 48.68 -62 47.36 -62 46 C-60.68 46 -59.36 46 -58 46 C-58 44.35 -58 42.7 -58 41 C-56.68 41 -55.36 41 -54 41 C-54 39.68 -54 38.36 -54 37 C-52.68 37 -51.36 37 -50 37 C-50 35.68 -50 34.36 -50 33 C-47.03 33 -44.06 33 -41 33 C-41 31.68 -41 30.36 -41 29 C-39.68 29 -38.36 29 -37 29 C-37 27.68 -37 26.36 -37 25 C-35.68 25 -34.36 25 -33 25 C-33 23.68 -33 22.36 -33 21 C-30.36 21 -27.72 21 -25 21 C-25 19.35 -25 17.7 -25 16 C-23.68 16 -22.36 16 -21 16 C-21 13.36 -21 10.72 -21 8 C-16.71 8 -12.42 8 -8 8 C-8 6.68 -8 5.36 -8 4 C-5.36 4 -2.72 4 0 4 C0 2.68 0 1.36 0 0 Z M9 25 C9 26.32 9 27.64 9 29 C4.71 29 0.42 29 -4 29 C-4 30.32 -4 31.64 -4 33 C-6.64 33 -9.28 33 -12 33 C-12 34.32 -12 35.64 -12 37 C-13.32 37 -14.64 37 -16 37 C-16 38.32 -16 39.64 -16 41 C-17.65 41 -19.3 41 -21 41 C-21 42.65 -21 44.3 -21 46 C-22.32 46 -23.64 46 -25 46 C-25 47.32 -25 48.64 -25 50 C-26.32 50 -27.64 50 -29 50 C-29 51.32 -29 52.64 -29 54 C-30.32 54 -31.64 54 -33 54 C-33 55.32 -33 56.64 -33 58 C-31.68 58 -30.36 58 -29 58 C-29 63.61 -29 69.22 -29 75 C-27.68 75 -26.36 75 -25 75 C-25 84.57 -25 94.14 -25 104 C-19.39 104 -13.78 104 -8 104 C-8 105.32 -8 106.64 -8 108 C-2.39 108 3.22 108 9 108 C9 109.32 9 110.64 9 112 C12.96 112 16.92 112 21 112 C21 110.68 21 109.36 21 108 C23.97 108 26.94 108 30 108 C30 106.68 30 105.36 30 104 C31.32 104 32.64 104 34 104 C34 102.68 34 101.36 34 100 C35.32 100 36.64 100 38 100 C38 98.68 38 97.36 38 96 C39.32 96 40.64 96 42 96 C42 93.03 42 90.06 42 87 C43.32 87 44.64 87 46 87 C46 85.68 46 84.36 46 83 C47.32 83 48.64 83 50 83 C50 80.36 50 77.72 50 75 C51.65 75 53.3 75 55 75 C55 72.03 55 69.06 55 66 C56.32 66 57.64 66 59 66 C59 63.36 59 60.72 59 58 C57.68 58 56.36 58 55 58 C55 52.39 55 46.78 55 41 C53.35 41 51.7 41 50 41 C50 39.68 50 38.36 50 37 C48.68 37 47.36 37 46 37 C46 35.68 46 34.36 46 33 C44.68 33 43.36 33 42 33 C42 31.68 42 30.36 42 29 C38.04 29 34.08 29 30 29 C30 27.68 30 26.36 30 25 C23.07 25 16.14 25 9 25 Z M50 104 C50 105.32 50 106.64 50 108 C51.65 108 53.3 108 55 108 C55 106.68 55 105.36 55 104 C53.35 104 51.7 104 50 104 Z M-33 191 C-33 192.65 -33 194.3 -33 196 C-30.36 196 -27.72 196 -25 196 C-25 194.35 -25 192.7 -25 191 C-27.64 191 -30.28 191 -33 191 Z M46 200 C46 202.64 46 205.28 46 208 C47.32 208 48.64 208 50 208 C50 205.36 50 202.72 50 200 C48.68 200 47.36 200 46 200 Z " fill="#000000" transform="translate(110,10)"/>
</svg>
