<?xml version="1.0" encoding="UTF-8"?>
<!-- Generator: visioncortex VTracer 0.6.12 -->
<svg version="1.1" xmlns="http://www.w3.org/2000/svg" width="233" height="233">
<path d="M0 0 C5.61 0 11.22 0 17 0 C17 1.32 17 2.64 17 4 C18.32 4 19.64 4 21 4 C21 9.61 21 15.22 21 21 C19.68 21 18.36 21 17 21 C17 22.32 17 23.64 17 25 C15.35 25 13.7 25 12 25 C12 26.32 12 27.64 12 29 C10.68 29 9.36 29 8 29 C8 31.97 8 34.94 8 38 C6.68 38 5.36 38 4 38 C4 40.64 4 43.28 4 46 C2.68 46 1.36 46 0 46 C0 49.96 0 53.92 0 58 C-1.32 58 -2.64 58 -4 58 C-4 62.29 -4 66.58 -4 71 C-5.32 71 -6.64 71 -8 71 C-8 73.64 -8 76.28 -8 79 C-9.65 79 -11.3 79 -13 79 C-13 81.97 -13 84.94 -13 88 C-14.32 88 -15.64 88 -17 88 C-17 91.96 -17 95.92 -17 100 C-18.32 100 -19.64 100 -21 100 C-21 104.29 -21 108.58 -21 113 C-22.32 113 -23.64 113 -25 113 C-25 116.96 -25 120.92 -25 125 C-26.32 125 -27.64 125 -29 125 C-29 129.29 -29 133.58 -29 138 C-30.32 138 -31.64 138 -33 138 C-33 144.93 -33 151.86 -33 159 C-34.65 159 -36.3 159 -38 159 C-38 167.25 -38 175.5 -38 184 C-39.32 184 -40.64 184 -42 184 C-42 190.6 -42 197.2 -42 204 C-51.57 204 -61.14 204 -71 204 C-71 198.72 -71 193.44 -71 188 C-72.32 188 -73.64 188 -75 188 C-75 179.75 -75 171.5 -75 163 C-76.32 163 -77.64 163 -79 163 C-79 158.71 -79 154.42 -79 150 C-80.32 150 -81.64 150 -83 150 C-83 144.72 -83 139.44 -83 134 C-84.65 134 -86.3 134 -88 134 C-88 129.71 -88 125.42 -88 121 C-90.64 121 -93.28 121 -96 121 C-96 123.64 -96 126.28 -96 129 C-97.32 129 -98.64 129 -100 129 C-100 131.97 -100 134.94 -100 138 C-101.32 138 -102.64 138 -104 138 C-104 139.32 -104 140.64 -104 142 C-105.32 142 -106.64 142 -108 142 C-108 144.64 -108 147.28 -108 150 C-106.68 150 -105.36 150 -104 150 C-104 151.32 -104 152.64 -104 154 C-105.32 154 -106.64 154 -108 154 C-108 156.97 -108 159.94 -108 163 C-109.65 163 -111.3 163 -113 163 C-113 165.64 -113 168.28 -113 171 C-114.32 171 -115.64 171 -117 171 C-117 172.32 -117 173.64 -117 175 C-120.96 175 -124.92 175 -129 175 C-129 176.32 -129 177.64 -129 179 C-127.68 179 -126.36 179 -125 179 C-125 180.65 -125 182.3 -125 184 C-123.68 184 -122.36 184 -121 184 C-121 182.35 -121 180.7 -121 179 C-119.68 179 -118.36 179 -117 179 C-117 181.97 -117 184.94 -117 188 C-118.32 188 -119.64 188 -121 188 C-121 193.28 -121 198.56 -121 204 C-122.32 204 -123.64 204 -125 204 C-125 205.65 -125 207.3 -125 209 C-126.32 209 -127.64 209 -129 209 C-129 210.32 -129 211.64 -129 213 C-134.61 213 -140.22 213 -146 213 C-146 211.68 -146 210.36 -146 209 C-148.64 209 -151.28 209 -154 209 C-154 193.82 -154 178.64 -154 163 C-155.32 163 -156.64 163 -158 163 C-158 146.5 -158 130 -158 113 C-159.65 113 -161.3 113 -163 113 C-163 108.71 -163 104.42 -163 100 C-164.32 100 -165.64 100 -167 100 C-167 93.07 -167 86.14 -167 79 C-168.32 79 -169.64 79 -171 79 C-171 76.36 -171 73.72 -171 71 C-172.32 71 -173.64 71 -175 71 C-175 64.07 -175 57.14 -175 50 C-176.32 50 -177.64 50 -179 50 C-179 47.36 -179 44.72 -179 42 C-180.32 42 -181.64 42 -183 42 C-183 39.03 -183 36.06 -183 33 C-184.65 33 -186.3 33 -188 33 C-188 30.36 -188 27.72 -188 25 C-189.32 25 -190.64 25 -192 25 C-192 21.04 -192 17.08 -192 13 C-190.68 13 -189.36 13 -188 13 C-188 11.35 -188 9.7 -188 8 C-185.03 8 -182.06 8 -179 8 C-179 6.68 -179 5.36 -179 4 C-176.36 4 -173.72 4 -171 4 C-171 5.32 -171 6.64 -171 8 C-169.68 8 -168.36 8 -167 8 C-167 9.65 -167 11.3 -167 13 C-165.68 13 -164.36 13 -163 13 C-163 14.32 -163 15.64 -163 17 C-161.35 17 -159.7 17 -158 17 C-158 20.96 -158 24.92 -158 29 C-156.68 29 -155.36 29 -154 29 C-154 34.61 -154 40.22 -154 46 C-152.68 46 -151.36 46 -150 46 C-150 48.64 -150 51.28 -150 54 C-148.68 54 -147.36 54 -146 54 C-146 59.61 -146 65.22 -146 71 C-144.68 71 -143.36 71 -142 71 C-142 76.61 -142 82.22 -142 88 C-140.68 88 -139.36 88 -138 88 C-138 91.96 -138 95.92 -138 100 C-136.35 100 -134.7 100 -133 100 C-133 106.93 -133 113.86 -133 121 C-131.68 121 -130.36 121 -129 121 C-129 125.29 -129 129.58 -129 134 C-127.68 134 -126.36 134 -125 134 C-125 129.71 -125 125.42 -125 121 C-123.68 121 -122.36 121 -121 121 C-121 118.36 -121 115.72 -121 113 C-119.68 113 -118.36 113 -117 113 C-117 108.71 -117 104.42 -117 100 C-115.68 100 -114.36 100 -113 100 C-113 97.36 -113 94.72 -113 92 C-111.35 92 -109.7 92 -108 92 C-108 89.03 -108 86.06 -108 83 C-106.68 83 -105.36 83 -104 83 C-104 79.04 -104 75.08 -104 71 C-102.68 71 -101.36 71 -100 71 C-100 69.68 -100 68.36 -100 67 C-97.36 67 -94.72 67 -92 67 C-92 65.68 -92 64.36 -92 63 C-87.71 63 -83.42 63 -79 63 C-79 66.96 -79 70.92 -79 75 C-77.68 75 -76.36 75 -75 75 C-75 79.29 -75 83.58 -75 88 C-73.68 88 -72.36 88 -71 88 C-71 91.96 -71 95.92 -71 100 C-69.68 100 -68.36 100 -67 100 C-67 104.29 -67 108.58 -67 113 C-65.68 113 -64.36 113 -63 113 C-63 116.96 -63 120.92 -63 125 C-60.03 125 -57.06 125 -54 125 C-54 122.36 -54 119.72 -54 117 C-52.68 117 -51.36 117 -50 117 C-50 112.71 -50 108.42 -50 104 C-48.68 104 -47.36 104 -46 104 C-46 101.36 -46 98.72 -46 96 C-44.68 96 -43.36 96 -42 96 C-42 93.36 -42 90.72 -42 88 C-40.68 88 -39.36 88 -38 88 C-38 81.07 -38 74.14 -38 67 C-36.35 67 -34.7 67 -33 67 C-33 64.03 -33 61.06 -33 58 C-31.68 58 -30.36 58 -29 58 C-29 54.04 -29 50.08 -29 46 C-27.68 46 -26.36 46 -25 46 C-25 43.36 -25 40.72 -25 38 C-23.68 38 -22.36 38 -21 38 C-21 36.35 -21 34.7 -21 33 C-19.68 33 -18.36 33 -17 33 C-17 29.04 -17 25.08 -17 21 C-15.68 21 -14.36 21 -13 21 C-13 18.36 -13 15.72 -13 13 C-11.35 13 -9.7 13 -8 13 C-8 11.35 -8 9.7 -8 8 C-6.68 8 -5.36 8 -4 8 C-4 6.68 -4 5.36 -4 4 C-2.68 4 -1.36 4 0 4 C0 2.68 0 1.36 0 0 Z M-142 113 C-142 114.32 -142 115.64 -142 117 C-140.68 117 -139.36 117 -138 117 C-138 115.68 -138 114.36 -138 113 C-139.32 113 -140.64 113 -142 113 Z " fill="#000000" transform="translate(202,10)"/>
</svg>
