<?xml version="1.0" encoding="UTF-8"?>
<!-- Generator: visioncortex VTracer 0.6.12 -->
<svg version="1.1" xmlns="http://www.w3.org/2000/svg" width="106" height="152">
<path d="M0 0 C4.949 3.782 6.959 8.427 9.305 14.074 C9.73 15.059 10.156 16.044 10.594 17.059 C19.409 37.8 21.547 58.629 23.18 80.887 C23.433 84.226 23.689 87.565 23.944 90.904 C24.101 92.962 24.256 95.02 24.408 97.078 C24.479 98.024 24.549 98.969 24.622 99.943 C24.688 100.861 24.754 101.778 24.823 102.724 C24.983 104.649 25.178 106.572 25.401 108.492 C25.511 109.455 25.621 110.419 25.734 111.413 C25.788 111.843 25.788 111.843 26.062 114.018 C26.054 116.928 25.278 118.895 24.055 121.512 C21.242 121.824 21.242 121.824 18.055 121.512 C14.652 117.366 14.363 113.092 13.93 107.949 C13.85 107.112 13.771 106.275 13.689 105.412 C13.091 98.78 12.747 92.143 12.442 85.492 C9.436 20.753 9.436 20.753 -6.555 4.918 C-10.88 1.92 -15.378 0.967 -20.539 1.051 C-26.062 2.109 -29.421 6.423 -32.602 10.781 C-34.197 13.301 -35.596 15.852 -36.945 18.512 C-37.376 19.36 -37.806 20.208 -38.25 21.082 C-41.148 27.399 -42.975 33.91 -44.633 40.637 C-44.734 41.038 -44.734 41.038 -45.246 43.072 C-49.707 62.191 -49.313 81.77 -49.477 101.278 C-49.511 104.898 -49.556 108.517 -49.602 112.137 C-49.607 113.251 -49.612 114.366 -49.618 115.514 C-49.631 116.537 -49.644 117.559 -49.658 118.613 C-49.665 119.514 -49.673 120.414 -49.68 121.342 C-49.945 123.512 -49.945 123.512 -51.945 125.512 C-55.01 125.355 -56.498 124.928 -58.758 122.824 C-60.289 119.842 -60.298 117.825 -59.945 114.512 C-59.285 113.522 -58.625 112.532 -57.945 111.512 C-57.739 108.771 -57.644 106.125 -57.637 103.383 C-57.614 101.704 -57.591 100.024 -57.568 98.345 C-57.563 97.905 -57.563 97.905 -57.54 95.676 C-57.185 65.588 -55.297 36.572 -40.883 9.512 C-40.397 8.584 -39.911 7.655 -39.41 6.699 C-37.945 4.512 -37.945 4.512 -34.945 3.512 C-34.677 2.934 -34.409 2.357 -34.133 1.762 C-32.212 -1.878 -28.992 -4.816 -25.043 -6.113 C-15.289 -7.857 -8.074 -5.438 0 0 Z " fill="#000000" transform="translate(69.9453125,16.48828125)"/>
<path d="M0 0 C1.675 0.286 3.344 0.618 5 1 C5.25 3.25 5.25 3.25 5 6 C2.254 9.362 -0.003 10.623 -4.188 11.625 C-5.068 11.844 -5.948 12.063 -6.855 12.289 C-7.893 12.524 -8.931 12.758 -10 13 C-10.332 13.086 -10.332 13.086 -12.011 13.524 C-17.804 14.963 -23.234 15.273 -29.188 15.188 C-30.051 15.187 -30.914 15.186 -31.803 15.186 C-36.308 15.155 -40.567 14.907 -45 14 C-45.33 11.69 -45.66 9.38 -46 7 C-43.183 5.592 -40.888 5.941 -37.742 6.008 C-36.476 6.025 -35.21 6.041 -33.906 6.059 C-31.242 6.099 -28.578 6.154 -25.914 6.215 C-18.818 6.294 -13.431 6.059 -7 3 C-5.866 2.629 -4.731 2.257 -3.562 1.875 C-1 1 -1 1 0 0 Z " fill="#000000" transform="translate(72,75)"/>
</svg>
