<?xml version="1.0" encoding="UTF-8"?>
<!-- Generator: visioncortex VTracer 0.6.12 -->
<svg version="1.1" xmlns="http://www.w3.org/2000/svg" width="64" height="128">
<path d="M0 0 C2.438 0.812 2.438 0.812 4.438 2.812 C7.935 4.055 11.49 4.016 15.172 4.129 C16.467 4.171 17.763 4.213 19.098 4.256 C20.461 4.296 21.824 4.335 23.188 4.375 C24.566 4.418 25.945 4.462 27.324 4.506 C30.695 4.612 34.066 4.714 37.438 4.812 C37.82 6.469 38.151 8.137 38.438 9.812 C35.808 12.442 28.72 11.256 25.137 11.37 C23.078 11.437 21.019 11.515 18.961 11.594 C18.314 11.616 18.314 11.616 15.039 11.727 C14.443 11.747 14.443 11.747 11.424 11.85 C8.438 11.812 8.438 11.812 5.438 10.812 C5.438 27.312 5.438 43.812 5.438 60.812 C8.902 60.317 8.902 60.317 26.438 57.812 C28.417 57.812 30.398 57.812 32.438 57.812 C32.602 58.638 32.602 58.638 33.438 62.812 C25.437 65.468 18.089 66.871 9.66 66.832 C8.865 66.829 8.07 66.826 7.25 66.823 C6.652 66.82 6.054 66.816 5.438 66.812 C5.548 70.667 5.679 74.521 5.812 78.375 C5.843 79.461 5.874 80.547 5.906 81.666 C6.116 87.417 6.628 92.356 8.438 97.812 C8.949 103.951 8.949 103.951 7.25 106.812 C5.437 107.812 5.437 107.812 2.938 107.688 C0.187 106.725 -0.747 106.05 -2.562 103.812 C-6.663 93.207 -6.002 81.561 -5.961 70.398 C-5.963 68.451 -5.966 66.504 -5.97 64.557 C-5.974 60.504 -5.968 56.452 -5.954 52.399 C-5.936 47.201 -5.946 42.004 -5.964 36.807 C-5.975 32.799 -5.972 28.791 -5.964 24.783 C-5.962 22.865 -5.964 20.947 -5.971 19.03 C-5.979 16.361 -5.967 13.693 -5.951 11.025 C-5.957 10.233 -5.963 9.442 -5.969 8.626 C-5.907 3.324 -5.907 3.324 -4.198 0.788 C-2.562 -0.188 -2.562 -0.188 0 0 Z " fill="#000000" transform="translate(15.5625,10.1875)"/>
</svg>
