<?xml version="1.0" encoding="UTF-8"?>
<!-- Generator: visioncortex VTracer 0.6.12 -->
<svg version="1.1" xmlns="http://www.w3.org/2000/svg" width="175" height="242">
<path d="M0 0 C5.61 0 11.22 0 17 0 C17 1.32 17 2.64 17 4 C18.32 4 19.64 4 21 4 C21 28.75 21 53.5 21 79 C19.68 79 18.36 79 17 79 C17 80.65 17 82.3 17 84 C19.64 84 22.28 84 25 84 C25 111.39 25 138.78 25 167 C26.32 167 27.64 167 29 167 C29 168.32 29 169.64 29 171 C37.25 171 45.5 171 54 171 C54 172.32 54 173.64 54 175 C56.97 175 59.94 175 63 175 C63 176.32 63 177.64 63 179 C66.96 179 70.92 179 75 179 C75 180.65 75 182.3 75 184 C80.61 184 86.22 184 92 184 C92 185.32 92 186.64 92 188 C96.29 188 100.58 188 105 188 C105 186.68 105 185.36 105 184 C107.64 184 110.28 184 113 184 C113 182.35 113 180.7 113 179 C114.32 179 115.64 179 117 179 C117 177.68 117 176.36 117 175 C118.32 175 119.64 175 121 175 C121 172.36 121 169.72 121 167 C122.32 167 123.64 167 125 167 C125 158.75 125 150.5 125 142 C123.68 142 122.36 142 121 142 C121 137.71 121 133.42 121 129 C117.04 129 113.08 129 109 129 C109 127.68 109 126.36 109 125 C107.68 125 106.36 125 105 125 C105 126.32 105 127.64 105 129 C103.35 129 101.7 129 100 129 C100 130.65 100 132.3 100 134 C102.97 134 105.94 134 109 134 C109 135.32 109 136.64 109 138 C110.32 138 111.64 138 113 138 C113 139.32 113 140.64 113 142 C107.39 142 101.78 142 96 142 C96 139.36 96 136.72 96 134 C94.68 134 93.36 134 92 134 C92 131.03 92 128.06 92 125 C93.32 125 94.64 125 96 125 C96 122.36 96 119.72 96 117 C97.32 117 98.64 117 100 117 C100 115.68 100 114.36 100 113 C104.29 113 108.58 113 113 113 C113 111.68 113 110.36 113 109 C119.93 109 126.86 109 134 109 C134 110.32 134 111.64 134 113 C135.32 113 136.64 113 138 113 C138 114.32 138 115.64 138 117 C139.32 117 140.64 117 142 117 C142 118.32 142 119.64 142 121 C143.32 121 144.64 121 146 121 C146 125.29 146 129.58 146 134 C147.32 134 148.64 134 150 134 C150 147.53 150 161.06 150 175 C148.68 175 147.36 175 146 175 C146 177.97 146 180.94 146 184 C144.68 184 143.36 184 142 184 C142 187.96 142 191.92 142 196 C140.68 196 139.36 196 138 196 C138 197.32 138 198.64 138 200 C136.68 200 135.36 200 134 200 C134 201.32 134 202.64 134 204 C131.03 204 128.06 204 125 204 C125 205.65 125 207.3 125 209 C121.04 209 117.08 209 113 209 C113 210.32 113 211.64 113 213 C102.11 213 91.22 213 80 213 C80 211.68 80 210.36 80 209 C74.39 209 68.78 209 63 209 C63 207.35 63 205.7 63 204 C57.39 204 51.78 204 46 204 C46 202.68 46 201.36 46 200 C40.39 200 34.78 200 29 200 C29 201.32 29 202.64 29 204 C27.68 204 26.36 204 25 204 C25 205.65 25 207.3 25 209 C23.68 209 22.36 209 21 209 C21 211.64 21 214.28 21 217 C19.68 217 18.36 217 17 217 C17 218.32 17 219.64 17 221 C12.71 221 8.42 221 4 221 C4 219.68 4 218.36 4 217 C2.68 217 1.36 217 0 217 C0 215.68 0 214.36 0 213 C-1.32 213 -2.64 213 -4 213 C-4 204.75 -4 196.5 -4 188 C-2.68 188 -1.36 188 0 188 C0 150.71 0 113.42 0 75 C-1.32 75 -2.64 75 -4 75 C-4 69.72 -4 64.44 -4 59 C-2.68 59 -1.36 59 0 59 C0 57.35 0 55.7 0 54 C-1.32 54 -2.64 54 -4 54 C-4 44.43 -4 34.86 -4 25 C-5.32 25 -6.64 25 -8 25 C-8 22.36 -8 19.72 -8 17 C-6.68 17 -5.36 17 -4 17 C-4 12.71 -4 8.42 -4 4 C-2.68 4 -1.36 4 0 4 C0 2.68 0 1.36 0 0 Z M134 142 C134 144.64 134 147.28 134 150 C135.32 150 136.64 150 138 150 C138 147.36 138 144.72 138 142 C136.68 142 135.36 142 134 142 Z M134 175 C134 176.32 134 177.64 134 179 C136.64 179 139.28 179 142 179 C142 177.68 142 176.36 142 175 C139.36 175 136.72 175 134 175 Z M17 188 C17 190.64 17 193.28 17 196 C18.32 196 19.64 196 21 196 C21 193.36 21 190.72 21 188 C19.68 188 18.36 188 17 188 Z M25 188 C25 190.64 25 193.28 25 196 C27.97 196 30.94 196 34 196 C34 193.36 34 190.72 34 188 C31.03 188 28.06 188 25 188 Z M46 188 C46 190.64 46 193.28 46 196 C47.32 196 48.64 196 50 196 C50 197.32 50 198.64 50 200 C52.97 200 55.94 200 59 200 C59 196.04 59 192.08 59 188 C54.71 188 50.42 188 46 188 Z M67 196 C67 197.32 67 198.64 67 200 C69.64 200 72.28 200 75 200 C75 198.68 75 197.36 75 196 C72.36 196 69.72 196 67 196 Z M80 200 C80 202.97 80 205.94 80 209 C81.32 209 82.64 209 84 209 C84 206.03 84 203.06 84 200 C82.68 200 81.36 200 80 200 Z M92 200 C92 202.97 92 205.94 92 209 C93.32 209 94.64 209 96 209 C96 206.03 96 203.06 96 200 C94.68 200 93.36 200 92 200 Z M105 200 C105 201.32 105 202.64 105 204 C106.32 204 107.64 204 109 204 C109 205.65 109 207.3 109 209 C110.32 209 111.64 209 113 209 C113 207.35 113 205.7 113 204 C114.32 204 115.64 204 117 204 C117 202.68 117 201.36 117 200 C113.04 200 109.08 200 105 200 Z M13 204 C13 205.65 13 207.3 13 209 C15.64 209 18.28 209 21 209 C21 207.35 21 205.7 21 204 C18.36 204 15.72 204 13 204 Z " fill="#000000" transform="translate(15,11)"/>
</svg>
