<?xml version="1.0" encoding="UTF-8"?>
<!-- Generator: visioncortex VTracer 0.6.12 -->
<svg version="1.1" xmlns="http://www.w3.org/2000/svg" width="212" height="271">
<path d="M0 0 C4.29 0 8.58 0 13 0 C13 1.32 13 2.64 13 4 C14.32 4 15.64 4 17 4 C17 6.64 17 9.28 17 12 C15.68 12 14.36 12 13 12 C13 14.97 13 17.94 13 21 C14.32 21 15.64 21 17 21 C17 22.32 17 23.64 17 25 C15.68 25 14.36 25 13 25 C13 26.32 13 27.64 13 29 C11.35 29 9.7 29 8 29 C8 30.32 8 31.64 8 33 C6.68 33 5.36 33 4 33 C4 34.32 4 35.64 4 37 C2.68 37 1.36 37 0 37 C0 38.32 0 39.64 0 41 C-1.32 41 -2.64 41 -4 41 C-4 42.65 -4 44.3 -4 46 C-5.32 46 -6.64 46 -8 46 C-8 48.64 -8 51.28 -8 54 C-9.32 54 -10.64 54 -12 54 C-12 56.64 -12 59.28 -12 62 C-13.65 62 -15.3 62 -17 62 C-17 63.32 -17 64.64 -17 66 C-18.32 66 -19.64 66 -21 66 C-21 67.65 -21 69.3 -21 71 C-22.32 71 -23.64 71 -25 71 C-25 73.64 -25 76.28 -25 79 C-26.32 79 -27.64 79 -29 79 C-29 80.32 -29 81.64 -29 83 C-30.32 83 -31.64 83 -33 83 C-33 84.32 -33 85.64 -33 87 C-34.32 87 -35.64 87 -37 87 C-37 89.97 -37 92.94 -37 96 C-38.65 96 -40.3 96 -42 96 C-42 97.32 -42 98.64 -42 100 C-43.32 100 -44.64 100 -46 100 C-46 102.64 -46 105.28 -46 108 C-47.32 108 -48.64 108 -50 108 C-50 109.32 -50 110.64 -50 112 C-51.32 112 -52.64 112 -54 112 C-54 114.97 -54 117.94 -54 121 C-55.32 121 -56.64 121 -58 121 C-58 123.64 -58 126.28 -58 129 C-59.32 129 -60.64 129 -62 129 C-62 130.32 -62 131.64 -62 133 C-64.97 133 -67.94 133 -71 133 C-71 135.97 -71 138.94 -71 142 C-72.32 142 -73.64 142 -75 142 C-75 143.32 -75 144.64 -75 146 C-76.32 146 -77.64 146 -79 146 C-79 148.64 -79 151.28 -79 154 C-80.32 154 -81.64 154 -83 154 C-83 155.32 -83 156.64 -83 158 C-84.32 158 -85.64 158 -87 158 C-87 162.29 -87 166.58 -87 171 C-88.65 171 -90.3 171 -92 171 C-92 172.32 -92 173.64 -92 175 C-93.32 175 -94.64 175 -96 175 C-96 176.32 -96 177.64 -96 179 C-97.32 179 -98.64 179 -100 179 C-100 181.64 -100 184.28 -100 187 C-101.32 187 -102.64 187 -104 187 C-104 188.65 -104 190.3 -104 192 C-93.11 192 -82.22 192 -71 192 C-71 193.32 -71 194.64 -71 196 C-68.03 196 -65.06 196 -62 196 C-62 197.32 -62 198.64 -62 200 C-59.36 200 -56.72 200 -54 200 C-54 201.32 -54 202.64 -54 204 C-52.68 204 -51.36 204 -50 204 C-50 205.32 -50 206.64 -50 208 C-48.68 208 -47.36 208 -46 208 C-46 209.32 -46 210.64 -46 212 C-40.39 212 -34.78 212 -29 212 C-29 213.65 -29 215.3 -29 217 C-25.04 217 -21.08 217 -17 217 C-17 218.32 -17 219.64 -17 221 C-10.07 221 -3.14 221 4 221 C4 219.68 4 218.36 4 217 C5.32 217 6.64 217 8 217 C8 215.35 8 213.7 8 212 C9.65 212 11.3 212 13 212 C13 210.68 13 209.36 13 208 C14.32 208 15.64 208 17 208 C17 206.68 17 205.36 17 204 C15.68 204 14.36 204 13 204 C13 195.75 13 187.5 13 179 C14.32 179 15.64 179 17 179 C17 177.68 17 176.36 17 175 C20.96 175 24.92 175 29 175 C29 176.32 29 177.64 29 179 C30.32 179 31.64 179 33 179 C33 180.32 33 181.64 33 183 C34.65 183 36.3 183 38 183 C38 192.57 38 202.14 38 212 C36.35 212 34.7 212 33 212 C33 216.29 33 220.58 33 225 C31.68 225 30.36 225 29 225 C29 227.64 29 230.28 29 233 C27.68 233 26.36 233 25 233 C25 234.32 25 235.64 25 237 C23.68 237 22.36 237 21 237 C21 238.65 21 240.3 21 242 C18.36 242 15.72 242 13 242 C13 243.32 13 244.64 13 246 C7.39 246 1.78 246 -4 246 C-4 247.32 -4 248.64 -4 250 C-5.32 250 -6.64 250 -8 250 C-8 248.68 -8 247.36 -8 246 C-14.93 246 -21.86 246 -29 246 C-29 244.68 -29 243.36 -29 242 C-33.29 242 -37.58 242 -42 242 C-42 240.35 -42 238.7 -42 237 C-44.64 237 -47.28 237 -50 237 C-50 235.68 -50 234.36 -50 233 C-51.32 233 -52.64 233 -54 233 C-54 231.68 -54 230.36 -54 229 C-56.64 229 -59.28 229 -62 229 C-62 227.68 -62 226.36 -62 225 C-63.65 225 -65.3 225 -67 225 C-67 223.68 -67 222.36 -67 221 C-70.96 221 -74.92 221 -79 221 C-79 219.68 -79 218.36 -79 217 C-81.64 217 -84.28 217 -87 217 C-87 215.35 -87 213.7 -87 212 C-89.97 212 -92.94 212 -96 212 C-96 213.65 -96 215.3 -96 217 C-101.61 217 -107.22 217 -113 217 C-113 218.32 -113 219.64 -113 221 C-114.32 221 -115.64 221 -117 221 C-117 222.32 -117 223.64 -117 225 C-118.32 225 -119.64 225 -121 225 C-121 227.64 -121 230.28 -121 233 C-122.32 233 -123.64 233 -125 233 C-125 234.32 -125 235.64 -125 237 C-126.32 237 -127.64 237 -129 237 C-129 239.97 -129 242.94 -129 246 C-130.32 246 -131.64 246 -133 246 C-133 247.32 -133 248.64 -133 250 C-138.61 250 -144.22 250 -150 250 C-150 248.68 -150 247.36 -150 246 C-151.32 246 -152.64 246 -154 246 C-154 243.03 -154 240.06 -154 237 C-152.68 237 -151.36 237 -150 237 C-150 234.36 -150 231.72 -150 229 C-148.68 229 -147.36 229 -146 229 C-146 226.36 -146 223.72 -146 221 C-144.68 221 -143.36 221 -142 221 C-142 218.03 -142 215.06 -142 212 C-140.68 212 -139.36 212 -138 212 C-138 210.68 -138 209.36 -138 208 C-136.35 208 -134.7 208 -133 208 C-133 205.36 -133 202.72 -133 200 C-131.68 200 -130.36 200 -129 200 C-129 195.71 -129 191.42 -129 187 C-127.68 187 -126.36 187 -125 187 C-125 184.36 -125 181.72 -125 179 C-123.68 179 -122.36 179 -121 179 C-121 176.36 -121 173.72 -121 171 C-118.36 171 -115.72 171 -113 171 C-113 168.03 -113 165.06 -113 162 C-111.35 162 -109.7 162 -108 162 C-108 159.36 -108 156.72 -108 154 C-106.68 154 -105.36 154 -104 154 C-104 151.36 -104 148.72 -104 146 C-102.68 146 -101.36 146 -100 146 C-100 144.68 -100 143.36 -100 142 C-98.68 142 -97.36 142 -96 142 C-96 139.03 -96 136.06 -96 133 C-94.68 133 -93.36 133 -92 133 C-92 131.68 -92 130.36 -92 129 C-90.35 129 -88.7 129 -87 129 C-87 126.36 -87 123.72 -87 121 C-85.68 121 -84.36 121 -83 121 C-83 118.03 -83 115.06 -83 112 C-81.68 112 -80.36 112 -79 112 C-79 110.68 -79 109.36 -79 108 C-77.68 108 -76.36 108 -75 108 C-75 104.04 -75 100.08 -75 96 C-73.68 96 -72.36 96 -71 96 C-71 94.35 -71 92.7 -71 91 C-69.68 91 -68.36 91 -67 91 C-67 89.68 -67 88.36 -67 87 C-65.35 87 -63.7 87 -62 87 C-62 85.68 -62 84.36 -62 83 C-60.68 83 -59.36 83 -58 83 C-58 80.36 -58 77.72 -58 75 C-56.68 75 -55.36 75 -54 75 C-54 72.03 -54 69.06 -54 66 C-52.68 66 -51.36 66 -50 66 C-50 62.04 -50 58.08 -50 54 C-52.64 54 -55.28 54 -58 54 C-58 55.32 -58 56.64 -58 58 C-59.32 58 -60.64 58 -62 58 C-62 56.68 -62 55.36 -62 54 C-71.9 54 -81.8 54 -92 54 C-92 52.68 -92 51.36 -92 50 C-95.96 50 -99.92 50 -104 50 C-104 51.32 -104 52.64 -104 54 C-106.97 54 -109.94 54 -113 54 C-113 55.32 -113 56.64 -113 58 C-111.35 58 -109.7 58 -108 58 C-108 59.32 -108 60.64 -108 62 C-106.68 62 -105.36 62 -104 62 C-104 66.29 -104 70.58 -104 75 C-105.32 75 -106.64 75 -108 75 C-108 76.32 -108 77.64 -108 79 C-109.65 79 -111.3 79 -113 79 C-113 80.32 -113 81.64 -113 83 C-114.32 83 -115.64 83 -117 83 C-117 84.32 -117 85.64 -117 87 C-122.28 87 -127.56 87 -133 87 C-133 85.68 -133 84.36 -133 83 C-135.97 83 -138.94 83 -142 83 C-142 81.68 -142 80.36 -142 79 C-144.64 79 -147.28 79 -150 79 C-150 70.75 -150 62.5 -150 54 C-148.68 54 -147.36 54 -146 54 C-146 52.68 -146 51.36 -146 50 C-144.68 50 -143.36 50 -142 50 C-142 48.68 -142 47.36 -142 46 C-140.68 46 -139.36 46 -138 46 C-138 44.35 -138 42.7 -138 41 C-136.35 41 -134.7 41 -133 41 C-133 39.68 -133 38.36 -133 37 C-131.68 37 -130.36 37 -129 37 C-129 35.68 -129 34.36 -129 33 C-127.68 33 -126.36 33 -125 33 C-125 31.68 -125 30.36 -125 29 C-112.46 29 -99.92 29 -87 29 C-87 30.32 -87 31.64 -87 33 C-85.68 33 -84.36 33 -83 33 C-83 31.68 -83 30.36 -83 29 C-80.36 29 -77.72 29 -75 29 C-75 30.32 -75 31.64 -75 33 C-66.75 33 -58.5 33 -50 33 C-50 31.68 -50 30.36 -50 29 C-44.39 29 -38.78 29 -33 29 C-33 27.68 -33 26.36 -33 25 C-30.36 25 -27.72 25 -25 25 C-25 23.68 -25 22.36 -25 21 C-23.68 21 -22.36 21 -21 21 C-21 19.35 -21 17.7 -21 16 C-19.68 16 -18.36 16 -17 16 C-17 14.68 -17 13.36 -17 12 C-15.35 12 -13.7 12 -12 12 C-12 10.68 -12 9.36 -12 8 C-9.36 8 -6.72 8 -4 8 C-4 6.68 -4 5.36 -4 4 C-2.68 4 -1.36 4 0 4 C0 2.68 0 1.36 0 0 Z M-8 25 C-8 27.64 -8 30.28 -8 33 C-6.68 33 -5.36 33 -4 33 C-4 30.36 -4 27.72 -4 25 C-5.32 25 -6.64 25 -8 25 Z M-58 100 C-58 101.32 -58 102.64 -58 104 C-56.68 104 -55.36 104 -54 104 C-54 102.68 -54 101.36 -54 100 C-55.32 100 -56.64 100 -58 100 Z M-71 121 C-71 122.32 -71 123.64 -71 125 C-68.03 125 -65.06 125 -62 125 C-62 123.68 -62 122.36 -62 121 C-64.97 121 -67.94 121 -71 121 Z " fill="#000000" transform="translate(164,10)"/>
</svg>
