<?xml version="1.0" encoding="UTF-8"?>
<!-- Generator: visioncortex VTracer 0.6.12 -->
<svg version="1.1" xmlns="http://www.w3.org/2000/svg" width="97" height="94">
<path d="M0 0 C0.449 -0.003 0.449 -0.003 2.722 -0.019 C3.696 -0.02 4.67 -0.022 5.673 -0.023 C6.174 -0.024 6.174 -0.024 8.708 -0.033 C10.832 -0.038 12.957 -0.04 15.081 -0.04 C18.318 -0.042 21.555 -0.06 24.792 -0.079 C26.857 -0.082 28.921 -0.084 30.986 -0.085 C31.949 -0.092 32.913 -0.1 33.906 -0.107 C46.298 -0.065 46.298 -0.065 50.599 3.958 C51.893 6.622 51.921 8.204 51.661 11.145 C48.775 16.549 44.358 20.329 39.661 24.145 C38.704 25.253 37.767 26.379 36.849 27.52 C34.003 30.938 30.835 33.469 27.286 36.13 C22.424 39.863 17.803 43.889 13.149 47.878 C11.851 48.983 10.541 50.073 9.228 51.161 C8.546 51.733 7.864 52.306 7.161 52.895 C6.594 53.364 6.027 53.834 5.443 54.317 C2.826 57.003 0.776 60.058 -1.339 63.145 C13.146 63.07 27.455 62.951 41.661 59.833 C42.126 59.732 42.126 59.732 44.476 59.225 C49.7 57.97 53.334 56.298 57.661 53.145 C60.411 52.77 60.411 52.77 62.661 53.145 C63.321 53.805 63.981 54.465 64.661 55.145 C64.582 58.723 63.981 60.702 61.88 63.61 C57.659 67.622 51.707 68.517 46.224 69.895 C45.047 70.199 43.87 70.503 42.657 70.815 C34.536 72.841 27.049 74.183 18.661 74.145 C16.995 74.179 15.328 74.216 13.661 74.255 C11.87 74.283 10.078 74.309 8.286 74.333 C7.87 74.339 7.87 74.339 5.761 74.374 C0.395 74.378 -4.21 73.77 -9.339 72.145 C-11.641 69.843 -12.248 68.327 -12.495 65.098 C-12.064 54.686 -3.545 47.783 3.661 41.145 C7.268 38.069 10.962 35.109 14.661 32.145 C16.795 30.405 18.917 28.652 21.036 26.895 C21.993 26.106 22.949 25.317 23.935 24.505 C26.646 22.158 29.154 19.707 31.661 17.145 C32.764 16.04 33.869 14.936 34.974 13.833 C35.861 12.946 36.748 12.059 37.661 11.145 C36.821 11.12 35.98 11.095 35.114 11.069 C31.928 10.973 28.743 10.874 25.558 10.773 C24.192 10.73 22.826 10.689 21.459 10.648 C14.401 10.438 7.346 10.177 0.298 9.735 C-0.743 9.671 -1.783 9.606 -2.855 9.54 C-5.339 9.145 -5.339 9.145 -7.339 7.145 C-7.089 4.083 -7.089 4.083 -6.339 1.145 C-3.999 -0.025 -2.607 0.013 0 0 Z " fill="#000000" transform="translate(22.338623046875,9.854736328125)"/>
</svg>
