<?xml version="1.0" encoding="UTF-8"?>
<!-- Generator: visioncortex VTracer 0.6.12 -->
<svg version="1.1" xmlns="http://www.w3.org/2000/svg" width="179" height="246">
<path d="M0 0 C19.14 0 38.28 0 58 0 C58 1.32 58 2.64 58 4 C60.97 4 63.94 4 67 4 C67 5.32 67 6.64 67 8 C68.32 8 69.64 8 71 8 C71 9.32 71 10.64 71 12 C72.32 12 73.64 12 75 12 C75 13.65 75 15.3 75 17 C77.64 17 80.28 17 83 17 C83 18.32 83 19.64 83 21 C84.32 21 85.64 21 87 21 C87 22.32 87 23.64 87 25 C88.65 25 90.3 25 92 25 C92 27.64 92 30.28 92 33 C93.32 33 94.64 33 96 33 C96 41.25 96 49.5 96 58 C94.68 58 93.36 58 92 58 C92 60.97 92 63.94 92 67 C87.71 67 83.42 67 79 67 C79 68.32 79 69.64 79 71 C77.68 71 76.36 71 75 71 C75 69.68 75 68.36 75 67 C73.68 67 72.36 67 71 67 C71 64.03 71 61.06 71 58 C69.68 58 68.36 58 67 58 C67 55.36 67 52.72 67 50 C68.32 50 69.64 50 71 50 C71 47.36 71 44.72 71 42 C69.68 42 68.36 42 67 42 C67 39.03 67 36.06 67 33 C65.35 33 63.7 33 62 33 C62 31.68 62 30.36 62 29 C60.68 29 59.36 29 58 29 C58 27.68 58 26.36 58 25 C54.04 25 50.08 25 46 25 C46 23.68 46 22.36 46 21 C34.78 21 23.56 21 12 21 C12 22.32 12 23.64 12 25 C10.68 25 9.36 25 8 25 C8 26.32 8 27.64 8 29 C5.36 29 2.72 29 0 29 C0 30.32 0 31.64 0 33 C-1.32 33 -2.64 33 -4 33 C-4 34.32 -4 35.64 -4 37 C-8.29 37 -12.58 37 -17 37 C-17 38.65 -17 40.3 -17 42 C-14.03 42 -11.06 42 -8 42 C-8 43.32 -8 44.64 -8 46 C-9.65 46 -11.3 46 -13 46 C-13 48.64 -13 51.28 -13 54 C-14.32 54 -15.64 54 -17 54 C-17 59.61 -17 65.22 -17 71 C-18.32 71 -19.64 71 -21 71 C-21 72.32 -21 73.64 -21 75 C-23.64 75 -26.28 75 -29 75 C-29 76.32 -29 77.64 -29 79 C-26.36 79 -23.72 79 -21 79 C-21 95.5 -21 112 -21 129 C-19.68 129 -18.36 129 -17 129 C-17 134.61 -17 140.22 -17 146 C-15.68 146 -14.36 146 -13 146 C-13 149.96 -13 153.92 -13 158 C-11.35 158 -9.7 158 -8 158 C-8 159.32 -8 160.64 -8 162 C-6.68 162 -5.36 162 -4 162 C-4 164.97 -4 167.94 -4 171 C-2.68 171 -1.36 171 0 171 C0 172.32 0 173.64 0 175 C1.32 175 2.64 175 4 175 C4 176.32 4 177.64 4 179 C5.32 179 6.64 179 8 179 C8 180.32 8 181.64 8 183 C9.32 183 10.64 183 12 183 C12 184.32 12 185.64 12 187 C13.65 187 15.3 187 17 187 C17 188.65 17 190.3 17 192 C18.32 192 19.64 192 21 192 C21 193.32 21 194.64 21 196 C22.32 196 23.64 196 25 196 C25 197.32 25 198.64 25 200 C28.96 200 32.92 200 37 200 C37 201.32 37 202.64 37 204 C39.97 204 42.94 204 46 204 C46 202.68 46 201.36 46 200 C48.64 200 51.28 200 54 200 C54 201.32 54 202.64 54 204 C55.32 204 56.64 204 58 204 C58 202.68 58 201.36 58 200 C60.97 200 63.94 200 67 200 C67 197.36 67 194.72 67 192 C69.64 192 72.28 192 75 192 C75 190.35 75 188.7 75 187 C76.32 187 77.64 187 79 187 C79 184.36 79 181.72 79 179 C80.32 179 81.64 179 83 179 C83 177.68 83 176.36 83 175 C84.32 175 85.64 175 87 175 C87 172.36 87 169.72 87 167 C88.65 167 90.3 167 92 167 C92 165.35 92 163.7 92 162 C95.96 162 99.92 162 104 162 C104 164.97 104 167.94 104 171 C105.32 171 106.64 171 108 171 C108 177.93 108 184.86 108 192 C106.68 192 105.36 192 104 192 C104 193.32 104 194.64 104 196 C102.68 196 101.36 196 100 196 C100 197.32 100 198.64 100 200 C98.68 200 97.36 200 96 200 C96 201.32 96 202.64 96 204 C94.68 204 93.36 204 92 204 C92 205.32 92 206.64 92 208 C90.35 208 88.7 208 87 208 C87 209.32 87 210.64 87 212 C85.68 212 84.36 212 83 212 C83 213.65 83 215.3 83 217 C80.36 217 77.72 217 75 217 C75 218.32 75 219.64 75 221 C72.36 221 69.72 221 67 221 C67 222.32 67 223.64 67 225 C58.75 225 50.5 225 42 225 C42 226.32 42 227.64 42 229 C39.03 229 36.06 229 33 229 C33 227.68 33 226.36 33 225 C27.72 225 22.44 225 17 225 C17 223.68 17 222.36 17 221 C14.03 221 11.06 221 8 221 C8 219.68 8 218.36 8 217 C6.68 217 5.36 217 4 217 C4 215.35 4 213.7 4 212 C2.68 212 1.36 212 0 212 C0 210.68 0 209.36 0 208 C-1.32 208 -2.64 208 -4 208 C-4 206.68 -4 205.36 -4 204 C-6.97 204 -9.94 204 -13 204 C-13 202.68 -13 201.36 -13 200 C-14.32 200 -15.64 200 -17 200 C-17 198.68 -17 197.36 -17 196 C-18.32 196 -19.64 196 -21 196 C-21 193.03 -21 190.06 -21 187 C-22.32 187 -23.64 187 -25 187 C-25 185.68 -25 184.36 -25 183 C-26.32 183 -27.64 183 -29 183 C-29 179.04 -29 175.08 -29 171 C-30.32 171 -31.64 171 -33 171 C-33 168.03 -33 165.06 -33 162 C-34.65 162 -36.3 162 -38 162 C-38 160.68 -38 159.36 -38 158 C-39.32 158 -40.64 158 -42 158 C-42 152.72 -42 147.44 -42 142 C-43.32 142 -44.64 142 -46 142 C-46 132.1 -46 122.2 -46 112 C-44.68 112 -43.36 112 -42 112 C-42 110.68 -42 109.36 -42 108 C-43.32 108 -44.64 108 -46 108 C-46 106.68 -46 105.36 -46 104 C-47.32 104 -48.64 104 -50 104 C-50 100.04 -50 96.08 -50 92 C-48.68 92 -47.36 92 -46 92 C-46 82.1 -46 72.2 -46 62 C-44.68 62 -43.36 62 -42 62 C-42 58.04 -42 54.08 -42 50 C-40.68 50 -39.36 50 -38 50 C-38 47.36 -38 44.72 -38 42 C-36.35 42 -34.7 42 -33 42 C-33 40.35 -33 38.7 -33 37 C-31.68 37 -30.36 37 -29 37 C-29 34.36 -29 31.72 -29 29 C-27.68 29 -26.36 29 -25 29 C-25 27.68 -25 26.36 -25 25 C-23.68 25 -22.36 25 -21 25 C-21 22.36 -21 19.72 -21 17 C-19.68 17 -18.36 17 -17 17 C-17 15.35 -17 13.7 -17 12 C-15.68 12 -14.36 12 -13 12 C-13 10.68 -13 9.36 -13 8 C-11.35 8 -9.7 8 -8 8 C-8 6.68 -8 5.36 -8 4 C-5.36 4 -2.72 4 0 4 C0 2.68 0 1.36 0 0 Z M21 8 C21 9.32 21 10.64 21 12 C23.64 12 26.28 12 29 12 C29 10.68 29 9.36 29 8 C26.36 8 23.72 8 21 8 Z M42 8 C42 9.32 42 10.64 42 12 C43.32 12 44.64 12 46 12 C46 10.68 46 9.36 46 8 C44.68 8 43.36 8 42 8 Z M0 17 C0 18.32 0 19.64 0 21 C-1.32 21 -2.64 21 -4 21 C-4 22.32 -4 23.64 -4 25 C-0.04 25 3.92 25 8 25 C8 23.68 8 22.36 8 21 C6.68 21 5.36 21 4 21 C4 19.68 4 18.36 4 17 C2.68 17 1.36 17 0 17 Z M-8 25 C-8 26.32 -8 27.64 -8 29 C-6.68 29 -5.36 29 -4 29 C-4 27.68 -4 26.36 -4 25 C-5.32 25 -6.64 25 -8 25 Z M79 29 C79 30.32 79 31.64 79 33 C81.64 33 84.28 33 87 33 C87 31.68 87 30.36 87 29 C84.36 29 81.72 29 79 29 Z M-38 96 C-38 97.32 -38 98.64 -38 100 C-36.35 100 -34.7 100 -33 100 C-33 98.68 -33 97.36 -33 96 C-34.65 96 -36.3 96 -38 96 Z M-29 104 C-29 106.64 -29 109.28 -29 112 C-27.68 112 -26.36 112 -25 112 C-25 109.36 -25 106.72 -25 104 C-26.32 104 -27.64 104 -29 104 Z M-38 125 C-38 126.32 -38 127.64 -38 129 C-36.35 129 -34.7 129 -33 129 C-33 127.68 -33 126.36 -33 125 C-34.65 125 -36.3 125 -38 125 Z M92 183 C92 184.32 92 185.64 92 187 C90.35 187 88.7 187 87 187 C87 188.65 87 190.3 87 192 C88.65 192 90.3 192 92 192 C92 193.32 92 194.64 92 196 C93.32 196 94.64 196 96 196 C96 194.68 96 193.36 96 192 C97.32 192 98.64 192 100 192 C100 189.03 100 186.06 100 183 C97.36 183 94.72 183 92 183 Z M83 196 C83 197.32 83 198.64 83 200 C85.97 200 88.94 200 92 200 C92 198.68 92 197.36 92 196 C89.03 196 86.06 196 83 196 Z M62 204 C62 206.64 62 209.28 62 212 C59.36 212 56.72 212 54 212 C54 214.97 54 217.94 54 221 C56.64 221 59.28 221 62 221 C62 219.68 62 218.36 62 217 C64.97 217 67.94 217 71 217 C71 214.03 71 211.06 71 208 C72.32 208 73.64 208 75 208 C75 206.68 75 205.36 75 204 C70.71 204 66.42 204 62 204 Z M75 208 C75 209.32 75 210.64 75 212 C77.64 212 80.28 212 83 212 C83 210.68 83 209.36 83 208 C80.36 208 77.72 208 75 208 Z M42 217 C42 218.32 42 219.64 42 221 C43.32 221 44.64 221 46 221 C46 219.68 46 218.36 46 217 C44.68 217 43.36 217 42 217 Z " fill="#000000" transform="translate(60,10)"/>
</svg>
