<?xml version="1.0" encoding="UTF-8"?>
<!-- Generator: visioncortex VTracer 0.6.12 -->
<svg version="1.1" xmlns="http://www.w3.org/2000/svg" width="79" height="130">
<path d="M0 0 C2.375 -0.125 2.375 -0.125 5 0 C7 2 7 2 7 5 C7.387 4.928 7.387 4.928 9.344 4.562 C24.811 1.806 24.811 1.806 30.438 4.875 C33 7 33 7 34 9 C35.231 23.068 30.643 31.268 22 42 C22.465 42.019 22.465 42.019 24.816 42.113 C35.385 42.675 41.135 44.066 49.203 50.988 C54.242 56.63 54.519 62.026 54.438 69.25 C54.429 70.189 54.421 71.129 54.412 72.096 C54.167 82.142 51.822 88.894 44.852 96.25 C37.867 102.851 31.22 106.15 21.568 106.005 C20.041 105.96 18.515 105.893 16.991 105.802 C13.347 105.655 11.501 105.582 8.641 107.969 C8.099 108.639 7.558 109.309 7 110 C4.5 110.562 4.5 110.562 2 110 C-2.873 105.266 -4.104 100.174 -4.23 93.559 C-4.228 91.185 -4.213 88.811 -4.188 86.438 C-4.178 85.101 -4.17 83.765 -4.161 82.428 C-4.138 79.254 -4.104 76.081 -4.066 72.907 C-4.014 68.478 -3.975 64.049 -3.941 59.621 C-3.893 53.463 -3.833 47.306 -3.759 41.148 C-3.718 37.666 -3.681 34.184 -3.654 30.702 C-3.624 26.736 -3.569 22.77 -3.512 18.805 C-3.505 17.603 -3.499 16.401 -3.492 15.162 C-3.389 9.327 -3.286 4.923 0 0 Z M9 11 C7 13 7 13 6.759 15.784 C6.764 16.97 6.768 18.156 6.773 19.377 C6.773 20.031 6.772 20.685 6.772 21.359 C6.773 23.523 6.789 25.687 6.805 27.852 C6.808 29.351 6.811 30.85 6.813 32.349 C6.821 36.298 6.841 40.247 6.863 44.196 C6.883 48.224 6.892 52.253 6.902 56.281 C6.924 64.188 6.958 72.094 7 80 C9.076 80.553 10.844 81 13 81 C12.983 81.566 12.983 81.566 12.895 84.43 C12.866 85.911 12.839 87.393 12.812 88.875 C12.787 89.621 12.762 90.368 12.736 91.137 C12.707 93.305 12.707 93.305 13 97 C17.104 99.736 20.18 99.72 25 99 C32.997 96.164 40.398 91.531 44.375 83.875 C47.868 76.311 47.732 68.164 47 60 C45.538 56.118 43.19 54.018 40.051 51.332 C35.26 49.24 30.531 49.809 25.375 50 C23.3 50.076 21.224 50.14 19.148 50.188 C18.69 50.205 18.69 50.205 16.373 50.293 C13.556 49.945 12.73 49.186 11 47 C12.328 42.016 14.619 38.641 17.875 34.75 C23.677 27.499 27.832 20.569 27 11 C21.068 8.034 15.171 9.337 9 11 Z " fill="#000000" transform="translate(14,10)"/>
</svg>
