<?xml version="1.0" encoding="UTF-8"?>
<!-- Generator: visioncortex VTracer 0.6.12 -->
<svg version="1.1" xmlns="http://www.w3.org/2000/svg" width="200" height="254">
<path d="M0 0 C5.28 0 10.56 0 16 0 C16 4.29 16 8.58 16 13 C17.65 13 19.3 13 21 13 C21 16.96 21 20.92 21 25 C19.35 25 17.7 25 16 25 C16 64.93 16 104.86 16 146 C17.65 146 19.3 146 21 146 C21 166.46 21 186.92 21 208 C22.32 208 23.64 208 25 208 C25 212.29 25 216.58 25 221 C23.68 221 22.36 221 21 221 C21 224.96 21 228.92 21 233 C15.39 233 9.78 233 4 233 C4 231.68 4 230.36 4 229 C2.68 229 1.36 229 0 229 C0 227.68 0 226.36 0 225 C-1.32 225 -2.64 225 -4 225 C-4 221.04 -4 217.08 -4 213 C-2.68 213 -1.36 213 0 213 C0 211.35 0 209.7 0 208 C-1.32 208 -2.64 208 -4 208 C-4 187.54 -4 167.08 -4 146 C-5.65 146 -7.3 146 -9 146 C-9 130.82 -9 115.64 -9 100 C-10.32 100 -11.64 100 -13 100 C-13 101.32 -13 102.64 -13 104 C-14.32 104 -15.64 104 -17 104 C-17 105.32 -17 106.64 -17 108 C-18.32 108 -19.64 108 -21 108 C-21 109.65 -21 111.3 -21 113 C-22.32 113 -23.64 113 -25 113 C-25 114.32 -25 115.64 -25 117 C-27.97 117 -30.94 117 -34 117 C-34 118.32 -34 119.64 -34 121 C-36.64 121 -39.28 121 -42 121 C-42 122.32 -42 123.64 -42 125 C-50.25 125 -58.5 125 -67 125 C-67 123.68 -67 122.36 -67 121 C-69.64 121 -72.28 121 -75 121 C-75 119.68 -75 118.36 -75 117 C-76.32 117 -77.64 117 -79 117 C-79 119.64 -79 122.28 -79 125 C-80.65 125 -82.3 125 -84 125 C-84 131.93 -84 138.86 -84 146 C-85.32 146 -86.64 146 -88 146 C-88 151.61 -88 157.22 -88 163 C-89.32 163 -90.64 163 -92 163 C-92 165.64 -92 168.28 -92 171 C-93.32 171 -94.64 171 -96 171 C-96 174.96 -96 178.92 -96 183 C-97.32 183 -98.64 183 -100 183 C-100 187.29 -100 191.58 -100 196 C-101.32 196 -102.64 196 -104 196 C-104 199.96 -104 203.92 -104 208 C-106.97 208 -109.94 208 -113 208 C-113 209.65 -113 211.3 -113 213 C-114.32 213 -115.64 213 -117 213 C-117 214.32 -117 215.64 -117 217 C-119.64 217 -122.28 217 -125 217 C-125 218.32 -125 219.64 -125 221 C-130.61 221 -136.22 221 -142 221 C-142 219.68 -142 218.36 -142 217 C-144.64 217 -147.28 217 -150 217 C-150 215.68 -150 214.36 -150 213 C-151.32 213 -152.64 213 -154 213 C-154 206.07 -154 199.14 -154 192 C-152.68 192 -151.36 192 -150 192 C-150 190.68 -150 189.36 -150 188 C-148.68 188 -147.36 188 -146 188 C-146 186.35 -146 184.7 -146 183 C-143.36 183 -140.72 183 -138 183 C-138 184.65 -138 186.3 -138 188 C-136.68 188 -135.36 188 -134 188 C-134 189.32 -134 190.64 -134 192 C-132.35 192 -130.7 192 -129 192 C-129 190.68 -129 189.36 -129 188 C-127.68 188 -126.36 188 -125 188 C-125 186.35 -125 184.7 -125 183 C-123.68 183 -122.36 183 -121 183 C-121 179.04 -121 175.08 -121 171 C-119.68 171 -118.36 171 -117 171 C-117 166.71 -117 162.42 -117 158 C-115.68 158 -114.36 158 -113 158 C-113 152.72 -113 147.44 -113 142 C-111.68 142 -110.36 142 -109 142 C-109 136.39 -109 130.78 -109 125 C-107.35 125 -105.7 125 -104 125 C-104 101.57 -104 78.14 -104 54 C-102.68 54 -101.36 54 -100 54 C-100 52.68 -100 51.36 -100 50 C-93.07 50 -86.14 50 -79 50 C-79 51.32 -79 52.64 -79 54 C-77.68 54 -76.36 54 -75 54 C-75 59.61 -75 65.22 -75 71 C-73.68 71 -72.36 71 -71 71 C-71 76.61 -71 82.22 -71 88 C-69.68 88 -68.36 88 -67 88 C-67 89.32 -67 90.64 -67 92 C-64.36 92 -61.72 92 -59 92 C-59 93.32 -59 94.64 -59 96 C-54.71 96 -50.42 96 -46 96 C-46 94.68 -46 93.36 -46 92 C-43.36 92 -40.72 92 -38 92 C-38 90.68 -38 89.36 -38 88 C-36.68 88 -35.36 88 -34 88 C-34 86.35 -34 84.7 -34 83 C-32.35 83 -30.7 83 -29 83 C-29 81.68 -29 80.36 -29 79 C-27.68 79 -26.36 79 -25 79 C-25 73.72 -25 68.44 -25 63 C-23.68 63 -22.36 63 -21 63 C-21 60.03 -21 57.06 -21 54 C-19.68 54 -18.36 54 -17 54 C-17 50.04 -17 46.08 -17 42 C-15.68 42 -14.36 42 -13 42 C-13 39.03 -13 36.06 -13 33 C-11.68 33 -10.36 33 -9 33 C-9 26.4 -9 19.8 -9 13 C-7.35 13 -5.7 13 -4 13 C-4 10.03 -4 7.06 -4 4 C-2.68 4 -1.36 4 0 4 C0 2.68 0 1.36 0 0 Z M4 71 C4 72.32 4 73.64 4 75 C5.32 75 6.64 75 8 75 C8 73.68 8 72.36 8 71 C6.68 71 5.36 71 4 71 Z M-84 83 C-84 84.65 -84 86.3 -84 88 C-81.03 88 -78.06 88 -75 88 C-75 86.35 -75 84.7 -75 83 C-77.97 83 -80.94 83 -84 83 Z M4 88 C4 89.32 4 90.64 4 92 C6.64 92 9.28 92 12 92 C12 90.68 12 89.36 12 88 C9.36 88 6.72 88 4 88 Z M4 108 C4 109.65 4 111.3 4 113 C5.32 113 6.64 113 8 113 C8 111.35 8 109.7 8 108 C6.68 108 5.36 108 4 108 Z M-92 121 C-92 122.32 -92 123.64 -92 125 C-90.68 125 -89.36 125 -88 125 C-88 123.68 -88 122.36 -88 121 C-89.32 121 -90.64 121 -92 121 Z M-96 138 C-96 139.32 -96 140.64 -96 142 C-94.68 142 -93.36 142 -92 142 C-92 140.68 -92 139.36 -92 138 C-93.32 138 -94.64 138 -96 138 Z M-113 183 C-113 184.65 -113 186.3 -113 188 C-110.03 188 -107.06 188 -104 188 C-104 186.35 -104 184.7 -104 183 C-106.97 183 -109.94 183 -113 183 Z M0 183 C0 184.65 0 186.3 0 188 C1.32 188 2.64 188 4 188 C4 186.35 4 184.7 4 183 C2.68 183 1.36 183 0 183 Z M-117 196 C-117 197.32 -117 198.64 -117 200 C-115.68 200 -114.36 200 -113 200 C-113 198.68 -113 197.36 -113 196 C-114.32 196 -115.64 196 -117 196 Z M4 208 C4 209.65 4 211.3 4 213 C7.96 213 11.92 213 16 213 C16 211.35 16 209.7 16 208 C12.04 208 8.08 208 4 208 Z M4 221 C4 222.32 4 223.64 4 225 C6.64 225 9.28 225 12 225 C12 223.68 12 222.36 12 221 C9.36 221 6.72 221 4 221 Z " fill="#000000" transform="translate(164,10)"/>
</svg>
