<?xml version="1.0" encoding="UTF-8"?>
<!-- Generator: visioncortex VTracer 0.6.12 -->
<svg version="1.1" xmlns="http://www.w3.org/2000/svg" width="72" height="139">
<path d="M0 0 C0.825 0.165 0.825 0.165 5 1 C6.235 4.706 5.623 5.539 4.121 9.059 C3.697 10.075 3.273 11.091 2.836 12.138 C2.374 13.227 1.913 14.316 1.438 15.438 C-2.82 25.78 -6.599 36.09 -9.447 46.911 C-9.95 48.811 -10.498 50.7 -11.051 52.586 C-12.768 59.577 -12.768 59.577 -10.797 63.23 C-9.601 64.709 -8.356 66.15 -7.074 67.555 C2.747 79.133 9.695 100.86 9 116 C8 117 8 117 5.625 117.312 C3 117 3 117 1.427 115.295 C-0.108 112.827 -0.786 110.785 -1.465 107.965 C-1.708 106.99 -1.951 106.014 -2.201 105.01 C-2.444 103.996 -2.687 102.982 -2.938 101.938 C-5.489 91.408 -8.236 81.264 -14 72 C-14.33 72 -14.66 72 -15 72 C-15.191 72.866 -15.382 73.732 -15.579 74.624 C-16.306 77.908 -17.037 81.192 -17.771 84.476 C-18.085 85.883 -18.397 87.291 -18.708 88.699 C-20.349 96.135 -22.073 103.543 -24.047 110.898 C-24.349 112.027 -24.652 113.155 -24.964 114.318 C-26 117 -26 117 -29 119 C-31.5 118.938 -31.5 118.938 -34 118 C-44.272 104.304 -41.393 82.514 -41.562 66.438 C-41.607 62.742 -41.654 59.047 -41.705 55.352 C-41.737 53.068 -41.764 50.783 -41.786 48.499 C-41.87 41.895 -42.287 35.442 -43.083 28.882 C-42.984 25.449 -41.973 23.76 -40 21 C-35.125 21.875 -35.125 21.875 -34 23 C-31.671 38.033 -31.612 53.199 -31.438 68.375 C-31.393 71.834 -31.347 75.292 -31.295 78.751 C-31.263 80.882 -31.236 83.014 -31.214 85.145 C-31.201 86.104 -31.187 87.064 -31.174 88.052 C-31.169 88.471 -31.169 88.471 -31.145 90.59 C-30.992 93.135 -30.555 95.514 -30 98 C-27.553 90.633 -25.502 83.26 -23.812 75.688 C-23.729 75.318 -23.729 75.318 -23.308 73.446 C-22.546 69.948 -21.924 66.521 -21.574 62.957 C-21.036 59.245 -20.114 56.398 -18.731 52.961 C-17.584 49.884 -17.022 46.714 -16.375 43.5 C-14.724 35.95 -12.277 28.792 -9.562 21.562 C-9.191 20.569 -8.82 19.575 -8.437 18.551 C-5.988 12.164 -3.175 6.058 0 0 Z " fill="#000000" transform="translate(53,10)"/>
</svg>
