<?xml version="1.0" encoding="UTF-8"?>
<!-- Generator: visioncortex VTracer 0.6.12 -->
<svg version="1.1" xmlns="http://www.w3.org/2000/svg" width="94" height="112">
<path d="M0 0 C3.521 2.979 3.629 5.58 4.438 10.062 C5.032 9.846 5.626 9.629 6.238 9.406 C12.793 7.204 18.551 6.709 25.438 7.062 C25.767 7.723 25.767 7.723 27.438 11.062 C24.878 14.29 22.621 14.607 18.625 15.125 C14.329 15.697 10.533 16.651 6.438 18.062 C6.412 24.77 6.395 31.478 6.383 38.186 C6.378 40.466 6.371 42.746 6.362 45.027 C6.35 48.311 6.344 51.595 6.34 54.879 C6.335 55.893 6.33 56.907 6.324 57.951 C6.324 62.051 6.346 66.025 7.002 70.078 C7.492 73.433 6.971 75.085 5.438 78.062 C-0.966 79.392 -0.966 79.392 -3.375 78.062 C-7.088 71.809 -6.896 64.932 -6.977 57.879 C-6.996 56.823 -7.015 55.768 -7.035 54.68 C-7.095 51.329 -7.141 47.977 -7.188 44.625 C-7.226 42.344 -7.265 40.064 -7.305 37.783 C-7.4 32.21 -7.486 26.636 -7.562 21.062 C-10.28 21.216 -12.997 21.371 -15.715 21.527 C-16.097 21.549 -16.097 21.549 -18.031 21.658 C-23.235 21.958 -28.389 22.404 -33.562 23.062 C-33.562 23.722 -33.562 24.383 -33.562 25.062 C-35.312 25.75 -35.312 25.75 -37.562 26.062 C-39.812 24.625 -39.812 24.625 -41.562 23.062 C-41.438 21.25 -41.438 21.25 -40.562 19.062 C-31.158 12.708 -18.528 12.497 -7.562 12.062 C-7.604 10.825 -7.645 9.587 -7.688 8.312 C-7.682 5.072 -7.589 2.729 -5.562 0.062 C-2.562 -0.938 -2.562 -0.938 0 0 Z " fill="#000000" transform="translate(51.5625,10.9375)"/>
<path d="M0 0 C0.165 0.66 0.165 0.66 1 4 C-9.607 10.925 -23.754 10.917 -36.062 12.125 C-38.573 12.377 -41.084 12.632 -43.595 12.89 C-45.142 13.048 -46.691 13.203 -48.239 13.354 C-51.008 13.633 -53.671 13.91 -56.361 14.644 C-58 15 -58 15 -60.25 13.562 C-60.828 13.047 -61.405 12.531 -62 12 C-61.688 9.625 -61.688 9.625 -61 7 C-57.479 4.653 -56.552 5.172 -52.591 5.783 C-46.833 6.265 -41.039 5.355 -35.312 4.75 C-34.67 4.689 -34.67 4.689 -31.416 4.379 C-24.02 3.624 -16.931 2.456 -9.727 0.613 C-6.354 -0.145 -3.435 -0.24 0 0 Z " fill="#000000" transform="translate(83,87)"/>
</svg>
