<?xml version="1.0" encoding="UTF-8"?>
<!-- Generator: visioncortex VTracer 0.6.12 -->
<svg version="1.1" xmlns="http://www.w3.org/2000/svg" width="110" height="142">
<path d="M0 0 C3.974 2.848 6.758 5.966 9.688 9.875 C10.454 10.883 11.221 11.891 12.012 12.93 C19.489 24.476 18.249 42.557 16.504 55.75 C15.835 58.593 15.007 61.259 14 64 C13.847 64.476 13.847 64.476 13.074 66.887 C6.948 83.928 -6.875 95.937 -22 105 C-23.007 105.634 -24.014 106.268 -25.051 106.922 C-33.496 112.116 -40.597 115.011 -50.602 113.656 C-54.899 112.48 -57.695 109.88 -61 107 C-61.48 106.633 -61.48 106.633 -63.906 104.777 C-64.907 104.005 -65.907 103.233 -66.938 102.438 C-67.875 101.714 -68.812 100.991 -69.777 100.246 C-72.242 97.756 -72.913 96.48 -73 93 C-72.67 92.67 -72.67 92.67 -71 91 C-64.97 91 -60.251 96.193 -55.801 99.766 C-52.176 102.473 -49.329 104.493 -44.688 104.25 C-34.226 102.158 -25.209 95.468 -17 89 C-16.291 88.457 -15.582 87.915 -14.852 87.355 C-2.792 77.56 3.856 64.603 6.645 49.512 C8.089 35.244 7.855 22.512 -0.754 10.566 C-6.165 4.384 -13.55 0.129 -21.758 -0.652 C-32.183 -1.089 -42.785 -0.059 -51 7 C-51.33 7.866 -51.66 8.733 -52 9.625 C-53 12 -53 12 -55.062 12.875 C-55.702 12.916 -56.341 12.957 -57 13 C-58 12 -58 12 -58.312 8.75 C-57.939 4.271 -57.083 3.188 -54 0 C-51.658 -1.403 -49.455 -2.605 -47 -3.75 C-46.692 -3.901 -46.692 -3.901 -45.133 -4.668 C-29.885 -12.03 -13.708 -8.932 0 0 Z " fill="#000000" transform="translate(83,18)"/>
<path d="M0 0 C2.368 0.814 3.679 1.553 5.148 3.598 C6.361 7.019 5.96 10.205 5.625 13.75 C5.568 14.447 5.512 15.145 5.453 15.863 C5.312 17.576 5.158 19.288 5 21 C3.35 21 1.7 21 0 21 C-2.366 14.847 -4.217 7.448 -2 1 C-1.34 0.67 -0.68 0.34 0 0 Z " fill="#000000" transform="translate(46,46)"/>
</svg>
