<?xml version="1.0" encoding="UTF-8"?>
<!-- Generator: visioncortex VTracer 0.6.12 -->
<svg version="1.1" xmlns="http://www.w3.org/2000/svg" width="81" height="113">
<path d="M0 0 C2.565 1.89 3.245 2.832 4.375 5.75 C4.57 8.328 4.57 8.328 4.5 11 C4.482 11.892 4.464 12.784 4.445 13.703 C4.422 14.379 4.399 15.054 4.375 15.75 C3.715 16.08 3.715 16.08 0.375 17.75 C-2.423 14.952 -2.037 12.57 -2.281 8.746 C-2.395 8.087 -2.508 7.429 -2.625 6.75 C-5.84 5.143 -8.055 5.347 -11.625 5.75 C-14.604 7.409 -17.079 9.495 -19.625 11.75 C-20.174 12.206 -20.723 12.663 -21.289 13.133 C-25.167 16.613 -27.237 20.502 -29.406 25.203 C-30.526 27.544 -31.798 29.627 -33.188 31.812 C-40.581 45.265 -40.837 61.808 -39.625 76.75 C-39.295 77.74 -38.965 78.73 -38.625 79.75 C-31.541 82.372 -24.529 80.811 -17.84 77.895 C-15.132 76.495 -12.957 74.704 -10.625 72.75 C-9.491 72.317 -8.356 71.884 -7.188 71.438 C-3.213 69.555 -1.695 67.637 0.961 64.277 C2.375 62.75 2.375 62.75 5.125 61.688 C7.375 61.75 7.375 61.75 9.375 63.75 C9.085 69.36 5.699 71.925 1.844 75.609 C-1.439 78.456 -4.859 80.613 -8.625 82.75 C-9.982 83.621 -11.336 84.496 -12.688 85.375 C-20.58 90.258 -28.06 92.758 -37.312 91.125 C-41.574 89.982 -44.9 88.287 -47.625 84.75 C-55.041 71.743 -51.307 55.372 -47.559 41.609 C-42.476 25.305 -32.725 9.89 -18.812 -0.312 C-12.549 -2.155 -6.168 -2.127 0 0 Z " fill="#000000" transform="translate(61.625,11.25)"/>
</svg>
