<?xml version="1.0" encoding="UTF-8"?>
<!-- Generator: visioncortex VTracer 0.6.12 -->
<svg version="1.1" xmlns="http://www.w3.org/2000/svg" width="91" height="112">
<path d="M0 0 C-0.33 1.65 -0.66 3.3 -1 5 C-8.645 8.032 -15.814 8.662 -24 9 C-25.358 14.838 -24.535 19.75 -23.547 25.621 C-20.611 43.76 -20.332 61.388 -28.812 78 C-29.132 78.636 -29.451 79.271 -29.779 79.926 C-32.75 85.398 -36.307 87.894 -41.977 90.223 C-48.716 91.956 -56.354 92.478 -62.562 88.938 C-67.255 85.373 -69.533 81.696 -70.527 75.953 C-70.85 72.926 -71.138 70.042 -71 67 C-70.67 66.67 -70.67 66.67 -69 65 C-66.375 65.375 -66.375 65.375 -64 66 C-63.807 66.915 -63.613 67.83 -63.414 68.773 C-63.154 69.962 -62.893 71.15 -62.625 72.375 C-62.37 73.558 -62.115 74.742 -61.852 75.961 C-61 79 -61 79 -59 81 C-56.391 81.301 -56.391 81.301 -53.25 81.312 C-52.737 81.321 -52.737 81.321 -50.141 81.363 C-46.346 80.924 -44.164 80.162 -41 78 C-39.365 75.662 -38.279 73.191 -37.188 70.562 C-37.038 70.228 -37.038 70.228 -36.283 68.537 C-28.569 50.967 -33.203 28.348 -36 10 C-36.832 9.925 -37.665 9.85 -38.523 9.772 C-41.616 9.487 -44.707 9.189 -47.798 8.883 C-49.792 8.689 -51.788 8.51 -53.783 8.33 C-54.41 8.267 -54.41 8.267 -57.582 7.949 C-58.739 7.839 -59.897 7.729 -61.089 7.616 C-64.115 6.976 -65.268 6.532 -67 4 C-66.688 1.813 -66.688 1.813 -66 0 C-63.479 0.142 -60.958 0.289 -58.438 0.438 C-57.733 0.477 -57.029 0.516 -56.303 0.557 C-53.037 0.752 -49.87 1.02 -46.633 1.523 C-41.887 2.146 -37.219 2.191 -32.438 2.188 C-31.47 2.187 -30.503 2.187 -29.507 2.187 C-20.101 2.113 -8.647 -2.048 0 0 Z " fill="#000000" transform="translate(81,11)"/>
</svg>
