<?xml version="1.0" encoding="UTF-8"?>
<!-- Generator: visioncortex VTracer 0.6.12 -->
<svg version="1.1" xmlns="http://www.w3.org/2000/svg" width="96" height="182">
<path d="M0 0 C5.61 0 11.22 0 17 0 C17 0.99 17 1.98 17 3 C14.36 3 11.72 3 9 3 C9 5.64 9 8.28 9 11 C7.35 11 5.7 11 4 11 C4 20.57 4 30.14 4 40 C2.68 40 1.36 40 0 40 C0 26.8 0 13.6 0 0 Z " fill="#000000" transform="translate(0,0)"/>
<path d="M0 0 C10.89 0 21.78 0 33 0 C33 0.99 33 1.98 33 3 C22.11 3 11.22 3 0 3 C0 2.01 0 1.02 0 0 Z " fill="#000000" transform="translate(63,0)"/>
<path d="M0 0 C1.32 0 2.64 0 4 0 C4 1.32 4 2.64 4 4 C6.97 4 9.94 4 13 4 C13 10.93 13 17.86 13 25 C14.32 25 15.64 25 17 25 C17 34.57 17 44.14 17 54 C26.57 54 36.14 54 46 54 C46 52.68 46 51.36 46 50 C49.96 50 53.92 50 58 50 C58 51.32 58 52.64 58 54 C59.65 54 61.3 54 63 54 C63 60.93 63 67.86 63 75 C60.03 75 57.06 75 54 75 C54 76.32 54 77.64 54 79 C50.04 79 46.08 79 42 79 C42 77.68 42 76.36 42 75 C40.68 75 39.36 75 38 75 C38 76.32 38 77.64 38 79 C32.39 79 26.78 79 21 79 C21 81.64 21 84.28 21 87 C22.32 87 23.64 87 25 87 C25 106.47 25 125.94 25 146 C26.32 146 27.64 146 29 146 C29 147.32 29 148.64 29 150 C27.68 150 26.36 150 25 150 C25 153.96 25 157.92 25 162 C23.68 162 22.36 162 21 162 C21 163.32 21 164.64 21 166 C19.68 166 18.36 166 17 166 C17 164.68 17 163.36 17 162 C14.03 162 11.06 162 8 162 C8 160.68 8 159.36 8 158 C5.36 158 2.72 158 0 158 C0 144.14 0 130.28 0 116 C-1.32 116 -2.64 116 -4 116 C-4 105.11 -4 94.22 -4 83 C-5.32 83 -6.64 83 -8 83 C-8 67.82 -8 52.64 -8 37 C-9.32 37 -10.64 37 -12 37 C-12 27.43 -12 17.86 -12 8 C-10.68 8 -9.36 8 -8 8 C-8 6.68 -8 5.36 -8 4 C-5.36 4 -2.72 4 0 4 C0 2.68 0 1.36 0 0 Z M46 66 C46 67.65 46 69.3 46 71 C48.64 71 51.28 71 54 71 C54 69.35 54 67.7 54 66 C51.36 66 48.72 66 46 66 Z M17 133 C17 137.29 17 141.58 17 146 C18.32 146 19.64 146 21 146 C21 141.71 21 137.42 21 133 C19.68 133 18.36 133 17 133 Z " fill="#000000" transform="translate(21,7)"/>
</svg>
