<?xml version="1.0" encoding="UTF-8"?>
<!-- Generator: visioncortex VTracer 0.6.12 -->
<svg version="1.1" xmlns="http://www.w3.org/2000/svg" width="82" height="146">
<path d="M0 0 C3.83 3.209 6.024 7.237 6.559 12.238 C6.562 14.14 6.448 16.041 6.312 17.938 C4.663 18.267 3.013 18.598 1.312 18.938 C1.108 18.25 0.903 17.563 0.691 16.855 C0.422 15.954 0.153 15.053 -0.125 14.125 C-0.392 13.232 -0.659 12.338 -0.934 11.418 C-1.491 9.583 -2.081 7.757 -2.688 5.938 C-6.812 6.367 -8.84 7.038 -11.723 10.098 C-13.865 12.967 -15.803 15.893 -17.688 18.938 C-18.225 19.791 -18.763 20.644 -19.316 21.523 C-31.39 43.023 -35.4 76.643 -28.938 100.312 C-27.485 104.68 -25.52 108.297 -22.688 111.938 C-20.438 112.812 -20.438 112.812 -18.688 112.938 C-9.332 100.763 -2.11 88.354 3.312 73.938 C2.975 73.955 2.975 73.955 1.266 74.043 C0.374 74.07 -0.518 74.097 -1.438 74.125 C-1.878 74.142 -1.878 74.142 -4.109 74.23 C-7.169 73.883 -8.453 73.011 -10.688 70.938 C-11.625 69.063 -11.625 69.063 -11.688 66.938 C-10.563 64.188 -10.563 64.188 -8.688 61.938 C-6 61.625 -6 61.625 -3.688 61.938 C-3.358 63.257 -3.028 64.578 -2.688 65.938 C-2.061 65.649 -1.435 65.36 -0.789 65.062 C0.028 64.691 0.845 64.32 1.688 63.938 C2.5 63.566 3.312 63.195 4.148 62.812 C6.312 61.938 6.312 61.938 8.312 61.938 C8.539 61.319 8.766 60.7 9 60.062 C10.692 57.323 12.305 56.887 15.312 55.938 C16.632 57.257 17.953 58.578 19.312 59.938 C17.667 64.622 17.667 64.622 15.918 66.18 C13.626 68.69 12.628 71.619 11.438 74.75 C11.177 75.413 10.917 76.076 10.648 76.759 C8.923 81.194 7.386 85.675 5.875 90.188 C3.908 95.785 1.402 100.448 -1.934 105.34 C-3.67 107.911 -5.175 110.543 -6.688 113.25 C-9.634 118.138 -12.876 122.99 -18.699 124.438 C-23.822 124.75 -26.876 123.169 -30.688 119.938 C-37.795 113.411 -41.402 104.381 -42.688 94.938 C-42.79 92.333 -42.851 89.756 -42.855 87.152 C-42.859 86.415 -42.862 85.677 -42.866 84.917 C-42.871 83.36 -42.873 81.803 -42.873 80.245 C-42.875 77.906 -42.893 75.568 -42.912 73.229 C-42.963 60.299 -41.548 48.345 -37.5 36 C-37.191 35.054 -36.882 34.108 -36.564 33.134 C-32.067 19.748 -26.423 5.507 -13 -1.25 C-8.121 -2.447 -4.625 -1.829 0 0 Z " fill="#000000" transform="translate(52.6875,12.0625)"/>
</svg>
