<?xml version="1.0" encoding="UTF-8"?>
<!-- Generator: visioncortex VTracer 0.6.12 -->
<svg version="1.1" xmlns="http://www.w3.org/2000/svg" width="186" height="216">
<path d="M0 0 C16.5 0 33 0 50 0 C50 1.32 50 2.64 50 4 C52.97 4 55.94 4 59 4 C59 5.32 59 6.64 59 8 C60.32 8 61.64 8 63 8 C63 14.93 63 21.86 63 29 C61.68 29 60.36 29 59 29 C59 30.32 59 31.64 59 33 C54.71 33 50.42 33 46 33 C46 31.68 46 30.36 46 29 C44.68 29 43.36 29 42 29 C42 26.36 42 23.72 42 21 C31.11 21 20.22 21 9 21 C9 22.32 9 23.64 9 25 C7.35 25 5.7 25 4 25 C4 26.32 4 27.64 4 29 C2.68 29 1.36 29 0 29 C0 30.32 0 31.64 0 33 C-1.32 33 -2.64 33 -4 33 C-4 35.64 -4 38.28 -4 41 C-5.32 41 -6.64 41 -8 41 C-8 43.97 -8 46.94 -8 50 C-9.32 50 -10.64 50 -12 50 C-12 53.96 -12 57.92 -12 62 C-10.68 62 -9.36 62 -8 62 C-8 64.97 -8 67.94 -8 71 C2.89 71 13.78 71 25 71 C25 69.35 25 67.7 25 66 C29.29 66 33.58 66 38 66 C38 64.68 38 63.36 38 62 C41.96 62 45.92 62 50 62 C50 60.68 50 59.36 50 58 C58.25 58 66.5 58 75 58 C75 59.32 75 60.64 75 62 C79.29 62 83.58 62 88 62 C88 63.32 88 64.64 88 66 C90.64 66 93.28 66 96 66 C96 67.65 96 69.3 96 71 C98.64 71 101.28 71 104 71 C104 72.32 104 73.64 104 75 C105.65 75 107.3 75 109 75 C109 76.32 109 77.64 109 79 C110.32 79 111.64 79 113 79 C113 81.64 113 84.28 113 87 C114.32 87 115.64 87 117 87 C117 88.32 117 89.64 117 91 C118.32 91 119.64 91 121 91 C121 107.5 121 124 121 141 C119.68 141 118.36 141 117 141 C117 143.97 117 146.94 117 150 C115.68 150 114.36 150 113 150 C113 152.64 113 155.28 113 158 C111.68 158 110.36 158 109 158 C109 160.64 109 163.28 109 166 C106.03 166 103.06 166 100 166 C100 167.65 100 169.3 100 171 C98.68 171 97.36 171 96 171 C96 172.32 96 173.64 96 175 C93.36 175 90.72 175 88 175 C88 176.32 88 177.64 88 179 C86.68 179 85.36 179 84 179 C84 180.32 84 181.64 84 183 C79.71 183 75.42 183 71 183 C71 184.32 71 185.64 71 187 C67.04 187 63.08 187 59 187 C59 188.32 59 189.64 59 191 C53.39 191 47.78 191 42 191 C42 192.65 42 194.3 42 196 C28.14 196 14.28 196 0 196 C0 194.35 0 192.7 0 191 C-2.64 191 -5.28 191 -8 191 C-8 189.68 -8 188.36 -8 187 C-12.29 187 -16.58 187 -21 187 C-21 185.68 -21 184.36 -21 183 C-23.64 183 -26.28 183 -29 183 C-29 181.68 -29 180.36 -29 179 C-30.32 179 -31.64 179 -33 179 C-33 177.68 -33 176.36 -33 175 C-34.32 175 -35.64 175 -37 175 C-37 173.68 -37 172.36 -37 171 C-38.32 171 -39.64 171 -41 171 C-41 166.71 -41 162.42 -41 158 C-42.65 158 -44.3 158 -46 158 C-46 156.68 -46 155.36 -46 154 C-44.35 154 -42.7 154 -41 154 C-41 147.07 -41 140.14 -41 133 C-39.68 133 -38.36 133 -37 133 C-37 131.68 -37 130.36 -37 129 C-31.72 129 -26.44 129 -21 129 C-21 127.68 -21 126.36 -21 125 C-14.07 125 -7.14 125 0 125 C0 126.32 0 127.64 0 129 C1.32 129 2.64 129 4 129 C4 134.61 4 140.22 4 146 C1.36 146 -1.28 146 -4 146 C-4 147.32 -4 148.64 -4 150 C-9.61 150 -15.22 150 -21 150 C-21 152.64 -21 155.28 -21 158 C-19.35 158 -17.7 158 -16 158 C-16 160.64 -16 163.28 -16 166 C-12.04 166 -8.08 166 -4 166 C-4 167.65 -4 169.3 -4 171 C0.29 171 4.58 171 9 171 C9 172.32 9 173.64 9 175 C18.57 175 28.14 175 38 175 C38 173.68 38 172.36 38 171 C41.96 171 45.92 171 50 171 C50 169.35 50 167.7 50 166 C55.61 166 61.22 166 67 166 C67 164.68 67 163.36 67 162 C69.64 162 72.28 162 75 162 C75 160.68 75 159.36 75 158 C76.32 158 77.64 158 79 158 C79 156.68 79 155.36 79 154 C80.65 154 82.3 154 84 154 C84 152.68 84 151.36 84 150 C85.32 150 86.64 150 88 150 C88 147.03 88 144.06 88 141 C89.32 141 90.64 141 92 141 C92 126.15 92 111.3 92 96 C90.68 96 89.36 96 88 96 C88 94.35 88 92.7 88 91 C86.68 91 85.36 91 84 91 C84 89.68 84 88.36 84 87 C68.82 87 53.64 87 38 87 C38 88.32 38 89.64 38 91 C33.71 91 29.42 91 25 91 C25 92.65 25 94.3 25 96 C18.07 96 11.14 96 4 96 C4 94.35 4 92.7 4 91 C-2.6 91 -9.2 91 -16 91 C-16 89.68 -16 88.36 -16 87 C-18.97 87 -21.94 87 -25 87 C-25 85.68 -25 84.36 -25 83 C-26.32 83 -27.64 83 -29 83 C-29 81.68 -29 80.36 -29 79 C-30.32 79 -31.64 79 -33 79 C-33 76.36 -33 73.72 -33 71 C-34.32 71 -35.64 71 -37 71 C-37 62.75 -37 54.5 -37 46 C-35.68 46 -34.36 46 -33 46 C-33 43.03 -33 40.06 -33 37 C-31.68 37 -30.36 37 -29 37 C-29 33.04 -29 29.08 -29 25 C-27.68 25 -26.36 25 -25 25 C-25 23.68 -25 22.36 -25 21 C-23.68 21 -22.36 21 -21 21 C-21 19.35 -21 17.7 -21 16 C-19.35 16 -17.7 16 -16 16 C-16 14.68 -16 13.36 -16 12 C-14.68 12 -13.36 12 -12 12 C-12 10.68 -12 9.36 -12 8 C-10.68 8 -9.36 8 -8 8 C-8 6.68 -8 5.36 -8 4 C-5.36 4 -2.72 4 0 4 C0 2.68 0 1.36 0 0 Z M109 100 C109 101.32 109 102.64 109 104 C110.32 104 111.64 104 113 104 C113 102.68 113 101.36 113 100 C111.68 100 110.36 100 109 100 Z M109 121 C109 122.32 109 123.64 109 125 C111.64 125 114.28 125 117 125 C117 123.68 117 122.36 117 121 C114.36 121 111.72 121 109 121 Z " fill="#000000" transform="translate(55,10)"/>
</svg>
