<?xml version="1.0" encoding="UTF-8"?>
<!-- Generator: visioncortex VTracer 0.6.12 -->
<svg version="1.1" xmlns="http://www.w3.org/2000/svg" width="181" height="216">
<path d="M0 0 C9.57 0 19.14 0 29 0 C29 1.32 29 2.64 29 4 C32.96 4 36.92 4 41 4 C41 5.32 41 6.64 41 8 C42.32 8 43.64 8 45 8 C45 9.32 45 10.64 45 12 C47.97 12 50.94 12 54 12 C54 13.65 54 15.3 54 17 C56.64 17 59.28 17 62 17 C62 18.32 62 19.64 62 21 C63.32 21 64.64 21 66 21 C66 22.32 66 23.64 66 25 C67.32 25 68.64 25 70 25 C70 26.32 70 27.64 70 29 C71.65 29 73.3 29 75 29 C75 30.32 75 31.64 75 33 C73.35 33 71.7 33 70 33 C70 37.29 70 41.58 70 46 C68.68 46 67.36 46 66 46 C66 47.32 66 48.64 66 50 C64.68 50 63.36 50 62 50 C62 48.68 62 47.36 62 46 C58.04 46 54.08 46 50 46 C50 44.68 50 43.36 50 42 C48.35 42 46.7 42 45 42 C45 40.35 45 38.7 45 37 C43.68 37 42.36 37 41 37 C41 35.68 41 34.36 41 33 C37.04 33 33.08 33 29 33 C29 31.68 29 30.36 29 29 C15.14 29 1.28 29 -13 29 C-13 30.32 -13 31.64 -13 33 C-15.64 33 -18.28 33 -21 33 C-21 34.32 -21 35.64 -21 37 C-22.32 37 -23.64 37 -25 37 C-25 38.65 -25 40.3 -25 42 C-27.97 42 -30.94 42 -34 42 C-34 44.64 -34 47.28 -34 50 C-35.32 50 -36.64 50 -38 50 C-38 53.96 -38 57.92 -38 62 C-39.32 62 -40.64 62 -42 62 C-42 64.97 -42 67.94 -42 71 C-43.32 71 -44.64 71 -46 71 C-46 79.25 -46 87.5 -46 96 C-47.32 96 -48.64 96 -50 96 C-50 99.96 -50 103.92 -50 108 C-48.68 108 -47.36 108 -46 108 C-46 114.93 -46 121.86 -46 129 C-44.68 129 -43.36 129 -42 129 C-42 133.29 -42 137.58 -42 142 C-40.68 142 -39.36 142 -38 142 C-38 145.96 -38 149.92 -38 154 C-36.68 154 -35.36 154 -34 154 C-34 155.32 -34 156.64 -34 158 C-32.68 158 -31.36 158 -30 158 C-30 159.32 -30 160.64 -30 162 C-25.71 162 -21.42 162 -17 162 C-17 163.65 -17 165.3 -17 167 C-14.36 167 -11.72 167 -9 167 C-9 168.32 -9 169.64 -9 171 C-0.75 171 7.5 171 16 171 C16 172.32 16 173.64 16 175 C18.97 175 21.94 175 25 175 C25 173.68 25 172.36 25 171 C27.64 171 30.28 171 33 171 C33 169.68 33 168.36 33 167 C35.64 167 38.28 167 41 167 C41 165.35 41 163.7 41 162 C42.32 162 43.64 162 45 162 C45 160.68 45 159.36 45 158 C46.65 158 48.3 158 50 158 C50 147.11 50 136.22 50 125 C48.35 125 46.7 125 45 125 C45 123.68 45 122.36 45 121 C35.43 121 25.86 121 16 121 C16 119.68 16 118.36 16 117 C14.68 117 13.36 117 12 117 C12 112.71 12 108.42 12 104 C13.32 104 14.64 104 16 104 C16 102.68 16 101.36 16 100 C17.32 100 18.64 100 20 100 C20 98.68 20 97.36 20 96 C24.29 96 28.58 96 33 96 C33 97.32 33 98.64 33 100 C46.86 100 60.72 100 75 100 C75 98.68 75 97.36 75 96 C76.32 96 77.64 96 79 96 C79 97.32 79 98.64 79 100 C80.32 100 81.64 100 83 100 C83 101.32 83 102.64 83 104 C84.32 104 85.64 104 87 104 C87 109.61 87 115.22 87 121 C85.68 121 84.36 121 83 121 C83 126.28 83 131.56 83 137 C84.32 137 85.64 137 87 137 C87 138.65 87 140.3 87 142 C85.68 142 84.36 142 83 142 C83 154.21 83 166.42 83 179 C81.68 179 80.36 179 79 179 C79 181.64 79 184.28 79 187 C77.68 187 76.36 187 75 187 C75 188.65 75 190.3 75 192 C69.39 192 63.78 192 58 192 C58 190.35 58 188.7 58 187 C55.36 187 52.72 187 50 187 C50 188.65 50 190.3 50 192 C47.03 192 44.06 192 41 192 C41 193.32 41 194.64 41 196 C38.36 196 35.72 196 33 196 C33 197.32 33 198.64 33 200 C23.43 200 13.86 200 4 200 C4 198.68 4 197.36 4 196 C-4.25 196 -12.5 196 -21 196 C-21 194.68 -21 193.36 -21 192 C-25.29 192 -29.58 192 -34 192 C-34 187.71 -34 183.42 -34 179 C-35.32 179 -36.64 179 -38 179 C-38 180.32 -38 181.64 -38 183 C-39.32 183 -40.64 183 -42 183 C-42 181.68 -42 180.36 -42 179 C-43.32 179 -44.64 179 -46 179 C-46 177.68 -46 176.36 -46 175 C-48.97 175 -51.94 175 -55 175 C-55 172.36 -55 169.72 -55 167 C-56.32 167 -57.64 167 -59 167 C-59 165.35 -59 163.7 -59 162 C-60.32 162 -61.64 162 -63 162 C-63 159.36 -63 156.72 -63 154 C-64.32 154 -65.64 154 -67 154 C-67 150.04 -67 146.08 -67 142 C-68.32 142 -69.64 142 -71 142 C-71 135.07 -71 128.14 -71 121 C-72.32 121 -73.64 121 -75 121 C-75 107.14 -75 93.28 -75 79 C-73.68 79 -72.36 79 -71 79 C-71 73.39 -71 67.78 -71 62 C-69.68 62 -68.36 62 -67 62 C-67 58.04 -67 54.08 -67 50 C-65.68 50 -64.36 50 -63 50 C-63 47.36 -63 44.72 -63 42 C-61.68 42 -60.36 42 -59 42 C-59 40.35 -59 38.7 -59 37 C-57.68 37 -56.36 37 -55 37 C-55 35.68 -55 34.36 -55 33 C-53.35 33 -51.7 33 -50 33 C-50 30.36 -50 27.72 -50 25 C-47.36 25 -44.72 25 -42 25 C-42 22.36 -42 19.72 -42 17 C-40.68 17 -39.36 17 -38 17 C-38 15.35 -38 13.7 -38 12 C-36.68 12 -35.36 12 -34 12 C-34 10.68 -34 9.36 -34 8 C-29.71 8 -25.42 8 -21 8 C-21 6.68 -21 5.36 -21 4 C-14.07 4 -7.14 4 0 4 C0 2.68 0 1.36 0 0 Z M16 17 C16 18.32 16 19.64 16 21 C17.32 21 18.64 21 20 21 C20 19.68 20 18.36 20 17 C18.68 17 17.36 17 16 17 Z M66 142 C66 145.96 66 149.92 66 154 C67.32 154 68.64 154 70 154 C70 155.32 70 156.64 70 158 C72.97 158 75.94 158 79 158 C79 156.68 79 155.36 79 154 C77.68 154 76.36 154 75 154 C75 150.04 75 146.08 75 142 C72.03 142 69.06 142 66 142 Z M66 162 C66 164.97 66 167.94 66 171 C64.68 171 63.36 171 62 171 C62 172.32 62 173.64 62 175 C63.32 175 64.64 175 66 175 C66 176.32 66 177.64 66 179 C67.32 179 68.64 179 70 179 C70 173.39 70 167.78 70 162 C68.68 162 67.36 162 66 162 Z M45 179 C45 180.32 45 181.64 45 183 C46.65 183 48.3 183 50 183 C50 181.68 50 180.36 50 179 C48.35 179 46.7 179 45 179 Z " fill="#000000" transform="translate(85,7)"/>
</svg>
