<?xml version="1.0" encoding="UTF-8"?>
<!-- Generator: visioncortex VTracer 0.6.12 -->
<svg version="1.1" xmlns="http://www.w3.org/2000/svg" width="170" height="231">
<path d="M0 0 C1.32 0 2.64 0 4 0 C4 1.32 4 2.64 4 4 C6.97 4 9.94 4 13 4 C13 8.29 13 12.58 13 17 C11.68 17 10.36 17 9 17 C9 19.64 9 22.28 9 25 C7.35 25 5.7 25 4 25 C4 26.32 4 27.64 4 29 C2.68 29 1.36 29 0 29 C0 30.65 0 32.3 0 34 C-3.96 34 -7.92 34 -12 34 C-12 35.32 -12 36.64 -12 38 C-16.29 38 -20.58 38 -25 38 C-25 39.32 -25 40.64 -25 42 C-27.64 42 -30.28 42 -33 42 C-33 43.32 -33 44.64 -33 46 C-35.64 46 -38.28 46 -41 46 C-41 50.29 -41 54.58 -41 59 C-39.68 59 -38.36 59 -37 59 C-37 60.32 -37 61.64 -37 63 C-35.68 63 -34.36 63 -33 63 C-33 64.32 -33 65.64 -33 67 C-31.68 67 -30.36 67 -29 67 C-29 69.64 -29 72.28 -29 75 C-27.68 75 -26.36 75 -25 75 C-25 76.32 -25 77.64 -25 79 C-23.68 79 -22.36 79 -21 79 C-21 80.65 -21 82.3 -21 84 C-19.35 84 -17.7 84 -16 84 C-16 85.32 -16 86.64 -16 88 C-14.68 88 -13.36 88 -12 88 C-12 89.32 -12 90.64 -12 92 C-10.68 92 -9.36 92 -8 92 C-8 93.32 -8 94.64 -8 96 C-6.68 96 -5.36 96 -4 96 C-4 98.64 -4 101.28 -4 104 C-2.68 104 -1.36 104 0 104 C0 109.61 0 115.22 0 121 C1.32 121 2.64 121 4 121 C4 131.89 4 142.78 4 154 C2.68 154 1.36 154 0 154 C0 160.93 0 167.86 0 175 C-1.32 175 -2.64 175 -4 175 C-4 176.32 -4 177.64 -4 179 C-5.32 179 -6.64 179 -8 179 C-8 180.65 -8 182.3 -8 184 C-9.32 184 -10.64 184 -12 184 C-12 185.32 -12 186.64 -12 188 C-13.32 188 -14.64 188 -16 188 C-16 189.32 -16 190.64 -16 192 C-18.97 192 -21.94 192 -25 192 C-25 193.32 -25 194.64 -25 196 C-26.32 196 -27.64 196 -29 196 C-29 197.32 -29 198.64 -29 200 C-30.32 200 -31.64 200 -33 200 C-33 201.32 -33 202.64 -33 204 C-38.61 204 -44.22 204 -50 204 C-50 205.65 -50 207.3 -50 209 C-53.96 209 -57.92 209 -62 209 C-62 210.32 -62 211.64 -62 213 C-68.93 213 -75.86 213 -83 213 C-83 211.68 -83 210.36 -83 209 C-88.61 209 -94.22 209 -100 209 C-100 207.35 -100 205.7 -100 204 C-101.32 204 -102.64 204 -104 204 C-104 202.68 -104 201.36 -104 200 C-105.32 200 -106.64 200 -108 200 C-108 198.68 -108 197.36 -108 196 C-109.32 196 -110.64 196 -112 196 C-112 193.36 -112 190.72 -112 188 C-113.32 188 -114.64 188 -116 188 C-116 186.68 -116 185.36 -116 184 C-117.65 184 -119.3 184 -121 184 C-121 181.03 -121 178.06 -121 175 C-122.32 175 -123.64 175 -125 175 C-125 168.07 -125 161.14 -125 154 C-123.68 154 -122.36 154 -121 154 C-121 152.68 -121 151.36 -121 150 C-119.35 150 -117.7 150 -116 150 C-116 147.36 -116 144.72 -116 142 C-113.36 142 -110.72 142 -108 142 C-108 140.68 -108 139.36 -108 138 C-101.07 138 -94.14 138 -87 138 C-87 139.32 -87 140.64 -87 142 C-85.68 142 -84.36 142 -83 142 C-83 147.61 -83 153.22 -83 159 C-84.32 159 -85.64 159 -87 159 C-87 160.32 -87 161.64 -87 163 C-89.97 163 -92.94 163 -96 163 C-96 164.32 -96 165.64 -96 167 C-97.32 167 -98.64 167 -100 167 C-100 168.32 -100 169.64 -100 171 C-98.68 171 -97.36 171 -96 171 C-96 173.64 -96 176.28 -96 179 C-93.03 179 -90.06 179 -87 179 C-87 180.65 -87 182.3 -87 184 C-85.68 184 -84.36 184 -83 184 C-83 185.32 -83 186.64 -83 188 C-77.39 188 -71.78 188 -66 188 C-66 186.68 -66 185.36 -66 184 C-62.04 184 -58.08 184 -54 184 C-54 182.35 -54 180.7 -54 179 C-49.71 179 -45.42 179 -41 179 C-41 177.68 -41 176.36 -41 175 C-39.68 175 -38.36 175 -37 175 C-37 173.68 -37 172.36 -37 171 C-35.68 171 -34.36 171 -33 171 C-33 168.36 -33 165.72 -33 163 C-31.68 163 -30.36 163 -29 163 C-29 158.71 -29 154.42 -29 150 C-27.68 150 -26.36 150 -25 150 C-25 140.43 -25 130.86 -25 121 C-26.32 121 -27.64 121 -29 121 C-29 118.36 -29 115.72 -29 113 C-30.32 113 -31.64 113 -33 113 C-33 111.68 -33 110.36 -33 109 C-34.32 109 -35.64 109 -37 109 C-37 106.03 -37 103.06 -37 100 C-38.32 100 -39.64 100 -41 100 C-41 98.68 -41 97.36 -41 96 C-42.65 96 -44.3 96 -46 96 C-46 94.68 -46 93.36 -46 92 C-47.32 92 -48.64 92 -50 92 C-50 90.68 -50 89.36 -50 88 C-51.32 88 -52.64 88 -54 88 C-54 85.03 -54 82.06 -54 79 C-55.32 79 -56.64 79 -58 79 C-58 77.68 -58 76.36 -58 75 C-59.32 75 -60.64 75 -62 75 C-62 72.36 -62 69.72 -62 67 C-63.32 67 -64.64 67 -66 67 C-66 64.36 -66 61.72 -66 59 C-74.25 59 -82.5 59 -91 59 C-91 60.32 -91 61.64 -91 63 C-93.97 63 -96.94 63 -100 63 C-100 64.32 -100 65.64 -100 67 C-103.96 67 -107.92 67 -112 67 C-112 68.32 -112 69.64 -112 71 C-116.29 71 -120.58 71 -125 71 C-125 69.68 -125 68.36 -125 67 C-127.64 67 -130.28 67 -133 67 C-133 65.68 -133 64.36 -133 63 C-134.32 63 -135.64 63 -137 63 C-137 60.03 -137 57.06 -137 54 C-135.68 54 -134.36 54 -133 54 C-133 52.68 -133 51.36 -133 50 C-131.68 50 -130.36 50 -129 50 C-129 48.68 -129 47.36 -129 46 C-127.68 46 -126.36 46 -125 46 C-125 44.68 -125 43.36 -125 42 C-122.03 42 -119.06 42 -116 42 C-116 40.68 -116 39.36 -116 38 C-110.72 38 -105.44 38 -100 38 C-100 36.68 -100 35.36 -100 34 C-94.39 34 -88.78 34 -83 34 C-83 32.35 -83 30.7 -83 29 C-79.04 29 -75.08 29 -71 29 C-71 27.68 -71 26.36 -71 25 C-66.71 25 -62.42 25 -58 25 C-58 23.68 -58 22.36 -58 21 C-54.04 21 -50.08 21 -46 21 C-46 19.68 -46 18.36 -46 17 C-40.39 17 -34.78 17 -29 17 C-29 15.68 -29 14.36 -29 13 C-27.68 13 -26.36 13 -25 13 C-25 11.68 -25 10.36 -25 9 C-22.03 9 -19.06 9 -16 9 C-16 7.35 -16 5.7 -16 4 C-10.72 4 -5.44 4 0 4 C0 2.68 0 1.36 0 0 Z M-100 150 C-100 151.32 -100 152.64 -100 154 C-98.68 154 -97.36 154 -96 154 C-96 152.68 -96 151.36 -96 150 C-97.32 150 -98.64 150 -100 150 Z " fill="#000000" transform="translate(147,9)"/>
</svg>
