<?xml version="1.0" encoding="UTF-8"?>
<!-- Generator: visioncortex VTracer 0.6.12 -->
<svg version="1.1" xmlns="http://www.w3.org/2000/svg" width="277" height="337">
<path d="M0 0 C9.57 0 19.14 0 29 0 C29 5.61 29 11.22 29 17 C30.32 17 31.64 17 33 17 C33 22.28 33 27.56 33 33 C34.32 33 35.64 33 37 33 C37 35.97 37 38.94 37 42 C35.68 42 34.36 42 33 42 C33 43.32 33 44.64 33 46 C34.32 46 35.64 46 37 46 C37 48.64 37 51.28 37 54 C35.68 54 34.36 54 33 54 C33 55.32 33 56.64 33 58 C34.32 58 35.64 58 37 58 C37 59.65 37 61.3 37 63 C38.32 63 39.64 63 41 63 C41 72.57 41 82.14 41 92 C42.32 92 43.64 92 45 92 C45 97.28 45 102.56 45 108 C46.65 108 48.3 108 50 108 C50 113.61 50 119.22 50 125 C51.32 125 52.64 125 54 125 C54 127.64 54 130.28 54 133 C52.68 133 51.36 133 50 133 C50 135.97 50 138.94 50 142 C53.96 142 57.92 142 62 142 C62 143.32 62 144.64 62 146 C60.68 146 59.36 146 58 146 C58 147.32 58 148.64 58 150 C59.32 150 60.64 150 62 150 C62 154.29 62 158.58 62 163 C63.32 163 64.64 163 66 163 C66 169.6 66 176.2 66 183 C67.32 183 68.64 183 70 183 C70 188.61 70 194.22 70 200 C71.65 200 73.3 200 75 200 C75 206.93 75 213.86 75 221 C73.35 221 71.7 221 70 221 C70 222.32 70 223.64 70 225 C68.68 225 67.36 225 66 225 C66 227.64 66 230.28 66 233 C63.36 233 60.72 233 58 233 C58 230.36 58 227.72 58 225 C53.71 225 49.42 225 45 225 C45 226.32 45 227.64 45 229 C43.68 229 42.36 229 41 229 C41 226.36 41 223.72 41 221 C46.61 221 52.22 221 58 221 C58 219.68 58 218.36 58 217 C59.32 217 60.64 217 62 217 C62 215.68 62 214.36 62 213 C63.32 213 64.64 213 66 213 C66 210.03 66 207.06 66 204 C64.68 204 63.36 204 62 204 C62 205.32 62 206.64 62 208 C60.68 208 59.36 208 58 208 C58 206.68 58 205.36 58 204 C56.68 204 55.36 204 54 204 C54 205.32 54 206.64 54 208 C52.68 208 51.36 208 50 208 C50 209.65 50 211.3 50 213 C45.71 213 41.42 213 37 213 C37 204.75 37 196.5 37 188 C35.68 188 34.36 188 33 188 C33 181.07 33 174.14 33 167 C28.71 167 24.42 167 20 167 C20 165.68 20 164.36 20 163 C13.4 163 6.8 163 0 163 C0 161.35 0 159.7 0 158 C-4.29 158 -8.58 158 -13 158 C-13 160.97 -13 163.94 -13 167 C-14.32 167 -15.64 167 -17 167 C-17 169.64 -17 172.28 -17 175 C-18.32 175 -19.64 175 -21 175 C-21 180.61 -21 186.22 -21 192 C-22.32 192 -23.64 192 -25 192 C-25 194.64 -25 197.28 -25 200 C-26.65 200 -28.3 200 -30 200 C-30 202.64 -30 205.28 -30 208 C-31.32 208 -32.64 208 -34 208 C-34 209.65 -34 211.3 -34 213 C-35.32 213 -36.64 213 -38 213 C-38 218.28 -38 223.56 -38 229 C-39.32 229 -40.64 229 -42 229 C-42 231.97 -42 234.94 -42 238 C-43.32 238 -44.64 238 -46 238 C-46 243.28 -46 248.56 -46 254 C-47.32 254 -48.64 254 -50 254 C-50 256.97 -50 259.94 -50 263 C-51.65 263 -53.3 263 -55 263 C-55 265.64 -55 268.28 -55 271 C-56.32 271 -57.64 271 -59 271 C-59 272.32 -59 273.64 -59 275 C-60.32 275 -61.64 275 -63 275 C-63 276.32 -63 277.64 -63 279 C-64.32 279 -65.64 279 -67 279 C-67 281.97 -67 284.94 -67 288 C-68.32 288 -69.64 288 -71 288 C-71 289.32 -71 290.64 -71 292 C-72.32 292 -73.64 292 -75 292 C-75 293.32 -75 294.64 -75 296 C-76.65 296 -78.3 296 -80 296 C-80 297.32 -80 298.64 -80 300 C-81.32 300 -82.64 300 -84 300 C-84 301.32 -84 302.64 -84 304 C-85.32 304 -86.64 304 -88 304 C-88 305.32 -88 306.64 -88 308 C-91.96 308 -95.92 308 -100 308 C-100 306.68 -100 305.36 -100 304 C-98.68 304 -97.36 304 -96 304 C-96 302.68 -96 301.36 -96 300 C-97.32 300 -98.64 300 -100 300 C-100 298.68 -100 297.36 -100 296 C-101.65 296 -103.3 296 -105 296 C-105 297.32 -105 298.64 -105 300 C-106.32 300 -107.64 300 -109 300 C-109 301.32 -109 302.64 -109 304 C-111.64 304 -114.28 304 -117 304 C-117 306.97 -117 309.94 -117 313 C-115.68 313 -114.36 313 -113 313 C-113 314.32 -113 315.64 -113 317 C-116.96 317 -120.92 317 -125 317 C-125 314.03 -125 311.06 -125 308 C-127.97 308 -130.94 308 -134 308 C-134 309.65 -134 311.3 -134 313 C-132.68 313 -131.36 313 -130 313 C-130 314.32 -130 315.64 -130 317 C-132.64 317 -135.28 317 -138 317 C-138 315.68 -138 314.36 -138 313 C-140.64 313 -143.28 313 -146 313 C-146 308.71 -146 304.42 -146 300 C-147.32 300 -148.64 300 -150 300 C-150 302.64 -150 305.28 -150 308 C-152.97 308 -155.94 308 -159 308 C-159 306.68 -159 305.36 -159 304 C-160.32 304 -161.64 304 -163 304 C-163 302.68 -163 301.36 -163 300 C-164.32 300 -165.64 300 -167 300 C-167 298.68 -167 297.36 -167 296 C-168.32 296 -169.64 296 -171 296 C-171 294.68 -171 293.36 -171 292 C-172.32 292 -173.64 292 -175 292 C-175 289.03 -175 286.06 -175 283 C-176.65 283 -178.3 283 -180 283 C-180 276.4 -180 269.8 -180 263 C-177.03 263 -174.06 263 -171 263 C-171 260.03 -171 257.06 -171 254 C-173.97 254 -176.94 254 -180 254 C-180 248.72 -180 243.44 -180 238 C-178.35 238 -176.7 238 -175 238 C-175 236.35 -175 234.7 -175 233 C-173.68 233 -172.36 233 -171 233 C-171 231.68 -171 230.36 -171 229 C-168.36 229 -165.72 229 -163 229 C-163 227.68 -163 226.36 -163 225 C-157.39 225 -151.78 225 -146 225 C-146 226.32 -146 227.64 -146 229 C-144.68 229 -143.36 229 -142 229 C-142 233.29 -142 237.58 -142 242 C-143.32 242 -144.64 242 -146 242 C-146 243.32 -146 244.64 -146 246 C-147.32 246 -148.64 246 -150 246 C-150 249.96 -150 253.92 -150 258 C-151.65 258 -153.3 258 -155 258 C-155 263.61 -155 269.22 -155 275 C-153.35 275 -151.7 275 -150 275 C-150 276.32 -150 277.64 -150 279 C-148.68 279 -147.36 279 -146 279 C-146 280.32 -146 281.64 -146 283 C-143.36 283 -140.72 283 -138 283 C-138 285.97 -138 288.94 -138 292 C-131.07 292 -124.14 292 -117 292 C-117 290.68 -117 289.36 -117 288 C-114.36 288 -111.72 288 -109 288 C-109 286.35 -109 284.7 -109 283 C-106.03 283 -103.06 283 -100 283 C-100 281.68 -100 280.36 -100 279 C-98.68 279 -97.36 279 -96 279 C-96 277.68 -96 276.36 -96 275 C-94.68 275 -93.36 275 -92 275 C-92 273.68 -92 272.36 -92 271 C-90.68 271 -89.36 271 -88 271 C-88 268.36 -88 265.72 -88 263 C-86.68 263 -85.36 263 -84 263 C-84 260.03 -84 257.06 -84 254 C-82.68 254 -81.36 254 -80 254 C-80 251.36 -80 248.72 -80 246 C-78.35 246 -76.7 246 -75 246 C-75 243.36 -75 240.72 -75 238 C-73.68 238 -72.36 238 -71 238 C-71 236.35 -71 234.7 -71 233 C-69.68 233 -68.36 233 -67 233 C-67 229.04 -67 225.08 -67 221 C-65.68 221 -64.36 221 -63 221 C-63 219.68 -63 218.36 -63 217 C-61.68 217 -60.36 217 -59 217 C-59 212.71 -59 208.42 -59 204 C-57.68 204 -56.36 204 -55 204 C-55 201.36 -55 198.72 -55 196 C-53.35 196 -51.7 196 -50 196 C-50 191.71 -50 187.42 -50 183 C-48.68 183 -47.36 183 -46 183 C-46 176.4 -46 169.8 -46 163 C-44.68 163 -43.36 163 -42 163 C-42 158.71 -42 154.42 -42 150 C-47.61 150 -53.22 150 -59 150 C-59 151.32 -59 152.64 -59 154 C-60.32 154 -61.64 154 -63 154 C-63 155.32 -63 156.64 -63 158 C-64.32 158 -65.64 158 -67 158 C-67 160.97 -67 163.94 -67 167 C-68.32 167 -69.64 167 -71 167 C-71 168.32 -71 169.64 -71 171 C-76.61 171 -82.22 171 -88 171 C-88 169.68 -88 168.36 -88 167 C-89.32 167 -90.64 167 -92 167 C-92 162.71 -92 158.42 -92 154 C-90.68 154 -89.36 154 -88 154 C-88 152.68 -88 151.36 -88 150 C-86.68 150 -85.36 150 -84 150 C-84 147.36 -84 144.72 -84 142 C-82.68 142 -81.36 142 -80 142 C-80 140.68 -80 139.36 -80 138 C-78.35 138 -76.7 138 -75 138 C-75 136.35 -75 134.7 -75 133 C-73.68 133 -72.36 133 -71 133 C-71 131.68 -71 130.36 -71 129 C-69.68 129 -68.36 129 -67 129 C-67 127.68 -67 126.36 -67 125 C-61.39 125 -55.78 125 -50 125 C-50 123.68 -50 122.36 -50 121 C-44.72 121 -39.44 121 -34 121 C-34 122.32 -34 123.64 -34 125 C-32.68 125 -31.36 125 -30 125 C-30 121.04 -30 117.08 -30 113 C-28.35 113 -26.7 113 -25 113 C-25 108.71 -25 104.42 -25 100 C-23.68 100 -22.36 100 -21 100 C-21 93.07 -21 86.14 -21 79 C-19.68 79 -18.36 79 -17 79 C-17 75.04 -17 71.08 -17 67 C-15.68 67 -14.36 67 -13 67 C-13 62.71 -13 58.42 -13 54 C-11.68 54 -10.36 54 -9 54 C-9 47.07 -9 40.14 -9 33 C-7.68 33 -6.36 33 -5 33 C-5 29.04 -5 25.08 -5 21 C-3.35 21 -1.7 21 0 21 C0 14.07 0 7.14 0 0 Z M8 38 C8 39.32 8 40.64 8 42 C9.32 42 10.64 42 12 42 C12 40.68 12 39.36 12 38 C10.68 38 9.36 38 8 38 Z M0 50 C0 51.32 0 52.64 0 54 C1.32 54 2.64 54 4 54 C4 52.68 4 51.36 4 50 C2.68 50 1.36 50 0 50 Z M8 79 C8 81.97 8 84.94 8 88 C6.68 88 5.36 88 4 88 C4 94.6 4 101.2 4 108 C2.68 108 1.36 108 0 108 C0 113.61 0 119.22 0 125 C-1.65 125 -3.3 125 -5 125 C-5 129.29 -5 133.58 -5 138 C-3.35 138 -1.7 138 0 138 C0 139.32 0 140.64 0 142 C5.28 142 10.56 142 16 142 C16 143.32 16 144.64 16 146 C17.32 146 18.64 146 20 146 C20 144.68 20 143.36 20 142 C21.65 142 23.3 142 25 142 C25 137.71 25 133.42 25 129 C23.35 129 21.7 129 20 129 C20 123.72 20 118.44 20 113 C18.68 113 17.36 113 16 113 C16 111.35 16 109.7 16 108 C18.97 108 21.94 108 25 108 C25 106.68 25 105.36 25 104 C22.03 104 19.06 104 16 104 C16 101.36 16 98.72 16 96 C14.68 96 13.36 96 12 96 C12 90.39 12 84.78 12 79 C10.68 79 9.36 79 8 79 Z M-9 92 C-9 94.64 -9 97.28 -9 100 C-6.03 100 -3.06 100 0 100 C0 97.36 0 94.72 0 92 C-2.97 92 -5.94 92 -9 92 Z M-59 138 C-59 139.32 -59 140.64 -59 142 C-57.68 142 -56.36 142 -55 142 C-55 143.32 -55 144.64 -55 146 C-53.35 146 -51.7 146 -50 146 C-50 143.36 -50 140.72 -50 138 C-52.97 138 -55.94 138 -59 138 Z M25 154 C25 156.97 25 159.94 25 163 C26.32 163 27.64 163 29 163 C29 161.35 29 159.7 29 158 C30.32 158 31.64 158 33 158 C33 156.68 33 155.36 33 154 C30.36 154 27.72 154 25 154 Z M45 163 C45 164.32 45 165.64 45 167 C46.65 167 48.3 167 50 167 C50 165.68 50 164.36 50 163 C48.35 163 46.7 163 45 163 Z M58 192 C58 194.64 58 197.28 58 200 C59.32 200 60.64 200 62 200 C62 197.36 62 194.72 62 192 C60.68 192 59.36 192 58 192 Z M-46 208 C-46 209.65 -46 211.3 -46 213 C-47.32 213 -48.64 213 -50 213 C-50 214.32 -50 215.64 -50 217 C-47.36 217 -44.72 217 -42 217 C-42 214.03 -42 211.06 -42 208 C-43.32 208 -44.64 208 -46 208 Z M62 217 C62 218.32 62 219.64 62 221 C63.32 221 64.64 221 66 221 C66 219.68 66 218.36 66 217 C64.68 217 63.36 217 62 217 Z M-55 225 C-55 226.32 -55 227.64 -55 229 C-53.35 229 -51.7 229 -50 229 C-50 230.32 -50 231.64 -50 233 C-48.68 233 -47.36 233 -46 233 C-46 230.36 -46 227.72 -46 225 C-48.97 225 -51.94 225 -55 225 Z M-150 233 C-150 234.65 -150 236.3 -150 238 C-148.68 238 -147.36 238 -146 238 C-146 236.35 -146 234.7 -146 233 C-147.32 233 -148.64 233 -150 233 Z M-63 238 C-63 239.32 -63 240.64 -63 242 C-60.36 242 -57.72 242 -55 242 C-55 240.68 -55 239.36 -55 238 C-57.64 238 -60.28 238 -63 238 Z M-67 258 C-67 259.65 -67 261.3 -67 263 C-64.36 263 -61.72 263 -59 263 C-59 261.35 -59 259.7 -59 258 C-61.64 258 -64.28 258 -67 258 Z M-84 279 C-84 283.29 -84 287.58 -84 292 C-82.68 292 -81.36 292 -80 292 C-80 287.71 -80 283.42 -80 279 C-81.32 279 -82.64 279 -84 279 Z M-96 296 C-96 297.32 -96 298.64 -96 300 C-94.68 300 -93.36 300 -92 300 C-92 298.68 -92 297.36 -92 296 C-93.32 296 -94.64 296 -96 296 Z " fill="#000000" transform="translate(191,10)"/>
<path d="M0 0 C1.65 0 3.3 0 5 0 C5 1.32 5 2.64 5 4 C3.35 4 1.7 4 0 4 C0 2.68 0 1.36 0 0 Z " fill="#000000" transform="translate(236,239)"/>
<path d="M0 0 C2.64 0 5.28 0 8 0 C8 1.65 8 3.3 8 5 C5.36 5 2.72 5 0 5 C0 3.35 0 1.7 0 0 Z " fill="#000000" transform="translate(241,243)"/>
<path d="M0 0 C1.32 0 2.64 0 4 0 C4 1.32 4 2.64 4 4 C2.68 4 1.36 4 0 4 C0 2.68 0 1.36 0 0 Z " fill="#000000" transform="translate(82,314)"/>
</svg>
