<?xml version="1.0" encoding="UTF-8"?>
<!-- Generator: visioncortex VTracer 0.6.12 -->
<svg version="1.1" xmlns="http://www.w3.org/2000/svg" width="89" height="115">
<path d="M0 0 C1.65 0.33 3.3 0.66 5 1 C5.63 10.15 3.299 18.72 1.25 27.562 C0.898 29.12 0.546 30.678 0.195 32.236 C-1.653 40.398 -3.617 48.525 -5.669 56.637 C-8.186 66.639 -10.022 76.731 -11 87 C-11.31 89.337 -11.653 91.668 -12 94 C-13.155 94.165 -13.155 94.165 -19 95 C-22.385 91.468 -22.889 87.725 -23 83 C-22.617 79.327 -21.921 75.742 -21.188 72.125 C-21.009 71.196 -20.83 70.266 -20.646 69.309 C-20.111 66.536 -19.558 63.768 -19 61 C-18.621 59.102 -18.242 57.203 -17.863 55.305 C-17.576 53.87 -17.288 52.435 -17 51 C-17.423 51.113 -17.423 51.113 -19.562 51.688 C-26.481 52.316 -31.503 48.308 -36.684 44.145 C-40.069 41.01 -42.824 37.468 -45.672 33.848 C-50.372 28.098 -55.574 22.62 -61.688 18.375 C-64 16 -64 16 -64.137 13.926 C-63.875 11.688 -63.875 11.688 -63 8 C-60.106 7.752 -58.503 7.666 -56.043 9.298 C-55.431 9.894 -54.818 10.491 -54.188 11.105 C-53.504 11.76 -52.821 12.414 -52.117 13.088 C-51.419 13.781 -50.72 14.474 -50 15.188 C-49.651 15.524 -49.651 15.524 -47.883 17.229 C-45.908 19.138 -43.951 21.065 -42 23 C-41.103 23.882 -40.206 24.763 -39.281 25.672 C-36.15 28.868 -33.227 32.232 -30.281 35.598 C-28.006 37.994 -25.625 39.999 -23 42 C-22.443 41.691 -21.886 41.381 -21.312 41.062 C-18.872 39.941 -16.632 39.484 -14 39 C-13.804 38.32 -13.607 37.64 -13.405 36.94 C-12.501 33.813 -11.594 30.688 -10.688 27.562 C-10.533 27.028 -10.533 27.028 -9.752 24.322 C-4.408 5.928 -4.408 5.928 0 0 Z " fill="#000000" transform="translate(74,10)"/>
</svg>
