<?xml version="1.0" encoding="UTF-8"?>
<!-- Generator: visioncortex VTracer 0.6.12 -->
<svg version="1.1" xmlns="http://www.w3.org/2000/svg" width="81" height="95">
<path d="M0 0 C3.367 2.304 3.583 4.738 4.375 8.625 C3.921 8.955 3.468 9.285 3 9.625 C-1.003 14.552 -1.194 22.464 -1.625 28.625 C-1.691 29.469 -1.756 30.314 -1.824 31.184 C-2.227 40.754 0.039 51.203 6.375 58.625 C9.607 62.108 12.173 64.297 16.812 65.562 C22.435 64.083 24.926 60.108 28.375 55.625 C28.924 54.979 29.473 54.333 30.039 53.668 C37.579 44.484 40.306 33.906 40.938 22.312 C40.959 21.942 40.959 21.942 41.068 20.068 C41.174 18.254 41.275 16.44 41.375 14.625 C43.75 14 43.75 14 46.375 13.625 C49.318 16.568 48.847 19.735 48.875 23.688 C48.843 40.521 41.933 52.954 31.375 65.625 C31.112 65.944 31.112 65.944 29.781 67.558 C25.804 72.306 23.462 74.334 17.062 74.938 C7.52 74.129 1.736 69.53 -4.625 62.625 C-6.44 60.072 -7.55 57.557 -8.625 54.625 C-8.994 53.777 -9.362 52.929 -9.742 52.055 C-15.697 36.983 -13.031 19.813 -7.82 4.902 C-5.954 1.347 -4.099 -0.586 0 0 Z " fill="#000000" transform="translate(22.625,10.375)"/>
</svg>
