<?xml version="1.0" encoding="UTF-8"?>
<!-- Generator: visioncortex VTracer 0.6.12 -->
<svg version="1.1" xmlns="http://www.w3.org/2000/svg" width="101" height="104">
<path d="M0 0 C6.825 6.097 10.182 15.802 11.195 24.684 C11.764 38.956 5.934 55.008 -3 66.23 C-12.388 75.09 -24.962 79.245 -37.625 79.125 C-38.033 79.129 -38.033 79.129 -40.098 79.148 C-47.707 79.124 -53.76 77.984 -59.426 72.688 C-67.003 64.605 -69.935 55.385 -70.562 44.375 C-69.832 28.775 -60.689 9.631 -50.266 -1.738 C-48.125 -3.125 -48.125 -3.125 -45.484 -3.043 C-43.125 -2.125 -43.125 -2.125 -41.125 0.875 C-40.591 0.609 -40.058 0.344 -39.508 0.07 C-26.614 -6.042 -12.261 -8.337 0 0 Z M-52.727 19.086 C-56.187 23.513 -58.393 28.294 -59.125 33.875 C-58.785 36.551 -58.785 36.551 -58.188 39.188 C-57.993 40.071 -57.798 40.954 -57.598 41.863 C-57.442 42.527 -57.286 43.191 -57.125 43.875 C-57.785 44.04 -57.785 44.04 -61.125 44.875 C-60.939 52.961 -59.269 59.524 -53.566 65.512 C-47.266 70.995 -39.978 70.421 -32.085 70.059 C-27.654 69.644 -23.979 67.999 -20.125 65.875 C-19.397 65.49 -18.668 65.104 -17.918 64.707 C-9.794 60.05 -6.579 54.365 -3.262 45.805 C-2.125 42.875 -2.125 42.875 -1.145 40.883 C2.53 33.12 2.095 21.853 -0.312 13.75 C-2.087 9.339 -4.769 5.053 -9.125 2.875 C-26.696 1.808 -40.244 5.751 -52.727 19.086 Z " fill="#000000" transform="translate(80.125,15.125)"/>
</svg>
