<?xml version="1.0" encoding="UTF-8"?>
<!-- Generator: visioncortex VTracer 0.6.12 -->
<svg version="1.1" xmlns="http://www.w3.org/2000/svg" width="207" height="245">
<path d="M0 0 C6.93 0 13.86 0 21 0 C21 6.6 21 13.2 21 20 C19.68 20 18.36 20 17 20 C17 24.29 17 28.58 17 33 C14.36 33 11.72 33 9 33 C9 34.32 9 35.64 9 37 C6.03 37 3.06 37 0 37 C0 38.32 0 39.64 0 41 C-2.64 41 -5.28 41 -8 41 C-8 43.97 -8 46.94 -8 50 C-9.32 50 -10.64 50 -12 50 C-12 51.32 -12 52.64 -12 54 C-13.32 54 -14.64 54 -16 54 C-16 55.32 -16 56.64 -16 58 C-17.32 58 -18.64 58 -20 58 C-20 60.64 -20 63.28 -20 66 C-21.65 66 -23.3 66 -25 66 C-25 68.97 -25 71.94 -25 75 C-26.32 75 -27.64 75 -29 75 C-29 76.32 -29 77.64 -29 79 C-30.32 79 -31.64 79 -33 79 C-33 80.32 -33 81.64 -33 83 C-34.32 83 -35.64 83 -37 83 C-37 84.32 -37 85.64 -37 87 C-38.32 87 -39.64 87 -41 87 C-41 89.64 -41 92.28 -41 95 C-42.32 95 -43.64 95 -45 95 C-45 97.97 -45 100.94 -45 104 C-46.65 104 -48.3 104 -50 104 C-50 106.64 -50 109.28 -50 112 C-51.32 112 -52.64 112 -54 112 C-54 114.64 -54 117.28 -54 120 C-55.32 120 -56.64 120 -58 120 C-58 124.29 -58 128.58 -58 133 C-59.32 133 -60.64 133 -62 133 C-62 141.25 -62 149.5 -62 158 C-63.32 158 -64.64 158 -66 158 C-66 160.64 -66 163.28 -66 166 C-67.65 166 -69.3 166 -71 166 C-71 177.22 -71 188.44 -71 200 C-72.32 200 -73.64 200 -75 200 C-75 206.93 -75 213.86 -75 221 C-76.32 221 -77.64 221 -79 221 C-79 222.32 -79 223.64 -79 225 C-82.96 225 -86.92 225 -91 225 C-91 223.68 -91 222.36 -91 221 C-92.65 221 -94.3 221 -96 221 C-96 219.35 -96 217.7 -96 216 C-97.32 216 -98.64 216 -100 216 C-100 214.68 -100 213.36 -100 212 C-101.32 212 -102.64 212 -104 212 C-104 205.07 -104 198.14 -104 191 C-105.32 191 -106.64 191 -108 191 C-108 185.72 -108 180.44 -108 175 C-109.32 175 -110.64 175 -112 175 C-112 170.71 -112 166.42 -112 162 C-113.32 162 -114.64 162 -116 162 C-116 158.04 -116 154.08 -116 150 C-117.65 150 -119.3 150 -121 150 C-121 145.71 -121 141.42 -121 137 C-122.32 137 -123.64 137 -125 137 C-125 133.04 -125 129.08 -125 125 C-126.32 125 -127.64 125 -129 125 C-129 122.03 -129 119.06 -129 116 C-130.32 116 -131.64 116 -133 116 C-133 112.04 -133 108.08 -133 104 C-134.32 104 -135.64 104 -137 104 C-137 101.03 -137 98.06 -137 95 C-138.32 95 -139.64 95 -141 95 C-141 92.36 -141 89.72 -141 87 C-142.65 87 -144.3 87 -146 87 C-146 83.04 -146 79.08 -146 75 C-147.32 75 -148.64 75 -150 75 C-150 72.03 -150 69.06 -150 66 C-151.32 66 -152.64 66 -154 66 C-154 63.36 -154 60.72 -154 58 C-152.68 58 -151.36 58 -150 58 C-150 56.68 -150 55.36 -150 54 C-151.32 54 -152.64 54 -154 54 C-154 52.68 -154 51.36 -154 50 C-155.32 50 -156.64 50 -158 50 C-158 48.35 -158 46.7 -158 45 C-159.32 45 -160.64 45 -162 45 C-162 43.68 -162 42.36 -162 41 C-163.32 41 -164.64 41 -166 41 C-166 37.04 -166 33.08 -166 29 C-164.68 29 -163.36 29 -162 29 C-162 27.68 -162 26.36 -162 25 C-160.68 25 -159.36 25 -158 25 C-158 23.35 -158 21.7 -158 20 C-152.39 20 -146.78 20 -141 20 C-141 24.29 -141 28.58 -141 33 C-139.68 33 -138.36 33 -137 33 C-137 34.32 -137 35.64 -137 37 C-135.68 37 -134.36 37 -133 37 C-133 39.64 -133 42.28 -133 45 C-131.68 45 -130.36 45 -129 45 C-129 47.97 -129 50.94 -129 54 C-127.68 54 -126.36 54 -125 54 C-125 56.64 -125 59.28 -125 62 C-123.68 62 -122.36 62 -121 62 C-121 66.29 -121 70.58 -121 75 C-119.35 75 -117.7 75 -116 75 C-116 76.32 -116 77.64 -116 79 C-114.68 79 -113.36 79 -112 79 C-112 81.64 -112 84.28 -112 87 C-114.97 87 -117.94 87 -121 87 C-121 88.32 -121 89.64 -121 91 C-116.71 91 -112.42 91 -108 91 C-108 93.97 -108 96.94 -108 100 C-106.68 100 -105.36 100 -104 100 C-104 108.25 -104 116.5 -104 125 C-102.68 125 -101.36 125 -100 125 C-100 127.64 -100 130.28 -100 133 C-98.68 133 -97.36 133 -96 133 C-96 136.96 -96 140.92 -96 145 C-94.35 145 -92.7 145 -91 145 C-91 143.68 -91 142.36 -91 141 C-89.68 141 -88.36 141 -87 141 C-87 137.04 -87 133.08 -87 129 C-85.68 129 -84.36 129 -83 129 C-83 126.03 -83 123.06 -83 120 C-81.68 120 -80.36 120 -79 120 C-79 116.04 -79 112.08 -79 108 C-77.68 108 -76.36 108 -75 108 C-75 105.36 -75 102.72 -75 100 C-73.68 100 -72.36 100 -71 100 C-71 97.03 -71 94.06 -71 91 C-69.35 91 -67.7 91 -66 91 C-66 88.36 -66 85.72 -66 83 C-64.68 83 -63.36 83 -62 83 C-62 80.36 -62 77.72 -62 75 C-60.68 75 -59.36 75 -58 75 C-58 72.03 -58 69.06 -58 66 C-56.68 66 -55.36 66 -54 66 C-54 64.68 -54 63.36 -54 62 C-52.68 62 -51.36 62 -50 62 C-50 60.68 -50 59.36 -50 58 C-48.35 58 -46.7 58 -45 58 C-45 55.36 -45 52.72 -45 50 C-43.68 50 -42.36 50 -41 50 C-41 48.35 -41 46.7 -41 45 C-39.68 45 -38.36 45 -37 45 C-37 43.68 -37 42.36 -37 41 C-35.68 41 -34.36 41 -33 41 C-33 39.68 -33 38.36 -33 37 C-31.68 37 -30.36 37 -29 37 C-29 35.68 -29 34.36 -29 33 C-27.68 33 -26.36 33 -25 33 C-25 30.36 -25 27.72 -25 25 C-23.35 25 -21.7 25 -20 25 C-20 23.35 -20 21.7 -20 20 C-18.68 20 -17.36 20 -16 20 C-16 18.68 -16 17.36 -16 16 C-14.68 16 -13.36 16 -12 16 C-12 14.68 -12 13.36 -12 12 C-10.68 12 -9.36 12 -8 12 C-8 10.68 -8 9.36 -8 8 C-6.68 8 -5.36 8 -4 8 C-4 6.68 -4 5.36 -4 4 C-2.68 4 -1.36 4 0 4 C0 2.68 0 1.36 0 0 Z M-45 66 C-45 67.32 -45 68.64 -45 70 C-42.36 70 -39.72 70 -37 70 C-37 68.68 -37 67.36 -37 66 C-39.64 66 -42.28 66 -45 66 Z M-83 204 C-83 206.64 -83 209.28 -83 212 C-81.68 212 -80.36 212 -79 212 C-79 209.36 -79 206.72 -79 204 C-80.32 204 -81.64 204 -83 204 Z " fill="#000000" transform="translate(176,10)"/>
</svg>
