<?xml version="1.0" encoding="UTF-8"?>
<!-- Generator: visioncortex VTracer 0.6.12 -->
<svg version="1.1" xmlns="http://www.w3.org/2000/svg" width="218" height="242">
<path d="M0 0 C8.25 0 16.5 0 25 0 C25 1.32 25 2.64 25 4 C27.64 4 30.28 4 33 4 C33 5.65 33 7.3 33 9 C35.64 9 38.28 9 41 9 C41 10.32 41 11.64 41 13 C42.32 13 43.64 13 45 13 C45 16.96 45 20.92 45 25 C46.65 25 48.3 25 50 25 C50 27.97 50 30.94 50 34 C51.32 34 52.64 34 54 34 C54 39.28 54 44.56 54 50 C55.32 50 56.64 50 58 50 C58 56.93 58 63.86 58 71 C59.32 71 60.64 71 62 71 C62 97.07 62 123.14 62 150 C63.32 150 64.64 150 66 150 C66 156.93 66 163.86 66 171 C67.32 171 68.64 171 70 171 C70 173.97 70 176.94 70 180 C71.65 180 73.3 180 75 180 C75 181.32 75 182.64 75 184 C76.32 184 77.64 184 79 184 C79 185.32 79 186.64 79 188 C81.64 188 84.28 188 87 188 C87 189.32 87 190.64 87 192 C92.61 192 98.22 192 104 192 C104 190.68 104 189.36 104 188 C105.32 188 106.64 188 108 188 C108 186.68 108 185.36 108 184 C109.32 184 110.64 184 112 184 C112 182.68 112 181.36 112 180 C113.32 180 114.64 180 116 180 C116 178.35 116 176.7 116 175 C117.32 175 118.64 175 120 175 C120 173.68 120 172.36 120 171 C121.65 171 123.3 171 125 171 C125 169.68 125 168.36 125 167 C126.32 167 127.64 167 129 167 C129 162.71 129 158.42 129 154 C130.32 154 131.64 154 133 154 C133 143.11 133 132.22 133 121 C134.32 121 135.64 121 137 121 C137 97.57 137 74.14 137 50 C135.68 50 134.36 50 133 50 C133 37.79 133 25.58 133 13 C134.32 13 135.64 13 137 13 C137 11.68 137 10.36 137 9 C142.61 9 148.22 9 154 9 C154 10.32 154 11.64 154 13 C155.32 13 156.64 13 158 13 C158 18.28 158 23.56 158 29 C159.32 29 160.64 29 162 29 C162 37.25 162 45.5 162 54 C163.32 54 164.64 54 166 54 C166 67.86 166 81.72 166 96 C164.68 96 163.36 96 162 96 C162 108.54 162 121.08 162 134 C163.32 134 164.64 134 166 134 C166 150.5 166 167 166 184 C167.32 184 168.64 184 170 184 C170 187.96 170 191.92 170 196 C171.65 196 173.3 196 175 196 C175 197.32 175 198.64 175 200 C173.35 200 171.7 200 170 200 C170 205.61 170 211.22 170 217 C168.68 217 167.36 217 166 217 C166 218.32 166 219.64 166 221 C162.04 221 158.08 221 154 221 C154 219.68 154 218.36 154 217 C151.03 217 148.06 217 145 217 C145 213.04 145 209.08 145 205 C143.68 205 142.36 205 141 205 C141 202.03 141 199.06 141 196 C139.68 196 138.36 196 137 196 C137 197.32 137 198.64 137 200 C135.68 200 134.36 200 133 200 C133 201.65 133 203.3 133 205 C131.68 205 130.36 205 129 205 C129 206.32 129 207.64 129 209 C124.71 209 120.42 209 116 209 C116 210.32 116 211.64 116 213 C110.72 213 105.44 213 100 213 C100 214.32 100 215.64 100 217 C94.39 217 88.78 217 83 217 C83 215.68 83 214.36 83 213 C77.39 213 71.78 213 66 213 C66 211.68 66 210.36 66 209 C64.68 209 63.36 209 62 209 C62 207.68 62 206.36 62 205 C60.68 205 59.36 205 58 205 C58 203.35 58 201.7 58 200 C56.68 200 55.36 200 54 200 C54 198.68 54 197.36 54 196 C52.68 196 51.36 196 50 196 C50 193.36 50 190.72 50 188 C48.35 188 46.7 188 45 188 C45 183.71 45 179.42 45 175 C43.68 175 42.36 175 41 175 C41 172.36 41 169.72 41 167 C39.68 167 38.36 167 37 167 C37 156.11 37 145.22 37 134 C35.68 134 34.36 134 33 134 C33 107.6 33 81.2 33 54 C31.68 54 30.36 54 29 54 C29 45.75 29 37.5 29 29 C27.68 29 26.36 29 25 29 C25 27.68 25 26.36 25 25 C19.39 25 13.78 25 8 25 C8 26.32 8 27.64 8 29 C6.68 29 5.36 29 4 29 C4 31.97 4 34.94 4 38 C2.68 38 1.36 38 0 38 C0 41.96 0 45.92 0 50 C-2.97 50 -5.94 50 -9 50 C-9 48.68 -9 47.36 -9 46 C-11.64 46 -14.28 46 -17 46 C-17 44.68 -17 43.36 -17 42 C-18.32 42 -19.64 42 -21 42 C-21 39.36 -21 36.72 -21 34 C-22.32 34 -23.64 34 -25 34 C-25 32.35 -25 30.7 -25 29 C-23.68 29 -22.36 29 -21 29 C-21 25.04 -21 21.08 -21 17 C-19.68 17 -18.36 17 -17 17 C-17 15.68 -17 14.36 -17 13 C-15.68 13 -14.36 13 -13 13 C-13 11.68 -13 10.36 -13 9 C-11.68 9 -10.36 9 -9 9 C-9 7.35 -9 5.7 -9 4 C-6.03 4 -3.06 4 0 4 C0 2.68 0 1.36 0 0 Z M8 9 C8 10.32 8 11.64 8 13 C3.71 13 -0.58 13 -5 13 C-5 14.32 -5 15.64 -5 17 C0.61 17 6.22 17 12 17 C12 14.36 12 11.72 12 9 C10.68 9 9.36 9 8 9 Z M20 17 C20 18.32 20 19.64 20 21 C21.65 21 23.3 21 25 21 C25 19.68 25 18.36 25 17 C23.35 17 21.7 17 20 17 Z M29 21 C29 22.32 29 23.64 29 25 C30.32 25 31.64 25 33 25 C33 23.68 33 22.36 33 21 C31.68 21 30.36 21 29 21 Z M150 184 C150 185.32 150 186.64 150 188 C151.32 188 152.64 188 154 188 C154 186.68 154 185.36 154 184 C152.68 184 151.36 184 150 184 Z M150 209 C150 210.32 150 211.64 150 213 C152.64 213 155.28 213 158 213 C158 211.68 158 210.36 158 209 C155.36 209 152.72 209 150 209 Z " fill="#000000" transform="translate(34,10)"/>
</svg>
