<?xml version="1.0" encoding="UTF-8"?>
<!-- Generator: visioncortex VTracer 0.6.12 -->
<svg version="1.1" xmlns="http://www.w3.org/2000/svg" width="203" height="246">
<path d="M0 0 C3.96 0 7.92 0 12 0 C12 1.32 12 2.64 12 4 C21.57 4 31.14 4 41 4 C41 5.32 41 6.64 41 8 C43.97 8 46.94 8 50 8 C50 9.32 50 10.64 50 12 C52.64 12 55.28 12 58 12 C58 13.32 58 14.64 58 16 C61.96 16 65.92 16 70 16 C70 17.32 70 18.64 70 20 C71.65 20 73.3 20 75 20 C75 21.65 75 23.3 75 25 C76.32 25 77.64 25 79 25 C79 27.64 79 30.28 79 33 C81.64 33 84.28 33 87 33 C87 35.64 87 38.28 87 41 C88.32 41 89.64 41 91 41 C91 57.5 91 74 91 91 C89.68 91 88.36 91 87 91 C87 95.29 87 99.58 87 104 C85.68 104 84.36 104 83 104 C83 106.64 83 109.28 83 112 C81.68 112 80.36 112 79 112 C79 114.64 79 117.28 79 120 C77.68 120 76.36 120 75 120 C75 121.65 75 123.3 75 125 C73.35 125 71.7 125 70 125 C70 126.32 70 127.64 70 129 C68.68 129 67.36 129 66 129 C66 130.32 66 131.64 66 133 C64.68 133 63.36 133 62 133 C62 134.32 62 135.64 62 137 C59.36 137 56.72 137 54 137 C54 138.32 54 139.64 54 141 C49.71 141 45.42 141 41 141 C41 142.32 41 143.64 41 145 C24.5 145 8 145 -9 145 C-9 143.68 -9 142.36 -9 141 C-10.32 141 -11.64 141 -13 141 C-13 142.32 -13 143.64 -13 145 C-17.29 145 -21.58 145 -26 145 C-26 149.29 -26 153.58 -26 158 C-24.35 158 -22.7 158 -21 158 C-21 173.18 -21 188.36 -21 204 C-19.68 204 -18.36 204 -17 204 C-17 205.32 -17 206.64 -17 208 C-15.68 208 -14.36 208 -13 208 C-13 210.64 -13 213.28 -13 216 C-14.32 216 -15.64 216 -17 216 C-17 217.32 -17 218.64 -17 220 C-18.32 220 -19.64 220 -21 220 C-21 222.97 -21 225.94 -21 229 C-26.61 229 -32.22 229 -38 229 C-38 227.68 -38 226.36 -38 225 C-39.32 225 -40.64 225 -42 225 C-42 205.53 -42 186.06 -42 166 C-46.29 166 -50.58 166 -55 166 C-55 163.36 -55 160.72 -55 158 C-56.32 158 -57.64 158 -59 158 C-59 149.75 -59 141.5 -59 133 C-57.68 133 -56.36 133 -55 133 C-55 131.68 -55 130.36 -55 129 C-52.03 129 -49.06 129 -46 129 C-46 124.71 -46 120.42 -46 116 C-47.65 116 -49.3 116 -51 116 C-51 112.04 -51 108.08 -51 104 C-52.32 104 -53.64 104 -55 104 C-55 101.03 -55 98.06 -55 95 C-53.68 95 -52.36 95 -51 95 C-51 93.68 -51 92.36 -51 91 C-53.64 91 -56.28 91 -59 91 C-59 92.32 -59 93.64 -59 95 C-60.32 95 -61.64 95 -63 95 C-63 96.65 -63 98.3 -63 100 C-64.32 100 -65.64 100 -67 100 C-67 101.32 -67 102.64 -67 104 C-68.32 104 -69.64 104 -71 104 C-71 105.32 -71 106.64 -71 108 C-76.61 108 -82.22 108 -88 108 C-88 106.68 -88 105.36 -88 104 C-89.32 104 -90.64 104 -92 104 C-92 97.07 -92 90.14 -92 83 C-90.68 83 -89.36 83 -88 83 C-88 81.68 -88 80.36 -88 79 C-86.68 79 -85.36 79 -84 79 C-84 77.68 -84 76.36 -84 75 C-82.68 75 -81.36 75 -80 75 C-80 73.35 -80 71.7 -80 70 C-78.68 70 -77.36 70 -76 70 C-76 67.36 -76 64.72 -76 62 C-74.35 62 -72.7 62 -71 62 C-71 60.68 -71 59.36 -71 58 C-69.68 58 -68.36 58 -67 58 C-67 56.68 -67 55.36 -67 54 C-65.68 54 -64.36 54 -63 54 C-63 51.03 -63 48.06 -63 45 C-61.68 45 -60.36 45 -59 45 C-59 43.68 -59 42.36 -59 41 C-57.68 41 -56.36 41 -55 41 C-55 39.68 -55 38.36 -55 37 C-53.68 37 -52.36 37 -51 37 C-51 35.68 -51 34.36 -51 33 C-49.35 33 -47.7 33 -46 33 C-46 31.68 -46 30.36 -46 29 C-44.68 29 -43.36 29 -42 29 C-42 26.03 -42 23.06 -42 20 C-39.36 20 -36.72 20 -34 20 C-34 18.68 -34 17.36 -34 16 C-32.68 16 -31.36 16 -30 16 C-30 14.68 -30 13.36 -30 12 C-28.68 12 -27.36 12 -26 12 C-26 10.68 -26 9.36 -26 8 C-21.71 8 -17.42 8 -13 8 C-13 6.68 -13 5.36 -13 4 C-8.71 4 -4.42 4 0 4 C0 2.68 0 1.36 0 0 Z M-26 29 C-26 30.32 -26 31.64 -26 33 C-24.35 33 -22.7 33 -21 33 C-21 31.68 -21 30.36 -21 29 C-22.65 29 -24.3 29 -26 29 Z M0 29 C0 30.32 0 31.64 0 33 C-2.97 33 -5.94 33 -9 33 C-9 34.32 -9 35.64 -9 37 C-11.64 37 -14.28 37 -17 37 C-17 38.32 -17 39.64 -17 41 C-19.97 41 -22.94 41 -26 41 C-26 42.32 -26 43.64 -26 45 C-27.32 45 -28.64 45 -30 45 C-30 47.97 -30 50.94 -30 54 C-31.32 54 -32.64 54 -34 54 C-34 55.32 -34 56.64 -34 58 C-35.32 58 -36.64 58 -38 58 C-38 61.96 -38 65.92 -38 70 C-36.68 70 -35.36 70 -34 70 C-34 72.97 -34 75.94 -34 79 C-32.68 79 -31.36 79 -30 79 C-30 80.32 -30 81.64 -30 83 C-31.32 83 -32.64 83 -34 83 C-34 84.32 -34 85.64 -34 87 C-32.68 87 -31.36 87 -30 87 C-30 95.25 -30 103.5 -30 112 C-28.68 112 -27.36 112 -26 112 C-26 114.64 -26 117.28 -26 120 C-12.14 120 1.72 120 16 120 C16 118.68 16 117.36 16 116 C22.93 116 29.86 116 37 116 C37 114.68 37 113.36 37 112 C39.64 112 42.28 112 45 112 C45 110.68 45 109.36 45 108 C46.65 108 48.3 108 50 108 C50 106.68 50 105.36 50 104 C51.32 104 52.64 104 54 104 C54 102.68 54 101.36 54 100 C55.32 100 56.64 100 58 100 C58 97.03 58 94.06 58 91 C59.32 91 60.64 91 62 91 C62 77.47 62 63.94 62 50 C60.68 50 59.36 50 58 50 C58 48.35 58 46.7 58 45 C56.68 45 55.36 45 54 45 C54 43.68 54 42.36 54 41 C52.68 41 51.36 41 50 41 C50 39.68 50 38.36 50 37 C45.71 37 41.42 37 37 37 C37 35.68 37 34.36 37 33 C34.36 33 31.72 33 29 33 C29 31.68 29 30.36 29 29 C19.43 29 9.86 29 0 29 Z M-42 50 C-42 51.32 -42 52.64 -42 54 C-40.68 54 -39.36 54 -38 54 C-38 52.68 -38 51.36 -38 50 C-39.32 50 -40.64 50 -42 50 Z M-63 79 C-63 80.32 -63 81.64 -63 83 C-61.68 83 -60.36 83 -59 83 C-59 81.68 -59 80.36 -59 79 C-60.32 79 -61.64 79 -63 79 Z M75 95 C75 96.65 75 98.3 75 100 C76.32 100 77.64 100 79 100 C79 98.35 79 96.7 79 95 C77.68 95 76.36 95 75 95 Z M-13 133 C-13 134.32 -13 135.64 -13 137 C-11.68 137 -10.36 137 -9 137 C-9 135.68 -9 134.36 -9 133 C-10.32 133 -11.64 133 -13 133 Z M-46 141 C-46 142.32 -46 143.64 -46 145 C-44.68 145 -43.36 145 -42 145 C-42 143.68 -42 142.36 -42 141 C-43.32 141 -44.64 141 -46 141 Z " fill="#000000" transform="translate(102,7)"/>
</svg>
