<?xml version="1.0" encoding="UTF-8"?>
<!-- Generator: visioncortex VTracer 0.6.12 -->
<svg version="1.1" xmlns="http://www.w3.org/2000/svg" width="72" height="106">
<path d="M0 0 C1.938 0.198 1.938 0.198 4 1 C9.548 8.878 10.252 21.291 12 30.562 C12.662 34.023 13.329 37.483 14 40.941 C14.164 41.785 14.327 42.628 14.496 43.497 C15.61 49.176 16.814 54.828 18.125 60.465 C18.284 61.155 18.442 61.845 18.605 62.556 C19.467 66.18 20.514 69.584 22 73 C24.209 68.112 25.893 63.263 27.27 58.074 C27.685 56.548 28.1 55.021 28.516 53.495 C28.728 52.708 28.94 51.922 29.158 51.111 C32.405 39.083 35.704 27.113 39.844 15.355 C41.025 11.926 42.033 8.495 43 5 C44.65 4.67 46.3 4.34 48 4 C49.264 6.118 50.043 7.448 49.847 9.944 C49.659 10.618 49.471 11.291 49.277 11.984 C49.068 12.757 48.858 13.529 48.643 14.324 C48.41 15.125 48.177 15.925 47.938 16.75 C47.835 17.127 47.835 17.127 47.314 19.035 C46.063 23.548 44.684 28.015 43.267 32.478 C41.19 39.026 39.249 45.592 37.465 52.227 C37.256 52.998 37.048 53.77 36.833 54.565 C35.982 57.724 35.133 60.882 34.3 64.045 C33.677 66.4 33.041 68.751 32.402 71.102 C32.22 71.808 32.038 72.514 31.85 73.242 C30.602 77.781 28.892 81.284 26 85 C22.897 86.352 21.603 86.221 18.438 85.062 C7.889 76.137 6.686 55.944 4.438 43.062 C3.856 39.782 3.27 36.502 2.684 33.223 C2.544 32.433 2.404 31.644 2.26 30.831 C1.182 24.813 -0.091 18.863 -1.489 12.911 C-2.236 8.654 -1.859 5.221 -1 1 C-0.67 0.67 -0.34 0.34 0 0 Z " fill="#000000" transform="translate(12,10)"/>
</svg>
