<?xml version="1.0" encoding="UTF-8"?>
<!-- Generator: visioncortex VTracer 0.6.12 -->
<svg version="1.1" xmlns="http://www.w3.org/2000/svg" width="77" height="123">
<path d="M0 0 C2.5 0.312 2.5 0.312 5 1 C11.977 14.953 8.343 38.287 8.316 53.839 C8.31 57.513 8.327 61.186 8.35 64.86 C8.365 67.717 8.366 70.575 8.363 73.432 C8.363 75.444 8.377 77.455 8.391 79.467 C8.385 80.677 8.379 81.887 8.372 83.134 C8.373 84.197 8.374 85.261 8.374 86.358 C8 89 8 89 6.641 90.882 C5 92 5 92 2.375 91.75 C0 91 0 91 -1 90 C-1.118 88.476 -1.167 86.946 -1.189 85.418 C-1.206 84.438 -1.223 83.457 -1.24 82.447 C-1.254 81.372 -1.267 80.296 -1.281 79.188 C-1.3 78.072 -1.318 76.956 -1.337 75.807 C-1.396 72.204 -1.448 68.602 -1.5 65 C-1.569 60.333 -1.642 55.667 -1.719 51 C-1.728 50.42 -1.728 50.42 -1.772 47.485 C-1.871 41.67 -2.034 35.868 -2.324 30.059 C-2.379 28.944 -2.433 27.83 -2.489 26.682 C-2.597 24.598 -2.714 22.514 -2.846 20.432 C-3.191 13.742 -2.693 7.504 -1 1 C-0.67 0.67 -0.34 0.34 0 0 Z " fill="#000000" transform="translate(59,10)"/>
<path d="M0 0 C2.562 0.562 2.562 0.562 5 2 C7.707 6.658 7.164 11.477 6.977 16.676 C6.952 17.601 6.927 18.526 6.901 19.479 C6.819 22.424 6.722 25.368 6.625 28.312 C6.567 30.313 6.509 32.314 6.453 34.314 C6.313 39.21 6.16 44.105 6 49 C6.33 48.835 6.33 48.835 8 48 C12.329 47.756 16.665 47.815 21 47.812 C22.214 47.8 23.429 47.788 24.68 47.775 C25.258 47.774 25.258 47.774 28.188 47.77 C28.721 47.767 28.721 47.767 31.418 47.757 C34 48 34 48 36 50 C35.75 52.063 35.75 52.063 35 54 C32.36 55.32 30.359 55.13 27.406 55.133 C26.85 55.133 26.85 55.133 24.035 55.137 C22.869 55.133 21.702 55.129 20.5 55.125 C19.333 55.129 18.167 55.133 16.965 55.137 C15.852 55.135 14.74 55.134 13.594 55.133 C12.57 55.132 11.545 55.131 10.49 55.129 C8 55 8 55 6 54 C5.061 61.564 4.877 69.009 4.938 76.625 C4.942 77.725 4.947 78.824 4.951 79.957 C4.963 82.638 4.979 85.319 5 88 C5.33 87.67 5.33 87.67 7 86 C9.5 85.688 9.5 85.688 12 86 C14 89 14 89 13.812 91.375 C12.54 95.486 11.005 98.158 7.688 100.938 C5 102 5 102 2 101.438 C-1.999 99.521 -5.128 97.78 -7.126 93.703 C-8.057 90.825 -8.244 88.587 -8.23 85.57 C-8.23 85.048 -8.23 85.048 -8.225 82.406 C-8.212 81.323 -8.2 80.241 -8.188 79.125 C-8.187 78.081 -8.186 77.037 -8.186 75.961 C-8.154 70.293 -7.933 64.676 -7.512 59.023 C-7.069 52.876 -6.878 46.756 -6.789 40.594 C-6.775 39.69 -6.76 38.787 -6.746 37.856 C-6.688 34.12 -6.633 30.385 -6.599 26.648 C-6.571 23.88 -6.525 21.112 -6.477 18.344 C-6.473 17.508 -6.47 16.673 -6.467 15.812 C-6.356 10.498 -5.559 6.694 -3 2 C-2.01 1.34 -1.02 0.68 0 0 Z " fill="#000000" transform="translate(18,11)"/>
</svg>
