<?xml version="1.0" encoding="UTF-8"?>
<!-- Generator: visioncortex VTracer 0.6.12 -->
<svg version="1.1" xmlns="http://www.w3.org/2000/svg" width="249" height="238">
<path d="M0 0 C1.32 0 2.64 0 4 0 C4 1.32 4 2.64 4 4 C10.93 4 17.86 4 25 4 C25 5.32 25 6.64 25 8 C29.29 8 33.58 8 38 8 C38 9.32 38 10.64 38 12 C41.96 12 45.92 12 50 12 C50 13.32 50 14.64 50 16 C51.32 16 52.64 16 54 16 C54 17.32 54 18.64 54 20 C55.65 20 57.3 20 59 20 C59 21.65 59 23.3 59 25 C61.64 25 64.28 25 67 25 C67 26.32 67 27.64 67 29 C68.32 29 69.64 29 71 29 C71 30.32 71 31.64 71 33 C72.32 33 73.64 33 75 33 C75 34.32 75 35.64 75 37 C76.32 37 77.64 37 79 37 C79 39.64 79 42.28 79 45 C80.65 45 82.3 45 84 45 C84 46.65 84 48.3 84 50 C85.32 50 86.64 50 88 50 C88 52.64 88 55.28 88 58 C89.32 58 90.64 58 92 58 C92 61.96 92 65.92 92 70 C93.32 70 94.64 70 96 70 C96 76.93 96 83.86 96 91 C97.32 91 98.64 91 100 91 C100 100.57 100 110.14 100 120 C98.68 120 97.36 120 96 120 C96 126.93 96 133.86 96 141 C94.68 141 93.36 141 92 141 C92 145.29 92 149.58 92 154 C90.68 154 89.36 154 88 154 C88 157.96 88 161.92 88 166 C86.68 166 85.36 166 84 166 C84 167.32 84 168.64 84 170 C82.35 170 80.7 170 79 170 C79 171.65 79 173.3 79 175 C77.68 175 76.36 175 75 175 C75 177.64 75 180.28 75 183 C72.36 183 69.72 183 67 183 C67 181.68 67 180.36 67 179 C68.32 179 69.64 179 71 179 C71 177.68 71 176.36 71 175 C67.04 175 63.08 175 59 175 C59 176.32 59 177.64 59 179 C57.35 179 55.7 179 54 179 C54 180.32 54 181.64 54 183 C55.65 183 57.3 183 59 183 C59 184.32 59 185.64 59 187 C61.64 187 64.28 187 67 187 C67 188.32 67 189.64 67 191 C65.68 191 64.36 191 63 191 C63 192.32 63 193.64 63 195 C61.68 195 60.36 195 59 195 C59 196.65 59 198.3 59 200 C57.35 200 55.7 200 54 200 C54 201.32 54 202.64 54 204 C52.68 204 51.36 204 50 204 C50 205.32 50 206.64 50 208 C46.04 208 42.08 208 38 208 C38 209.32 38 210.64 38 212 C32.39 212 26.78 212 21 212 C21 213.32 21 214.64 21 216 C18.36 216 15.72 216 13 216 C13 214.68 13 213.36 13 212 C11.68 212 10.36 212 9 212 C9 213.32 9 214.64 9 216 C7.35 216 5.7 216 4 216 C4 217.32 4 218.64 4 220 C-4.25 220 -12.5 220 -21 220 C-21 218.68 -21 217.36 -21 216 C-30.57 216 -40.14 216 -50 216 C-50 214.68 -50 213.36 -50 212 C-58.25 212 -66.5 212 -75 212 C-75 213.32 -75 214.64 -75 216 C-78.96 216 -82.92 216 -87 216 C-87 217.32 -87 218.64 -87 220 C-91.29 220 -95.58 220 -100 220 C-100 218.68 -100 217.36 -100 216 C-101.32 216 -102.64 216 -104 216 C-104 212.04 -104 208.08 -104 204 C-102.68 204 -101.36 204 -100 204 C-100 202.68 -100 201.36 -100 200 C-98.68 200 -97.36 200 -96 200 C-96 198.35 -96 196.7 -96 195 C-93.03 195 -90.06 195 -87 195 C-87 193.68 -87 192.36 -87 191 C-74.79 191 -62.58 191 -50 191 C-50 192.32 -50 193.64 -50 195 C-38.78 195 -27.56 195 -16 195 C-16 196.65 -16 198.3 -16 200 C-10.72 200 -5.44 200 0 200 C0 198.35 0 196.7 0 195 C5.61 195 11.22 195 17 195 C17 193.68 17 192.36 17 191 C19.64 191 22.28 191 25 191 C25 189.68 25 188.36 25 187 C26.32 187 27.64 187 29 187 C29 185.68 29 184.36 29 183 C30.65 183 32.3 183 34 183 C34 181.68 34 180.36 34 179 C36.64 179 39.28 179 42 179 C42 177.68 42 176.36 42 175 C43.32 175 44.64 175 46 175 C46 173.35 46 171.7 46 170 C47.32 170 48.64 170 50 170 C50 168.68 50 167.36 50 166 C51.32 166 52.64 166 54 166 C54 164.68 54 163.36 54 162 C55.65 162 57.3 162 59 162 C59 158.04 59 154.08 59 150 C60.32 150 61.64 150 63 150 C63 147.03 63 144.06 63 141 C64.32 141 65.64 141 67 141 C67 138.36 67 135.72 67 133 C68.32 133 69.64 133 71 133 C71 130.36 71 127.72 71 125 C69.68 125 68.36 125 67 125 C67 123.35 67 121.7 67 120 C68.32 120 69.64 120 71 120 C71 109.11 71 98.22 71 87 C69.68 87 68.36 87 67 87 C67 83.04 67 79.08 67 75 C65.68 75 64.36 75 63 75 C63 72.03 63 69.06 63 66 C61.68 66 60.36 66 59 66 C59 62.04 59 58.08 59 54 C57.35 54 55.7 54 54 54 C54 52.68 54 51.36 54 50 C52.68 50 51.36 50 50 50 C50 48.35 50 46.7 50 45 C48.68 45 47.36 45 46 45 C46 43.68 46 42.36 46 41 C43.36 41 40.72 41 38 41 C38 39.68 38 38.36 38 37 C35.03 37 32.06 37 29 37 C29 35.68 29 34.36 29 33 C26.36 33 23.72 33 21 33 C21 31.68 21 30.36 21 29 C18.36 29 15.72 29 13 29 C13 27.68 13 26.36 13 25 C6.07 25 -0.86 25 -8 25 C-8 26.32 -8 27.64 -8 29 C-12.29 29 -16.58 29 -21 29 C-21 30.32 -21 31.64 -21 33 C-23.64 33 -26.28 33 -29 33 C-29 34.32 -29 35.64 -29 37 C-30.32 37 -31.64 37 -33 37 C-33 38.32 -33 39.64 -33 41 C-37.29 41 -41.58 41 -46 41 C-46 42.32 -46 43.64 -46 45 C-48.64 45 -51.28 45 -54 45 C-54 46.65 -54 48.3 -54 50 C-59.61 50 -65.22 50 -71 50 C-71 51.32 -71 52.64 -71 54 C-72.32 54 -73.64 54 -75 54 C-75 55.32 -75 56.64 -75 58 C-78.96 58 -82.92 58 -87 58 C-87 59.32 -87 60.64 -87 62 C-96.9 62 -106.8 62 -117 62 C-117 60.68 -117 59.36 -117 58 C-118.32 58 -119.64 58 -121 58 C-121 56.68 -121 55.36 -121 54 C-122.32 54 -123.64 54 -125 54 C-125 52.68 -125 51.36 -125 50 C-126.32 50 -127.64 50 -129 50 C-129 45.71 -129 41.42 -129 37 C-127.68 37 -126.36 37 -125 37 C-125 35.68 -125 34.36 -125 33 C-119.39 33 -113.78 33 -108 33 C-108 34.32 -108 35.64 -108 37 C-101.07 37 -94.14 37 -87 37 C-87 35.68 -87 34.36 -87 33 C-84.36 33 -81.72 33 -79 33 C-79 31.68 -79 30.36 -79 29 C-75.04 29 -71.08 29 -67 29 C-67 27.68 -67 26.36 -67 25 C-65.35 25 -63.7 25 -62 25 C-62 23.35 -62 21.7 -62 20 C-59.36 20 -56.72 20 -54 20 C-54 18.68 -54 17.36 -54 16 C-52.68 16 -51.36 16 -50 16 C-50 14.68 -50 13.36 -50 12 C-45.71 12 -41.42 12 -37 12 C-37 10.68 -37 9.36 -37 8 C-31.72 8 -26.44 8 -21 8 C-21 6.68 -21 5.36 -21 4 C-14.07 4 -7.14 4 0 4 C0 2.68 0 1.36 0 0 Z M-12 12 C-12 13.32 -12 14.64 -12 16 C-8.04 16 -4.08 16 0 16 C0 14.68 0 13.36 0 12 C-3.96 12 -7.92 12 -12 12 Z M-41 25 C-41 26.32 -41 27.64 -41 29 C-39.68 29 -38.36 29 -37 29 C-37 27.68 -37 26.36 -37 25 C-38.32 25 -39.64 25 -41 25 Z M-54 33 C-54 34.32 -54 35.64 -54 37 C-51.36 37 -48.72 37 -46 37 C-46 35.68 -46 34.36 -46 33 C-48.64 33 -51.28 33 -54 33 Z M-67 37 C-67 38.32 -67 39.64 -67 41 C-68.32 41 -69.64 41 -71 41 C-71 42.32 -71 43.64 -71 45 C-68.03 45 -65.06 45 -62 45 C-62 43.68 -62 42.36 -62 41 C-60.68 41 -59.36 41 -58 41 C-58 39.68 -58 38.36 -58 37 C-60.97 37 -63.94 37 -67 37 Z M-92 45 C-92 46.65 -92 48.3 -92 50 C-90.35 50 -88.7 50 -87 50 C-87 48.35 -87 46.7 -87 45 C-88.65 45 -90.3 45 -92 45 Z M79 58 C79 60.64 79 63.28 79 66 C81.97 66 84.94 66 88 66 C88 64.68 88 63.36 88 62 C86.68 62 85.36 62 84 62 C84 60.68 84 59.36 84 58 C82.35 58 80.7 58 79 58 Z M71 62 C71 63.32 71 64.64 71 66 C72.32 66 73.64 66 75 66 C75 64.68 75 63.36 75 62 C73.68 62 72.36 62 71 62 Z M79 133 C79 136.96 79 140.92 79 145 C77.68 145 76.36 145 75 145 C75 146.65 75 148.3 75 150 C77.97 150 80.94 150 84 150 C84 144.39 84 138.78 84 133 C82.35 133 80.7 133 79 133 Z M71 166 C71 167.32 71 168.64 71 170 C73.64 170 76.28 170 79 170 C79 168.68 79 167.36 79 166 C76.36 166 73.72 166 71 166 Z M29 187 C29 188.32 29 189.64 29 191 C30.65 191 32.3 191 34 191 C34 189.68 34 188.36 34 187 C32.35 187 30.7 187 29 187 Z M46 187 C46 188.32 46 189.64 46 191 C44.68 191 43.36 191 42 191 C42 192.32 42 193.64 42 195 C40.68 195 39.36 195 38 195 C38 196.65 38 198.3 38 200 C36.68 200 35.36 200 34 200 C34 201.32 34 202.64 34 204 C36.64 204 39.28 204 42 204 C42 202.68 42 201.36 42 200 C44.64 200 47.28 200 50 200 C50 195.71 50 191.42 50 187 C48.68 187 47.36 187 46 187 Z M-79 204 C-79 206.64 -79 209.28 -79 212 C-77.68 212 -76.36 212 -75 212 C-75 209.36 -75 206.72 -75 204 C-76.32 204 -77.64 204 -79 204 Z M13 208 C13 209.32 13 210.64 13 212 C14.32 212 15.64 212 17 212 C17 210.68 17 209.36 17 208 C15.68 208 14.36 208 13 208 Z M-96 212 C-96 213.32 -96 214.64 -96 216 C-94.68 216 -93.36 216 -92 216 C-92 214.68 -92 213.36 -92 212 C-93.32 212 -94.64 212 -96 212 Z M-21 212 C-21 213.32 -21 214.64 -21 216 C-18.03 216 -15.06 216 -12 216 C-12 214.68 -12 213.36 -12 212 C-14.97 212 -17.94 212 -21 212 Z " fill="#000000" transform="translate(140,7)"/>
<path d="M0 0 C5.61 0 11.22 0 17 0 C17 2.64 17 5.28 17 8 C18.32 8 19.64 8 21 8 C21 10.97 21 13.94 21 17 C22.32 17 23.64 17 25 17 C25 19.64 25 22.28 25 25 C26.65 25 28.3 25 30 25 C30 33.25 30 41.5 30 50 C31.32 50 32.64 50 34 50 C34 66.5 34 83 34 100 C35.32 100 36.64 100 38 100 C38 102.64 38 105.28 38 108 C36.68 108 35.36 108 34 108 C34 112.29 34 116.58 34 121 C32.68 121 31.36 121 30 121 C30 122.32 30 123.64 30 125 C25.71 125 21.42 125 17 125 C17 123.68 17 122.36 17 121 C15.68 121 14.36 121 13 121 C13 119.68 13 118.36 13 117 C11.68 117 10.36 117 9 117 C9 110.07 9 103.14 9 96 C7.35 96 5.7 96 4 96 C4 72.57 4 49.14 4 25 C2.68 25 1.36 25 0 25 C0 16.75 0 8.5 0 0 Z M4 13 C4 14.32 4 15.64 4 17 C5.65 17 7.3 17 9 17 C9 15.68 9 14.36 9 13 C7.35 13 5.7 13 4 13 Z M17 79 C17 80.32 17 81.64 17 83 C19.64 83 22.28 83 25 83 C25 81.68 25 80.36 25 79 C22.36 79 19.72 79 17 79 Z M13 96 C13 97.32 13 98.64 13 100 C14.32 100 15.64 100 17 100 C17 101.32 17 102.64 17 104 C18.32 104 19.64 104 21 104 C21 102.68 21 101.36 21 100 C22.32 100 23.64 100 25 100 C25 98.68 25 97.36 25 96 C21.04 96 17.08 96 13 96 Z " fill="#000000" transform="translate(69,69)"/>
</svg>
