<?xml version="1.0" encoding="UTF-8"?>
<!-- Generator: visioncortex VTracer 0.6.12 -->
<svg version="1.1" xmlns="http://www.w3.org/2000/svg" width="181" height="204">
<path d="M0 0 C8.58 0 17.16 0 26 0 C26 0.66 26 1.32 26 2 C23.03 2 20.06 2 17 2 C17 3.32 17 4.64 17 6 C19.97 6 22.94 6 26 6 C26 7.65 26 9.3 26 11 C28.64 11 31.28 11 34 11 C34 16.28 34 21.56 34 27 C35.32 27 36.64 27 38 27 C38 32.61 38 38.22 38 44 C39.32 44 40.64 44 42 44 C42 50.93 42 57.86 42 65 C43.32 65 44.64 65 46 65 C46 66.32 46 67.64 46 69 C57.22 69 68.44 69 80 69 C80 70.32 80 71.64 80 73 C81.32 73 82.64 73 84 73 C84 77.29 84 81.58 84 86 C82.68 86 81.36 86 80 86 C80 87.32 80 88.64 80 90 C68.78 90 57.56 90 46 90 C46 91.32 46 92.64 46 94 C47.65 94 49.3 94 51 94 C51 104.89 51 115.78 51 127 C52.32 127 53.64 127 55 127 C55 129.97 55 132.94 55 136 C53.68 136 52.36 136 51 136 C51 137.32 51 138.64 51 140 C52.32 140 53.64 140 55 140 C55 141.32 55 142.64 55 144 C64.57 144 74.14 144 84 144 C84 145.32 84 146.64 84 148 C87.96 148 91.92 148 96 148 C96 149.32 96 150.64 96 152 C98.97 152 101.94 152 105 152 C105 153.32 105 154.64 105 156 C107.64 156 110.28 156 113 156 C113 157.65 113 159.3 113 161 C114.32 161 115.64 161 117 161 C117 162.32 117 163.64 117 165 C121.29 165 125.58 165 130 165 C130 163.68 130 162.36 130 161 C131.32 161 132.64 161 134 161 C134 159.35 134 157.7 134 156 C135.32 156 136.64 156 138 156 C138 154.68 138 153.36 138 152 C139.32 152 140.64 152 142 152 C142 150.68 142 149.36 142 148 C143.32 148 144.64 148 146 148 C146 146.68 146 145.36 146 144 C144.68 144 143.36 144 142 144 C142 142.68 142 141.36 142 140 C143.32 140 144.64 140 146 140 C146 137.03 146 134.06 146 131 C144.68 131 143.36 131 142 131 C142 129.68 142 128.36 142 127 C143.32 127 144.64 127 146 127 C146 125.68 146 124.36 146 123 C150.29 123 154.58 123 159 123 C159 124.32 159 125.64 159 127 C160.32 127 161.64 127 163 127 C163 128.32 163 129.64 163 131 C165.64 131 168.28 131 171 131 C171 136.61 171 142.22 171 148 C169.68 148 168.36 148 167 148 C167 152.29 167 156.58 167 161 C165.68 161 164.36 161 163 161 C163 163.64 163 166.28 163 169 C161.68 169 160.36 169 159 169 C159 170.32 159 171.64 159 173 C156.36 173 153.72 173 151 173 C151 174.32 151 175.64 151 177 C149.35 177 147.7 177 146 177 C146 178.32 146 179.64 146 181 C143.36 181 140.72 181 138 181 C138 182.65 138 184.3 138 186 C129.75 186 121.5 186 113 186 C113 184.35 113 182.7 113 181 C110.36 181 107.72 181 105 181 C105 179.68 105 178.36 105 177 C100.71 177 96.42 177 92 177 C92 175.68 92 174.36 92 173 C88.04 173 84.08 173 80 173 C80 171.68 80 170.36 80 169 C73.07 169 66.14 169 59 169 C59 170.32 59 171.64 59 173 C57.68 173 56.36 173 55 173 C55 174.32 55 175.64 55 177 C53.68 177 52.36 177 51 177 C51 181.29 51 185.58 51 190 C48.03 190 45.06 190 42 190 C42 191.32 42 192.64 42 194 C39.36 194 36.72 194 34 194 C34 192.68 34 191.36 34 190 C32.68 190 31.36 190 30 190 C30 188.68 30 187.36 30 186 C28.68 186 27.36 186 26 186 C26 153 26 120 26 86 C24.35 86 22.7 86 21 86 C21 79.07 21 72.14 21 65 C19.68 65 18.36 65 17 65 C17 55.43 17 45.86 17 36 C15.68 36 14.36 36 13 36 C13 33.03 13 30.06 13 27 C11.68 27 10.36 27 9 27 C9 21.72 9 16.44 9 11 C10.32 11 11.64 11 13 11 C13 9.35 13 7.7 13 6 C10.36 6 7.72 6 5 6 C5 7.65 5 9.3 5 11 C3.68 11 2.36 11 1 11 C0.67 12.32 0.34 13.64 0 15 C0 10.05 0 5.1 0 0 Z M67 77 C67 78.32 67 79.64 67 81 C69.97 81 72.94 81 76 81 C76 79.68 76 78.36 76 77 C73.03 77 70.06 77 67 77 Z M38 131 C38 132.65 38 134.3 38 136 C39.32 136 40.64 136 42 136 C42 134.35 42 132.7 42 131 C40.68 131 39.36 131 38 131 Z M151 148 C151 149.32 151 150.64 151 152 C153.64 152 156.28 152 159 152 C159 150.68 159 149.36 159 148 C156.36 148 153.72 148 151 148 Z M146 156 C146 157.65 146 159.3 146 161 C147.65 161 149.3 161 151 161 C151 159.35 151 157.7 151 156 C149.35 156 147.7 156 146 156 Z M138 161 C138 162.32 138 163.64 138 165 C140.64 165 143.28 165 146 165 C146 163.68 146 162.36 146 161 C143.36 161 140.72 161 138 161 Z M96 165 C96 166.32 96 167.64 96 169 C97.65 169 99.3 169 101 169 C101 170.32 101 171.64 101 173 C102.32 173 103.64 173 105 173 C105 170.36 105 167.72 105 165 C102.03 165 99.06 165 96 165 Z M38 173 C38 174.32 38 175.64 38 177 C36.68 177 35.36 177 34 177 C34 178.32 34 179.64 34 181 C35.32 181 36.64 181 38 181 C38 182.65 38 184.3 38 186 C39.32 186 40.64 186 42 186 C42 181.71 42 177.42 42 173 C40.68 173 39.36 173 38 173 Z M126 173 C126 174.32 126 175.64 126 177 C127.32 177 128.64 177 130 177 C130 178.32 130 179.64 130 181 C131.32 181 132.64 181 134 181 C134 178.36 134 175.72 134 173 C131.36 173 128.72 173 126 173 Z " fill="#000000" transform="translate(0,0)"/>
<path d="M0 0 C12.21 0 24.42 0 37 0 C37 1.98 37 3.96 37 6 C38.65 6 40.3 6 42 6 C42 4.02 42 2.04 42 0 C55.53 0 69.06 0 83 0 C83 0.66 83 1.32 83 2 C81.68 2 80.36 2 79 2 C79 3.32 79 4.64 79 6 C81.64 6 84.28 6 87 6 C87 4.68 87 3.36 87 2 C88.65 2 90.3 2 92 2 C92 1.34 92 0.68 92 0 C94.64 0 97.28 0 100 0 C100 0.66 100 1.32 100 2 C101.32 2 102.64 2 104 2 C104 3.32 104 4.64 104 6 C101.36 6 98.72 6 96 6 C96 7.65 96 9.3 96 11 C93.03 11 90.06 11 87 11 C87 12.32 87 13.64 87 15 C76.11 15 65.22 15 54 15 C54 13.68 54 12.36 54 11 C45.75 11 37.5 11 29 11 C29 9.35 29 7.7 29 6 C25.04 6 21.08 6 17 6 C17 4.68 17 3.36 17 2 C11.39 2 5.78 2 0 2 C0 1.34 0 0.68 0 0 Z " fill="#000000" transform="translate(34,0)"/>
<path d="M0 0 C0.33 0 0.66 0 1 0 C1 1.65 1 3.3 1 5 C2.32 5 3.64 5 5 5 C5 7.64 5 10.28 5 13 C3.35 13 1.7 13 0 13 C0 8.71 0 4.42 0 0 Z " fill="#000000" transform="translate(0,31)"/>
</svg>
