<?xml version="1.0" encoding="UTF-8"?>
<!-- Generator: visioncortex VTracer 0.6.12 -->
<svg version="1.1" xmlns="http://www.w3.org/2000/svg" width="79" height="96">
<path d="M0 0 C3.835 7.671 0.205 19.149 -1.508 27.016 C-4.248 39.672 -5.969 52.02 -6 65 C-2.372 66.209 0.752 65.95 4.5 65.688 C5.216 65.638 5.932 65.588 6.67 65.536 C15.764 64.847 23.044 63.842 30.93 59.051 C34.047 57.469 36.591 57.523 40 58 C40.99 58.66 41.98 59.32 43 60 C43.188 63.125 43.188 63.125 43 66 C42.629 66.072 42.629 66.072 40.75 66.438 C36.897 67.226 33.736 68.036 30.285 69.953 C26.072 72.107 22.095 73.057 17.438 73.75 C17.05 73.81 17.05 73.81 15.089 74.114 C-3.825 76.832 -3.825 76.832 -10.297 73.098 C-13.669 70.481 -15.273 69.184 -16 65 C-17.054 48.67 -13.948 32.841 -10.168 17.059 C-8.978 12.047 -8.12 7.059 -7.457 1.949 C-7.306 1.306 -7.155 0.663 -7 0 C-4.302 -1.349 -2.848 -0.803 0 0 Z " fill="#000000" transform="translate(26,11)"/>
</svg>
