<?xml version="1.0" encoding="UTF-8"?>
<!-- Generator: visioncortex VTracer 0.6.12 -->
<svg version="1.1" xmlns="http://www.w3.org/2000/svg" width="79" height="119">
<path d="M0 0 C5.693 5.396 6.295 8.85 6.938 16.562 C6.542 27.862 2.161 40.882 -5.621 49.219 C-9.526 52.432 -13.149 55.04 -18.375 54.812 C-20.973 53.946 -23.005 53.101 -25.375 51.812 C-26.097 51.424 -26.819 51.036 -27.562 50.637 C-33.131 47.425 -33.131 47.425 -34.191 44.762 C-34.375 42.812 -34.375 42.812 -32.938 41.062 C-32.422 40.65 -31.906 40.237 -31.375 39.812 C-28.287 40.935 -25.59 42.27 -22.812 44 C-19.375 45.812 -19.375 45.812 -17.25 45.875 C-11.98 42.889 -9.156 38.124 -6.625 32.812 C-6.322 32.209 -6.019 31.606 -5.707 30.984 C-2.232 23.879 -1.396 16.659 -2.375 8.812 C-4.625 5.75 -4.625 5.75 -7.375 3.812 C-7.942 3.287 -8.509 2.761 -9.094 2.219 C-14.023 -0.82 -20.779 0.282 -26.375 0.812 C-31.933 2.374 -35.545 5.532 -39.375 9.812 C-40.035 10.473 -40.695 11.133 -41.375 11.812 C-41.622 14.15 -41.622 14.15 -41.618 17.113 C-41.621 18.222 -41.624 19.331 -41.627 20.473 C-41.62 21.678 -41.613 22.883 -41.605 24.125 C-41.605 25.364 -41.605 26.602 -41.604 27.878 C-41.601 30.508 -41.594 33.137 -41.581 35.767 C-41.561 39.768 -41.56 43.769 -41.561 47.77 C-41.556 50.326 -41.55 52.882 -41.543 55.438 C-41.542 56.626 -41.541 57.815 -41.54 59.04 C-41.437 77.219 -41.437 77.219 -38.375 81.812 C-37.836 87.854 -37.836 87.854 -39.5 90.812 C-41.375 91.812 -41.375 91.812 -44.312 92.062 C-47.866 90.612 -48.137 89.98 -49.688 86.625 C-52.059 80.75 -52.501 74.986 -52.536 68.693 C-52.541 68.008 -52.546 67.322 -52.551 66.616 C-52.566 64.368 -52.573 62.12 -52.578 59.871 C-52.581 59.1 -52.584 58.328 -52.587 57.533 C-52.602 53.455 -52.611 49.378 -52.615 45.3 C-52.621 41.095 -52.645 36.889 -52.673 32.684 C-52.692 29.442 -52.697 26.2 -52.699 22.958 C-52.702 21.408 -52.71 19.857 -52.723 18.307 C-52.74 16.138 -52.738 13.971 -52.731 11.802 C-52.733 11.186 -52.733 11.186 -52.742 8.069 C-52.341 4.515 -51.542 2.632 -49.375 -0.188 C-46.875 -1.188 -46.875 -1.188 -44.375 -1.188 C-42.562 0.25 -42.562 0.25 -41.375 1.812 C-40.529 1.049 -39.684 0.286 -38.812 -0.5 C-27.046 -10.25 -11.314 -9.428 0 0 Z " fill="#000000" transform="translate(62.375,17.1875)"/>
</svg>
