<?xml version="1.0" encoding="UTF-8"?>
<!-- Generator: visioncortex VTracer 0.6.12 -->
<svg version="1.1" xmlns="http://www.w3.org/2000/svg" width="261" height="275">
<path d="M0 0 C9.9 0 19.8 0 30 0 C30 1.32 30 2.64 30 4 C32.64 4 35.28 4 38 4 C38 5.32 38 6.64 38 8 C43.61 8 49.22 8 55 8 C55 9.32 55 10.64 55 12 C58.96 12 62.92 12 67 12 C67 14.64 67 17.28 67 20 C68.32 20 69.64 20 71 20 C71 21.65 71 23.3 71 25 C72.32 25 73.64 25 75 25 C75 27.64 75 30.28 75 33 C76.65 33 78.3 33 80 33 C80 35.64 80 38.28 80 41 C81.32 41 82.64 41 84 41 C84 42.32 84 43.64 84 45 C82.68 45 81.36 45 80 45 C80 51.93 80 58.86 80 66 C78.35 66 76.7 66 75 66 C75 68.97 75 71.94 75 75 C73.68 75 72.36 75 71 75 C71 77.64 71 80.28 71 83 C69.68 83 68.36 83 67 83 C67 81.68 67 80.36 67 79 C65.68 79 64.36 79 63 79 C63 80.32 63 81.64 63 83 C58.71 83 54.42 83 50 83 C50 85.64 50 88.28 50 91 C48.68 91 47.36 91 46 91 C46 92.32 46 93.64 46 95 C48.97 95 51.94 95 55 95 C55 92.36 55 89.72 55 87 C58.96 87 62.92 87 67 87 C67 88.32 67 89.64 67 91 C69.64 91 72.28 91 75 91 C75 92.32 75 93.64 75 95 C79.29 95 83.58 95 88 95 C88 96.65 88 98.3 88 100 C89.32 100 90.64 100 92 100 C92 101.32 92 102.64 92 104 C94.64 104 97.28 104 100 104 C100 105.32 100 106.64 100 108 C101.65 108 103.3 108 105 108 C105 110.64 105 113.28 105 116 C106.32 116 107.64 116 109 116 C109 117.32 109 118.64 109 120 C110.32 120 111.64 120 113 120 C113 122.97 113 125.94 113 129 C114.32 129 115.64 129 117 129 C117 130.32 117 131.64 117 133 C118.32 133 119.64 133 121 133 C121 135.64 121 138.28 121 141 C122.32 141 123.64 141 125 141 C125 146.61 125 152.22 125 158 C126.65 158 128.3 158 130 158 C130 166.25 130 174.5 130 183 C128.35 183 126.7 183 125 183 C125 181.68 125 180.36 125 179 C123.68 179 122.36 179 121 179 C121 181.64 121 184.28 121 187 C123.97 187 126.94 187 130 187 C130 189.64 130 192.28 130 195 C128.35 195 126.7 195 125 195 C125 199.29 125 203.58 125 208 C122.36 208 119.72 208 117 208 C117 206.68 117 205.36 117 204 C114.36 204 111.72 204 109 204 C109 205.32 109 206.64 109 208 C110.32 208 111.64 208 113 208 C113 209.32 113 210.64 113 212 C114.32 212 115.64 212 117 212 C117 213.32 117 214.64 117 216 C115.68 216 114.36 216 113 216 C113 217.32 113 218.64 113 220 C111.68 220 110.36 220 109 220 C109 221.65 109 223.3 109 225 C107.68 225 106.36 225 105 225 C105 226.32 105 227.64 105 229 C106.32 229 107.64 229 109 229 C109 230.32 109 231.64 109 233 C107.68 233 106.36 233 105 233 C105 234.32 105 235.64 105 237 C102.03 237 99.06 237 96 237 C96 238.32 96 239.64 96 241 C93.36 241 90.72 241 88 241 C88 242.32 88 243.64 88 245 C83.71 245 79.42 245 75 245 C75 246.65 75 248.3 75 250 C71.04 250 67.08 250 63 250 C63 251.32 63 252.64 63 254 C58.71 254 54.42 254 50 254 C50 252.68 50 251.36 50 250 C48.68 250 47.36 250 46 250 C46 251.32 46 252.64 46 254 C44.68 254 43.36 254 42 254 C42 252.68 42 251.36 42 250 C40.68 250 39.36 250 38 250 C38 248.35 38 246.7 38 245 C36.68 245 35.36 245 34 245 C34 246.65 34 248.3 34 250 C32.68 250 31.36 250 30 250 C30 251.32 30 252.64 30 254 C18.78 254 7.56 254 -4 254 C-4 252.68 -4 251.36 -4 250 C-9.61 250 -15.22 250 -21 250 C-21 248.35 -21 246.7 -21 245 C-27.6 245 -34.2 245 -41 245 C-41 243.68 -41 242.36 -41 241 C-43.97 241 -46.94 241 -50 241 C-50 235.72 -50 230.44 -50 225 C-48.68 225 -47.36 225 -46 225 C-46 197.28 -46 169.56 -46 141 C-47.32 141 -48.64 141 -50 141 C-50 138.36 -50 135.72 -50 133 C-48.68 133 -47.36 133 -46 133 C-46 131.68 -46 130.36 -46 129 C-47.32 129 -48.64 129 -50 129 C-50 124.71 -50 120.42 -50 116 C-51.32 116 -52.64 116 -54 116 C-54 106.43 -54 96.86 -54 87 C-52.68 87 -51.36 87 -50 87 C-50 85.68 -50 84.36 -50 83 C-52.64 83 -55.28 83 -58 83 C-58 81.68 -58 80.36 -58 79 C-56.68 79 -55.36 79 -54 79 C-54 73.39 -54 67.78 -54 62 C-56.64 62 -59.28 62 -62 62 C-62 63.32 -62 64.64 -62 66 C-63.32 66 -64.64 66 -66 66 C-66 67.32 -66 68.64 -66 70 C-68.97 70 -71.94 70 -75 70 C-75 71.65 -75 73.3 -75 75 C-76.32 75 -77.64 75 -79 75 C-79 76.32 -79 77.64 -79 79 C-87.25 79 -95.5 79 -104 79 C-104 77.68 -104 76.36 -104 75 C-105.32 75 -106.64 75 -108 75 C-108 68.07 -108 61.14 -108 54 C-102.39 54 -96.78 54 -91 54 C-91 52.68 -91 51.36 -91 50 C-87.04 50 -83.08 50 -79 50 C-79 48.35 -79 46.7 -79 45 C-77.68 45 -76.36 45 -75 45 C-75 43.68 -75 42.36 -75 41 C-72.03 41 -69.06 41 -66 41 C-66 39.68 -66 38.36 -66 37 C-64.68 37 -63.36 37 -62 37 C-62 35.68 -62 34.36 -62 33 C-60.68 33 -59.36 33 -58 33 C-58 31.68 -58 30.36 -58 29 C-56.68 29 -55.36 29 -54 29 C-54 27.68 -54 26.36 -54 25 C-52.68 25 -51.36 25 -50 25 C-50 23.35 -50 21.7 -50 20 C-48.68 20 -47.36 20 -46 20 C-46 18.68 -46 17.36 -46 16 C-43.03 16 -40.06 16 -37 16 C-37 14.68 -37 13.36 -37 12 C-34.36 12 -31.72 12 -29 12 C-29 10.68 -29 9.36 -29 8 C-23.39 8 -17.78 8 -12 8 C-12 6.68 -12 5.36 -12 4 C-8.04 4 -4.08 4 0 4 C0 2.68 0 1.36 0 0 Z M30 16 C30 17.32 30 18.64 30 20 C31.32 20 32.64 20 34 20 C34 18.68 34 17.36 34 16 C32.68 16 31.36 16 30 16 Z M-29 20 C-29 21.65 -29 23.3 -29 25 C-27.68 25 -26.36 25 -25 25 C-25 23.35 -25 21.7 -25 20 C-26.32 20 -27.64 20 -29 20 Z M13 20 C13 21.65 13 23.3 13 25 C7.39 25 1.78 25 -4 25 C-4 26.32 -4 27.64 -4 29 C-6.64 29 -9.28 29 -12 29 C-12 30.32 -12 31.64 -12 33 C-14.97 33 -17.94 33 -21 33 C-21 34.32 -21 35.64 -21 37 C-23.64 37 -26.28 37 -29 37 C-29 38.32 -29 39.64 -29 41 C-30.32 41 -31.64 41 -33 41 C-33 43.97 -33 46.94 -33 50 C-31.68 50 -30.36 50 -29 50 C-29 58.25 -29 66.5 -29 75 C-27.68 75 -26.36 75 -25 75 C-25 87.21 -25 99.42 -25 112 C-23.68 112 -22.36 112 -21 112 C-21 118.93 -21 125.86 -21 133 C-19.35 133 -17.7 133 -16 133 C-16 155.11 -16 177.22 -16 200 C-14.68 200 -13.36 200 -12 200 C-12 201.32 -12 202.64 -12 204 C-13.32 204 -14.64 204 -16 204 C-16 205.32 -16 206.64 -16 208 C-14.68 208 -13.36 208 -12 208 C-12 214.93 -12 221.86 -12 229 C-9.36 229 -6.72 229 -4 229 C-4 230.32 -4 231.64 -4 233 C15.47 233 34.94 233 55 233 C55 231.68 55 230.36 55 229 C57.64 229 60.28 229 63 229 C63 227.68 63 226.36 63 225 C65.64 225 68.28 225 71 225 C71 223.35 71 221.7 71 220 C73.97 220 76.94 220 80 220 C80 218.68 80 217.36 80 216 C81.32 216 82.64 216 84 216 C84 214.68 84 213.36 84 212 C85.32 212 86.64 212 88 212 C88 210.68 88 209.36 88 208 C90.64 208 93.28 208 96 208 C96 205.36 96 202.72 96 200 C97.32 200 98.64 200 100 200 C100 194.39 100 188.78 100 183 C101.65 183 103.3 183 105 183 C105 178.71 105 174.42 105 170 C103.35 170 101.7 170 100 170 C100 166.04 100 162.08 100 158 C98.68 158 97.36 158 96 158 C96 153.71 96 149.42 96 145 C94.68 145 93.36 145 92 145 C92 142.36 92 139.72 92 137 C90.68 137 89.36 137 88 137 C88 135.68 88 134.36 88 133 C86.68 133 85.36 133 84 133 C84 131.68 84 130.36 84 129 C82.68 129 81.36 129 80 129 C80 126.03 80 123.06 80 120 C73.07 120 66.14 120 59 120 C59 118.68 59 117.36 59 116 C52.07 116 45.14 116 38 116 C38 117.32 38 118.64 38 120 C33.71 120 29.42 120 25 120 C25 121.65 25 123.3 25 125 C21.04 125 17.08 125 13 125 C13 122.03 13 119.06 13 116 C11.68 116 10.36 116 9 116 C9 118.97 9 121.94 9 125 C7.68 125 6.36 125 5 125 C5 123.35 5 121.7 5 120 C3.35 120 1.7 120 0 120 C0 118.68 0 117.36 0 116 C-1.32 116 -2.64 116 -4 116 C-4 113.36 -4 110.72 -4 108 C-2.68 108 -1.36 108 0 108 C0 105.36 0 102.72 0 100 C1.65 100 3.3 100 5 100 C5 98.35 5 96.7 5 95 C7.64 95 10.28 95 13 95 C13 93.68 13 92.36 13 91 C16.96 91 20.92 91 25 91 C25 89.68 25 88.36 25 87 C27.97 87 30.94 87 34 87 C34 85.68 34 84.36 34 83 C35.32 83 36.64 83 38 83 C38 81.68 38 80.36 38 79 C39.32 79 40.64 79 42 79 C42 77.68 42 76.36 42 75 C43.32 75 44.64 75 46 75 C46 72.03 46 69.06 46 66 C47.32 66 48.64 66 50 66 C50 63.36 50 60.72 50 58 C51.65 58 53.3 58 55 58 C55 53.71 55 49.42 55 45 C53.35 45 51.7 45 50 45 C50 42.36 50 39.72 50 37 C48.68 37 47.36 37 46 37 C46 35.68 46 34.36 46 33 C44.68 33 43.36 33 42 33 C42 31.68 42 30.36 42 29 C39.36 29 36.72 29 34 29 C34 27.68 34 26.36 34 25 C31.03 25 28.06 25 25 25 C25 23.35 25 21.7 25 20 C21.04 20 17.08 20 13 20 Z M-25 25 C-25 26.32 -25 27.64 -25 29 C-22.03 29 -19.06 29 -16 29 C-16 27.68 -16 26.36 -16 25 C-18.97 25 -21.94 25 -25 25 Z M-41 29 C-41 30.32 -41 31.64 -41 33 C-38.36 33 -35.72 33 -33 33 C-33 31.68 -33 30.36 -33 29 C-35.64 29 -38.28 29 -41 29 Z M-41 37 C-41 38.32 -41 39.64 -41 41 C-38.36 41 -35.72 41 -33 41 C-33 39.68 -33 38.36 -33 37 C-35.64 37 -38.28 37 -41 37 Z M-58 41 C-58 42.32 -58 43.64 -58 45 C-59.32 45 -60.64 45 -62 45 C-62 46.65 -62 48.3 -62 50 C-63.32 50 -64.64 50 -66 50 C-66 52.64 -66 55.28 -66 58 C-64.68 58 -63.36 58 -62 58 C-62 56.68 -62 55.36 -62 54 C-60.68 54 -59.36 54 -58 54 C-58 52.68 -58 51.36 -58 50 C-56.68 50 -55.36 50 -54 50 C-54 47.03 -54 44.06 -54 41 C-55.32 41 -56.64 41 -58 41 Z M71 54 C71 55.32 71 56.64 71 58 C72.32 58 73.64 58 75 58 C75 56.68 75 55.36 75 54 C73.68 54 72.36 54 71 54 Z M-79 58 C-79 59.32 -79 60.64 -79 62 C-77.68 62 -76.36 62 -75 62 C-75 60.68 -75 59.36 -75 58 C-76.32 58 -77.64 58 -79 58 Z M-91 66 C-91 67.32 -91 68.64 -91 70 C-89.68 70 -88.36 70 -87 70 C-87 68.68 -87 67.36 -87 66 C-88.32 66 -89.64 66 -91 66 Z M63 66 C63 68.97 63 71.94 63 75 C64.32 75 65.64 75 67 75 C67 72.03 67 69.06 67 66 C65.68 66 64.36 66 63 66 Z M-46 83 C-46 84.32 -46 85.64 -46 87 C-44.35 87 -42.7 87 -41 87 C-41 85.68 -41 84.36 -41 83 C-42.65 83 -44.3 83 -46 83 Z M-41 87 C-41 88.32 -41 89.64 -41 91 C-39.68 91 -38.36 91 -37 91 C-37 89.68 -37 88.36 -37 87 C-38.32 87 -39.64 87 -41 87 Z M-41 95 C-41 97.97 -41 100.94 -41 104 C-39.68 104 -38.36 104 -37 104 C-37 101.03 -37 98.06 -37 95 C-38.32 95 -39.64 95 -41 95 Z M-37 108 C-37 109.32 -37 110.64 -37 112 C-38.32 112 -39.64 112 -41 112 C-41 113.32 -41 114.64 -41 116 C-37.04 116 -33.08 116 -29 116 C-29 113.36 -29 110.72 -29 108 C-31.64 108 -34.28 108 -37 108 Z M13 108 C13 110.64 13 113.28 13 116 C14.32 116 15.64 116 17 116 C17 113.36 17 110.72 17 108 C15.68 108 14.36 108 13 108 Z M21 108 C21 109.32 21 110.64 21 112 C22.32 112 23.64 112 25 112 C25 110.68 25 109.36 25 108 C23.68 108 22.36 108 21 108 Z M34 108 C34 109.32 34 110.64 34 112 C36.64 112 39.28 112 42 112 C42 110.68 42 109.36 42 108 C39.36 108 36.72 108 34 108 Z M-33 145 C-33 146.65 -33 148.3 -33 150 C-31.68 150 -30.36 150 -29 150 C-29 148.35 -29 146.7 -29 145 C-30.32 145 -31.64 145 -33 145 Z M-29 158 C-29 159.32 -29 160.64 -29 162 C-27.68 162 -26.36 162 -25 162 C-25 160.68 -25 159.36 -25 158 C-26.32 158 -27.64 158 -29 158 Z M109 158 C109 159.32 109 160.64 109 162 C110.32 162 111.64 162 113 162 C113 163.32 113 164.64 113 166 C114.32 166 115.64 166 117 166 C117 163.36 117 160.72 117 158 C114.36 158 111.72 158 109 158 Z M-29 191 C-29 193.97 -29 196.94 -29 200 C-26.36 200 -23.72 200 -21 200 C-21 197.03 -21 194.06 -21 191 C-23.64 191 -26.28 191 -29 191 Z M109 191 C109 193.97 109 196.94 109 200 C111.64 200 114.28 200 117 200 C117 197.03 117 194.06 117 191 C114.36 191 111.72 191 109 191 Z M-37 208 C-37 210.64 -37 213.28 -37 216 C-31.72 216 -26.44 216 -21 216 C-21 214.68 -21 213.36 -21 212 C-22.32 212 -23.64 212 -25 212 C-25 210.68 -25 209.36 -25 208 C-28.96 208 -32.92 208 -37 208 Z M84 216 C84 217.32 84 218.64 84 220 C85.32 220 86.64 220 88 220 C88 218.68 88 217.36 88 216 C86.68 216 85.36 216 84 216 Z M92 220 C92 221.65 92 223.3 92 225 C90.68 225 89.36 225 88 225 C88 226.32 88 227.64 88 229 C89.32 229 90.64 229 92 229 C92 230.32 92 231.64 92 233 C93.32 233 94.64 233 96 233 C96 228.71 96 224.42 96 220 C94.68 220 93.36 220 92 220 Z M-33 229 C-33 230.32 -33 231.64 -33 233 C-34.32 233 -35.64 233 -37 233 C-37 234.32 -37 235.64 -37 237 C-31.72 237 -26.44 237 -21 237 C-21 235.68 -21 234.36 -21 233 C-22.32 233 -23.64 233 -25 233 C-25 231.68 -25 230.36 -25 229 C-27.64 229 -30.28 229 -33 229 Z M71 237 C71 238.32 71 239.64 71 241 C72.32 241 73.64 241 75 241 C75 239.68 75 238.36 75 237 C73.68 237 72.36 237 71 237 Z M13 245 C13 246.65 13 248.3 13 250 C16.96 250 20.92 250 25 250 C25 248.35 25 246.7 25 245 C21.04 245 17.08 245 13 245 Z M55 245 C55 246.65 55 248.3 55 250 C56.32 250 57.64 250 59 250 C59 248.35 59 246.7 59 245 C57.68 245 56.36 245 55 245 Z " fill="#000000" transform="translate(119,10)"/>
</svg>
