<?xml version="1.0" encoding="UTF-8"?>
<!-- Generator: visioncortex VTracer 0.6.12 -->
<svg version="1.1" xmlns="http://www.w3.org/2000/svg" width="93" height="112">
<path d="M0 0 C9.789 9.221 11.818 25.61 12.375 38.438 C12.173 47.75 9.044 57.781 3 65 C2.01 65.66 1.02 66.32 0 67 C0.75 69.875 0.75 69.875 2 73 C4.078 74.195 4.078 74.195 6 75 C6.054 76.958 6.093 78.916 6.125 80.875 C6.148 81.966 6.171 83.056 6.195 84.18 C6 87 6 87 4 89 C1.625 89.438 1.625 89.438 -1 89 C-5.065 85.182 -6.922 80.073 -9 75 C-12.702 75.593 -15.551 76.666 -18.875 78.375 C-27.769 82.51 -39.263 85.966 -49 83 C-54.049 80.523 -56.945 77.194 -59 72 C-61.206 65.032 -61.367 58.401 -61.375 51.125 C-61.399 50.005 -61.424 48.885 -61.449 47.73 C-61.475 40.277 -60.329 34.66 -57 28 C-56.692 27.354 -56.384 26.708 -56.066 26.042 C-48.863 11.482 -38.655 3.859 -23.711 -1.879 C-16.014 -4.144 -6.887 -4.321 0 0 Z M-42.875 17.562 C-44.242 19.316 -44.242 19.316 -45 21 C-44.67 21.99 -44.34 22.98 -44 24 C-43.67 24.99 -43.34 25.98 -43 27 C-44.419 28.588 -45.848 30.168 -47.328 31.699 C-52.766 39.183 -54.098 51.067 -53 60 C-50.95 71.255 -50.95 71.255 -46 75 C-34.395 76.577 -22.278 70.368 -13 64 C-14.245 61.456 -15.496 58.915 -16.75 56.375 C-17.098 55.662 -17.446 54.949 -17.805 54.215 C-23.809 42.096 -23.809 42.096 -28.75 39.625 C-29.823 39.089 -30.895 38.553 -32 38 C-31.67 37.01 -31.34 36.02 -31 35 C-29.804 35.082 -28.608 35.165 -27.375 35.25 C-27.039 35.273 -27.039 35.273 -25.336 35.391 C-18.774 37.102 -15.573 41.503 -12.312 47 C-7.607 54.689 -7.607 54.689 -5 58 C0.207 53.211 1.948 47.376 2.395 40.422 C2.797 28.403 2.584 14.311 -6 5 C-17.397 -0.698 -35.148 9.624 -42.875 17.562 Z " fill="#000000" transform="translate(71,13)"/>
</svg>
