<?xml version="1.0" encoding="UTF-8"?>
<!-- Generator: visioncortex VTracer 0.6.12 -->
<svg version="1.1" xmlns="http://www.w3.org/2000/svg" width="89" height="114">
<path d="M0 0 C1.675 0.286 3.344 0.618 5 1 C4.515 7.403 3.363 12.563 0.812 18.438 C0.5 19.175 0.188 19.913 -0.134 20.674 C-2.628 26.433 -5.561 31.749 -9 37 C-9.409 37.692 -9.817 38.384 -10.238 39.098 C-12.929 43.647 -16.036 47.473 -19.645 51.336 C-21 53 -21 53 -21 55 C-15.005 58.711 -9.038 60.763 -2.32 62.799 C-1.549 63.042 -0.779 63.285 0.016 63.535 C0.709 63.745 1.403 63.956 2.118 64.172 C4.306 65.135 5.53 66.119 7 68 C6.688 70.687 6.688 70.687 6 73 C1.628 74.551 -1.248 73.479 -5.402 71.953 C-8.284 70.896 -11.198 69.986 -14.125 69.062 C-17.684 67.894 -20.82 66.667 -24 64.688 C-27 63 -27 63 -28.992 63.195 C-37.983 66.799 -46.149 82.677 -50.875 90.875 C-51.576 91.906 -52.278 92.938 -53 94 C-54.32 94 -55.64 94 -57 94 C-58.137 91.313 -58.073 90.186 -57 87.438 C-51.937 78.736 -46.419 70.756 -40 63 C-38.664 61.335 -37.33 59.669 -36 58 C-37.616 54.143 -40.196 51.284 -43 48.25 C-43.242 47.986 -43.242 47.986 -44.467 46.653 C-48.307 42.557 -52.421 39.007 -56.906 35.621 C-58.779 34.171 -60.462 32.801 -62 31 C-61.875 28.875 -61.875 28.875 -61 27 C-57.373 25.791 -56.82 26.226 -53.5 27.875 C-44.788 32.466 -37.479 38.818 -31.438 46.566 C-30 48 -30 48 -27 48 C-25.281 46.426 -25.281 46.426 -23.5 44.312 C-22.912 43.628 -22.324 42.944 -21.719 42.238 C-19.929 39.908 -18.466 37.546 -17 35 C-16.372 33.933 -15.744 32.865 -15.098 31.766 C-9.705 22.488 -5.367 13.327 -1.832 3.188 C-1 1 -1 1 0 0 Z " fill="#000000" transform="translate(72,10)"/>
</svg>
