<?xml version="1.0" encoding="UTF-8"?>
<!-- Generator: visioncortex VTracer 0.6.12 -->
<svg version="1.1" xmlns="http://www.w3.org/2000/svg" width="213" height="308">
<path d="M0 0 C15.18 0 30.36 0 46 0 C46 1.65 46 3.3 46 5 C51.28 5 56.56 5 62 5 C62 6.32 62 7.64 62 9 C66.29 9 70.58 9 75 9 C75 10.32 75 11.64 75 13 C77.64 13 80.28 13 83 13 C83 14.32 83 15.64 83 17 C87.29 17 91.58 17 96 17 C96 18.32 96 19.64 96 21 C97.32 21 98.64 21 100 21 C100 22.32 100 23.64 100 25 C101.32 25 102.64 25 104 25 C104 29.29 104 33.58 104 38 C105.32 38 106.64 38 108 38 C108 40.64 108 43.28 108 46 C109.32 46 110.64 46 112 46 C112 48.97 112 51.94 112 55 C113.65 55 115.3 55 117 55 C117 78.1 117 101.2 117 125 C115.35 125 113.7 125 112 125 C112 129.29 112 133.58 112 138 C110.68 138 109.36 138 108 138 C108 141.96 108 145.92 108 150 C106.68 150 105.36 150 104 150 C104 154.29 104 158.58 104 163 C102.68 163 101.36 163 100 163 C100 164.32 100 165.64 100 167 C98.68 167 97.36 167 96 167 C96 169.64 96 172.28 96 175 C93.03 175 90.06 175 87 175 C87 176.65 87 178.3 87 180 C85.68 180 84.36 180 83 180 C83 181.32 83 182.64 83 184 C81.68 184 80.36 184 79 184 C79 185.32 79 186.64 79 188 C77.68 188 76.36 188 75 188 C75 189.32 75 190.64 75 192 C73.68 192 72.36 192 71 192 C71 193.32 71 194.64 71 196 C68.03 196 65.06 196 62 196 C62 212.5 62 229 62 246 C63.65 246 65.3 246 67 246 C67 248.97 67 251.94 67 255 C68.32 255 69.64 255 71 255 C71 256.32 71 257.64 71 259 C77.93 259 84.86 259 92 259 C92 257.68 92 256.36 92 255 C93.32 255 94.64 255 96 255 C96 253.35 96 251.7 96 250 C97.32 250 98.64 250 100 250 C100 248.68 100 247.36 100 246 C101.32 246 102.64 246 104 246 C104 240.72 104 235.44 104 230 C105.32 230 106.64 230 108 230 C108 228.35 108 226.7 108 225 C112.29 225 116.58 225 121 225 C121 226.65 121 228.3 121 230 C122.32 230 123.64 230 125 230 C125 232.64 125 235.28 125 238 C123.68 238 122.36 238 121 238 C121 243.61 121 249.22 121 255 C119.68 255 118.36 255 117 255 C117 256.32 117 257.64 117 259 C115.35 259 113.7 259 112 259 C112 261.64 112 264.28 112 267 C110.68 267 109.36 267 108 267 C108 268.32 108 269.64 108 271 C106.68 271 105.36 271 104 271 C104 272.32 104 273.64 104 275 C102.68 275 101.36 275 100 275 C100 276.65 100 278.3 100 280 C98.68 280 97.36 280 96 280 C96 281.32 96 282.64 96 284 C93.03 284 90.06 284 87 284 C87 285.32 87 286.64 87 288 C83.04 288 79.08 288 75 288 C75 286.68 75 285.36 75 284 C70.71 284 66.42 284 62 284 C62 282.68 62 281.36 62 280 C59.36 280 56.72 280 54 280 C54 277.03 54 274.06 54 271 C52.68 271 51.36 271 50 271 C50 269.68 50 268.36 50 267 C48.68 267 47.36 267 46 267 C46 265.68 46 264.36 46 263 C44.68 263 43.36 263 42 263 C42 258.71 42 254.42 42 250 C40.35 250 38.7 250 37 250 C37 244.72 37 239.44 37 234 C35.68 234 34.36 234 33 234 C33 227.07 33 220.14 33 213 C34.32 213 35.64 213 37 213 C37 211.68 37 210.36 37 209 C35.68 209 34.36 209 33 209 C33 207.68 33 206.36 33 205 C20.79 205 8.58 205 -4 205 C-4 203.35 -4 201.7 -4 200 C-8.29 200 -12.58 200 -17 200 C-17 198.68 -17 197.36 -17 196 C-19.64 196 -22.28 196 -25 196 C-25 194.68 -25 193.36 -25 192 C-27.64 192 -30.28 192 -33 192 C-33 190.68 -33 189.36 -33 188 C-34.65 188 -36.3 188 -38 188 C-38 186.68 -38 185.36 -38 184 C-39.32 184 -40.64 184 -42 184 C-42 182.68 -42 181.36 -42 180 C-43.32 180 -44.64 180 -46 180 C-46 178.35 -46 176.7 -46 175 C-47.32 175 -48.64 175 -50 175 C-50 172.36 -50 169.72 -50 167 C-51.32 167 -52.64 167 -54 167 C-54 165.68 -54 164.36 -54 163 C-55.32 163 -56.64 163 -58 163 C-58 157.39 -58 151.78 -58 146 C-59.65 146 -61.3 146 -63 146 C-63 142.04 -63 138.08 -63 134 C-64.32 134 -65.64 134 -67 134 C-67 127.07 -67 120.14 -67 113 C-68.32 113 -69.64 113 -71 113 C-71 104.75 -71 96.5 -71 88 C-69.68 88 -68.36 88 -67 88 C-67 79.75 -67 71.5 -67 63 C-65.68 63 -64.36 63 -63 63 C-63 60.36 -63 57.72 -63 55 C-61.35 55 -59.7 55 -58 55 C-58 50.71 -58 46.42 -58 42 C-56.68 42 -55.36 42 -54 42 C-54 39.36 -54 36.72 -54 34 C-52.68 34 -51.36 34 -50 34 C-50 32.68 -50 31.36 -50 30 C-48.68 30 -47.36 30 -46 30 C-46 28.35 -46 26.7 -46 25 C-44.68 25 -43.36 25 -42 25 C-42 23.68 -42 22.36 -42 21 C-39.03 21 -36.06 21 -33 21 C-33 19.68 -33 18.36 -33 17 C-31.68 17 -30.36 17 -29 17 C-29 15.68 -29 14.36 -29 13 C-26.36 13 -23.72 13 -21 13 C-21 11.68 -21 10.36 -21 9 C-19.68 9 -18.36 9 -17 9 C-17 7.68 -17 6.36 -17 5 C-11.39 5 -5.78 5 0 5 C0 3.35 0 1.7 0 0 Z M0 21 C0 22.32 0 23.64 0 25 C-4.29 25 -8.58 25 -13 25 C-13 26.65 -13 28.3 -13 30 C-14.32 30 -15.64 30 -17 30 C-17 31.32 -17 32.64 -17 34 C-18.32 34 -19.64 34 -21 34 C-21 35.32 -21 36.64 -21 38 C-22.32 38 -23.64 38 -25 38 C-25 40.64 -25 43.28 -25 46 C-26.32 46 -27.64 46 -29 46 C-29 50.29 -29 54.58 -29 59 C-30.32 59 -31.64 59 -33 59 C-33 61.64 -33 64.28 -33 67 C-34.65 67 -36.3 67 -38 67 C-38 69.64 -38 72.28 -38 75 C-39.32 75 -40.64 75 -42 75 C-42 93.15 -42 111.3 -42 130 C-40.68 130 -39.36 130 -38 130 C-38 131.32 -38 132.64 -38 134 C-36.35 134 -34.7 134 -33 134 C-33 136.64 -33 139.28 -33 142 C-31.68 142 -30.36 142 -29 142 C-29 143.32 -29 144.64 -29 146 C-27.68 146 -26.36 146 -25 146 C-25 144.68 -25 143.36 -25 142 C-23.68 142 -22.36 142 -21 142 C-21 140.68 -21 139.36 -21 138 C-19.68 138 -18.36 138 -17 138 C-17 136.68 -17 135.36 -17 134 C-12.71 134 -8.42 134 -4 134 C-4 132.68 -4 131.36 -4 130 C1.28 130 6.56 130 12 130 C12 128.35 12 126.7 12 125 C13.65 125 15.3 125 17 125 C17 126.65 17 128.3 17 130 C22.28 130 27.56 130 33 130 C33 131.32 33 132.64 33 134 C34.32 134 35.64 134 37 134 C37 135.32 37 136.64 37 138 C39.97 138 42.94 138 46 138 C46 140.64 46 143.28 46 146 C47.32 146 48.64 146 50 146 C50 148.97 50 151.94 50 155 C51.32 155 52.64 155 54 155 C54 157.64 54 160.28 54 163 C56.64 163 59.28 163 62 163 C62 161.68 62 160.36 62 159 C63.65 159 65.3 159 67 159 C67 157.68 67 156.36 67 155 C68.32 155 69.64 155 71 155 C71 153.35 71 151.7 71 150 C72.32 150 73.64 150 75 150 C75 146.04 75 142.08 75 138 C76.32 138 77.64 138 79 138 C79 135.36 79 132.72 79 130 C80.32 130 81.64 130 83 130 C83 116.14 83 102.28 83 88 C81.68 88 80.36 88 79 88 C79 85.36 79 82.72 79 80 C77.68 80 76.36 80 75 80 C75 73.07 75 66.14 75 59 C73.68 59 72.36 59 71 59 C71 56.03 71 53.06 71 50 C69.68 50 68.36 50 67 50 C67 47.36 67 44.72 67 42 C65.35 42 63.7 42 62 42 C62 40.68 62 39.36 62 38 C60.68 38 59.36 38 58 38 C58 35.36 58 32.72 58 30 C56.68 30 55.36 30 54 30 C54 28.35 54 26.7 54 25 C50.04 25 46.08 25 42 25 C42 23.68 42 22.36 42 21 C28.14 21 14.28 21 0 21 Z M100 117 C100 119.64 100 122.28 100 125 C101.32 125 102.64 125 104 125 C104 122.36 104 119.72 104 117 C102.68 117 101.36 117 100 117 Z M4 150 C4 151.65 4 153.3 4 155 C1.36 155 -1.28 155 -4 155 C-4 156.32 -4 157.64 -4 159 C-5.32 159 -6.64 159 -8 159 C-8 160.32 -8 161.64 -8 163 C-9.65 163 -11.3 163 -13 163 C-13 164.32 -13 165.64 -13 167 C-11.35 167 -9.7 167 -8 167 C-8 168.32 -8 169.64 -8 171 C-5.36 171 -2.72 171 0 171 C0 172.32 0 173.64 0 175 C10.89 175 21.78 175 33 175 C33 172.36 33 169.72 33 167 C31.68 167 30.36 167 29 167 C29 164.36 29 161.72 29 159 C27.68 159 26.36 159 25 159 C25 157.68 25 156.36 25 155 C23.68 155 22.36 155 21 155 C21 153.35 21 151.7 21 150 C15.39 150 9.78 150 4 150 Z M87 150 C87 151.65 87 153.3 87 155 C88.65 155 90.3 155 92 155 C92 153.35 92 151.7 92 150 C90.35 150 88.7 150 87 150 Z M50 188 C50 189.32 50 190.64 50 192 C51.32 192 52.64 192 54 192 C54 190.68 54 189.36 54 188 C52.68 188 51.36 188 50 188 Z " fill="#000000" transform="translate(78,10)"/>
</svg>
