<?xml version="1.0" encoding="UTF-8"?>
<!-- Generator: visioncortex VTracer 0.6.12 -->
<svg version="1.1" xmlns="http://www.w3.org/2000/svg" width="105" height="107">
<path d="M0 0 C2.5 1.062 2.5 1.062 4.027 3.816 C6.223 9.329 6.774 15.219 7.562 21.062 C7.734 22.266 7.905 23.47 8.082 24.71 C8.796 29.764 9.482 34.82 10.094 39.887 C11.995 55.558 11.995 55.558 15.5 59.062 C14.9 65.662 14.9 65.662 12.5 68.062 C10.125 68.5 10.125 68.5 7.5 68.062 C-0.972 59.027 -1.312 45.508 -2.25 33.75 C-2.375 32.316 -2.501 30.881 -2.629 29.447 C-2.934 25.987 -3.222 22.525 -3.5 19.062 C-3.721 19.587 -3.943 20.111 -4.171 20.651 C-5.187 23.043 -6.218 25.428 -7.25 27.812 C-7.424 28.225 -7.424 28.225 -8.305 30.312 C-11.792 38.322 -11.792 38.322 -15.5 41.062 C-19.958 42.619 -23.51 42.539 -27.75 40.5 C-31.223 37.422 -34.4 34.262 -36.5 30.062 C-36.741 30.857 -36.982 31.652 -37.231 32.471 C-51.318 78.744 -51.318 78.744 -59.5 85.562 C-62.556 87.09 -64.152 87.621 -67.5 87.062 C-68.16 86.403 -68.82 85.743 -69.5 85.062 C-68.923 78.486 -68.923 78.486 -67.5 77.062 C-65.5 77.022 -63.5 77.02 -61.5 77.062 C-54.259 59.684 -49.535 41.342 -44.738 23.18 C-44.53 22.392 -44.322 21.605 -44.107 20.793 C-43.713 19.302 -43.322 17.81 -42.934 16.317 C-41.609 11.281 -41.609 11.281 -40.5 9.062 C-37.526 7.972 -36.616 8.024 -33.5 9.062 C-32.797 10.707 -32.797 10.707 -32.25 12.875 C-30.329 19.198 -27.114 27.871 -21.277 31.41 C-20.691 31.625 -20.104 31.841 -19.5 32.062 C-18.479 29.513 -17.461 26.963 -16.457 24.406 C-6.702 0.168 -6.702 0.168 0 0 Z " fill="#000000" transform="translate(79.5,9.9375)"/>
</svg>
