<?xml version="1.0" encoding="UTF-8"?>
<!-- Generator: visioncortex VTracer 0.6.12 -->
<svg version="1.1" xmlns="http://www.w3.org/2000/svg" width="216" height="258">
<path d="M0 0 C4.29 0 8.58 0 13 0 C13 11.22 13 22.44 13 34 C11.35 34 9.7 34 8 34 C8 37.96 8 41.92 8 46 C6.68 46 5.36 46 4 46 C4 48.97 4 51.94 4 55 C2.68 55 1.36 55 0 55 C0 56.32 0 57.64 0 59 C-1.32 59 -2.64 59 -4 59 C-4 62.96 -4 66.92 -4 71 C-5.32 71 -6.64 71 -8 71 C-8 72.32 -8 73.64 -8 75 C-9.32 75 -10.64 75 -12 75 C-12 76.65 -12 78.3 -12 80 C-13.65 80 -15.3 80 -17 80 C-17 81.32 -17 82.64 -17 84 C-18.32 84 -19.64 84 -21 84 C-21 86.64 -21 89.28 -21 92 C-22.32 92 -23.64 92 -25 92 C-25 93.32 -25 94.64 -25 96 C-26.32 96 -27.64 96 -29 96 C-29 97.32 -29 98.64 -29 100 C-30.32 100 -31.64 100 -33 100 C-33 101.65 -33 103.3 -33 105 C-34.32 105 -35.64 105 -37 105 C-37 106.32 -37 107.64 -37 109 C-38.65 109 -40.3 109 -42 109 C-42 110.32 -42 111.64 -42 113 C-43.32 113 -44.64 113 -46 113 C-46 123.89 -46 134.78 -46 146 C-44.68 146 -43.36 146 -42 146 C-42 157.22 -42 168.44 -42 180 C-40.35 180 -38.7 180 -37 180 C-37 181.32 -37 182.64 -37 184 C-35.68 184 -34.36 184 -33 184 C-33 186.64 -33 189.28 -33 192 C-31.68 192 -30.36 192 -29 192 C-29 193.32 -29 194.64 -29 196 C-27.68 196 -26.36 196 -25 196 C-25 197.65 -25 199.3 -25 201 C-23.68 201 -22.36 201 -21 201 C-21 203.64 -21 206.28 -21 209 C-12.75 209 -4.5 209 4 209 C4 207.68 4 206.36 4 205 C5.32 205 6.64 205 8 205 C8 203.68 8 202.36 8 201 C9.65 201 11.3 201 13 201 C13 199.35 13 197.7 13 196 C14.32 196 15.64 196 17 196 C17 194.68 17 193.36 17 192 C18.32 192 19.64 192 21 192 C21 189.36 21 186.72 21 184 C22.32 184 23.64 184 25 184 C25 182.68 25 181.36 25 180 C26.32 180 27.64 180 29 180 C29 178.68 29 177.36 29 176 C33.29 176 37.58 176 42 176 C42 177.32 42 178.64 42 180 C43.32 180 44.64 180 46 180 C46 185.28 46 190.56 46 196 C44.68 196 43.36 196 42 196 C42 198.97 42 201.94 42 205 C40.68 205 39.36 205 38 205 C38 207.64 38 210.28 38 213 C36.35 213 34.7 213 33 213 C33 214.32 33 215.64 33 217 C30.36 217 27.72 217 25 217 C25 218.32 25 219.64 25 221 C22.36 221 19.72 221 17 221 C17 222.65 17 224.3 17 226 C15.68 226 14.36 226 13 226 C13 227.32 13 228.64 13 230 C10.03 230 7.06 230 4 230 C4 231.32 4 232.64 4 234 C-5.57 234 -15.14 234 -25 234 C-25 232.68 -25 231.36 -25 230 C-27.64 230 -30.28 230 -33 230 C-33 228.68 -33 227.36 -33 226 C-35.97 226 -38.94 226 -42 226 C-42 224.35 -42 222.7 -42 221 C-43.32 221 -44.64 221 -46 221 C-46 219.68 -46 218.36 -46 217 C-47.32 217 -48.64 217 -50 217 C-50 215.68 -50 214.36 -50 213 C-51.32 213 -52.64 213 -54 213 C-54 210.36 -54 207.72 -54 205 C-55.32 205 -56.64 205 -58 205 C-58 203.68 -58 202.36 -58 201 C-59.32 201 -60.64 201 -62 201 C-62 198.03 -62 195.06 -62 192 C-63.65 192 -65.3 192 -67 192 C-67 186.72 -67 181.44 -67 176 C-68.32 176 -69.64 176 -71 176 C-71 166.1 -71 156.2 -71 146 C-74.96 146 -78.92 146 -83 146 C-83 144.68 -83 143.36 -83 142 C-85.97 142 -88.94 142 -92 142 C-92 144.97 -92 147.94 -92 151 C-90.35 151 -88.7 151 -87 151 C-87 153.64 -87 156.28 -87 159 C-88.65 159 -90.3 159 -92 159 C-92 161.64 -92 164.28 -92 167 C-93.32 167 -94.64 167 -96 167 C-96 168.32 -96 169.64 -96 171 C-97.32 171 -98.64 171 -100 171 C-100 173.97 -100 176.94 -100 180 C-101.32 180 -102.64 180 -104 180 C-104 181.32 -104 182.64 -104 184 C-105.32 184 -106.64 184 -108 184 C-108 187.96 -108 191.92 -108 196 C-109.65 196 -111.3 196 -113 196 C-113 198.97 -113 201.94 -113 205 C-114.32 205 -115.64 205 -117 205 C-117 208.96 -117 212.92 -117 217 C-118.32 217 -119.64 217 -121 217 C-121 218.32 -121 219.64 -121 221 C-122.32 221 -123.64 221 -125 221 C-125 222.65 -125 224.3 -125 226 C-126.32 226 -127.64 226 -129 226 C-129 227.32 -129 228.64 -129 230 C-134.61 230 -140.22 230 -146 230 C-146 228.68 -146 227.36 -146 226 C-147.32 226 -148.64 226 -150 226 C-150 221.71 -150 217.42 -150 213 C-148.68 213 -147.36 213 -146 213 C-146 210.36 -146 207.72 -146 205 C-144.68 205 -143.36 205 -142 205 C-142 202.03 -142 199.06 -142 196 C-140.68 196 -139.36 196 -138 196 C-138 193.36 -138 190.72 -138 188 C-136.35 188 -134.7 188 -133 188 C-133 186.68 -133 185.36 -133 184 C-131.68 184 -130.36 184 -129 184 C-129 181.36 -129 178.72 -129 176 C-127.68 176 -126.36 176 -125 176 C-125 173.03 -125 170.06 -125 167 C-123.68 167 -122.36 167 -121 167 C-121 164.36 -121 161.72 -121 159 C-119.68 159 -118.36 159 -117 159 C-117 156.36 -117 153.72 -117 151 C-115.68 151 -114.36 151 -113 151 C-113 149.35 -113 147.7 -113 146 C-111.35 146 -109.7 146 -108 146 C-108 143.36 -108 140.72 -108 138 C-106.68 138 -105.36 138 -104 138 C-104 136.68 -104 135.36 -104 134 C-102.68 134 -101.36 134 -100 134 C-100 132.68 -100 131.36 -100 130 C-98.68 130 -97.36 130 -96 130 C-96 128.35 -96 126.7 -96 125 C-94.68 125 -93.36 125 -92 125 C-92 123.68 -92 122.36 -92 121 C-90.35 121 -88.7 121 -87 121 C-87 119.68 -87 118.36 -87 117 C-85.68 117 -84.36 117 -83 117 C-83 108.75 -83 100.5 -83 92 C-84.32 92 -85.64 92 -87 92 C-87 89.36 -87 86.72 -87 84 C-88.65 84 -90.3 84 -92 84 C-92 82.68 -92 81.36 -92 80 C-93.32 80 -94.64 80 -96 80 C-96 77.03 -96 74.06 -96 71 C-97.32 71 -98.64 71 -100 71 C-100 68.36 -100 65.72 -100 63 C-101.32 63 -102.64 63 -104 63 C-104 61.68 -104 60.36 -104 59 C-105.32 59 -106.64 59 -108 59 C-108 57.68 -108 56.36 -108 55 C-109.65 55 -111.3 55 -113 55 C-113 53.35 -113 51.7 -113 50 C-114.32 50 -115.64 50 -117 50 C-117 48.68 -117 47.36 -117 46 C-118.32 46 -119.64 46 -121 46 C-121 44.68 -121 43.36 -121 42 C-122.32 42 -123.64 42 -125 42 C-125 40.68 -125 39.36 -125 38 C-126.32 38 -127.64 38 -129 38 C-129 33.71 -129 29.42 -129 25 C-127.68 25 -126.36 25 -125 25 C-125 23.68 -125 22.36 -125 21 C-123.68 21 -122.36 21 -121 21 C-121 19.68 -121 18.36 -121 17 C-116.71 17 -112.42 17 -108 17 C-108 18.32 -108 19.64 -108 21 C-105.36 21 -102.72 21 -100 21 C-100 22.32 -100 23.64 -100 25 C-98.68 25 -97.36 25 -96 25 C-96 26.65 -96 28.3 -96 30 C-94.68 30 -93.36 30 -92 30 C-92 31.32 -92 32.64 -92 34 C-90.35 34 -88.7 34 -87 34 C-87 35.32 -87 36.64 -87 38 C-85.68 38 -84.36 38 -83 38 C-83 39.32 -83 40.64 -83 42 C-81.68 42 -80.36 42 -79 42 C-79 46.29 -79 50.58 -79 55 C-77.68 55 -76.36 55 -75 55 C-75 56.32 -75 57.64 -75 59 C-73.68 59 -72.36 59 -71 59 C-71 60.32 -71 61.64 -71 63 C-69.68 63 -68.36 63 -67 63 C-67 66.96 -67 70.92 -67 75 C-65.35 75 -63.7 75 -62 75 C-62 77.97 -62 80.94 -62 84 C-60.68 84 -59.36 84 -58 84 C-58 85.32 -58 86.64 -58 88 C-56.68 88 -55.36 88 -54 88 C-54 86.68 -54 85.36 -54 84 C-52.68 84 -51.36 84 -50 84 C-50 82.68 -50 81.36 -50 80 C-47.36 80 -44.72 80 -42 80 C-42 77.03 -42 74.06 -42 71 C-40.35 71 -38.7 71 -37 71 C-37 69.68 -37 68.36 -37 67 C-35.68 67 -34.36 67 -33 67 C-33 65.68 -33 64.36 -33 63 C-31.68 63 -30.36 63 -29 63 C-29 60.36 -29 57.72 -29 55 C-27.68 55 -26.36 55 -25 55 C-25 52.03 -25 49.06 -25 46 C-23.68 46 -22.36 46 -21 46 C-21 40.72 -21 35.44 -21 30 C-19.68 30 -18.36 30 -17 30 C-17 28.35 -17 26.7 -17 25 C-15.35 25 -13.7 25 -12 25 C-12 21.04 -12 17.08 -12 13 C-10.68 13 -9.36 13 -8 13 C-8 10.36 -8 7.72 -8 5 C-6.68 5 -5.36 5 -4 5 C-4 6.32 -4 7.64 -4 9 C-2.68 9 -1.36 9 0 9 C0 6.03 0 3.06 0 0 Z M-12 50 C-12 51.65 -12 53.3 -12 55 C-10.68 55 -9.36 55 -8 55 C-8 53.35 -8 51.7 -8 50 C-9.32 50 -10.64 50 -12 50 Z M-67 88 C-67 89.32 -67 90.64 -67 92 C-65.35 92 -63.7 92 -62 92 C-62 90.68 -62 89.36 -62 88 C-63.65 88 -65.3 88 -67 88 Z M-108 163 C-108 164.32 -108 165.64 -108 167 C-105.36 167 -102.72 167 -100 167 C-100 165.68 -100 164.36 -100 163 C-102.64 163 -105.28 163 -108 163 Z M-121 184 C-121 186.64 -121 189.28 -121 192 C-119.68 192 -118.36 192 -117 192 C-117 190.68 -117 189.36 -117 188 C-115.68 188 -114.36 188 -113 188 C-113 186.68 -113 185.36 -113 184 C-115.64 184 -118.28 184 -121 184 Z M8 217 C8 218.32 8 219.64 8 221 C9.65 221 11.3 221 13 221 C13 219.68 13 218.36 13 217 C11.35 217 9.7 217 8 217 Z M-17 221 C-17 223.97 -17 226.94 -17 230 C-15.35 230 -13.7 230 -12 230 C-12 227.03 -12 224.06 -12 221 C-13.65 221 -15.3 221 -17 221 Z M-4 221 C-4 222.65 -4 224.3 -4 226 C-0.04 226 3.92 226 8 226 C8 224.35 8 222.7 8 221 C4.04 221 0.08 221 -4 221 Z " fill="#000000" transform="translate(160,11)"/>
</svg>
