<?xml version="1.0" encoding="UTF-8"?>
<!-- Generator: visioncortex VTracer 0.6.12 -->
<svg version="1.1" xmlns="http://www.w3.org/2000/svg" width="84" height="118">
<path d="M0 0 C2.478 7.434 0.424 15.113 -1.125 22.562 C-1.237 23.107 -1.237 23.107 -1.801 25.86 C-10.406 66.973 -10.406 66.973 -20 80 C-20.578 80.804 -21.155 81.609 -21.75 82.438 C-25.282 84.89 -28.751 85.274 -33 85 C-40.29 81.998 -43.656 74.184 -46.75 67.312 C-48.032 63.914 -49.021 60.496 -50 57 C-52.98 69.954 -55.712 82.757 -57 96 C-58.656 96.382 -60.325 96.714 -62 97 C-63.635 95.365 -63.181 93.557 -63.203 91.301 C-63.137 84.453 -61.994 77.906 -60.75 71.188 C-60.523 69.929 -60.297 68.67 -60.063 67.373 C-59.601 64.813 -59.136 62.253 -58.667 59.693 C-58.046 56.253 -57.457 52.808 -56.883 49.359 C-56.547 47.385 -56.211 45.411 -55.875 43.438 C-55.729 42.535 -55.583 41.632 -55.433 40.702 C-54.117 33.178 -54.117 33.178 -51 30 C-48.625 30.25 -48.625 30.25 -46 31 C-44.155 33.898 -43.556 36.719 -42.992 40.078 C-40.678 52.919 -37.669 63.747 -31 75 C-29.207 74.84 -29.207 74.84 -27 74 C-13.583 56.016 -8.693 23.832 -7.339 1.898 C-7.227 1.272 -7.115 0.645 -7 0 C-4.333 -1.333 -2.833 -0.671 0 0 Z " fill="#000000" transform="translate(73,11)"/>
</svg>
