<?xml version="1.0" encoding="UTF-8"?>
<!-- Generator: visioncortex VTracer 0.6.12 -->
<svg version="1.1" xmlns="http://www.w3.org/2000/svg" width="146" height="278">
<path d="M0 0 C4.29 0 8.58 0 13 0 C13 1.32 13 2.64 13 4 C14.32 4 15.64 4 17 4 C17 13.57 17 23.14 17 33 C15.68 33 14.36 33 13 33 C13 36.96 13 40.92 13 45 C11.68 45 10.36 45 9 45 C9 47.97 9 50.94 9 54 C7.35 54 5.7 54 4 54 C4 57.96 4 61.92 4 66 C2.68 66 1.36 66 0 66 C0 72.93 0 79.86 0 87 C-1.32 87 -2.64 87 -4 87 C-4 91.29 -4 95.58 -4 100 C-5.32 100 -6.64 100 -8 100 C-8 103.96 -8 107.92 -8 112 C-9.32 112 -10.64 112 -12 112 C-12 116.29 -12 120.58 -12 125 C-13.32 125 -14.64 125 -16 125 C-16 128.96 -16 132.92 -16 137 C-17.65 137 -19.3 137 -21 137 C-21 142.61 -21 148.22 -21 154 C-22.32 154 -23.64 154 -25 154 C-25 156.64 -25 159.28 -25 162 C-26.32 162 -27.64 162 -29 162 C-29 168.93 -29 175.86 -29 183 C-30.32 183 -31.64 183 -33 183 C-33 187.29 -33 191.58 -33 196 C-34.32 196 -35.64 196 -37 196 C-37 210.85 -37 225.7 -37 241 C-38.32 241 -39.64 241 -41 241 C-41 245.29 -41 249.58 -41 254 C-47.93 254 -54.86 254 -62 254 C-62 252.68 -62 251.36 -62 250 C-63.32 250 -64.64 250 -66 250 C-66 245.71 -66 241.42 -66 237 C-67.65 237 -69.3 237 -71 237 C-71 235.68 -71 234.36 -71 233 C-69.35 233 -67.7 233 -66 233 C-66 226.07 -66 219.14 -66 212 C-64.68 212 -63.36 212 -62 212 C-62 203.75 -62 195.5 -62 187 C-60.68 187 -59.36 187 -58 187 C-58 183.04 -58 179.08 -58 175 C-56.68 175 -55.36 175 -54 175 C-54 169.39 -54 163.78 -54 158 C-52.68 158 -51.36 158 -50 158 C-50 151.07 -50 144.14 -50 137 C-48.68 137 -47.36 137 -46 137 C-46 135.68 -46 134.36 -46 133 C-47.32 133 -48.64 133 -50 133 C-50 131.68 -50 130.36 -50 129 C-51.32 129 -52.64 129 -54 129 C-54 127.68 -54 126.36 -54 125 C-56.64 125 -59.28 125 -62 125 C-62 123.35 -62 121.7 -62 120 C-63.32 120 -64.64 120 -66 120 C-66 117.36 -66 114.72 -66 112 C-67.65 112 -69.3 112 -71 112 C-71 109.36 -71 106.72 -71 104 C-72.32 104 -73.64 104 -75 104 C-75 102.68 -75 101.36 -75 100 C-76.32 100 -77.64 100 -79 100 C-79 97.03 -79 94.06 -79 91 C-80.32 91 -81.64 91 -83 91 C-83 88.36 -83 85.72 -83 83 C-84.32 83 -85.64 83 -87 83 C-87 81.68 -87 80.36 -87 79 C-88.32 79 -89.64 79 -91 79 C-91 76.03 -91 73.06 -91 70 C-92.65 70 -94.3 70 -96 70 C-96 67.36 -96 64.72 -96 62 C-97.32 62 -98.64 62 -100 62 C-100 60.68 -100 59.36 -100 58 C-101.32 58 -102.64 58 -104 58 C-104 55.36 -104 52.72 -104 50 C-105.32 50 -106.64 50 -108 50 C-108 41.75 -108 33.5 -108 25 C-105.36 25 -102.72 25 -100 25 C-100 23.35 -100 21.7 -100 20 C-95.71 20 -91.42 20 -87 20 C-87 21.65 -87 23.3 -87 25 C-85.68 25 -84.36 25 -83 25 C-83 28.96 -83 32.92 -83 37 C-81.68 37 -80.36 37 -79 37 C-79 41.29 -79 45.58 -79 50 C-77.68 50 -76.36 50 -75 50 C-75 51.32 -75 52.64 -75 54 C-73.68 54 -72.36 54 -71 54 C-71 56.64 -71 59.28 -71 62 C-69.35 62 -67.7 62 -66 62 C-66 63.32 -66 64.64 -66 66 C-64.68 66 -63.36 66 -62 66 C-62 68.97 -62 71.94 -62 75 C-60.68 75 -59.36 75 -58 75 C-58 77.64 -58 80.28 -58 83 C-56.68 83 -55.36 83 -54 83 C-54 85.64 -54 88.28 -54 91 C-52.68 91 -51.36 91 -50 91 C-50 92.32 -50 93.64 -50 95 C-48.68 95 -47.36 95 -46 95 C-46 96.65 -46 98.3 -46 100 C-44.35 100 -42.7 100 -41 100 C-41 98.35 -41 96.7 -41 95 C-39.68 95 -38.36 95 -37 95 C-37 91.04 -37 87.08 -37 83 C-35.68 83 -34.36 83 -33 83 C-33 78.71 -33 74.42 -33 70 C-31.68 70 -30.36 70 -29 70 C-29 66.04 -29 62.08 -29 58 C-27.68 58 -26.36 58 -25 58 C-25 52.39 -25 46.78 -25 41 C-23.68 41 -22.36 41 -21 41 C-21 38.36 -21 35.72 -21 33 C-19.35 33 -17.7 33 -16 33 C-16 30.36 -16 27.72 -16 25 C-14.68 25 -13.36 25 -12 25 C-12 22.03 -12 19.06 -12 16 C-10.68 16 -9.36 16 -8 16 C-8 14.68 -8 13.36 -8 12 C-6.68 12 -5.36 12 -4 12 C-4 9.36 -4 6.72 -4 4 C-2.68 4 -1.36 4 0 4 C0 2.68 0 1.36 0 0 Z M-33 133 C-33 134.32 -33 135.64 -33 137 C-31.68 137 -30.36 137 -29 137 C-29 135.68 -29 134.36 -29 133 C-30.32 133 -31.64 133 -33 133 Z M-41 154 C-41 155.32 -41 156.64 -41 158 C-39.68 158 -38.36 158 -37 158 C-37 156.68 -37 155.36 -37 154 C-38.32 154 -39.64 154 -41 154 Z M-41 166 C-41 167.65 -41 169.3 -41 171 C-39.68 171 -38.36 171 -37 171 C-37 169.35 -37 167.7 -37 166 C-38.32 166 -39.64 166 -41 166 Z M-46 196 C-46 198.64 -46 201.28 -46 204 C-44.35 204 -42.7 204 -41 204 C-41 201.36 -41 198.72 -41 196 C-42.65 196 -44.3 196 -46 196 Z M-54 225 C-54 227.64 -54 230.28 -54 233 C-51.36 233 -48.72 233 -46 233 C-46 230.36 -46 227.72 -46 225 C-48.64 225 -51.28 225 -54 225 Z " fill="#000000" transform="translate(118,11)"/>
</svg>
