<?xml version="1.0" encoding="UTF-8"?>
<!-- Generator: visioncortex VTracer 0.6.12 -->
<svg version="1.1" xmlns="http://www.w3.org/2000/svg" width="82" height="176">
<path d="M0 0 C2.64 0 5.28 0 8 0 C8 1.32 8 2.64 8 4 C9.65 4 11.3 4 13 4 C13 5.32 13 6.64 13 8 C14.32 8 15.64 8 17 8 C17 9.32 17 10.64 17 12 C18.32 12 19.64 12 21 12 C21 16.29 21 20.58 21 25 C22.32 25 23.64 25 25 25 C25 27.64 25 30.28 25 33 C23.68 33 22.36 33 21 33 C21 36.96 21 40.92 21 45 C18.36 45 15.72 45 13 45 C13 46.65 13 48.3 13 50 C11.35 50 9.7 50 8 50 C8 51.32 8 52.64 8 54 C6.68 54 5.36 54 4 54 C4 55.32 4 56.64 4 58 C1.36 58 -1.28 58 -4 58 C-4 56.68 -4 55.36 -4 54 C-6.64 54 -9.28 54 -12 54 C-12 52.68 -12 51.36 -12 50 C-13.65 50 -15.3 50 -17 50 C-17 48.35 -17 46.7 -17 45 C-19.64 45 -22.28 45 -25 45 C-25 42.36 -25 39.72 -25 37 C-26.32 37 -27.64 37 -29 37 C-29 33.04 -29 29.08 -29 25 C-27.68 25 -26.36 25 -25 25 C-25 22.03 -25 19.06 -25 16 C-23.68 16 -22.36 16 -21 16 C-21 13.36 -21 10.72 -21 8 C-19.68 8 -18.36 8 -17 8 C-17 6.68 -17 5.36 -17 4 C-11.39 4 -5.78 4 0 4 C0 2.68 0 1.36 0 0 Z M0 29 C0 30.32 0 31.64 0 33 C-1.32 33 -2.64 33 -4 33 C-4 34.32 -4 35.64 -4 37 C-1.36 37 1.28 37 4 37 C4 34.36 4 31.72 4 29 C2.68 29 1.36 29 0 29 Z " fill="#000000" transform="translate(38,8)"/>
<path d="M0 0 C5.61 0 11.22 0 17 0 C17 1.32 17 2.64 17 4 C19.64 4 22.28 4 25 4 C25 5.32 25 6.64 25 8 C26.32 8 27.64 8 29 8 C29 10.64 29 13.28 29 16 C30.32 16 31.64 16 33 16 C33 24.25 33 32.5 33 41 C31.68 41 30.36 41 29 41 C29 42.32 29 43.64 29 45 C27.68 45 26.36 45 25 45 C25 47.97 25 50.94 25 54 C22.36 54 19.72 54 17 54 C17 55.32 17 56.64 17 58 C14.03 58 11.06 58 8 58 C8 56.68 8 55.36 8 54 C4.04 54 0.08 54 -4 54 C-4 52.68 -4 51.36 -4 50 C-5.32 50 -6.64 50 -8 50 C-8 48.35 -8 46.7 -8 45 C-9.32 45 -10.64 45 -12 45 C-12 42.36 -12 39.72 -12 37 C-13.65 37 -15.3 37 -17 37 C-17 33.04 -17 29.08 -17 25 C-15.35 25 -13.7 25 -12 25 C-12 22.03 -12 19.06 -12 16 C-10.68 16 -9.36 16 -8 16 C-8 13.36 -8 10.72 -8 8 C-6.68 8 -5.36 8 -4 8 C-4 6.68 -4 5.36 -4 4 C-2.68 4 -1.36 4 0 4 C0 2.68 0 1.36 0 0 Z M13 37 C13 38.32 13 39.64 13 41 C11.35 41 9.7 41 8 41 C8 42.32 8 43.64 8 45 C10.97 45 13.94 45 17 45 C17 42.36 17 39.72 17 37 C15.68 37 14.36 37 13 37 Z " fill="#000000" transform="translate(38,108)"/>
</svg>
