<?xml version="1.0" encoding="UTF-8"?>
<!-- Generator: visioncortex VTracer 0.6.12 -->
<svg version="1.1" xmlns="http://www.w3.org/2000/svg" width="33" height="92">
<path d="M0 0 C0.361 0.124 0.361 0.124 2.188 0.75 C1.881 4.424 1.43 5.531 -1.375 8.062 C-2.179 8.619 -2.984 9.176 -3.812 9.75 C-4.637 9.42 -4.637 9.42 -8.812 7.75 C-8.485 4.69 -7.756 3.692 -5.562 1.438 C-2.812 -0.25 -2.812 -0.25 0 0 Z " fill="#000000" transform="translate(20.8125,10.25)"/>
<path d="M0 0 C3.125 0.375 3.125 0.375 6 1 C6.625 3.875 6.625 3.875 7 7 C5 9 5 9 2.5 9.25 C0 9 0 9 -2 7 C-2.25 4.5 -2.25 4.5 -2 2 C-1.34 1.34 -0.68 0.68 0 0 Z " fill="#000000" transform="translate(12,73)"/>
</svg>
