<?xml version="1.0" encoding="UTF-8"?>
<!-- Generator: visioncortex VTracer 0.6.12 -->
<svg version="1.1" xmlns="http://www.w3.org/2000/svg" width="82" height="177">
<path d="M0 0 C4.29 0 8.58 0 13 0 C13 2.97 13 5.94 13 9 C15.64 9 18.28 9 21 9 C21 7.35 21 5.7 21 4 C22.32 4 23.64 4 25 4 C25 2.68 25 1.36 25 0 C27.64 0 30.28 0 33 0 C33 1.32 33 2.64 33 4 C34.65 4 36.3 4 38 4 C38 5.65 38 7.3 38 9 C39.32 9 40.64 9 42 9 C42 12.96 42 16.92 42 21 C43.32 21 44.64 21 46 21 C46 23.64 46 26.28 46 29 C47.32 29 48.64 29 50 29 C50 35.93 50 42.86 50 50 C51.32 50 52.64 50 54 50 C54 70.79 54 91.58 54 113 C52.68 113 51.36 113 50 113 C50 115.64 50 118.28 50 121 C48.68 121 47.36 121 46 121 C46 127.93 46 134.86 46 142 C44.68 142 43.36 142 42 142 C42 143.32 42 144.64 42 146 C40.68 146 39.36 146 38 146 C38 147.32 38 148.64 38 150 C36.35 150 34.7 150 33 150 C33 151.32 33 152.64 33 154 C24.75 154 16.5 154 8 154 C8 152.68 8 151.36 8 150 C6.68 150 5.36 150 4 150 C4 148.68 4 147.36 4 146 C2.68 146 1.36 146 0 146 C0 144.68 0 143.36 0 142 C-1.32 142 -2.64 142 -4 142 C-4 137.71 -4 133.42 -4 129 C-2.68 129 -1.36 129 0 129 C0 126.36 0 123.72 0 121 C1.32 121 2.64 121 4 121 C4 119.68 4 118.36 4 117 C5.32 117 6.64 117 8 117 C8 115.68 8 114.36 8 113 C10.97 113 13.94 113 17 113 C17 111.68 17 110.36 17 109 C15.68 109 14.36 109 13 109 C13 107.35 13 105.7 13 104 C11.35 104 9.7 104 8 104 C8 102.68 8 101.36 8 100 C9.65 100 11.3 100 13 100 C13 89.11 13 78.22 13 67 C11.35 67 9.7 67 8 67 C8 60.07 8 53.14 8 46 C6.68 46 5.36 46 4 46 C4 43.36 4 40.72 4 38 C2.68 38 1.36 38 0 38 C0 35.03 0 32.06 0 29 C-1.32 29 -2.64 29 -4 29 C-4 26.36 -4 23.72 -4 21 C-5.32 21 -6.64 21 -8 21 C-8 17.04 -8 13.08 -8 9 C-6.68 9 -5.36 9 -4 9 C-4 7.35 -4 5.7 -4 4 C-2.68 4 -1.36 4 0 4 C0 2.68 0 1.36 0 0 Z " fill="#000000" transform="translate(18,13)"/>
</svg>
