<?xml version="1.0" encoding="UTF-8"?>
<!-- Generator: visioncortex VTracer 0.6.12 -->
<svg version="1.1" xmlns="http://www.w3.org/2000/svg" width="65" height="98">
<path d="M0 0 C2.242 -0.285 2.242 -0.285 5 0 C14.621 8.757 17.519 20.023 18.191 32.57 C18.38 44.212 17.065 51.663 10 61 C9.278 62.011 8.556 63.021 7.812 64.062 C2.162 70.609 -6.569 77.017 -15.25 78.344 C-19.573 78.628 -21.452 78.391 -25.062 75.812 C-27 73 -27 73 -27.438 70.312 C-27 68 -27 68 -25 66 C-22.447 66.345 -20.076 66.978 -17.605 67.699 C-12.806 68.253 -9.608 64.858 -6 62 C-0.191 57.128 5.122 51.087 6.448 43.403 C6.598 40.646 6.591 37.946 6.5 35.188 C6.482 34.221 6.465 33.254 6.446 32.258 C6.188 23.635 5.318 15.549 0.75 8.062 C-1 5 -1 5 -0.75 2.062 C-0.502 1.382 -0.255 0.701 0 0 Z " fill="#000000" transform="translate(37,10)"/>
</svg>
