<?xml version="1.0" encoding="UTF-8"?>
<!-- Generator: visioncortex VTracer 0.6.12 -->
<svg version="1.1" xmlns="http://www.w3.org/2000/svg" width="77" height="225">
<path d="M0 0 C9.57 0 19.14 0 29 0 C29 1.32 29 2.64 29 4 C30.32 4 31.64 4 33 4 C33 13.9 33 23.8 33 34 C34.32 34 35.64 34 37 34 C37 37.96 37 41.92 37 46 C34.36 46 31.72 46 29 46 C29 48.97 29 51.94 29 55 C31.64 55 34.28 55 37 55 C37 64.57 37 74.14 37 84 C35.68 84 34.36 84 33 84 C33 86.64 33 89.28 33 92 C34.32 92 35.64 92 37 92 C37 101.57 37 111.14 37 121 C35.68 121 34.36 121 33 121 C33 122.32 33 123.64 33 125 C31.68 125 30.36 125 29 125 C29 127.97 29 130.94 29 134 C24.71 134 20.42 134 16 134 C16 135.32 16 136.64 16 138 C14.68 138 13.36 138 12 138 C12 136.68 12 135.36 12 134 C8.04 134 4.08 134 0 134 C0 132.68 0 131.36 0 130 C-1.32 130 -2.64 130 -4 130 C-4 128.35 -4 126.7 -4 125 C-5.65 125 -7.3 125 -9 125 C-9 123.68 -9 122.36 -9 121 C-10.32 121 -11.64 121 -13 121 C-13 115.72 -13 110.44 -13 105 C-11.68 105 -10.36 105 -9 105 C-9 73.32 -9 41.64 -9 9 C-7.35 9 -5.7 9 -4 9 C-4 7.35 -4 5.7 -4 4 C-2.68 4 -1.36 4 0 4 C0 2.68 0 1.36 0 0 Z M4 92 C4 93.32 4 94.64 4 96 C2.68 96 1.36 96 0 96 C0 97.32 0 98.64 0 100 C1.32 100 2.64 100 4 100 C4 101.65 4 103.3 4 105 C5.32 105 6.64 105 8 105 C8 103.35 8 101.7 8 100 C9.32 100 10.64 100 12 100 C12 98.68 12 97.36 12 96 C10.68 96 9.36 96 8 96 C8 94.68 8 93.36 8 92 C6.68 92 5.36 92 4 92 Z M12 113 C12 114.32 12 115.64 12 117 C10.68 117 9.36 117 8 117 C8 118.32 8 119.64 8 121 C12.29 121 16.58 121 21 121 C21 118.36 21 115.72 21 113 C18.03 113 15.06 113 12 113 Z " fill="#000000" transform="translate(27,10)"/>
<path d="M0 0 C9.57 0 19.14 0 29 0 C29 1.32 29 2.64 29 4 C30.32 4 31.64 4 33 4 C33 5.32 33 6.64 33 8 C34.32 8 35.64 8 37 8 C37 12.29 37 16.58 37 21 C35.68 21 34.36 21 33 21 C33 24.96 33 28.92 33 33 C31.68 33 30.36 33 29 33 C29 34.32 29 35.64 29 37 C27.68 37 26.36 37 25 37 C25 38.32 25 39.64 25 41 C22.03 41 19.06 41 16 41 C16 42.65 16 44.3 16 46 C10.72 46 5.44 46 0 46 C0 44.35 0 42.7 0 41 C-1.32 41 -2.64 41 -4 41 C-4 39.68 -4 38.36 -4 37 C-6.97 37 -9.94 37 -13 37 C-13 35.68 -13 34.36 -13 33 C-14.32 33 -15.64 33 -17 33 C-17 29.04 -17 25.08 -17 21 C-15.68 21 -14.36 21 -13 21 C-13 16.71 -13 12.42 -13 8 C-11.68 8 -10.36 8 -9 8 C-9 6.68 -9 5.36 -9 4 C-6.03 4 -3.06 4 0 4 C0 2.68 0 1.36 0 0 Z M8 16 C8 20.29 8 24.58 8 29 C10.64 29 13.28 29 16 29 C16 27.68 16 26.36 16 25 C17.65 25 19.3 25 21 25 C21 22.03 21 19.06 21 16 C16.71 16 12.42 16 8 16 Z " fill="#000000" transform="translate(27,169)"/>
</svg>
