<?xml version="1.0" encoding="UTF-8"?>
<!-- Generator: visioncortex VTracer 0.6.12 -->
<svg version="1.1" xmlns="http://www.w3.org/2000/svg" width="37" height="175">
<path d="M0 0 C2.494 0.843 2.494 0.843 3.837 2.668 C6.603 9.835 7.081 16.306 7.068 23.945 C7.082 25.18 7.096 26.415 7.111 27.688 C7.153 31.615 7.168 35.541 7.181 39.468 C7.22 44.627 7.268 49.786 7.318 54.945 C7.329 56.176 7.34 57.406 7.352 58.674 C7.604 82.569 7.604 82.569 10.494 90.843 C10.869 94.531 10.869 94.531 10.494 97.843 C8.806 99.906 8.806 99.906 6.494 100.843 C2.9 100.214 1.678 99.076 -0.588 96.218 C-2.759 92.398 -3.257 89.636 -3.694 85.281 C-3.832 84.001 -3.97 82.721 -4.112 81.402 C-4.243 79.882 -4.375 78.363 -4.506 76.843 C-4.596 75.999 -4.686 75.154 -4.778 74.284 C-5.888 62.622 -5.579 50.919 -5.506 39.218 C-5.479 34.872 -5.459 30.526 -5.444 26.179 C-5.435 25.205 -5.427 24.231 -5.419 23.227 C-5.398 17.453 -5.73 11.851 -6.448 6.12 C-6.506 3.843 -6.506 3.843 -4.881 1.093 C-2.506 -0.157 -2.506 -0.157 0 0 Z " fill="#000000" transform="translate(16.506149291992188,10.156646728515625)"/>
<path d="M0 0 C0.485 0.01 0.485 0.01 2.938 0.062 C3.562 2.438 3.562 2.438 3.938 5.062 C3.277 5.722 2.617 6.382 1.938 7.062 C-0.688 6.688 -0.688 6.688 -3.062 6.062 C-3.445 4.406 -3.776 2.738 -4.062 1.062 C-3.062 0.062 -3.062 0.062 0 0 Z " fill="#000000" transform="translate(19.0625,157.9375)"/>
</svg>
