<?xml version="1.0" encoding="UTF-8"?>
<!-- Generator: visioncortex VTracer 0.6.12 -->
<svg version="1.1" xmlns="http://www.w3.org/2000/svg" width="77" height="34">
<path d="M0 0 C0.949 0.041 1.898 0.082 2.875 0.125 C3.688 2.313 3.688 2.313 3.875 5.125 C0.67 9.993 -3.895 11.748 -9.367 13.395 C-22.82 16.01 -37.225 14.679 -50.125 10.125 C-52.105 8.652 -52.105 8.652 -53.125 7.125 C-52.704 2.704 -52.704 2.704 -51.125 1.125 C-46.096 0.738 -42.059 1.329 -37.188 2.625 C-31.813 3.947 -26.816 4.428 -21.312 4.438 C-20.966 4.44 -20.966 4.44 -19.213 4.453 C-12.118 4.358 -6.126 0.245 0 0 Z " fill="#000000" transform="translate(63.125,9.875)"/>
</svg>
