<?xml version="1.0" encoding="UTF-8"?>
<!-- Generator: visioncortex VTracer 0.6.12 -->
<svg version="1.1" xmlns="http://www.w3.org/2000/svg" width="103" height="252">
<path d="M0 0 C5.28 0 10.56 0 16 0 C16 1.32 16 2.64 16 4 C17.32 4 18.64 4 20 4 C20 5.32 20 6.64 20 8 C22.97 8 25.94 8 29 8 C29 9.32 29 10.64 29 12 C31.64 12 34.28 12 37 12 C37 13.32 37 14.64 37 16 C39.64 16 42.28 16 45 16 C45 18.97 45 21.94 45 25 C46.65 25 48.3 25 50 25 C50 26.32 50 27.64 50 29 C51.32 29 52.64 29 54 29 C54 31.64 54 34.28 54 37 C55.32 37 56.64 37 58 37 C58 42.61 58 48.22 58 54 C59.32 54 60.64 54 62 54 C62 59.61 62 65.22 62 71 C63.32 71 64.64 71 66 71 C66 76.28 66 81.56 66 87 C67.32 87 68.64 87 70 87 C70 91.29 70 95.58 70 100 C68.68 100 67.36 100 66 100 C66 101.32 66 102.64 66 104 C67.32 104 68.64 104 70 104 C70 114.89 70 125.78 70 137 C68.68 137 67.36 137 66 137 C66 141.29 66 145.58 66 150 C64.68 150 63.36 150 62 150 C62 153.96 62 157.92 62 162 C60.68 162 59.36 162 58 162 C58 166.29 58 170.58 58 175 C56.68 175 55.36 175 54 175 C54 180.28 54 185.56 54 191 C52.68 191 51.36 191 50 191 C50 195.29 50 199.58 50 204 C48.35 204 46.7 204 45 204 C45 207.96 45 211.92 45 216 C43.68 216 42.36 216 41 216 C41 217.65 41 219.3 41 221 C39.68 221 38.36 221 37 221 C37 222.32 37 223.64 37 225 C35.68 225 34.36 225 33 225 C33 226.32 33 227.64 33 229 C31.68 229 30.36 229 29 229 C29 230.32 29 231.64 29 233 C24.71 233 20.42 233 16 233 C16 231.68 16 230.36 16 229 C13.36 229 10.72 229 8 229 C8 227.68 8 226.36 8 225 C6.68 225 5.36 225 4 225 C4 223.68 4 222.36 4 221 C2.68 221 1.36 221 0 221 C0 219.35 0 217.7 0 216 C-1.65 216 -3.3 216 -5 216 C-5 213.36 -5 210.72 -5 208 C-6.32 208 -7.64 208 -9 208 C-9 206.68 -9 205.36 -9 204 C-7.68 204 -6.36 204 -5 204 C-5 201.36 -5 198.72 -5 196 C-3.35 196 -1.7 196 0 196 C0 191.71 0 187.42 0 183 C1.32 183 2.64 183 4 183 C4 180.36 4 177.72 4 175 C5.32 175 6.64 175 8 175 C8 172.03 8 169.06 8 166 C9.32 166 10.64 166 12 166 C12 162.04 12 158.08 12 154 C13.32 154 14.64 154 16 154 C16 149.71 16 145.42 16 141 C17.32 141 18.64 141 20 141 C20 121.86 20 102.72 20 83 C18.68 83 17.36 83 16 83 C16 77.39 16 71.78 16 66 C14.68 66 13.36 66 12 66 C12 62.04 12 58.08 12 54 C10.68 54 9.36 54 8 54 C8 52.68 8 51.36 8 50 C6.68 50 5.36 50 4 50 C4 47.03 4 44.06 4 41 C2.68 41 1.36 41 0 41 C0 39.68 0 38.36 0 37 C-2.97 37 -5.94 37 -9 37 C-9 34.36 -9 31.72 -9 29 C-10.32 29 -11.64 29 -13 29 C-13 24.71 -13 20.42 -13 16 C-11.68 16 -10.36 16 -9 16 C-9 14.68 -9 13.36 -9 12 C-7.68 12 -6.36 12 -5 12 C-5 9.36 -5 6.72 -5 4 C-3.35 4 -1.7 4 0 4 C0 2.68 0 1.36 0 0 Z " fill="#000000" transform="translate(23,9)"/>
</svg>
