<?xml version="1.0" encoding="UTF-8"?>
<!-- Generator: visioncortex VTracer 0.6.12 -->
<svg version="1.1" xmlns="http://www.w3.org/2000/svg" width="119" height="249">
<path d="M0 0 C6.6 0 13.2 0 20 0 C20 1.32 20 2.64 20 4 C22.97 4 25.94 4 29 4 C29 6.64 29 9.28 29 12 C30.32 12 31.64 12 33 12 C33 13.32 33 14.64 33 16 C31.68 16 30.36 16 29 16 C29 21.61 29 27.22 29 33 C27.68 33 26.36 33 25 33 C25 35.64 25 38.28 25 41 C23.35 41 21.7 41 20 41 C20 43.97 20 46.94 20 50 C18.68 50 17.36 50 16 50 C16 52.64 16 55.28 16 58 C14.68 58 13.36 58 12 58 C12 64.93 12 71.86 12 79 C10.68 79 9.36 79 8 79 C8 80.32 8 81.64 8 83 C9.32 83 10.64 83 12 83 C12 84.32 12 85.64 12 87 C10.68 87 9.36 87 8 87 C8 97.89 8 108.78 8 120 C9.32 120 10.64 120 12 120 C12 126.93 12 133.86 12 141 C13.32 141 14.64 141 16 141 C16 145.29 16 149.58 16 154 C17.32 154 18.64 154 20 154 C20 155.32 20 156.64 20 158 C21.65 158 23.3 158 25 158 C25 160.64 25 163.28 25 166 C26.32 166 27.64 166 29 166 C29 167.32 29 168.64 29 170 C30.32 170 31.64 170 33 170 C33 171.65 33 173.3 33 175 C35.64 175 38.28 175 41 175 C41 176.32 41 177.64 41 179 C42.32 179 43.64 179 45 179 C45 180.32 45 181.64 45 183 C47.97 183 50.94 183 54 183 C54 184.32 54 185.64 54 187 C55.32 187 56.64 187 58 187 C58 189.64 58 192.28 58 195 C59.32 195 60.64 195 62 195 C62 197.97 62 200.94 62 204 C60.68 204 59.36 204 58 204 C58 209.28 58 214.56 58 220 C56.68 220 55.36 220 54 220 C54 221.65 54 223.3 54 225 C52.68 225 51.36 225 50 225 C50 226.32 50 227.64 50 229 C41.75 229 33.5 229 25 229 C25 227.68 25 226.36 25 225 C22.03 225 19.06 225 16 225 C16 223.35 16 221.7 16 220 C14.68 220 13.36 220 12 220 C12 218.68 12 217.36 12 216 C10.68 216 9.36 216 8 216 C8 214.68 8 213.36 8 212 C6.68 212 5.36 212 4 212 C4 209.36 4 206.72 4 204 C2.68 204 1.36 204 0 204 C0 202.68 0 201.36 0 200 C-1.65 200 -3.3 200 -5 200 C-5 198.35 -5 196.7 -5 195 C-6.32 195 -7.64 195 -9 195 C-9 193.68 -9 192.36 -9 191 C-10.32 191 -11.64 191 -13 191 C-13 188.36 -13 185.72 -13 183 C-14.32 183 -15.64 183 -17 183 C-17 180.36 -17 177.72 -17 175 C-18.32 175 -19.64 175 -21 175 C-21 173.35 -21 171.7 -21 170 C-22.32 170 -23.64 170 -25 170 C-25 166.04 -25 162.08 -25 158 C-26.65 158 -28.3 158 -30 158 C-30 155.36 -30 152.72 -30 150 C-31.32 150 -32.64 150 -34 150 C-34 144.39 -34 138.78 -34 133 C-35.32 133 -36.64 133 -38 133 C-38 113.86 -38 94.72 -38 75 C-36.68 75 -35.36 75 -34 75 C-34 68.07 -34 61.14 -34 54 C-32.68 54 -31.36 54 -30 54 C-30 48.39 -30 42.78 -30 37 C-28.35 37 -26.7 37 -25 37 C-25 33.04 -25 29.08 -25 25 C-23.68 25 -22.36 25 -21 25 C-21 22.03 -21 19.06 -21 16 C-19.68 16 -18.36 16 -17 16 C-17 14.68 -17 13.36 -17 12 C-15.68 12 -14.36 12 -13 12 C-13 10.68 -13 9.36 -13 8 C-11.68 8 -10.36 8 -9 8 C-9 6.68 -9 5.36 -9 4 C-6.03 4 -3.06 4 0 4 C0 2.68 0 1.36 0 0 Z M-13 87 C-13 89.64 -13 92.28 -13 95 C-11.68 95 -10.36 95 -9 95 C-9 93.68 -9 92.36 -9 91 C-7.68 91 -6.36 91 -5 91 C-5 89.68 -5 88.36 -5 87 C-7.64 87 -10.28 87 -13 87 Z " fill="#000000" transform="translate(48,9)"/>
</svg>
