<?xml version="1.0" encoding="UTF-8"?>
<!-- Generator: visioncortex VTracer 0.6.12 -->
<svg version="1.1" xmlns="http://www.w3.org/2000/svg" width="63" height="134">
<path d="M0 0 C0.66 1.32 1.32 2.64 2 4 C1.278 4.392 0.556 4.784 -0.188 5.188 C-5.812 8.812 -9.019 13.23 -11.875 19.188 C-12.213 19.879 -12.551 20.571 -12.899 21.284 C-21.174 38.566 -28.175 56.492 -28.188 75.812 C-28.2 76.759 -28.212 77.706 -28.225 78.682 C-28.236 84.033 -27.815 88.856 -26.431 94.034 C-26 96 -26 96 -26 100 C-25.34 100 -24.68 100 -24 100 C-23.67 98.68 -23.34 97.36 -23 96 C-20.125 95.875 -20.125 95.875 -17 96 C-16.34 96.66 -15.68 97.32 -15 98 C-15.149 104.273 -18.656 109.656 -23 114 C-26.719 114.496 -28.483 114.325 -31.688 112.312 C-40.138 103.862 -41.392 88.854 -41.438 77.375 C-40.935 52.346 -31.446 22.482 -14 4 C-9.209 -0.179 -6.098 -0.421 0 0 Z " fill="#000000" transform="translate(51,10)"/>
</svg>
