<?xml version="1.0" encoding="UTF-8"?>
<!-- Generator: visioncortex VTracer 0.6.12 -->
<svg version="1.1" xmlns="http://www.w3.org/2000/svg" width="52" height="115">
<path d="M0 0 C8.716 0.66 13.754 5.645 19.676 11.719 C20.853 13.089 21.932 14.543 23 16 C23.722 16.969 24.444 17.939 25.188 18.938 C32.379 31.089 30.741 50.847 27.5 64.125 C19.745 88.053 19.745 88.053 11.125 94.375 C8.049 95.28 6.071 94.878 3 94 C-0.115 92.062 -1.669 90.904 -2.938 87.438 C-3 85 -3 85 -1 82 C2.723 81.523 3.792 81.861 7 84 C7.159 83.466 7.317 82.933 7.48 82.383 C8.827 78.084 10.368 74.161 12.5 70.188 C17.324 60.584 18.297 51.58 18.438 40.938 C18.449 40.435 18.449 40.435 18.505 37.892 C18.475 27.824 15.974 19.132 8.949 11.727 C5.897 9.023 2.58 6.934 -1 5 C-0.67 3.35 -0.34 1.7 0 0 Z " fill="#000000" transform="translate(13,10)"/>
</svg>
