<?xml version="1.0" encoding="UTF-8"?>
<!-- Generator: visioncortex VTracer 0.6.12 -->
<svg version="1.1" xmlns="http://www.w3.org/2000/svg" width="77" height="74">
<path d="M0 0 C6.93 0 13.86 0 21 0 C21 2.97 21 5.94 21 9 C25.29 9 29.58 9 34 9 C34 10.32 34 11.64 34 13 C35.32 13 36.64 13 38 13 C38 14.32 38 15.64 38 17 C36.68 17 35.36 17 34 17 C34 20.96 34 24.92 34 29 C32.68 29 31.36 29 30 29 C30 31.97 30 34.94 30 38 C28.35 38 26.7 38 25 38 C25 41.96 25 45.92 25 50 C23.68 50 22.36 50 21 50 C21 51.32 21 52.64 21 54 C14.07 54 7.14 54 0 54 C0 52.68 0 51.36 0 50 C-2.64 50 -5.28 50 -8 50 C-8 47.36 -8 44.72 -8 42 C-9.32 42 -10.64 42 -12 42 C-12 40.68 -12 39.36 -12 38 C-13.32 38 -14.64 38 -16 38 C-16 31.07 -16 24.14 -16 17 C-14.68 17 -13.36 17 -12 17 C-12 15.68 -12 14.36 -12 13 C-10.68 13 -9.36 13 -8 13 C-8 11.68 -8 10.36 -8 9 C-6.68 9 -5.36 9 -4 9 C-4 7.35 -4 5.7 -4 4 C-2.68 4 -1.36 4 0 4 C0 2.68 0 1.36 0 0 Z M-4 25 C-4 29.29 -4 33.58 -4 38 C-1.03 38 1.94 38 5 38 C5 39.32 5 40.64 5 42 C6.32 42 7.64 42 9 42 C9 40.68 9 39.36 9 38 C11.64 38 14.28 38 17 38 C17 36.68 17 35.36 17 34 C18.32 34 19.64 34 21 34 C21 31.03 21 28.06 21 25 C12.75 25 4.5 25 -4 25 Z " fill="#000000" transform="translate(29,10)"/>
</svg>
