<?xml version="1.0" encoding="UTF-8"?>
<!-- Generator: visioncortex VTracer 0.6.12 -->
<svg version="1.1" xmlns="http://www.w3.org/2000/svg" width="143" height="241">
<path d="M0 0 C5.61 0 11.22 0 17 0 C17 1.65 17 3.3 17 5 C22.28 5 27.56 5 33 5 C33 6.32 33 7.64 33 9 C37.29 9 41.58 9 46 9 C46 10.32 46 11.64 46 13 C48.64 13 51.28 13 54 13 C54 14.32 54 15.64 54 17 C56.97 17 59.94 17 63 17 C63 21.29 63 25.58 63 30 C64.32 30 65.64 30 67 30 C67 32.64 67 35.28 67 38 C68.32 38 69.64 38 71 38 C71 43.61 71 49.22 71 55 C69.68 55 68.36 55 67 55 C67 61.93 67 68.86 67 76 C65.68 76 64.36 76 63 76 C63 78.64 63 81.28 63 84 C61.35 84 59.7 84 58 84 C58 86.64 58 89.28 58 92 C56.68 92 55.36 92 54 92 C54 94.97 54 97.94 54 101 C48.72 101 43.44 101 38 101 C38 102.32 38 103.64 38 105 C39.32 105 40.64 105 42 105 C42 108.96 42 112.92 42 117 C40.68 117 39.36 117 38 117 C38 118.32 38 119.64 38 121 C36.35 121 34.7 121 33 121 C33 126.61 33 132.22 33 138 C31.68 138 30.36 138 29 138 C29 139.32 29 140.64 29 142 C27.68 142 26.36 142 25 142 C25 143.32 25 144.64 25 146 C23.68 146 22.36 146 21 146 C21 147.65 21 149.3 21 151 C18.36 151 15.72 151 13 151 C13 149.35 13 147.7 13 146 C7.39 146 1.78 146 -4 146 C-4 144.68 -4 143.36 -4 142 C-6.64 142 -9.28 142 -12 142 C-12 140.68 -12 139.36 -12 138 C-13.65 138 -15.3 138 -17 138 C-17 131.07 -17 124.14 -17 117 C-15.35 117 -13.7 117 -12 117 C-12 114.36 -12 111.72 -12 109 C-10.68 109 -9.36 109 -8 109 C-8 107.68 -8 106.36 -8 105 C-6.68 105 -5.36 105 -4 105 C-4 103.68 -4 102.36 -4 101 C-2.68 101 -1.36 101 0 101 C0 99.35 0 97.7 0 96 C1.32 96 2.64 96 4 96 C4 94.68 4 93.36 4 92 C5.32 92 6.64 92 8 92 C8 90.68 8 89.36 8 88 C9.65 88 11.3 88 13 88 C13 86.68 13 85.36 13 84 C14.32 84 15.64 84 17 84 C17 81.36 17 78.72 17 76 C18.32 76 19.64 76 21 76 C21 73.03 21 70.06 21 67 C22.32 67 23.64 67 25 67 C25 60.07 25 53.14 25 46 C18.07 46 11.14 46 4 46 C4 47.65 4 49.3 4 51 C2.68 51 1.36 51 0 51 C0 56.28 0 61.56 0 67 C-1.32 67 -2.64 67 -4 67 C-4 69.97 -4 72.94 -4 76 C-5.32 76 -6.64 76 -8 76 C-8 77.32 -8 78.64 -8 80 C-16.25 80 -24.5 80 -33 80 C-33 78.68 -33 77.36 -33 76 C-34.32 76 -35.64 76 -37 76 C-37 74.35 -37 72.7 -37 71 C-38.65 71 -40.3 71 -42 71 C-42 69.68 -42 68.36 -42 67 C-43.32 67 -44.64 67 -46 67 C-46 64.36 -46 61.72 -46 59 C-47.32 59 -48.64 59 -50 59 C-50 56.36 -50 53.72 -50 51 C-51.32 51 -52.64 51 -54 51 C-54 49.35 -54 47.7 -54 46 C-52.68 46 -51.36 46 -50 46 C-50 42.04 -50 38.08 -50 34 C-48.68 34 -47.36 34 -46 34 C-46 31.36 -46 28.72 -46 26 C-44.68 26 -43.36 26 -42 26 C-42 24.35 -42 22.7 -42 21 C-40.35 21 -38.7 21 -37 21 C-37 19.68 -37 18.36 -37 17 C-35.68 17 -34.36 17 -33 17 C-33 15.68 -33 14.36 -33 13 C-30.36 13 -27.72 13 -25 13 C-25 11.68 -25 10.36 -25 9 C-20.71 9 -16.42 9 -12 9 C-12 7.68 -12 6.36 -12 5 C-8.04 5 -4.08 5 0 5 C0 3.35 0 1.7 0 0 Z M38 71 C38 72.65 38 74.3 38 76 C39.32 76 40.64 76 42 76 C42 77.32 42 78.64 42 80 C43.32 80 44.64 80 46 80 C46 77.03 46 74.06 46 71 C43.36 71 40.72 71 38 71 Z M8 121 C8 122.65 8 124.3 8 126 C4.04 126 0.08 126 -4 126 C-4 127.32 -4 128.64 -4 130 C-5.32 130 -6.64 130 -8 130 C-8 131.32 -8 132.64 -8 134 C-6.68 134 -5.36 134 -4 134 C-4 135.32 -4 136.64 -4 138 C1.61 138 7.22 138 13 138 C13 136.68 13 135.36 13 134 C14.32 134 15.64 134 17 134 C17 131.36 17 128.72 17 126 C15.68 126 14.36 126 13 126 C13 124.35 13 122.7 13 121 C11.35 121 9.7 121 8 121 Z " fill="#000000" transform="translate(63,5)"/>
<path d="M0 0 C8.25 0 16.5 0 25 0 C25 1.32 25 2.64 25 4 C27.64 4 30.28 4 33 4 C33 5.32 33 6.64 33 8 C34.32 8 35.64 8 37 8 C37 14.93 37 21.86 37 29 C35.68 29 34.36 29 33 29 C33 31.64 33 34.28 33 37 C31.68 37 30.36 37 29 37 C29 39.64 29 42.28 29 45 C27.68 45 26.36 45 25 45 C25 46.65 25 48.3 25 50 C19.39 50 13.78 50 8 50 C8 48.35 8 46.7 8 45 C6.68 45 5.36 45 4 45 C4 43.68 4 42.36 4 41 C1.36 41 -1.28 41 -4 41 C-4 39.68 -4 38.36 -4 37 C-5.65 37 -7.3 37 -9 37 C-9 35.68 -9 34.36 -9 33 C-10.32 33 -11.64 33 -13 33 C-13 26.07 -13 19.14 -13 12 C-11.68 12 -10.36 12 -9 12 C-9 10.68 -9 9.36 -9 8 C-7.35 8 -5.7 8 -4 8 C-4 6.68 -4 5.36 -4 4 C-2.68 4 -1.36 4 0 4 C0 2.68 0 1.36 0 0 Z " fill="#000000" transform="translate(55,181)"/>
</svg>
