<?xml version="1.0" encoding="UTF-8"?>
<!-- Generator: visioncortex VTracer 0.6.12 -->
<svg version="1.1" xmlns="http://www.w3.org/2000/svg" width="71" height="178">
<path d="M0 0 C7.793 4.674 14.278 9.767 17.566 18.539 C18.872 25.326 18.526 31.498 17.129 38.227 C16.953 39.089 16.777 39.951 16.595 40.839 C14.281 51.095 9.546 59.565 3.316 67.977 C-2.861 76.938 -5.025 90.934 -3.434 101.539 C-1.434 104.977 -1.434 104.977 0.566 107.539 C1.004 110.789 1.004 110.789 0.566 113.539 C-2.434 115.539 -2.434 115.539 -4.746 115.602 C-9.676 113.653 -12.448 109.465 -14.809 104.852 C-17.777 89.118 -12.775 72.671 -3.996 59.602 C3.498 48.14 10.514 34.512 8.199 20.281 C6.06 13.334 0.784 9.607 -5.371 6.227 C-10.543 3.836 -15.15 3.032 -20.809 4.289 C-23.434 5.539 -23.434 5.539 -25.434 8.539 C-25.41 11.02 -25.41 11.02 -25.059 13.727 C-24.948 14.628 -24.837 15.529 -24.723 16.457 C-24.627 17.144 -24.532 17.831 -24.434 18.539 C-26.084 18.869 -27.734 19.199 -29.434 19.539 C-32.12 15.957 -32.981 13.036 -32.777 8.527 C-31.945 3.716 -29.159 1.125 -25.496 -1.836 C-17.328 -5.981 -7.759 -4.043 0 0 Z " fill="#000000" transform="translate(42.43359375,13.4609375)"/>
<path d="M0 0 C1.65 0 3.3 0 5 0 C5.688 1.812 5.688 1.812 6 4 C4.562 5.75 4.562 5.75 3 7 C1.68 6.34 0.36 5.68 -1 5 C-0.67 3.35 -0.34 1.7 0 0 Z " fill="#000000" transform="translate(39,161)"/>
</svg>
