<?xml version="1.0" encoding="UTF-8"?>
<!-- Generator: visioncortex VTracer 0.6.12 -->
<svg version="1.1" xmlns="http://www.w3.org/2000/svg" width="167" height="136">
<path d="M0 0 C8.25 0 16.5 0 25 0 C25 1.32 25 2.64 25 4 C26.32 4 27.64 4 29 4 C29 10.93 29 17.86 29 25 C27.68 25 26.36 25 25 25 C25 27.64 25 30.28 25 33 C23.68 33 22.36 33 21 33 C21 34.65 21 36.3 21 38 C18.03 38 15.06 38 12 38 C12 39.32 12 40.64 12 42 C10.68 42 9.36 42 8 42 C8 44.64 8 47.28 8 50 C6.68 50 5.36 50 4 50 C4 51.32 4 52.64 4 54 C2.68 54 1.36 54 0 54 C0 55.32 0 56.64 0 58 C-1.32 58 -2.64 58 -4 58 C-4 60.97 -4 63.94 -4 67 C-5.32 67 -6.64 67 -8 67 C-8 70.96 -8 74.92 -8 79 C-9.65 79 -11.3 79 -13 79 C-13 80.32 -13 81.64 -13 83 C-14.32 83 -15.64 83 -17 83 C-17 84.65 -17 86.3 -17 88 C-20.96 88 -24.92 88 -29 88 C-29 89.32 -29 90.64 -29 92 C-33.29 92 -37.58 92 -42 92 C-42 90.68 -42 89.36 -42 88 C-43.32 88 -44.64 88 -46 88 C-46 85.03 -46 82.06 -46 79 C-47.32 79 -48.64 79 -50 79 C-50 69.43 -50 59.86 -50 50 C-48.68 50 -47.36 50 -46 50 C-46 47.36 -46 44.72 -46 42 C-44.68 42 -43.36 42 -42 42 C-42 39.03 -42 36.06 -42 33 C-40.68 33 -39.36 33 -38 33 C-38 31.68 -38 30.36 -38 29 C-36.35 29 -34.7 29 -33 29 C-33 27.68 -33 26.36 -33 25 C-31.68 25 -30.36 25 -29 25 C-29 23.68 -29 22.36 -29 21 C-27.68 21 -26.36 21 -25 21 C-25 18.36 -25 15.72 -25 13 C-22.36 13 -19.72 13 -17 13 C-17 11.35 -17 9.7 -17 8 C-14.03 8 -11.06 8 -8 8 C-8 6.68 -8 5.36 -8 4 C-5.36 4 -2.72 4 0 4 C0 2.68 0 1.36 0 0 Z M-8 21 C-8 22.32 -8 23.64 -8 25 C-10.97 25 -13.94 25 -17 25 C-17 27.64 -17 30.28 -17 33 C-12.71 33 -8.42 33 -4 33 C-4 31.68 -4 30.36 -4 29 C-2.68 29 -1.36 29 0 29 C0 27.68 0 26.36 0 25 C-1.32 25 -2.64 25 -4 25 C-4 23.68 -4 22.36 -4 21 C-5.32 21 -6.64 21 -8 21 Z " fill="#000000" transform="translate(60,9)"/>
<path d="M0 0 C8.25 0 16.5 0 25 0 C25 1.32 25 2.64 25 4 C27.97 4 30.94 4 34 4 C34 5.65 34 7.3 34 9 C35.32 9 36.64 9 38 9 C38 14.28 38 19.56 38 25 C36.68 25 35.36 25 34 25 C34 27.97 34 30.94 34 34 C32.35 34 30.7 34 29 34 C29 35.32 29 36.64 29 38 C26.36 38 23.72 38 21 38 C21 39.32 21 40.64 21 42 C18.36 42 15.72 42 13 42 C13 43.32 13 44.64 13 46 C11.68 46 10.36 46 9 46 C9 48.64 9 51.28 9 54 C7.35 54 5.7 54 4 54 C4 56.97 4 59.94 4 63 C2.68 63 1.36 63 0 63 C0 64.32 0 65.64 0 67 C-2.64 67 -5.28 67 -8 67 C-8 68.32 -8 69.64 -8 71 C-9.32 71 -10.64 71 -12 71 C-12 72.32 -12 73.64 -12 75 C-13.32 75 -14.64 75 -16 75 C-16 77.97 -16 80.94 -16 84 C-18.97 84 -21.94 84 -25 84 C-25 85.32 -25 86.64 -25 88 C-27.64 88 -30.28 88 -33 88 C-33 86.68 -33 85.36 -33 84 C-34.32 84 -35.64 84 -37 84 C-37 82.35 -37 80.7 -37 79 C-38.32 79 -39.64 79 -41 79 C-41 73.72 -41 68.44 -41 63 C-39.68 63 -38.36 63 -37 63 C-37 58.71 -37 54.42 -37 50 C-35.68 50 -34.36 50 -33 50 C-33 47.36 -33 44.72 -33 42 C-31.68 42 -30.36 42 -29 42 C-29 40.68 -29 39.36 -29 38 C-27.68 38 -26.36 38 -25 38 C-25 35.03 -25 32.06 -25 29 C-23.68 29 -22.36 29 -21 29 C-21 27.68 -21 26.36 -21 25 C-19.35 25 -17.7 25 -16 25 C-16 22.36 -16 19.72 -16 17 C-14.68 17 -13.36 17 -12 17 C-12 15.68 -12 14.36 -12 13 C-10.68 13 -9.36 13 -8 13 C-8 11.68 -8 10.36 -8 9 C-6.68 9 -5.36 9 -4 9 C-4 7.35 -4 5.7 -4 4 C-2.68 4 -1.36 4 0 4 C0 2.68 0 1.36 0 0 Z " fill="#000000" transform="translate(118,38)"/>
</svg>
