<?xml version="1.0" encoding="UTF-8"?>
<!-- Generator: visioncortex VTracer 0.6.12 -->
<svg version="1.1" xmlns="http://www.w3.org/2000/svg" width="59" height="120">
<path d="M0 0 C0.299 0.113 0.299 0.113 1.812 0.688 C2.938 6.438 2.938 6.438 1.812 8.688 C-0.562 9.5 -0.562 9.5 -3.188 9.688 C-5.062 8.5 -5.062 8.5 -6.188 6.688 C-6.03 4.169 -5.35 2.912 -3.875 0.875 C-2.188 -0.312 -2.188 -0.312 0 0 Z " fill="#000000" transform="translate(43.1875,10.3125)"/>
<path d="M0 0 C4.677 2.058 6.403 4.679 8.375 9.312 C11.469 22.363 8.836 37.907 1.875 49.312 C-7.423 62.558 -7.423 62.558 -12.875 64.375 C-17.098 64.844 -19.102 64.95 -22.562 62.375 C-27.162 56.408 -30.357 50.126 -29.875 42.375 C-29.215 41.715 -28.555 41.055 -27.875 40.375 C-25.426 40.41 -25.426 40.41 -22.875 41.375 C-21.293 43.809 -21.293 43.809 -20.062 46.812 C-19.644 47.801 -19.225 48.79 -18.793 49.809 C-17.875 52.375 -17.875 52.375 -17.875 54.375 C-16.885 54.375 -15.895 54.375 -14.875 54.375 C-14.669 53.715 -14.462 53.055 -14.25 52.375 C-13.002 49.653 -11.915 48.215 -10 46 C-2.883 36.702 -1.404 22.705 -2.875 11.375 C-3.83 9.353 -4.824 7.348 -5.875 5.375 C-5.688 2.562 -5.688 2.562 -4.875 0.375 C-2.875 -0.625 -2.875 -0.625 0 0 Z " fill="#000000" transform="translate(39.875,45.625)"/>
</svg>
