<?xml version="1.0" encoding="UTF-8"?>
<!-- Generator: visioncortex VTracer 0.6.12 -->
<svg version="1.1" xmlns="http://www.w3.org/2000/svg" width="87" height="228">
<path d="M0 0 C6.93 0 13.86 0 21 0 C21 1.65 21 3.3 21 5 C22.32 5 23.64 5 25 5 C25 6.32 25 7.64 25 9 C26.32 9 27.64 9 29 9 C29 10.32 29 11.64 29 13 C30.32 13 31.64 13 33 13 C33 21.25 33 29.5 33 38 C31.68 38 30.36 38 29 38 C29 39.32 29 40.64 29 42 C27.68 42 26.36 42 25 42 C25 44.64 25 47.28 25 50 C20.71 50 16.42 50 12 50 C12 51.65 12 53.3 12 55 C6.72 55 1.44 55 -4 55 C-4 53.35 -4 51.7 -4 50 C-5.65 50 -7.3 50 -9 50 C-9 47.36 -9 44.72 -9 42 C-10.32 42 -11.64 42 -13 42 C-13 39.36 -13 36.72 -13 34 C-14.32 34 -15.64 34 -17 34 C-17 28.39 -17 22.78 -17 17 C-15.68 17 -14.36 17 -13 17 C-13 14.36 -13 11.72 -13 9 C-11.68 9 -10.36 9 -9 9 C-9 7.68 -9 6.36 -9 5 C-6.03 5 -3.06 5 0 5 C0 3.35 0 1.7 0 0 Z M4 25 C4 26.65 4 28.3 4 30 C5.32 30 6.64 30 8 30 C8 28.35 8 26.7 8 25 C6.68 25 5.36 25 4 25 Z " fill="#000000" transform="translate(27,9)"/>
<path d="M0 0 C6.93 0 13.86 0 21 0 C21 1.32 21 2.64 21 4 C23.64 4 26.28 4 29 4 C29 5.32 29 6.64 29 8 C30.32 8 31.64 8 33 8 C33 10.97 33 13.94 33 17 C34.32 17 35.64 17 37 17 C37 18.32 37 19.64 37 21 C38.32 21 39.64 21 41 21 C41 27.93 41 34.86 41 42 C42.65 42 44.3 42 46 42 C46 44.64 46 47.28 46 50 C47.32 50 48.64 50 50 50 C50 58.25 50 66.5 50 75 C48.68 75 47.36 75 46 75 C46 77.64 46 80.28 46 83 C44.35 83 42.7 83 41 83 C41 87.29 41 91.58 41 96 C39.68 96 38.36 96 37 96 C37 98.64 37 101.28 37 104 C35.68 104 34.36 104 33 104 C33 105.32 33 106.64 33 108 C31.68 108 30.36 108 29 108 C29 110.97 29 113.94 29 117 C26.36 117 23.72 117 21 117 C21 118.32 21 119.64 21 121 C14.07 121 7.14 121 0 121 C0 119.68 0 118.36 0 117 C-2.97 117 -5.94 117 -9 117 C-9 114.03 -9 111.06 -9 108 C-10.32 108 -11.64 108 -13 108 C-13 105.36 -13 102.72 -13 100 C-14.32 100 -15.64 100 -17 100 C-17 97.36 -17 94.72 -17 92 C-15.68 92 -14.36 92 -13 92 C-13 90.35 -13 88.7 -13 87 C-11.68 87 -10.36 87 -9 87 C-9 85.68 -9 84.36 -9 83 C-7.35 83 -5.7 83 -4 83 C-4 81.68 -4 80.36 -4 79 C-2.68 79 -1.36 79 0 79 C0 77.68 0 76.36 0 75 C1.32 75 2.64 75 4 75 C4 73.68 4 72.36 4 71 C5.32 71 6.64 71 8 71 C8 65.39 8 59.78 8 54 C6.68 54 5.36 54 4 54 C4 50.04 4 46.08 4 42 C2.68 42 1.36 42 0 42 C0 39.03 0 36.06 0 33 C-1.32 33 -2.64 33 -4 33 C-4 24.75 -4 16.5 -4 8 C-2.68 8 -1.36 8 0 8 C0 5.36 0 2.72 0 0 Z M29 75 C29 77.64 29 80.28 29 83 C30.32 83 31.64 83 33 83 C33 80.36 33 77.72 33 75 C31.68 75 30.36 75 29 75 Z M-4 92 C-4 93.32 -4 94.64 -4 96 C-2.68 96 -1.36 96 0 96 C0 94.68 0 93.36 0 92 C-1.32 92 -2.64 92 -4 92 Z M21 96 C21 97.32 21 98.64 21 100 C22.32 100 23.64 100 25 100 C25 98.68 25 97.36 25 96 C23.68 96 22.36 96 21 96 Z " fill="#000000" transform="translate(27,97)"/>
</svg>
