<?xml version="1.0" encoding="UTF-8"?>
<!-- Generator: visioncortex VTracer 0.6.12 -->
<svg version="1.1" xmlns="http://www.w3.org/2000/svg" width="154" height="235">
<path d="M0 0 C9.57 0 19.14 0 29 0 C29 1.32 29 2.64 29 4 C32.96 4 36.92 4 41 4 C41 5.32 41 6.64 41 8 C42.32 8 43.64 8 45 8 C45 9.65 45 11.3 45 13 C46.65 13 48.3 13 50 13 C50 14.32 50 15.64 50 17 C52.64 17 55.28 17 58 17 C58 20.96 58 24.92 58 29 C60.64 29 63.28 29 66 29 C66 35.93 66 42.86 66 50 C67.32 50 68.64 50 70 50 C70 60.89 70 71.78 70 83 C68.68 83 67.36 83 66 83 C66 88.61 66 94.22 66 100 C64.68 100 63.36 100 62 100 C62 101.32 62 102.64 62 104 C60.68 104 59.36 104 58 104 C58 105.32 58 106.64 58 108 C56.68 108 55.36 108 54 108 C54 109.65 54 111.3 54 113 C52.68 113 51.36 113 50 113 C50 114.32 50 115.64 50 117 C47.03 117 44.06 117 41 117 C41 118.32 41 119.64 41 121 C35.72 121 30.44 121 25 121 C25 119.68 25 118.36 25 117 C9.82 117 -5.36 117 -21 117 C-21 132.18 -21 147.36 -21 163 C-19.68 163 -18.36 163 -17 163 C-17 165.64 -17 168.28 -17 171 C-18.32 171 -19.64 171 -21 171 C-21 174.96 -21 178.92 -21 183 C-22.32 183 -23.64 183 -25 183 C-25 185.97 -25 188.94 -25 192 C-27.97 192 -30.94 192 -34 192 C-34 193.32 -34 194.64 -34 196 C-36.64 196 -39.28 196 -42 196 C-42 194.68 -42 193.36 -42 192 C-43.32 192 -44.64 192 -46 192 C-46 190.68 -46 189.36 -46 188 C-47.32 188 -48.64 188 -50 188 C-50 186.35 -50 184.7 -50 183 C-51.65 183 -53.3 183 -55 183 C-55 128.22 -55 73.44 -55 17 C-53.35 17 -51.7 17 -50 17 C-50 15.68 -50 14.36 -50 13 C-47.36 13 -44.72 13 -42 13 C-42 11.35 -42 9.7 -42 8 C-36.39 8 -30.78 8 -25 8 C-25 9.65 -25 11.3 -25 13 C-23.68 13 -22.36 13 -21 13 C-21 11.35 -21 9.7 -21 8 C-18.36 8 -15.72 8 -13 8 C-13 6.68 -13 5.36 -13 4 C-8.71 4 -4.42 4 0 4 C0 2.68 0 1.36 0 0 Z M-21 33 C-21 35.97 -21 38.94 -21 42 C-19.68 42 -18.36 42 -17 42 C-17 39.03 -17 36.06 -17 33 C-18.32 33 -19.64 33 -21 33 Z M4 33 C4 34.65 4 36.3 4 38 C2.68 38 1.36 38 0 38 C0 39.32 0 40.64 0 42 C-1.65 42 -3.3 42 -5 42 C-5 43.32 -5 44.64 -5 46 C-6.32 46 -7.64 46 -9 46 C-9 47.32 -9 48.64 -9 50 C-10.32 50 -11.64 50 -13 50 C-13 54.29 -13 58.58 -13 63 C-14.32 63 -15.64 63 -17 63 C-17 68.28 -17 73.56 -17 79 C-15.68 79 -14.36 79 -13 79 C-13 81.97 -13 84.94 -13 88 C-8.71 88 -4.42 88 0 88 C0 89.32 0 90.64 0 92 C8.25 92 16.5 92 25 92 C25 90.68 25 89.36 25 88 C26.32 88 27.64 88 29 88 C29 86.35 29 84.7 29 83 C30.32 83 31.64 83 33 83 C33 81.68 33 80.36 33 79 C34.32 79 35.64 79 37 79 C37 70.75 37 62.5 37 54 C35.68 54 34.36 54 33 54 C33 51.36 33 48.72 33 46 C31.68 46 30.36 46 29 46 C29 43.36 29 40.72 29 38 C27.68 38 26.36 38 25 38 C25 36.35 25 34.7 25 33 C18.07 33 11.14 33 4 33 Z M-42 158 C-42 162.29 -42 166.58 -42 171 C-38.04 171 -34.08 171 -30 171 C-30 166.71 -30 162.42 -30 158 C-33.96 158 -37.92 158 -42 158 Z " fill="#000000" transform="translate(66,30)"/>
</svg>
