<?xml version="1.0" encoding="UTF-8"?>
<!-- Generator: visioncortex VTracer 0.6.12 -->
<svg version="1.1" xmlns="http://www.w3.org/2000/svg" width="67" height="120">
<path d="M0 0 C2.5 0.25 2.5 0.25 4.5 2.25 C4.125 5.375 4.125 5.375 3.5 8.25 C0.625 8.875 0.625 8.875 -2.5 9.25 C-4.5 7.25 -4.5 7.25 -4.75 4.75 C-4.401 1.256 -3.494 0.349 0 0 Z " fill="#000000" transform="translate(48.5,9.75)"/>
<path d="M0 0 C2.688 -0.375 2.688 -0.375 6 0 C13.066 5.551 14.217 16.234 15.598 24.637 C16.741 34.194 17.037 44.145 11.25 52.25 C7.38 56.976 3.092 61.477 -3 63 C-11.125 63.776 -17.112 62.39 -23.688 57.375 C-28.091 53.279 -30.69 49.038 -31.159 42.932 C-31.332 37.947 -31.206 32.982 -31 28 C-28.688 26.875 -28.688 26.875 -26 26 C-23 28 -23 28 -22.34 30.574 C-22.207 31.602 -22.074 32.629 -21.938 33.688 C-21.778 34.761 -21.618 35.835 -21.453 36.941 C-21.304 37.951 -21.154 38.96 -21 40 C-20.552 42.613 -20.025 44.519 -19 47 C-16.5 48.375 -16.5 48.375 -14 49 C-13.34 49.33 -12.68 49.66 -12 50 C-8.687 50.375 -8.687 50.375 -5 50 C-1.748 47.399 0.555 44.899 2 41 C2.323 38.039 2.331 35.101 2.312 32.125 C2.312 31.704 2.312 31.704 2.309 29.572 C2.21 23.092 1.308 17.258 -0.344 10.98 C-1.183 7.168 -1.788 3.575 0 0 Z " fill="#000000" transform="translate(41,47)"/>
</svg>
