<?xml version="1.0" encoding="UTF-8"?>
<!-- Generator: visioncortex VTracer 0.6.12 -->
<svg version="1.1" xmlns="http://www.w3.org/2000/svg" width="61" height="95">
<path d="M0 0 C1.134 0.021 2.269 0.041 3.438 0.062 C6.928 6.726 7.565 13.659 8.438 21.062 C9.159 20.588 9.881 20.114 10.625 19.625 C16.575 16.32 23.78 16.198 30.438 17.062 C32.872 18.501 33.787 19.705 35.438 22.062 C35.273 22.557 35.273 22.557 34.438 25.062 C33.447 25.392 32.458 25.722 31.438 26.062 C30.447 25.403 29.458 24.742 28.438 24.062 C22.248 23.538 18.108 24.576 12.438 27.062 C11.438 28.062 11.438 28.062 10.938 31.562 C10.438 35.062 10.438 35.062 9.438 36.062 C9.386 38.609 9.396 41.13 9.445 43.676 C9.463 45.249 9.48 46.823 9.496 48.396 C9.527 50.885 9.562 53.374 9.609 55.862 C9.651 58.258 9.675 60.654 9.695 63.051 C9.714 63.793 9.733 64.534 9.752 65.299 C9.768 68.494 9.632 70.709 8.078 73.536 C6.437 75.062 6.437 75.062 3.938 75.5 C1.032 74.991 0.173 74.406 -1.562 72.062 C-5.767 59.448 -3.872 43.091 -4.115 29.906 C-4.166 27.171 -4.223 24.435 -4.281 21.699 C-4.295 20.86 -4.308 20.02 -4.322 19.155 C-4.449 13.289 -4.449 13.289 -5.562 11.062 C-5.501 9.372 -5.367 7.683 -5.188 6 C-5.097 5.102 -5.007 4.203 -4.914 3.277 C-4.33 -0.401 -3.943 0.069 0 0 Z " fill="#000000" transform="translate(15.5625,9.9375)"/>
</svg>
