<?xml version="1.0" encoding="UTF-8"?>
<!-- Generator: visioncortex VTracer 0.6.12 -->
<svg version="1.1" xmlns="http://www.w3.org/2000/svg" width="78" height="113">
<path d="M0 0 C4.624 3.757 6.872 7.556 7.875 13.438 C8.224 17.503 7.4 20.625 6 24.438 C5.835 24.602 5.835 24.602 5 25.438 C4.855 27.073 4.773 28.714 4.719 30.355 C4.681 31.363 4.644 32.37 4.605 33.408 C4.571 34.47 4.536 35.531 4.5 36.625 C4.079 49.231 4.079 49.231 3 54.438 C4.265 54.258 5.529 54.079 6.832 53.895 C8.492 53.679 10.152 53.464 11.812 53.25 C12.229 53.19 12.229 53.19 14.338 52.885 C15.14 52.785 15.943 52.685 16.77 52.582 C17.508 52.483 18.246 52.383 19.007 52.281 C21 52.438 21 52.438 22.764 53.928 C23.172 54.426 23.58 54.924 24 55.438 C22.848 57.906 21.952 59.485 20 61.438 C18.212 61.94 18.212 61.94 16.086 62.289 C15.706 62.354 15.706 62.354 13.781 62.68 C12.987 62.806 12.193 62.932 11.375 63.062 C10.974 63.13 10.974 63.13 8.945 63.469 C6.965 63.799 4.983 64.119 3 64.438 C2.963 65.728 2.925 67.018 2.887 68.348 C2.821 70.065 2.755 71.783 2.688 73.5 C2.665 74.348 2.642 75.195 2.619 76.068 C2.386 81.551 1.482 85.533 -1 90.438 C-2.98 90.438 -4.96 90.438 -7 90.438 C-10.472 84.952 -10.362 80.323 -10.188 74.062 C-10.181 73.599 -10.181 73.599 -10.146 71.254 C-10.111 68.981 -10.062 66.71 -10 64.438 C-10.56 64.449 -10.56 64.449 -13.395 64.508 C-14.867 64.527 -16.34 64.545 -17.812 64.562 C-18.55 64.579 -19.288 64.596 -20.049 64.613 C-23.912 64.648 -25.709 64.631 -29 62.438 C-29.375 59.438 -29.375 59.438 -29 56.438 C-25.953 54.406 -25.399 54.191 -21.988 54.242 C-21.231 54.249 -20.474 54.255 -19.693 54.262 C-18.908 54.278 -18.122 54.295 -17.312 54.312 C-16.515 54.322 -15.718 54.331 -14.896 54.34 C-12.931 54.363 -10.965 54.399 -9 54.438 C-8.662 52.063 -8.329 49.688 -8 47.312 C-7.905 46.647 -7.809 45.982 -7.711 45.297 C-7.164 41.311 -6.9 37.459 -7 33.438 C-7.567 33.602 -7.567 33.602 -10.438 34.438 C-16.426 35.9 -21.629 36.556 -27.312 33.875 C-31.533 30.047 -33.713 26.695 -34.438 21 C-33.596 14.151 -31.032 9.03 -27 3.438 C-26.34 2.447 -25.68 1.457 -25 0.438 C-17.904 -2.538 -6.971 -3.486 0 0 Z M-16 8.438 C-19.523 12.951 -20.457 15.721 -20 21.438 C-21.65 21.438 -23.3 21.438 -25 21.438 C-24.67 22.758 -24.34 24.078 -24 25.438 C-17.241 27.019 -12.148 25.512 -6 22.438 C-5.547 19.345 -5.517 17.215 -7.195 14.516 C-9.916 11.207 -11.648 9.166 -16 8.438 Z " fill="#000000" transform="translate(44,12.5625)"/>
</svg>
