<?xml version="1.0" encoding="UTF-8"?>
<!-- Generator: visioncortex VTracer 0.6.12 -->
<svg version="1.1" xmlns="http://www.w3.org/2000/svg" width="39" height="109">
<path d="M0 0 C2.188 0.312 2.188 0.312 4 1 C4.625 2.875 4.625 2.875 5 5 C4.34 5.66 3.68 6.32 3 7 C0.375 6.625 0.375 6.625 -2 6 C-2.33 5.01 -2.66 4.02 -3 3 C-1.75 1.438 -1.75 1.438 0 0 Z " fill="#000000" transform="translate(24,10)"/>
<path d="M0 0 C2.438 0.875 2.438 0.875 4.438 3.875 C5.781 15.948 3.288 27.639 0.912 39.418 C0.124 43.5 -0.436 47.609 -0.973 51.73 C-1.672 54.273 -2.446 55.32 -4.562 56.875 C-7.625 56.875 -7.625 56.875 -10.562 55.875 C-15.769 46.552 -10.906 31.065 -8.97 21.046 C-8.552 18.818 -8.174 16.585 -7.805 14.348 C-7.557 12.898 -7.31 11.449 -7.062 10 C-6.846 8.703 -6.629 7.406 -6.406 6.07 C-5.327 1.985 -4.453 -0.217 0 0 Z " fill="#000000" transform="translate(22.5625,42.125)"/>
</svg>
