<?xml version="1.0" encoding="UTF-8"?>
<!-- Generator: visioncortex VTracer 0.6.12 -->
<svg version="1.1" xmlns="http://www.w3.org/2000/svg" width="80" height="108">
<path d="M0 0 C2.062 0.688 2.062 0.688 4 2 C6.325 8.92 5.01 16.449 3.375 23.375 C3.2 24.145 3.024 24.916 2.844 25.709 C1.318 32.172 -0.698 38.433 -2.779 44.734 C-6.564 56.481 -8.572 68.736 -10.508 80.906 C-11.045 83.192 -11.792 84.987 -13 87 C-14.938 87.938 -14.938 87.938 -17 88 C-18.812 86.812 -18.812 86.812 -20 85 C-19.667 83.666 -19.334 82.333 -19 81 C-18.907 78.668 -18.87 76.334 -18.875 74 C-18.872 72.783 -18.87 71.566 -18.867 70.312 C-19 67 -19 67 -19.633 64.812 C-20.144 62.289 -19.217 61.239 -18 59 C-17.415 56.928 -16.876 54.844 -16.375 52.75 C-16.115 51.672 -15.854 50.595 -15.586 49.484 C-15.393 48.665 -15.199 47.845 -15 47 C-15.905 47.055 -16.81 47.111 -17.742 47.168 C-22.747 46.91 -25.392 44.274 -29 41 C-30.386 39.377 -31.726 37.713 -33 36 C-33.768 35.243 -34.537 34.487 -35.328 33.707 C-38.828 30.161 -41.777 26.269 -44.816 22.328 C-47.044 19.953 -47.874 19.4 -51 19 C-52.348 18.363 -53.686 17.704 -55 17 C-54.25 12.25 -54.25 12.25 -52 10 C-47.856 9.522 -45.572 9.691 -41.875 11.688 C-36.916 15.677 -32.858 20.277 -28.707 25.07 C-26.565 27.491 -24.318 29.748 -22 32 C-21.34 32.66 -20.68 33.32 -20 34 C-18.016 34.714 -16.017 35.386 -14 36 C-14 36.66 -14 37.32 -14 38 C-13.34 38 -12.68 38 -12 38 C-9.517 28.52 -7.374 19.103 -5.809 9.426 C-5.009 6.037 -4.041 3.8 -2 1 C-1.34 0.67 -0.68 0.34 0 0 Z " fill="#000000" transform="translate(65,10)"/>
</svg>
