<?xml version="1.0" encoding="UTF-8"?>
<!-- Generator: visioncortex VTracer 0.6.12 -->
<svg version="1.1" xmlns="http://www.w3.org/2000/svg" width="148" height="219">
<path d="M0 0 C9.57 0 19.14 0 29 0 C29 1.32 29 2.64 29 4 C31.64 4 34.28 4 37 4 C37 5.32 37 6.64 37 8 C39.97 8 42.94 8 46 8 C46 9.32 46 10.64 46 12 C47.32 12 48.64 12 50 12 C50 13.32 50 14.64 50 16 C51.32 16 52.64 16 54 16 C54 20.29 54 24.58 54 29 C56.64 29 59.28 29 62 29 C62 30.32 62 31.64 62 33 C63.65 33 65.3 33 67 33 C67 41.25 67 49.5 67 58 C57.1 58 47.2 58 37 58 C37 56.68 37 55.36 37 54 C35.68 54 34.36 54 33 54 C33 52.68 33 51.36 33 50 C31.68 50 30.36 50 29 50 C29 47.03 29 44.06 29 41 C27.68 41 26.36 41 25 41 C25 39.68 25 38.36 25 37 C23.68 37 22.36 37 21 37 C21 35.68 21 34.36 21 33 C16.71 33 12.42 33 8 33 C8 37.29 8 41.58 8 46 C6.68 46 5.36 46 4 46 C4 60.85 4 75.7 4 91 C8.29 91 12.58 91 17 91 C17 89.68 17 88.36 17 87 C26.57 87 36.14 87 46 87 C46 88.32 46 89.64 46 91 C47.32 91 48.64 91 50 91 C50 92.65 50 94.3 50 96 C51.32 96 52.64 96 54 96 C54 99.96 54 103.92 54 108 C52.68 108 51.36 108 50 108 C50 109.32 50 110.64 50 112 C48.68 112 47.36 112 46 112 C46 113.65 46 115.3 46 117 C44.68 117 43.36 117 42 117 C42 118.32 42 119.64 42 121 C30.78 121 19.56 121 8 121 C8 122.32 8 123.64 8 125 C6.68 125 5.36 125 4 125 C4 126.32 4 127.64 4 129 C5.32 129 6.64 129 8 129 C8 139.89 8 150.78 8 162 C6.68 162 5.36 162 4 162 C4 167.61 4 173.22 4 179 C2.68 179 1.36 179 0 179 C0 185.93 0 192.86 0 200 C-4.29 200 -8.58 200 -13 200 C-13 198.68 -13 197.36 -13 196 C-14.32 196 -15.64 196 -17 196 C-17 194.68 -17 193.36 -17 192 C-19.64 192 -22.28 192 -25 192 C-25 187.71 -25 183.42 -25 179 C-26.32 179 -27.64 179 -29 179 C-29 168.11 -29 157.22 -29 146 C-27.68 146 -26.36 146 -25 146 C-25 143.03 -25 140.06 -25 137 C-26.32 137 -27.64 137 -29 137 C-29 133.04 -29 129.08 -29 125 C-31.97 125 -34.94 125 -38 125 C-38 123.68 -38 122.36 -38 121 C-40.64 121 -43.28 121 -46 121 C-46 119.68 -46 118.36 -46 117 C-48.64 117 -51.28 117 -54 117 C-54 114.03 -54 111.06 -54 108 C-55.32 108 -56.64 108 -58 108 C-58 104.04 -58 100.08 -58 96 C-56.68 96 -55.36 96 -54 96 C-54 94.35 -54 92.7 -54 91 C-51.36 91 -48.72 91 -46 91 C-46 93.97 -46 96.94 -46 100 C-44.68 100 -43.36 100 -42 100 C-42 95.71 -42 91.42 -42 87 C-39.03 87 -36.06 87 -33 87 C-33 78.75 -33 70.5 -33 62 C-31.68 62 -30.36 62 -29 62 C-29 51.11 -29 40.22 -29 29 C-27.68 29 -26.36 29 -25 29 C-25 27.68 -25 26.36 -25 25 C-23.68 25 -22.36 25 -21 25 C-21 20.71 -21 16.42 -21 12 C-19.68 12 -18.36 12 -17 12 C-17 10.68 -17 9.36 -17 8 C-15.68 8 -14.36 8 -13 8 C-13 6.68 -13 5.36 -13 4 C-8.71 4 -4.42 4 0 4 C0 2.68 0 1.36 0 0 Z M-8 16 C-8 17.65 -8 19.3 -8 21 C-9.65 21 -11.3 21 -13 21 C-13 22.32 -13 23.64 -13 25 C-11.35 25 -9.7 25 -8 25 C-8 26.32 -8 27.64 -8 29 C-6.68 29 -5.36 29 -4 29 C-4 27.68 -4 26.36 -4 25 C-2.68 25 -1.36 25 0 25 C0 22.03 0 19.06 0 16 C-2.64 16 -5.28 16 -8 16 Z M29 104 C29 106.64 29 109.28 29 112 C30.32 112 31.64 112 33 112 C33 109.36 33 106.72 33 104 C31.68 104 30.36 104 29 104 Z M-17 108 C-17 109.32 -17 110.64 -17 112 C-15.68 112 -14.36 112 -13 112 C-13 113.65 -13 115.3 -13 117 C-11.35 117 -9.7 117 -8 117 C-8 114.03 -8 111.06 -8 108 C-10.97 108 -13.94 108 -17 108 Z M17 108 C17 109.32 17 110.64 17 112 C18.32 112 19.64 112 21 112 C21 110.68 21 109.36 21 108 C19.68 108 18.36 108 17 108 Z M-17 137 C-17 139.97 -17 142.94 -17 146 C-15.68 146 -14.36 146 -13 146 C-13 143.03 -13 140.06 -13 137 C-14.32 137 -15.64 137 -17 137 Z " fill="#000000" transform="translate(68,9)"/>
</svg>
