<?xml version="1.0" encoding="UTF-8"?>
<!-- Generator: visioncortex VTracer 0.6.12 -->
<svg version="1.1" xmlns="http://www.w3.org/2000/svg" width="149" height="235">
<path d="M0 0 C5.28 0 10.56 0 16 0 C16 1.32 16 2.64 16 4 C17.32 4 18.64 4 20 4 C20 9.61 20 15.22 20 21 C21.65 21 23.3 21 25 21 C25 23.64 25 26.28 25 29 C23.35 29 21.7 29 20 29 C20 34.61 20 40.22 20 46 C21.65 46 23.3 46 25 46 C25 49.96 25 53.92 25 58 C23.35 58 21.7 58 20 58 C20 59.65 20 61.3 20 63 C21.65 63 23.3 63 25 63 C25 69.6 25 76.2 25 83 C26.32 83 27.64 83 29 83 C29 87.29 29 91.58 29 96 C30.32 96 31.64 96 33 96 C33 99.96 33 103.92 33 108 C34.32 108 35.64 108 37 108 C37 110.97 37 113.94 37 117 C38.32 117 39.64 117 41 117 C41 138.78 41 160.56 41 183 C39.68 183 38.36 183 37 183 C37 185.97 37 188.94 37 192 C35.68 192 34.36 192 33 192 C33 194.64 33 197.28 33 200 C31.68 200 30.36 200 29 200 C29 201.32 29 202.64 29 204 C27.68 204 26.36 204 25 204 C25 205.32 25 206.64 25 208 C23.35 208 21.7 208 20 208 C20 209.65 20 211.3 20 213 C9.11 213 -1.78 213 -13 213 C-13 211.35 -13 209.7 -13 208 C-16.96 208 -20.92 208 -25 208 C-25 206.68 -25 205.36 -25 204 C-29.29 204 -33.58 204 -38 204 C-38 202.68 -38 201.36 -38 200 C-39.32 200 -40.64 200 -42 200 C-42 198.68 -42 197.36 -42 196 C-43.32 196 -44.64 196 -46 196 C-46 194.68 -46 193.36 -46 192 C-47.32 192 -48.64 192 -50 192 C-50 190.68 -50 189.36 -50 188 C-51.65 188 -53.3 188 -55 188 C-55 186.35 -55 184.7 -55 183 C-56.32 183 -57.64 183 -59 183 C-59 177.72 -59 172.44 -59 167 C-60.32 167 -61.64 167 -63 167 C-63 164.03 -63 161.06 -63 158 C-61.68 158 -60.36 158 -59 158 C-59 154.04 -59 150.08 -59 146 C-56.03 146 -53.06 146 -50 146 C-50 144.68 -50 143.36 -50 142 C-48.68 142 -47.36 142 -46 142 C-46 140.68 -46 139.36 -46 138 C-43.36 138 -40.72 138 -38 138 C-38 136.35 -38 134.7 -38 133 C-35.36 133 -32.72 133 -30 133 C-30 131.68 -30 130.36 -30 129 C-27.03 129 -24.06 129 -21 129 C-21 127.68 -21 126.36 -21 125 C-18.36 125 -15.72 125 -13 125 C-13 126.32 -13 127.64 -13 129 C-11.68 129 -10.36 129 -9 129 C-9 130.32 -9 131.64 -9 133 C-7.68 133 -6.36 133 -5 133 C-5 137.29 -5 141.58 -5 146 C-6.32 146 -7.64 146 -9 146 C-9 147.32 -9 148.64 -9 150 C-10.32 150 -11.64 150 -13 150 C-13 151.32 -13 152.64 -13 154 C-15.64 154 -18.28 154 -21 154 C-21 155.32 -21 156.64 -21 158 C-22.32 158 -23.64 158 -25 158 C-25 162.29 -25 166.58 -25 171 C-23.68 171 -22.36 171 -21 171 C-21 173.64 -21 176.28 -21 179 C-18.36 179 -15.72 179 -13 179 C-13 180.32 -13 181.64 -13 183 C-7.39 183 -1.78 183 4 183 C4 181.68 4 180.36 4 179 C5.32 179 6.64 179 8 179 C8 176.36 8 173.72 8 171 C9.32 171 10.64 171 12 171 C12 161.43 12 151.86 12 142 C10.68 142 9.36 142 8 142 C8 135.07 8 128.14 8 121 C6.68 121 5.36 121 4 121 C4 116.71 4 112.42 4 108 C2.68 108 1.36 108 0 108 C0 105.36 0 102.72 0 100 C-5.61 100 -11.22 100 -17 100 C-17 101.32 -17 102.64 -17 104 C-19.64 104 -22.28 104 -25 104 C-25 105.32 -25 106.64 -25 108 C-27.97 108 -30.94 108 -34 108 C-34 106.68 -34 105.36 -34 104 C-36.64 104 -39.28 104 -42 104 C-42 105.32 -42 106.64 -42 108 C-44.64 108 -47.28 108 -50 108 C-50 106.68 -50 105.36 -50 104 C-54.29 104 -58.58 104 -63 104 C-63 102.68 -63 101.36 -63 100 C-64.32 100 -65.64 100 -67 100 C-67 98.68 -67 97.36 -67 96 C-69.64 96 -72.28 96 -75 96 C-75 93.36 -75 90.72 -75 88 C-76.65 88 -78.3 88 -80 88 C-80 85.03 -80 82.06 -80 79 C-81.32 79 -82.64 79 -84 79 C-84 75.04 -84 71.08 -84 67 C-85.32 67 -86.64 67 -88 67 C-88 57.43 -88 47.86 -88 38 C-86.68 38 -85.36 38 -84 38 C-84 32.39 -84 26.78 -84 21 C-82.68 21 -81.36 21 -80 21 C-80 18.36 -80 15.72 -80 13 C-78.35 13 -76.7 13 -75 13 C-75 11.35 -75 9.7 -75 8 C-72.36 8 -69.72 8 -67 8 C-67 6.68 -67 5.36 -67 4 C-63.04 4 -59.08 4 -55 4 C-55 5.32 -55 6.64 -55 8 C-53.35 8 -51.7 8 -50 8 C-50 19.22 -50 30.44 -50 42 C-51.65 42 -53.3 42 -55 42 C-55 43.32 -55 44.64 -55 46 C-53.35 46 -51.7 46 -50 46 C-50 48.64 -50 51.28 -50 54 C-51.65 54 -53.3 54 -55 54 C-55 56.97 -55 59.94 -55 63 C-53.35 63 -51.7 63 -50 63 C-50 64.32 -50 65.64 -50 67 C-48.68 67 -47.36 67 -46 67 C-46 68.32 -46 69.64 -46 71 C-44.68 71 -43.36 71 -42 71 C-42 72.32 -42 73.64 -42 75 C-38.04 75 -34.08 75 -30 75 C-30 73.68 -30 72.36 -30 71 C-28.35 71 -26.7 71 -25 71 C-25 69.68 -25 68.36 -25 67 C-23.68 67 -22.36 67 -21 67 C-21 65.68 -21 64.36 -21 63 C-19.68 63 -18.36 63 -17 63 C-17 49.14 -17 35.28 -17 21 C-15.68 21 -14.36 21 -13 21 C-13 16.71 -13 12.42 -13 8 C-11.68 8 -10.36 8 -9 8 C-9 6.68 -9 5.36 -9 4 C-6.03 4 -3.06 4 0 4 C0 2.68 0 1.36 0 0 Z " fill="#000000" transform="translate(98,10)"/>
</svg>
