<?xml version="1.0" encoding="UTF-8"?>
<!-- Generator: visioncortex VTracer 0.6.12 -->
<svg version="1.1" xmlns="http://www.w3.org/2000/svg" width="232" height="130">
<path d="M0 0 C1.32 0 2.64 0 4 0 C4 1.32 4 2.64 4 4 C8.29 4 12.58 4 17 4 C17 5.32 17 6.64 17 8 C18.32 8 19.64 8 21 8 C21 9.65 21 11.3 21 13 C22.32 13 23.64 13 25 13 C25 14.32 25 15.64 25 17 C26.32 17 27.64 17 29 17 C29 18.32 29 19.64 29 21 C33.29 21 37.58 21 42 21 C42 19.68 42 18.36 42 17 C43.32 17 44.64 17 46 17 C46 15.68 46 14.36 46 13 C47.32 13 48.64 13 50 13 C50 11.35 50 9.7 50 8 C52.64 8 55.28 8 58 8 C58 6.68 58 5.36 58 4 C69.22 4 80.44 4 92 4 C92 5.32 92 6.64 92 8 C94.64 8 97.28 8 100 8 C100 9.65 100 11.3 100 13 C101.32 13 102.64 13 104 13 C104 14.32 104 15.64 104 17 C105.32 17 106.64 17 108 17 C108 19.64 108 22.28 108 25 C109.32 25 110.64 25 112 25 C112 27.64 112 30.28 112 33 C113.65 33 115.3 33 117 33 C117 37.29 117 41.58 117 46 C118.32 46 119.64 46 121 46 C121 52.93 121 59.86 121 67 C122.32 67 123.64 67 125 67 C125 69.64 125 72.28 125 75 C126.32 75 127.64 75 129 75 C129 83.25 129 91.5 129 100 C127.68 100 126.36 100 125 100 C125 101.32 125 102.64 125 104 C123.68 104 122.36 104 121 104 C121 105.32 121 106.64 121 108 C119.68 108 118.36 108 117 108 C117 109.65 117 111.3 117 113 C110.07 113 103.14 113 96 113 C96 111.35 96 109.7 96 108 C94.68 108 93.36 108 92 108 C92 104.04 92 100.08 92 96 C90.35 96 88.7 96 87 96 C87 90.39 87 84.78 87 79 C88.65 79 90.3 79 92 79 C92 77.68 92 76.36 92 75 C90.35 75 88.7 75 87 75 C87 66.75 87 58.5 87 50 C85.68 50 84.36 50 83 50 C83 47.36 83 44.72 83 42 C81.68 42 80.36 42 79 42 C79 40.68 79 39.36 79 38 C75.04 38 71.08 38 67 38 C67 39.32 67 40.64 67 42 C65.35 42 63.7 42 62 42 C62 43.32 62 44.64 62 46 C60.68 46 59.36 46 58 46 C58 48.64 58 51.28 58 54 C56.68 54 55.36 54 54 54 C54 62.25 54 70.5 54 79 C52.68 79 51.36 79 50 79 C50 84.61 50 90.22 50 96 C48.68 96 47.36 96 46 96 C46 97.32 46 98.64 46 100 C44.68 100 43.36 100 42 100 C42 101.32 42 102.64 42 104 C39.03 104 36.06 104 33 104 C33 102.68 33 101.36 33 100 C30.36 100 27.72 100 25 100 C25 98.68 25 97.36 25 96 C23.68 96 22.36 96 21 96 C21 94.68 21 93.36 21 92 C19.68 92 18.36 92 17 92 C17 89.03 17 86.06 17 83 C15.35 83 13.7 83 12 83 C12 80.36 12 77.72 12 75 C13.65 75 15.3 75 17 75 C17 73.68 17 72.36 17 71 C15.35 71 13.7 71 12 71 C12 62.75 12 54.5 12 46 C10.68 46 9.36 46 8 46 C8 44.68 8 43.36 8 42 C6.68 42 5.36 42 4 42 C4 40.68 4 39.36 4 38 C-1.61 38 -7.22 38 -13 38 C-13 39.32 -13 40.64 -13 42 C-15.64 42 -18.28 42 -21 42 C-21 44.64 -21 47.28 -21 50 C-22.32 50 -23.64 50 -25 50 C-25 51.32 -25 52.64 -25 54 C-26.32 54 -27.64 54 -29 54 C-29 58.29 -29 62.58 -29 67 C-30.32 67 -31.64 67 -33 67 C-33 73.93 -33 80.86 -33 88 C-34.65 88 -36.3 88 -38 88 C-38 91.96 -38 95.92 -38 100 C-39.32 100 -40.64 100 -42 100 C-42 104.29 -42 108.58 -42 113 C-48.93 113 -55.86 113 -63 113 C-63 111.35 -63 109.7 -63 108 C-65.64 108 -68.28 108 -71 108 C-71 91.5 -71 75 -71 58 C-72.32 58 -73.64 58 -75 58 C-75 51.4 -75 44.8 -75 38 C-76.32 38 -77.64 38 -79 38 C-79 35.03 -79 32.06 -79 29 C-80.32 29 -81.64 29 -83 29 C-83 23.72 -83 18.44 -83 13 C-80.36 13 -77.72 13 -75 13 C-75 11.35 -75 9.7 -75 8 C-73.68 8 -72.36 8 -71 8 C-71 6.68 -71 5.36 -71 4 C-65.39 4 -59.78 4 -54 4 C-54 5.32 -54 6.64 -54 8 C-52.68 8 -51.36 8 -50 8 C-50 10.97 -50 13.94 -50 17 C-46.04 17 -42.08 17 -38 17 C-38 15.68 -38 14.36 -38 13 C-35.03 13 -32.06 13 -29 13 C-29 11.35 -29 9.7 -29 8 C-27.68 8 -26.36 8 -25 8 C-25 6.68 -25 5.36 -25 4 C-16.75 4 -8.5 4 0 4 C0 2.68 0 1.36 0 0 Z M37 75 C37 76.32 37 77.64 37 79 C35.68 79 34.36 79 33 79 C33 81.97 33 84.94 33 88 C34.32 88 35.64 88 37 88 C37 86.35 37 84.7 37 83 C38.65 83 40.3 83 42 83 C42 80.36 42 77.72 42 75 C40.35 75 38.7 75 37 75 Z " fill="#000000" transform="translate(93,6)"/>
</svg>
