<?xml version="1.0" encoding="UTF-8"?>
<!-- Generator: visioncortex VTracer 0.6.12 -->
<svg version="1.1" xmlns="http://www.w3.org/2000/svg" width="164" height="297">
<path d="M0 0 C1.32 0 2.64 0 4 0 C4 1.32 4 2.64 4 4 C6.64 4 9.28 4 12 4 C12 2.68 12 1.36 12 0 C13.32 0 14.64 0 16 0 C16 1.32 16 2.64 16 4 C17.32 4 18.64 4 20 4 C20 5.32 20 6.64 20 8 C21.65 8 23.3 8 25 8 C25 21.86 25 35.72 25 50 C26.32 50 27.64 50 29 50 C29 60.89 29 71.78 29 83 C30.32 83 31.64 83 33 83 C33 92.57 33 102.14 33 112 C34.32 112 35.64 112 37 112 C37 113.32 37 114.64 37 116 C38.32 116 39.64 116 41 116 C41 114.68 41 113.36 41 112 C49.25 112 57.5 112 66 112 C66 110.68 66 109.36 66 108 C68.97 108 71.94 108 75 108 C75 109.32 75 110.64 75 112 C83.25 112 91.5 112 100 112 C100 113.32 100 114.64 100 116 C102.64 116 105.28 116 108 116 C108 117.65 108 119.3 108 121 C110.64 121 113.28 121 116 121 C116 123.64 116 126.28 116 129 C117.32 129 118.64 129 120 129 C120 132.96 120 136.92 120 141 C121.65 141 123.3 141 125 141 C125 143.97 125 146.94 125 150 C126.32 150 127.64 150 129 150 C129 155.28 129 160.56 129 166 C130.32 166 131.64 166 133 166 C133 171.61 133 177.22 133 183 C131.68 183 130.36 183 129 183 C129 188.61 129 194.22 129 200 C127.68 200 126.36 200 125 200 C125 201.32 125 202.64 125 204 C123.35 204 121.7 204 120 204 C120 206.64 120 209.28 120 212 C118.68 212 117.36 212 116 212 C116 213.65 116 215.3 116 217 C113.36 217 110.72 217 108 217 C108 218.32 108 219.64 108 221 C105.36 221 102.72 221 100 221 C100 222.32 100 223.64 100 225 C95.71 225 91.42 225 87 225 C87 226.32 87 227.64 87 229 C77.43 229 67.86 229 58 229 C58 227.68 58 226.36 58 225 C52.39 225 46.78 225 41 225 C41 226.32 41 227.64 41 229 C39.68 229 38.36 229 37 229 C37 230.32 37 231.64 37 233 C35.68 233 34.36 233 33 233 C33 234.32 33 235.64 33 237 C26.07 237 19.14 237 12 237 C12 235.68 12 234.36 12 233 C10.68 233 9.36 233 8 233 C8 231.68 8 230.36 8 229 C6.68 229 5.36 229 4 229 C4 227.68 4 226.36 4 225 C2.68 225 1.36 225 0 225 C0 218.07 0 211.14 0 204 C1.32 204 2.64 204 4 204 C4 201.36 4 198.72 4 196 C2.68 196 1.36 196 0 196 C0 189.07 0 182.14 0 175 C1.32 175 2.64 175 4 175 C4 173.68 4 172.36 4 171 C2.68 171 1.36 171 0 171 C0 159.78 0 148.56 0 137 C1.32 137 2.64 137 4 137 C4 134.36 4 131.72 4 129 C5.32 129 6.64 129 8 129 C8 127.68 8 126.36 8 125 C9.32 125 10.64 125 12 125 C12 123.68 12 122.36 12 121 C8.04 121 4.08 121 0 121 C0 108.46 0 95.92 0 83 C-1.65 83 -3.3 83 -5 83 C-5 76.07 -5 69.14 -5 62 C-6.32 62 -7.64 62 -9 62 C-9 48.47 -9 34.94 -9 21 C-10.32 21 -11.64 21 -13 21 C-13 18.03 -13 15.06 -13 12 C-11.68 12 -10.36 12 -9 12 C-9 9.36 -9 6.72 -9 4 C-6.03 4 -3.06 4 0 4 C0 2.68 0 1.36 0 0 Z M54 125 C54 127.64 54 130.28 54 133 C57.96 133 61.92 133 66 133 C66 131.68 66 130.36 66 129 C67.32 129 68.64 129 70 129 C70 127.68 70 126.36 70 125 C64.72 125 59.44 125 54 125 Z M33 137 C33 139.97 33 142.94 33 146 C35.64 146 38.28 146 41 146 C41 143.03 41 140.06 41 137 C38.36 137 35.72 137 33 137 Z M66 141 C66 142.65 66 144.3 66 146 C63.36 146 60.72 146 58 146 C58 147.32 58 148.64 58 150 C56.68 150 55.36 150 54 150 C54 151.32 54 152.64 54 154 C52.68 154 51.36 154 50 154 C50 155.32 50 156.64 50 158 C48.35 158 46.7 158 45 158 C45 159.32 45 160.64 45 162 C43.68 162 42.36 162 41 162 C41 168.93 41 175.86 41 183 C42.32 183 43.64 183 45 183 C45 184.32 45 185.64 45 187 C46.65 187 48.3 187 50 187 C50 188.65 50 190.3 50 192 C53.96 192 57.92 192 62 192 C62 193.32 62 194.64 62 196 C64.64 196 67.28 196 70 196 C70 194.68 70 193.36 70 192 C75.61 192 81.22 192 87 192 C87 190.35 87 188.7 87 187 C88.32 187 89.64 187 91 187 C91 181.72 91 176.44 91 171 C92.32 171 93.64 171 95 171 C95 166.71 95 162.42 95 158 C93.68 158 92.36 158 91 158 C91 155.36 91 152.72 91 150 C87.04 150 83.08 150 79 150 C79 148.68 79 147.36 79 146 C76.03 146 73.06 146 70 146 C70 144.35 70 142.7 70 141 C68.68 141 67.36 141 66 141 Z M116 166 C116 167.65 116 169.3 116 171 C117.32 171 118.64 171 120 171 C120 169.35 120 167.7 120 166 C118.68 166 117.36 166 116 166 Z M87 208 C87 209.32 87 210.64 87 212 C85.68 212 84.36 212 83 212 C83 213.65 83 215.3 83 217 C84.32 217 85.64 217 87 217 C87 218.32 87 219.64 87 221 C88.32 221 89.64 221 91 221 C91 219.68 91 218.36 91 217 C92.32 217 93.64 217 95 217 C95 215.35 95 213.7 95 212 C93.68 212 92.36 212 91 212 C91 210.68 91 209.36 91 208 C89.68 208 88.36 208 87 208 Z M33 212 C33 213.65 33 215.3 33 217 C35.64 217 38.28 217 41 217 C41 215.35 41 213.7 41 212 C38.36 212 35.72 212 33 212 Z M45 212 C45 213.65 45 215.3 45 217 C46.65 217 48.3 217 50 217 C50 215.35 50 213.7 50 212 C48.35 212 46.7 212 45 212 Z M66 212 C66 213.65 66 215.3 66 217 C64.68 217 63.36 217 62 217 C62 218.32 62 219.64 62 221 C63.32 221 64.64 221 66 221 C66 222.32 66 223.64 66 225 C67.32 225 68.64 225 70 225 C70 220.71 70 216.42 70 212 C68.68 212 67.36 212 66 212 Z M16 221 C16 222.32 16 223.64 16 225 C17.32 225 18.64 225 20 225 C20 223.68 20 222.36 20 221 C18.68 221 17.36 221 16 221 Z " fill="#000000" transform="translate(22,8)"/>
</svg>
