<?xml version="1.0" encoding="UTF-8"?>
<!-- Generator: visioncortex VTracer 0.6.12 -->
<svg version="1.1" xmlns="http://www.w3.org/2000/svg" width="129" height="132">
<path d="M0 0 C8.25 0 16.5 0 25 0 C25 1.65 25 3.3 25 5 C26.32 5 27.64 5 29 5 C29 14.57 29 24.14 29 34 C27.68 34 26.36 34 25 34 C25 44.89 25 55.78 25 67 C23.68 67 22.36 67 21 67 C21 68.32 21 69.64 21 71 C23.64 71 26.28 71 29 71 C29 72.32 29 73.64 29 75 C31.64 75 34.28 75 37 75 C37 76.65 37 78.3 37 80 C38.32 80 39.64 80 41 80 C41 78.35 41 76.7 41 75 C42.65 75 44.3 75 46 75 C46 73.68 46 72.36 46 71 C47.32 71 48.64 71 50 71 C50 69.68 50 68.36 50 67 C51.32 67 52.64 67 54 67 C54 64.36 54 61.72 54 59 C55.32 59 56.64 59 58 59 C58 43.82 58 28.64 58 13 C59.32 13 60.64 13 62 13 C62 11.68 62 10.36 62 9 C63.32 9 64.64 9 66 9 C66 7.68 66 6.36 66 5 C67.65 5 69.3 5 71 5 C71 3.35 71 1.7 71 0 C76.28 0 81.56 0 87 0 C87 1.65 87 3.3 87 5 C89.97 5 92.94 5 96 5 C96 14.57 96 24.14 96 34 C94.68 34 93.36 34 92 34 C92 40.93 92 47.86 92 55 C90.35 55 88.7 55 87 55 C87 58.96 87 62.92 87 67 C85.68 67 84.36 67 83 67 C83 71.29 83 75.58 83 80 C81.68 80 80.36 80 79 80 C79 82.64 79 85.28 79 88 C77.68 88 76.36 88 75 88 C75 89.32 75 90.64 75 92 C73.68 92 72.36 92 71 92 C71 93.32 71 94.64 71 96 C69.35 96 67.7 96 66 96 C66 97.32 66 98.64 66 100 C64.68 100 63.36 100 62 100 C62 101.65 62 103.3 62 105 C60.68 105 59.36 105 58 105 C58 106.32 58 107.64 58 109 C54.04 109 50.08 109 46 109 C46 110.32 46 111.64 46 113 C40.39 113 34.78 113 29 113 C29 111.68 29 110.36 29 109 C24.71 109 20.42 109 16 109 C16 107.68 16 106.36 16 105 C13.36 105 10.72 105 8 105 C8 103.35 8 101.7 8 100 C6.68 100 5.36 100 4 100 C4 98.68 4 97.36 4 96 C2.68 96 1.36 96 0 96 C0 93.36 0 90.72 0 88 C-1.32 88 -2.64 88 -4 88 C-4 86.68 -4 85.36 -4 84 C-5.65 84 -7.3 84 -9 84 C-9 81.03 -9 78.06 -9 75 C-10.32 75 -11.64 75 -13 75 C-13 62.79 -13 50.58 -13 38 C-11.68 38 -10.36 38 -9 38 C-9 28.43 -9 18.86 -9 9 C-7.35 9 -5.7 9 -4 9 C-4 7.68 -4 6.36 -4 5 C-2.68 5 -1.36 5 0 5 C0 3.35 0 1.7 0 0 Z M62 75 C62 76.65 62 78.3 62 80 C64.97 80 67.94 80 71 80 C71 78.35 71 76.7 71 75 C68.03 75 65.06 75 62 75 Z M29 96 C29 97.32 29 98.64 29 100 C30.32 100 31.64 100 33 100 C33 101.65 33 103.3 33 105 C34.32 105 35.64 105 37 105 C37 102.03 37 99.06 37 96 C34.36 96 31.72 96 29 96 Z " fill="#000000" transform="translate(23,9)"/>
</svg>
