<?xml version="1.0" encoding="UTF-8"?>
<!-- Generator: visioncortex VTracer 0.6.12 -->
<svg version="1.1" xmlns="http://www.w3.org/2000/svg" width="75" height="138">
<path d="M0 0 C3.603 1.425 4.211 3.257 5.793 6.664 C7.934 12.404 9.023 17.862 9.32 23.965 C9.362 24.687 9.403 25.41 9.446 26.154 C9.576 28.436 9.694 30.718 9.812 33 C9.899 34.558 9.986 36.116 10.074 37.674 C10.287 41.47 10.49 45.266 10.688 49.062 C11.616 48.258 12.544 47.454 13.5 46.625 C18.095 42.643 22.718 42.596 28.617 42.66 C33.561 43.308 36.267 45.583 39.688 49.062 C40.338 49.724 40.989 50.385 41.66 51.066 C50.564 60.702 49.776 71.485 50 84 C50.03 84.924 50.06 85.849 50.09 86.801 C50.147 93.409 50.147 93.409 47.832 96.699 C45.688 98.062 45.688 98.062 43.062 97.938 C40.687 97.062 40.687 97.062 38.688 95.062 C38.515 92.65 38.459 90.342 38.484 87.93 C38.474 86.469 38.462 85.008 38.449 83.547 C38.439 81.249 38.437 78.953 38.458 76.655 C38.561 61.264 38.561 61.264 33.364 55.415 C30.651 53.227 28.628 52.054 25.109 52.086 C24.228 52.202 23.346 52.318 22.438 52.438 C21.545 52.548 20.653 52.659 19.734 52.773 C19.059 52.869 18.383 52.964 17.688 53.062 C15.903 57.013 15.117 60.822 14.445 65.074 C13.442 67.706 12.181 67.944 9.688 69.062 C9.462 73.166 9.26 77.27 9.062 81.375 C9.03 81.959 9.03 81.959 8.867 84.912 C8.816 86.03 8.764 87.149 8.711 88.301 C8.659 89.332 8.606 90.364 8.552 91.427 C8.688 94.062 8.688 94.062 10.688 97.062 C10.734 100.242 10.734 100.242 10.438 103.938 C10.35 105.152 10.262 106.366 10.172 107.617 C9.563 111.95 8.806 114.944 5.688 118.062 C2.25 118 2.25 118 -1.312 117.062 C-5.108 112.673 -4.714 108.118 -4.637 102.626 C-4.636 101.682 -4.635 100.738 -4.634 99.766 C-4.626 96.65 -4.598 93.534 -4.57 90.418 C-4.562 88.247 -4.556 86.076 -4.55 83.905 C-4.533 78.189 -4.499 72.473 -4.46 66.756 C-4.401 57.618 -4.367 48.479 -4.334 39.341 C-4.321 36.154 -4.299 32.968 -4.276 29.782 C-4.266 27.817 -4.256 25.852 -4.247 23.887 C-4.242 23.448 -4.242 23.448 -4.221 21.222 C-4.207 17.298 -4.327 13.521 -4.871 9.632 C-5.327 5.942 -5.068 4.281 -3.312 1.062 C-2.312 0.062 -2.312 0.062 0 0 Z " fill="#000000" transform="translate(15.3125,9.9375)"/>
</svg>
