<?xml version="1.0" encoding="UTF-8"?>
<!-- Generator: visioncortex VTracer 0.6.12 -->
<svg version="1.1" xmlns="http://www.w3.org/2000/svg" width="76" height="156">
<path d="M0 0 C2.5 1.062 2.5 1.062 4.25 3.562 C7.348 12.236 6.736 21.898 6.75 31 C6.752 31.714 6.755 32.427 6.757 33.163 C6.771 45.006 5.996 56.661 4.781 68.436 C3.602 79.896 3.259 91.076 3.787 102.603 C4.103 113.604 -0.141 121.973 -7.5 130.062 C-12.99 134.409 -17.755 136.334 -24.75 136 C-31.81 135.137 -37.691 133.09 -42.609 127.789 C-49.875 118.031 -50.164 109.967 -48.5 98.062 C-46.361 88.491 -41.721 82.315 -33.5 77.062 C-26.829 73.48 -20.043 72.144 -12.688 74.051 C-11.636 74.385 -10.584 74.719 -9.5 75.062 C-9.187 72.583 -8.874 70.104 -8.562 67.625 C-8.475 66.937 -8.388 66.25 -8.299 65.541 C-8.125 64.153 -7.953 62.765 -7.784 61.376 C-7.607 59.935 -7.425 58.494 -7.236 57.055 C-6.491 51.03 -6.335 45.074 -6.289 39.008 C-6.261 36.909 -6.232 34.81 -6.203 32.711 C-6.162 29.432 -6.125 26.154 -6.099 22.875 C-6.071 19.69 -6.025 16.505 -5.977 13.32 C-5.973 12.336 -5.97 11.352 -5.967 10.337 C-5.95 9.426 -5.934 8.514 -5.917 7.575 C-5.908 6.774 -5.9 5.972 -5.892 5.147 C-5.219 1.566 -3.613 0.09 0 0 Z M-34.938 91.688 C-39.005 97.87 -38.464 106.893 -37.5 114.062 C-35.647 119.071 -33.276 122.118 -28.562 124.625 C-19.964 125.853 -19.964 125.853 -15.375 123.375 C-14.426 122.612 -13.477 121.849 -12.5 121.062 C-11.605 120.356 -10.711 119.65 -9.789 118.922 C-7.5 116.062 -7.5 116.062 -7.344 112.277 C-7.532 110.847 -7.752 109.421 -8 108 C-8.11 107.253 -8.22 106.506 -8.334 105.736 C-10.846 89.544 -10.846 89.544 -14.5 84.062 C-23.031 82.16 -29.266 85.579 -34.938 91.688 Z " fill="#000000" transform="translate(59.5,9.9375)"/>
</svg>
