<?xml version="1.0" encoding="UTF-8"?>
<!-- Generator: visioncortex VTracer 0.6.12 -->
<svg version="1.1" xmlns="http://www.w3.org/2000/svg" width="145" height="158">
<path d="M0 0 C12.21 0 24.42 0 37 0 C37 1.32 37 2.64 37 4 C38.65 4 40.3 4 42 4 C42 5.32 42 6.64 42 8 C43.32 8 44.64 8 46 8 C46 10.97 46 13.94 46 17 C47.32 17 48.64 17 50 17 C50 23.6 50 30.2 50 37 C47.36 37 44.72 37 42 37 C42 39.97 42 42.94 42 46 C44.64 46 47.28 46 50 46 C50 48.64 50 51.28 50 54 C48.68 54 47.36 54 46 54 C46 58.29 46 62.58 46 67 C44.68 67 43.36 67 42 67 C42 68.32 42 69.64 42 71 C40.35 71 38.7 71 37 71 C37 72.32 37 73.64 37 75 C35.68 75 34.36 75 33 75 C33 76.32 33 77.64 33 79 C31.68 79 30.36 79 29 79 C29 80.32 29 81.64 29 83 C27.68 83 26.36 83 25 83 C25 84.65 25 86.3 25 88 C22.36 88 19.72 88 17 88 C17 89.32 17 90.64 17 92 C12.71 92 8.42 92 4 92 C4 94.64 4 97.28 4 100 C5.32 100 6.64 100 8 100 C8 101.32 8 102.64 8 104 C10.97 104 13.94 104 17 104 C17 105.32 17 106.64 17 108 C26.57 108 36.14 108 46 108 C46 106.68 46 105.36 46 104 C47.32 104 48.64 104 50 104 C50 105.32 50 106.64 50 108 C53.96 108 57.92 108 62 108 C62 106.68 62 105.36 62 104 C60.68 104 59.36 104 58 104 C58 102.68 58 101.36 58 100 C59.32 100 60.64 100 62 100 C62 98.68 62 97.36 62 96 C63.65 96 65.3 96 67 96 C67 97.32 67 98.64 67 100 C70.96 100 74.92 100 79 100 C79 101.32 79 102.64 79 104 C80.32 104 81.64 104 83 104 C83 106.97 83 109.94 83 113 C81.68 113 80.36 113 79 113 C79 114.32 79 115.64 79 117 C77.68 117 76.36 117 75 117 C75 119.64 75 122.28 75 125 C72.36 125 69.72 125 67 125 C67 126.32 67 127.64 67 129 C64.03 129 61.06 129 58 129 C58 130.32 58 131.64 58 133 C56.68 133 55.36 133 54 133 C54 134.65 54 136.3 54 138 C50.04 138 46.08 138 42 138 C42 139.32 42 140.64 42 142 C40.35 142 38.7 142 37 142 C37 140.68 37 139.36 37 138 C28.75 138 20.5 138 12 138 C12 136.35 12 134.7 12 133 C8.04 133 4.08 133 0 133 C0 131.68 0 130.36 0 129 C-1.32 129 -2.64 129 -4 129 C-4 127.68 -4 126.36 -4 125 C-6.97 125 -9.94 125 -13 125 C-13 123.68 -13 122.36 -13 121 C-14.32 121 -15.64 121 -17 121 C-17 119.68 -17 118.36 -17 117 C-19.64 117 -22.28 117 -25 117 C-25 115.68 -25 114.36 -25 113 C-26.32 113 -27.64 113 -29 113 C-29 111.35 -29 109.7 -29 108 C-30.32 108 -31.64 108 -33 108 C-33 105.36 -33 102.72 -33 100 C-34.65 100 -36.3 100 -38 100 C-38 94.39 -38 88.78 -38 83 C-39.32 83 -40.64 83 -42 83 C-42 72.11 -42 61.22 -42 50 C-40.68 50 -39.36 50 -38 50 C-38 44.39 -38 38.78 -38 33 C-36.35 33 -34.7 33 -33 33 C-33 30.36 -33 27.72 -33 25 C-31.68 25 -30.36 25 -29 25 C-29 22.36 -29 19.72 -29 17 C-27.68 17 -26.36 17 -25 17 C-25 15.35 -25 13.7 -25 12 C-22.36 12 -19.72 12 -17 12 C-17 10.68 -17 9.36 -17 8 C-15.68 8 -14.36 8 -13 8 C-13 6.68 -13 5.36 -13 4 C-8.71 4 -4.42 4 0 4 C0 2.68 0 1.36 0 0 Z M-17 21 C-17 23.64 -17 26.28 -17 29 C-12.71 29 -8.42 29 -4 29 C-4 26.36 -4 23.72 -4 21 C-8.29 21 -12.58 21 -17 21 Z M21 21 C21 22.32 21 23.64 21 25 C23.64 25 26.28 25 29 25 C29 23.68 29 22.36 29 21 C26.36 21 23.72 21 21 21 Z M33 25 C33 27.64 33 30.28 33 33 C35.97 33 38.94 33 42 33 C42 30.36 42 27.72 42 25 C39.03 25 36.06 25 33 25 Z M4 33 C4 34.32 4 35.64 4 37 C2.68 37 1.36 37 0 37 C0 38.65 0 40.3 0 42 C-1.32 42 -2.64 42 -4 42 C-4 45.96 -4 49.92 -4 54 C-8.29 54 -12.58 54 -17 54 C-17 52.68 -17 51.36 -17 50 C-18.32 50 -19.64 50 -21 50 C-21 51.32 -21 52.64 -21 54 C-22.32 54 -23.64 54 -25 54 C-25 55.32 -25 56.64 -25 58 C-22.36 58 -19.72 58 -17 58 C-17 59.65 -17 61.3 -17 63 C-10.07 63 -3.14 63 4 63 C4 61.35 4 59.7 4 58 C6.64 58 9.28 58 12 58 C12 56.68 12 55.36 12 54 C13.65 54 15.3 54 17 54 C17 52.68 17 51.36 17 50 C18.32 50 19.64 50 21 50 C21 47.36 21 44.72 21 42 C22.32 42 23.64 42 25 42 C25 39.03 25 36.06 25 33 C18.07 33 11.14 33 4 33 Z " fill="#000000" transform="translate(52,9)"/>
</svg>
