<?xml version="1.0" encoding="UTF-8"?>
<!-- Generator: visioncortex VTracer 0.6.12 -->
<svg version="1.1" xmlns="http://www.w3.org/2000/svg" width="88" height="107">
<path d="M0 0 C2.9 3.91 3.32 6.556 3.125 11.375 C2.957 16.062 3.238 20.367 4 25 C15.136 16.36 15.136 16.36 17.375 12.438 C17.911 11.633 18.447 10.829 19 10 C21.688 9.562 21.688 9.562 24 10 C25 11 25 11 25.062 14 C24.243 19.472 19.965 23.425 16 27 C15.34 27 14.68 27 14 27 C13.752 27.606 13.505 28.212 13.25 28.836 C11.791 31.362 10.479 32.139 8 33.625 C4.236 36.365 4.236 36.365 3.277 38.941 C3.035 40.543 2.815 42.147 2.609 43.754 C1.77 48.227 0.255 52.36 -1.312 56.625 C-1.455 57.025 -1.455 57.025 -2.174 59.048 C-5.548 68.156 -9.679 75.412 -18.312 80.312 C-24.974 82.017 -30.285 81.466 -36.273 78.078 C-41.789 74.634 -41.789 74.634 -43 71 C-43.874 63.636 -43.564 58.052 -38.949 52.082 C-30.433 42.985 -19.126 36.413 -8 31 C-8 29.68 -8 28.36 -8 27 C-8.522 27.289 -9.044 27.578 -9.582 27.875 C-15.747 30.985 -21.126 32.017 -28 31 C-33.901 28.439 -37.001 23.503 -40 18 C-41.312 14.375 -41.312 14.375 -42 11 C-42.371 9.845 -42.742 8.69 -43.125 7.5 C-43 4 -43 4 -41.453 2.074 C-30.472 -7.896 -11.887 -9.675 0 0 Z M-32 7 C-33.169 9.662 -33.299 12.117 -33 15 C-31.283 18.196 -29.551 20.449 -27 23 C-21.382 24.259 -17.275 22.918 -12.438 20 C-10.946 19.019 -9.462 18.025 -8 17 C-8.496 12.044 -9.442 8.297 -12 4 C-14.797 2.601 -17.193 2.755 -20.312 2.688 C-20.878 2.669 -20.878 2.669 -23.738 2.574 C-27.68 3.089 -29.258 4.164 -32 7 Z M-28.75 55.25 C-31.044 57.664 -32.74 59.903 -34 63 C-33.812 65.625 -33.812 65.625 -33 68 C-29.849 70.101 -27.828 70.628 -24.051 70.477 C-20.807 69.723 -19.413 68.156 -17.449 65.535 C-13.546 58.706 -10.267 50.781 -9 43 C-15.004 43 -24.739 51.306 -28.75 55.25 Z " fill="#000000" transform="translate(53,16)"/>
</svg>
