<?xml version="1.0" encoding="UTF-8"?>
<!-- Generator: visioncortex VTracer 0.6.12 -->
<svg version="1.1" xmlns="http://www.w3.org/2000/svg" width="96" height="68">
<path d="M0 0 C2.562 1.375 2.562 1.375 4 3 C4 3.66 4 4.32 4 5 C4.557 4.639 5.114 4.278 5.688 3.906 C10.708 0.853 15.034 -1.445 21 0 C27.713 2.41 33.86 5.17 37.238 11.727 C39.403 18.186 39.684 25.406 38 32 C35 34 35 34 32.375 33.688 C30 33 30 33 29 32 C28.653 28.695 28.328 25.394 28.102 22.078 C27.702 18.055 27.243 16.307 24.652 13.035 C20.939 10.186 17.577 10 13 10 C11.093 13.942 10.642 17.512 10.344 21.816 C9.968 24.201 9.177 25.906 8 28 C5.125 28.125 5.125 28.125 2 28 C-0.791 25.209 -0.551 22.945 -1 19.062 C-1.78 12.33 -1.78 12.33 -4 9 C-9.118 9.512 -13.817 10.967 -18 14 C-22.138 19.095 -22.352 25.791 -23.285 32.076 C-24.299 38.119 -25.836 43.336 -30 48 C-32.688 48.625 -32.688 48.625 -35 48 C-35.66 47.34 -36.32 46.68 -37 46 C-36.812 43.938 -36.812 43.938 -36 42 C-35.505 41.835 -35.505 41.835 -33 41 C-32.91 40.29 -32.82 39.58 -32.728 38.848 C-32.301 35.582 -31.838 32.323 -31.375 29.062 C-31.234 27.946 -31.094 26.829 -30.949 25.678 C-29.778 17.687 -27.819 10.928 -21.347 5.652 C-14.758 1.483 -7.793 -1.257 0 0 Z " fill="#000000" transform="translate(47,10)"/>
</svg>
