<?xml version="1.0" encoding="UTF-8"?>
<!-- Generator: visioncortex VTracer 0.6.12 -->
<svg version="1.1" xmlns="http://www.w3.org/2000/svg" width="145" height="280">
<path d="M0 0 C12.21 0 24.42 0 37 0 C37 1.32 37 2.64 37 4 C39.64 4 42.28 4 45 4 C45 5.32 45 6.64 45 8 C49.29 8 53.58 8 58 8 C58 9.32 58 10.64 58 12 C60.64 12 63.28 12 66 12 C66 21.57 66 31.14 66 41 C67.32 41 68.64 41 70 41 C70 49.25 70 57.5 70 66 C71.65 66 73.3 66 75 66 C75 72.93 75 79.86 75 87 C76.32 87 77.64 87 79 87 C79 99.54 79 112.08 79 125 C80.32 125 81.64 125 83 125 C83 137.21 83 149.42 83 162 C81.68 162 80.36 162 79 162 C79 168.93 79 175.86 79 183 C77.68 183 76.36 183 75 183 C75 184.32 75 185.64 75 187 C73.35 187 71.7 187 70 187 C70 189.97 70 192.94 70 196 C68.68 196 67.36 196 66 196 C66 197.32 66 198.64 66 200 C64.68 200 63.36 200 62 200 C62 202.64 62 205.28 62 208 C60.68 208 59.36 208 58 208 C58 209.32 58 210.64 58 212 C55.36 212 52.72 212 50 212 C50 213.32 50 214.64 50 216 C48.35 216 46.7 216 45 216 C45 217.65 45 219.3 45 221 C41.04 221 37.08 221 33 221 C33 222.32 33 223.64 33 225 C23.43 225 13.86 225 4 225 C4 223.68 4 222.36 4 221 C-0.29 221 -4.58 221 -9 221 C-9 219.35 -9 217.7 -9 216 C-11.64 216 -14.28 216 -17 216 C-17 214.68 -17 213.36 -17 212 C-18.32 212 -19.64 212 -21 212 C-21 210.68 -21 209.36 -21 208 C-22.32 208 -23.64 208 -25 208 C-25 204.04 -25 200.08 -25 196 C-26.65 196 -28.3 196 -30 196 C-30 184.78 -30 173.56 -30 162 C-28.35 162 -26.7 162 -25 162 C-25 159.36 -25 156.72 -25 154 C-23.68 154 -22.36 154 -21 154 C-21 152.68 -21 151.36 -21 150 C-18.36 150 -15.72 150 -13 150 C-13 148.68 -13 147.36 -13 146 C-7.39 146 -1.78 146 4 146 C4 144.35 4 142.7 4 141 C9.28 141 14.56 141 20 141 C20 142.65 20 144.3 20 146 C22.97 146 25.94 146 29 146 C29 149.96 29 153.92 29 158 C27.68 158 26.36 158 25 158 C25 159.32 25 160.64 25 162 C23.35 162 21.7 162 20 162 C20 163.32 20 164.64 20 166 C17.36 166 14.72 166 12 166 C12 167.65 12 169.3 12 171 C9.36 171 6.72 171 4 171 C4 172.32 4 173.64 4 175 C2.68 175 1.36 175 0 175 C0 178.96 0 182.92 0 187 C1.32 187 2.64 187 4 187 C4 188.32 4 189.64 4 191 C13.57 191 23.14 191 33 191 C33 189.68 33 188.36 33 187 C34.32 187 35.64 187 37 187 C37 185.68 37 184.36 37 183 C39.64 183 42.28 183 45 183 C45 180.36 45 177.72 45 175 C46.65 175 48.3 175 50 175 C50 155.53 50 136.06 50 116 C48.35 116 46.7 116 45 116 C45 112.04 45 108.08 45 104 C42.36 104 39.72 104 37 104 C37 105.32 37 106.64 37 108 C27.43 108 17.86 108 8 108 C8 106.68 8 105.36 8 104 C3.71 104 -0.58 104 -5 104 C-5 102.68 -5 101.36 -5 100 C-7.64 100 -10.28 100 -13 100 C-13 98.68 -13 97.36 -13 96 C-15.64 96 -18.28 96 -21 96 C-21 93.03 -21 90.06 -21 87 C-22.32 87 -23.64 87 -25 87 C-25 85.68 -25 84.36 -25 83 C-26.65 83 -28.3 83 -30 83 C-30 81.68 -30 80.36 -30 79 C-31.32 79 -32.64 79 -34 79 C-34 77.68 -34 76.36 -34 75 C-35.32 75 -36.64 75 -38 75 C-38 72.03 -38 69.06 -38 66 C-39.32 66 -40.64 66 -42 66 C-42 60.72 -42 55.44 -42 50 C-40.68 50 -39.36 50 -38 50 C-38 43.07 -38 36.14 -38 29 C-36.68 29 -35.36 29 -34 29 C-34 27.68 -34 26.36 -34 25 C-32.68 25 -31.36 25 -30 25 C-30 22.03 -30 19.06 -30 16 C-28.35 16 -26.7 16 -25 16 C-25 13.36 -25 10.72 -25 8 C-22.36 8 -19.72 8 -17 8 C-17 6.68 -17 5.36 -17 4 C-11.39 4 -5.78 4 0 4 C0 2.68 0 1.36 0 0 Z M4 33 C4 34.32 4 35.64 4 37 C2.68 37 1.36 37 0 37 C0 38.32 0 39.64 0 41 C-1.65 41 -3.3 41 -5 41 C-5 42.65 -5 44.3 -5 46 C-6.32 46 -7.64 46 -9 46 C-9 51.28 -9 56.56 -9 62 C-7.68 62 -6.36 62 -5 62 C-5 63.32 -5 64.64 -5 66 C-3.35 66 -1.7 66 0 66 C0 67.65 0 69.3 0 71 C1.32 71 2.64 71 4 71 C4 72.32 4 73.64 4 75 C12.25 75 20.5 75 29 75 C29 73.68 29 72.36 29 71 C30.32 71 31.64 71 33 71 C33 69.35 33 67.7 33 66 C34.32 66 35.64 66 37 66 C37 59.4 37 52.8 37 46 C35.68 46 34.36 46 33 46 C33 43.03 33 40.06 33 37 C30.36 37 27.72 37 25 37 C25 35.68 25 34.36 25 33 C18.07 33 11.14 33 4 33 Z M33 75 C33 76.32 33 77.64 33 79 C34.32 79 35.64 79 37 79 C37 77.68 37 76.36 37 75 C35.68 75 34.36 75 33 75 Z M-21 179 C-21 180.32 -21 181.64 -21 183 C-22.32 183 -23.64 183 -25 183 C-25 184.32 -25 185.64 -25 187 C-23.68 187 -22.36 187 -21 187 C-21 188.32 -21 189.64 -21 191 C-19.68 191 -18.36 191 -17 191 C-17 187.04 -17 183.08 -17 179 C-18.32 179 -19.64 179 -21 179 Z " fill="#000000" transform="translate(52,46)"/>
</svg>
