<?xml version="1.0" encoding="UTF-8"?>
<!-- Generator: visioncortex VTracer 0.6.12 -->
<svg version="1.1" xmlns="http://www.w3.org/2000/svg" width="128" height="139">
<path d="M0 0 C8.25 0 16.5 0 25 0 C25 8.25 25 16.5 25 25 C23.68 25 22.36 25 21 25 C21 27.64 21 30.28 21 33 C18.36 33 15.72 33 13 33 C13 35.64 13 38.28 13 41 C11.35 41 9.7 41 8 41 C8 42.32 8 43.64 8 45 C6.68 45 5.36 45 4 45 C4 49.29 4 53.58 4 58 C2.68 58 1.36 58 0 58 C0 59.32 0 60.64 0 62 C-1.32 62 -2.64 62 -4 62 C-4 64.64 -4 67.28 -4 70 C-5.32 70 -6.64 70 -8 70 C-8 72.97 -8 75.94 -8 79 C-9.32 79 -10.64 79 -12 79 C-12 81.64 -12 84.28 -12 87 C-13.65 87 -15.3 87 -17 87 C-17 91.29 -17 95.58 -17 100 C-18.32 100 -19.64 100 -21 100 C-21 103.96 -21 107.92 -21 112 C-22.32 112 -23.64 112 -25 112 C-25 113.32 -25 114.64 -25 116 C-30.61 116 -36.22 116 -42 116 C-42 114.68 -42 113.36 -42 112 C-43.32 112 -44.64 112 -46 112 C-46 110.68 -46 109.36 -46 108 C-47.32 108 -48.64 108 -50 108 C-50 106.68 -50 105.36 -50 104 C-51.32 104 -52.64 104 -54 104 C-54 101.03 -54 98.06 -54 95 C-55.32 95 -56.64 95 -58 95 C-58 91.04 -58 87.08 -58 83 C-59.32 83 -60.64 83 -62 83 C-62 80.36 -62 77.72 -62 75 C-63.65 75 -65.3 75 -67 75 C-67 72.03 -67 69.06 -67 66 C-68.32 66 -69.64 66 -71 66 C-71 60.72 -71 55.44 -71 50 C-72.32 50 -73.64 50 -75 50 C-75 47.03 -75 44.06 -75 41 C-76.32 41 -77.64 41 -79 41 C-79 38.36 -79 35.72 -79 33 C-80.32 33 -81.64 33 -83 33 C-83 26.07 -83 19.14 -83 12 C-81.68 12 -80.36 12 -79 12 C-79 10.68 -79 9.36 -79 8 C-76.36 8 -73.72 8 -71 8 C-71 6.68 -71 5.36 -71 4 C-68.03 4 -65.06 4 -62 4 C-62 5.32 -62 6.64 -62 8 C-59.36 8 -56.72 8 -54 8 C-54 10.64 -54 13.28 -54 16 C-52.68 16 -51.36 16 -50 16 C-50 17.32 -50 18.64 -50 20 C-48.68 20 -47.36 20 -46 20 C-46 24.29 -46 28.58 -46 33 C-44.68 33 -43.36 33 -42 33 C-42 35.64 -42 38.28 -42 41 C-40.35 41 -38.7 41 -37 41 C-37 43.97 -37 46.94 -37 50 C-35.68 50 -34.36 50 -33 50 C-33 47.03 -33 44.06 -33 41 C-31.68 41 -30.36 41 -29 41 C-29 39.68 -29 38.36 -29 37 C-27.68 37 -26.36 37 -25 37 C-25 34.36 -25 31.72 -25 29 C-23.68 29 -22.36 29 -21 29 C-21 26.03 -21 23.06 -21 20 C-19.68 20 -18.36 20 -17 20 C-17 18.68 -17 17.36 -17 16 C-15.35 16 -13.7 16 -12 16 C-12 13.36 -12 10.72 -12 8 C-10.68 8 -9.36 8 -8 8 C-8 6.68 -8 5.36 -8 4 C-5.36 4 -2.72 4 0 4 C0 2.68 0 1.36 0 0 Z " fill="#000000" transform="translate(93,13)"/>
</svg>
