<?xml version="1.0" encoding="UTF-8"?>
<!-- Generator: visioncortex VTracer 0.6.12 -->
<svg version="1.1" xmlns="http://www.w3.org/2000/svg" width="63" height="260">
<path d="M0 0 C8.25 0 16.5 0 25 0 C25 41.25 25 82.5 25 125 C26.32 125 27.64 125 29 125 C29 130.61 29 136.22 29 142 C27.68 142 26.36 142 25 142 C25 143.32 25 144.64 25 146 C26.32 146 27.64 146 29 146 C29 154.25 29 162.5 29 171 C27.68 171 26.36 171 25 171 C25 172.32 25 173.64 25 175 C26.32 175 27.64 175 29 175 C29 184.9 29 194.8 29 205 C30.65 205 32.3 205 34 205 C34 210.28 34 215.56 34 221 C32.35 221 30.7 221 29 221 C29 223.97 29 226.94 29 230 C27.68 230 26.36 230 25 230 C25 231.32 25 232.64 25 234 C23.68 234 22.36 234 21 234 C21 235.32 21 236.64 21 238 C18.36 238 15.72 238 13 238 C13 236.68 13 235.36 13 234 C8.71 234 4.42 234 0 234 C0 232.68 0 231.36 0 230 C-1.32 230 -2.64 230 -4 230 C-4 221.75 -4 213.5 -4 205 C-5.32 205 -6.64 205 -8 205 C-8 200.71 -8 196.42 -8 192 C-6.68 192 -5.36 192 -4 192 C-4 176.82 -4 161.64 -4 146 C-5.32 146 -6.64 146 -8 146 C-8 104.75 -8 63.5 -8 21 C-6.68 21 -5.36 21 -4 21 C-4 15.39 -4 9.78 -4 4 C-2.68 4 -1.36 4 0 4 C0 2.68 0 1.36 0 0 Z M13 209 C13 211.64 13 214.28 13 217 C14.32 217 15.64 217 17 217 C17 214.36 17 211.72 17 209 C15.68 209 14.36 209 13 209 Z " fill="#000000" transform="translate(19,12)"/>
</svg>
