<?xml version="1.0" encoding="UTF-8"?>
<!-- Generator: visioncortex VTracer 0.6.12 -->
<svg version="1.1" xmlns="http://www.w3.org/2000/svg" width="136" height="177">
<path d="M0 0 C2.64 0 5.28 0 8 0 C8 1.32 8 2.64 8 4 C12.29 4 16.58 4 21 4 C21 5.32 21 6.64 21 8 C22.32 8 23.64 8 25 8 C25 13.61 25 19.22 25 25 C23.68 25 22.36 25 21 25 C21 27.64 21 30.28 21 33 C19.35 33 17.7 33 16 33 C16 34.65 16 36.3 16 38 C14.68 38 13.36 38 12 38 C12 39.32 12 40.64 12 42 C16.29 42 20.58 42 25 42 C25 43.32 25 44.64 25 46 C27.64 46 30.28 46 33 46 C33 47.32 33 48.64 33 50 C34.32 50 35.64 50 37 50 C37 52.64 37 55.28 37 58 C38.32 58 39.64 58 41 58 C41 60.97 41 63.94 41 67 C42.65 67 44.3 67 46 67 C46 73.93 46 80.86 46 88 C44.35 88 42.7 88 41 88 C41 90.64 41 93.28 41 96 C39.68 96 38.36 96 37 96 C37 99.96 37 103.92 37 108 C34.36 108 31.72 108 29 108 C29 109.65 29 111.3 29 113 C26.36 113 23.72 113 21 113 C21 114.32 21 115.64 21 117 C14.07 117 7.14 117 0 117 C0 115.68 0 114.36 0 113 C1.32 113 2.64 113 4 113 C4 111.35 4 109.7 4 108 C2.68 108 1.36 108 0 108 C0 106.68 0 105.36 0 104 C-1.32 104 -2.64 104 -4 104 C-4 105.32 -4 106.64 -4 108 C-5.65 108 -7.3 108 -9 108 C-9 109.65 -9 111.3 -9 113 C-7.35 113 -5.7 113 -4 113 C-4 114.32 -4 115.64 -4 117 C-13.9 117 -23.8 117 -34 117 C-34 115.68 -34 114.36 -34 113 C-39.28 113 -44.56 113 -50 113 C-50 111.35 -50 109.7 -50 108 C-51.32 108 -52.64 108 -54 108 C-54 105.36 -54 102.72 -54 100 C-55.65 100 -57.3 100 -59 100 C-59 93.07 -59 86.14 -59 79 C-56.03 79 -53.06 79 -50 79 C-50 77.68 -50 76.36 -50 75 C-44.72 75 -39.44 75 -34 75 C-34 76.32 -34 77.64 -34 79 C-32.35 79 -30.7 79 -29 79 C-29 80.32 -29 81.64 -29 83 C-26.36 83 -23.72 83 -21 83 C-21 84.65 -21 86.3 -21 88 C-14.07 88 -7.14 88 0 88 C0 86.35 0 84.7 0 83 C2.64 83 5.28 83 8 83 C8 79.04 8 75.08 8 71 C-4.21 71 -16.42 71 -29 71 C-29 69.68 -29 68.36 -29 67 C-33.29 67 -37.58 67 -42 67 C-42 65.68 -42 64.36 -42 63 C-44.64 63 -47.28 63 -50 63 C-50 61.35 -50 59.7 -50 58 C-52.97 58 -55.94 58 -59 58 C-59 56.68 -59 55.36 -59 54 C-60.32 54 -61.64 54 -63 54 C-63 51.36 -63 48.72 -63 46 C-64.32 46 -65.64 46 -67 46 C-67 43.36 -67 40.72 -67 38 C-65.68 38 -64.36 38 -63 38 C-63 33.71 -63 29.42 -63 25 C-61.68 25 -60.36 25 -59 25 C-59 23.68 -59 22.36 -59 21 C-57.35 21 -55.7 21 -54 21 C-54 19.68 -54 18.36 -54 17 C-52.68 17 -51.36 17 -50 17 C-50 15.68 -50 14.36 -50 13 C-47.36 13 -44.72 13 -42 13 C-42 11.35 -42 9.7 -42 8 C-36.39 8 -30.78 8 -25 8 C-25 6.68 -25 5.36 -25 4 C-16.75 4 -8.5 4 0 4 C0 2.68 0 1.36 0 0 Z M-38 25 C-38 27.64 -38 30.28 -38 33 C-35.03 33 -32.06 33 -29 33 C-29 30.36 -29 27.72 -29 25 C-31.97 25 -34.94 25 -38 25 Z M-9 33 C-9 34.65 -9 36.3 -9 38 C-7.35 38 -5.7 38 -4 38 C-4 36.35 -4 34.7 -4 33 C-5.65 33 -7.3 33 -9 33 Z " fill="#000000" transform="translate(80,50)"/>
</svg>
