<?xml version="1.0" encoding="UTF-8"?>
<!-- Generator: visioncortex VTracer 0.6.12 -->
<svg version="1.1" xmlns="http://www.w3.org/2000/svg" width="162" height="173">
<path d="M0 0 C2.64 0 5.28 0 8 0 C8 1.65 8 3.3 8 5 C9.32 5 10.64 5 12 5 C12 10.28 12 15.56 12 21 C10.68 21 9.36 21 8 21 C8 26.61 8 32.22 8 38 C5.36 38 2.72 38 0 38 C0 39.32 0 40.64 0 42 C-1.32 42 -2.64 42 -4 42 C-4 44.64 -4 47.28 -4 50 C-5.65 50 -7.3 50 -9 50 C-9 52.97 -9 55.94 -9 59 C-10.32 59 -11.64 59 -13 59 C-13 61.64 -13 64.28 -13 67 C-14.32 67 -15.64 67 -17 67 C-17 68.32 -17 69.64 -17 71 C-18.32 71 -19.64 71 -21 71 C-21 73.97 -21 76.94 -21 80 C-23.64 80 -26.28 80 -29 80 C-29 82.64 -29 85.28 -29 88 C-27.68 88 -26.36 88 -25 88 C-25 89.32 -25 90.64 -25 92 C-22.36 92 -19.72 92 -17 92 C-17 93.32 -17 94.64 -17 96 C-15.68 96 -14.36 96 -13 96 C-13 97.32 -13 98.64 -13 100 C-11.68 100 -10.36 100 -9 100 C-9 101.65 -9 103.3 -9 105 C-4.71 105 -0.42 105 4 105 C4 103.35 4 101.7 4 100 C5.32 100 6.64 100 8 100 C8 98.68 8 97.36 8 96 C9.32 96 10.64 96 12 96 C12 93.36 12 90.72 12 88 C14.97 88 17.94 88 21 88 C21 86.68 21 85.36 21 84 C23.64 84 26.28 84 29 84 C29 85.32 29 86.64 29 88 C31.64 88 34.28 88 37 88 C37 90.64 37 93.28 37 96 C38.65 96 40.3 96 42 96 C42 97.32 42 98.64 42 100 C40.35 100 38.7 100 37 100 C37 105.61 37 111.22 37 117 C35.68 117 34.36 117 33 117 C33 118.32 33 119.64 33 121 C31.68 121 30.36 121 29 121 C29 122.32 29 123.64 29 125 C27.68 125 26.36 125 25 125 C25 126.65 25 128.3 25 130 C22.36 130 19.72 130 17 130 C17 131.32 17 132.64 17 134 C15.35 134 13.7 134 12 134 C12 135.32 12 136.64 12 138 C6.72 138 1.44 138 -4 138 C-4 139.32 -4 140.64 -4 142 C-5.65 142 -7.3 142 -9 142 C-9 140.68 -9 139.36 -9 138 C-12.96 138 -16.92 138 -21 138 C-21 136.68 -21 135.36 -21 134 C-23.64 134 -26.28 134 -29 134 C-29 132.68 -29 131.36 -29 130 C-30.65 130 -32.3 130 -34 130 C-34 127.03 -34 124.06 -34 121 C-36.64 121 -39.28 121 -42 121 C-42 119.68 -42 118.36 -42 117 C-48.93 117 -55.86 117 -63 117 C-63 118.32 -63 119.64 -63 121 C-66.96 121 -70.92 121 -75 121 C-75 122.32 -75 123.64 -75 125 C-79.29 125 -83.58 125 -88 125 C-88 123.68 -88 122.36 -88 121 C-90.64 121 -93.28 121 -96 121 C-96 115.72 -96 110.44 -96 105 C-94.68 105 -93.36 105 -92 105 C-92 102.03 -92 99.06 -92 96 C-90.68 96 -89.36 96 -88 96 C-88 94.68 -88 93.36 -88 92 C-86.68 92 -85.36 92 -84 92 C-84 90.68 -84 89.36 -84 88 C-81.03 88 -78.06 88 -75 88 C-75 86.68 -75 85.36 -75 84 C-73.68 84 -72.36 84 -71 84 C-71 82.68 -71 81.36 -71 80 C-69.68 80 -68.36 80 -67 80 C-67 78.35 -67 76.7 -67 75 C-64.36 75 -61.72 75 -59 75 C-59 72.36 -59 69.72 -59 67 C-57.35 67 -55.7 67 -54 67 C-54 65.68 -54 64.36 -54 63 C-52.68 63 -51.36 63 -50 63 C-50 60.36 -50 57.72 -50 55 C-48.68 55 -47.36 55 -46 55 C-46 52.03 -46 49.06 -46 46 C-47.32 46 -48.64 46 -50 46 C-50 44.68 -50 43.36 -50 42 C-54.29 42 -58.58 42 -63 42 C-63 44.64 -63 47.28 -63 50 C-64.32 50 -65.64 50 -67 50 C-67 51.65 -67 53.3 -67 55 C-68.32 55 -69.64 55 -71 55 C-71 56.32 -71 57.64 -71 59 C-72.32 59 -73.64 59 -75 59 C-75 60.32 -75 61.64 -75 63 C-79.29 63 -83.58 63 -88 63 C-88 61.68 -88 60.36 -88 59 C-89.32 59 -90.64 59 -92 59 C-92 57.68 -92 56.36 -92 55 C-93.32 55 -94.64 55 -96 55 C-96 53.35 -96 51.7 -96 50 C-97.32 50 -98.64 50 -100 50 C-100 46.04 -100 42.08 -100 38 C-98.68 38 -97.36 38 -96 38 C-96 35.36 -96 32.72 -96 30 C-94.68 30 -93.36 30 -92 30 C-92 28.35 -92 26.7 -92 25 C-90.68 25 -89.36 25 -88 25 C-88 23.68 -88 22.36 -88 21 C-86.68 21 -85.36 21 -84 21 C-84 19.68 -84 18.36 -84 17 C-79.71 17 -75.42 17 -71 17 C-71 15.68 -71 14.36 -71 13 C-55.82 13 -40.64 13 -25 13 C-25 11.68 -25 10.36 -25 9 C-21.04 9 -17.08 9 -13 9 C-13 7.68 -13 6.36 -13 5 C-8.71 5 -4.42 5 0 5 C0 3.35 0 1.7 0 0 Z M-88 42 C-88 44.64 -88 47.28 -88 50 C-85.03 50 -82.06 50 -79 50 C-79 47.36 -79 44.72 -79 42 C-81.97 42 -84.94 42 -88 42 Z M25 92 C25 94.64 25 97.28 25 100 C26.32 100 27.64 100 29 100 C29 97.36 29 94.72 29 92 C27.68 92 26.36 92 25 92 Z " fill="#000000" transform="translate(110,9)"/>
</svg>
