<?xml version="1.0" encoding="UTF-8"?>
<!-- Generator: visioncortex VTracer 0.6.12 -->
<svg version="1.1" xmlns="http://www.w3.org/2000/svg" width="74" height="119">
<path d="M0 0 C3.653 1.25 4.781 1.671 7 5 C7.125 7.687 7.125 7.687 7 10 C6.393 10.217 5.786 10.433 5.16 10.656 C2.219 12.486 1.688 14.298 0.438 17.5 C0.229 18.034 0.229 18.034 -0.828 20.734 C-2.401 25.117 -3.747 29.516 -5 34 C-1.7 34 1.6 34 5 34 C5.165 34.825 5.165 34.825 6 39 C1.666 41.032 -2.286 41.521 -7 42 C-8.733 57.219 -9.51 71.511 -4 86 C-4 86.66 -4 87.32 -4 88 C1.685 88.58 5.76 88.425 10.309 84.773 C13.091 81.856 15.206 78.527 17.324 75.109 C19 73 19 73 21.098 72.113 C23 72 23 72 24.75 73.438 C25.163 73.953 25.575 74.469 26 75 C23.64 84.964 16.453 92.643 8 98 C2.409 99.864 -3.141 99.457 -8.812 98.062 C-15.104 93.991 -17.361 86.99 -19.394 80.021 C-20.485 74.582 -20.367 69.122 -20.281 63.593 C-20.25 61.542 -20.24 59.491 -20.234 57.439 C-20.155 47.466 -20.155 47.466 -19 44 C-20.114 44.206 -21.227 44.413 -22.375 44.625 C-23.571 44.749 -24.767 44.873 -26 45 C-26.66 44.34 -27.32 43.68 -28 43 C-27.625 40.875 -27.625 40.875 -27 39 C-20.25 37 -20.25 37 -18 37 C-17.841 36.273 -17.683 35.546 -17.52 34.797 C-14.795 23.055 -10.668 7.011 0 0 Z " fill="#000000" transform="translate(38,10)"/>
</svg>
