<?xml version="1.0" encoding="UTF-8"?>
<!-- Generator: visioncortex VTracer 0.6.12 -->
<svg version="1.1" xmlns="http://www.w3.org/2000/svg" width="188" height="152">
<path d="M0 0 C1.32 0 2.64 0 4 0 C4 1.32 4 2.64 4 4 C6.64 4 9.28 4 12 4 C12 5.65 12 7.3 12 9 C13.32 9 14.64 9 16 9 C16 11.64 16 14.28 16 17 C17.65 17 19.3 17 21 17 C21 22.61 21 28.22 21 34 C22.32 34 23.64 34 25 34 C25 40.6 25 47.2 25 54 C26.32 54 27.64 54 29 54 C29 56.97 29 59.94 29 63 C30.32 63 31.64 63 33 63 C33 64.32 33 65.64 33 67 C34.32 67 35.64 67 37 67 C37 64.36 37 61.72 37 59 C38.32 59 39.64 59 41 59 C41 53.39 41 47.78 41 42 C42.65 42 44.3 42 46 42 C46 36.39 46 30.78 46 25 C47.32 25 48.64 25 50 25 C50 23.68 50 22.36 50 21 C51.32 21 52.64 21 54 21 C54 19.68 54 18.36 54 17 C62.25 17 70.5 17 79 17 C79 25.25 79 33.5 79 42 C80.32 42 81.64 42 83 42 C83 47.61 83 53.22 83 59 C84.32 59 85.64 59 87 59 C87 60.32 87 61.64 87 63 C91.29 63 95.58 63 100 63 C100 61.68 100 60.36 100 59 C102.64 59 105.28 59 108 59 C108 56.03 108 53.06 108 50 C109.32 50 110.64 50 112 50 C112 37.79 112 25.58 112 13 C113.32 13 114.64 13 116 13 C116 11.68 116 10.36 116 9 C117.65 9 119.3 9 121 9 C121 7.35 121 5.7 121 4 C129.25 4 137.5 4 146 4 C146 5.65 146 7.3 146 9 C147.32 9 148.64 9 150 9 C150 15.6 150 22.2 150 29 C148.68 29 147.36 29 146 29 C146 33.29 146 37.58 146 42 C144.35 42 142.7 42 141 42 C141 47.61 141 53.22 141 59 C139.68 59 138.36 59 137 59 C137 61.64 137 64.28 137 67 C135.68 67 134.36 67 133 67 C133 69.64 133 72.28 133 75 C131.68 75 130.36 75 129 75 C129 76.32 129 77.64 129 79 C127.68 79 126.36 79 125 79 C125 80.65 125 82.3 125 84 C123.68 84 122.36 84 121 84 C121 86.64 121 89.28 121 92 C119.35 92 117.7 92 116 92 C116 93.32 116 94.64 116 96 C114.68 96 113.36 96 112 96 C112 97.32 112 98.64 112 100 C109.36 100 106.72 100 104 100 C104 101.32 104 102.64 104 104 C98.39 104 92.78 104 87 104 C87 101.36 87 98.72 87 96 C88.32 96 89.64 96 91 96 C91 93.36 91 90.72 91 88 C87.04 88 83.08 88 79 88 C79 90.64 79 93.28 79 96 C80.32 96 81.64 96 83 96 C83 97.32 83 98.64 83 100 C80.36 100 77.72 100 75 100 C75 98.68 75 97.36 75 96 C72.03 96 69.06 96 66 96 C66 94.68 66 93.36 66 92 C63.36 92 60.72 92 58 92 C58 93.32 58 94.64 58 96 C56.68 96 55.36 96 54 96 C54 97.32 54 98.64 54 100 C52.68 100 51.36 100 50 100 C50 101.32 50 102.64 50 104 C48.68 104 47.36 104 46 104 C46 105.65 46 107.3 46 109 C37.75 109 29.5 109 21 109 C21 107.35 21 105.7 21 104 C19.35 104 17.7 104 16 104 C16 102.68 16 101.36 16 100 C14.68 100 13.36 100 12 100 C12 98.68 12 97.36 12 96 C9.36 96 6.72 96 4 96 C4 94.68 4 93.36 4 92 C2.68 92 1.36 92 0 92 C0 87.71 0 83.42 0 79 C-1.32 79 -2.64 79 -4 79 C-4 73.72 -4 68.44 -4 63 C-5.65 63 -7.3 63 -9 63 C-9 56.07 -9 49.14 -9 42 C-10.32 42 -11.64 42 -13 42 C-13 37.71 -13 33.42 -13 29 C-14.32 29 -15.64 29 -17 29 C-17 25.04 -17 21.08 -17 17 C-15.68 17 -14.36 17 -13 17 C-13 14.36 -13 11.72 -13 9 C-10.03 9 -7.06 9 -4 9 C-4 7.35 -4 5.7 -4 4 C-2.68 4 -1.36 4 0 4 C0 2.68 0 1.36 0 0 Z M54 71 C54 72.32 54 73.64 54 75 C55.32 75 56.64 75 58 75 C58 73.68 58 72.36 58 71 C56.68 71 55.36 71 54 71 Z " fill="#000000" transform="translate(26,8)"/>
</svg>
