<?xml version="1.0" encoding="UTF-8"?>
<!-- Generator: visioncortex VTracer 0.6.12 -->
<svg version="1.1" xmlns="http://www.w3.org/2000/svg" width="89" height="115">
<path d="M0 0 C2.557 2.411 2.96 3.834 3.078 7.301 C2.777 12.819 1.771 17.783 -2 22 C-10.628 29.464 -20.2 32.874 -31.52 33.316 C-32.541 33.358 -33.563 33.4 -34.615 33.443 C-35.67 33.483 -36.725 33.522 -37.812 33.562 C-38.887 33.606 -39.961 33.649 -41.068 33.693 C-43.712 33.799 -46.356 33.901 -49 34 C-54.267 47.878 -56.194 59.052 -50 73 C-49.75 73.703 -49.5 74.405 -49.242 75.129 C-47.307 78.043 -45.252 78.782 -42 80 C-39.071 80.454 -36.21 80.524 -33.25 80.5 C-32.454 80.495 -31.658 80.49 -30.837 80.485 C-23.607 80.271 -17.589 78.741 -12.434 73.367 C-11.269 71.928 -10.132 70.465 -9 69 C-6.875 67.938 -6.875 67.938 -5 68 C-3.188 69.125 -3.188 69.125 -2 71 C-2.312 75.588 -4.235 77.831 -7.312 81.125 C-7.702 81.549 -7.702 81.549 -9.676 83.695 C-17.09 91.047 -25.048 92.273 -35.188 92.375 C-35.948 92.389 -36.708 92.403 -37.491 92.417 C-45.062 92.355 -51.056 89.781 -57 85 C-65.316 74.799 -67.22 62.746 -66 50 C-64.844 42.263 -62.675 35.86 -59 29 C-58.835 28.051 -58.67 27.102 -58.5 26.125 C-58.335 25.424 -58.17 24.722 -58 24 C-57.394 23.701 -56.788 23.402 -56.164 23.094 C-53.683 21.84 -52.594 20.543 -50.875 18.375 C-38.687 4.16 -18.701 -8.23 0 0 Z M-33.5 15 C-34.112 15.427 -34.723 15.854 -35.353 16.294 C-38.433 18.538 -40.713 20.344 -42 24 C-30.555 24.618 -19.481 24.085 -10.25 16.562 C-7.308 13.899 -6.512 11.928 -6 8 C-16.392 3.249 -24.97 8.99 -33.5 15 Z " fill="#000000" transform="translate(76,13)"/>
</svg>
