<?xml version="1.0" encoding="UTF-8"?>
<!-- Generator: visioncortex VTracer 0.6.12 -->
<svg version="1.1" xmlns="http://www.w3.org/2000/svg" width="55" height="89">
<path d="M0 0 C2.925 3.108 2.936 6.01 3.152 10.184 C2.929 14.502 1.722 18.185 0 22.125 C-1.65 22.125 -3.3 22.125 -5 22.125 C-6.226 18.447 -5.703 16.243 -5.062 12.438 C-4.868 11.258 -4.673 10.079 -4.473 8.863 C-4.317 7.96 -4.161 7.056 -4 6.125 C-7.415 6.193 -10.041 6.322 -12.73 8.574 C-17.425 13.918 -19.287 18.434 -19.312 25.625 C-19.329 26.728 -19.346 27.832 -19.363 28.969 C-18.964 32.441 -17.917 34.252 -16 37.125 C-16 37.785 -16 38.445 -16 39.125 C-15.216 39.331 -14.433 39.538 -13.625 39.75 C-8.013 41.879 -2.274 44.851 2 49.125 C2.343 52.763 2.287 55.399 0.938 58.812 C-3.028 63.545 -8.428 65.791 -14.387 66.934 C-19.615 67.316 -25.066 66.93 -30 65.125 C-31.379 62.535 -31.379 62.535 -32 60.125 C-30.957 58.625 -30.957 58.625 -29 57.125 C-25.222 56.914 -21.54 57.132 -17.762 57.312 C-13.728 57.111 -11.438 56.172 -8 54.125 C-11.003 51.731 -14.081 49.988 -17.5 48.25 C-23.828 44.817 -27.13 41.225 -29.461 34.426 C-31.773 24.558 -29.411 15.772 -24.25 7.312 C-21.342 3.147 -18.583 1.24 -14 -0.875 C-9.778 -2.986 -4.346 -1.267 0 0 Z " fill="#000000" transform="translate(42,11.875)"/>
</svg>
