<?xml version="1.0" encoding="UTF-8"?>
<!-- Generator: visioncortex VTracer 0.6.12 -->
<svg version="1.1" xmlns="http://www.w3.org/2000/svg" width="148" height="139">
<path d="M0 0 C1.32 0 2.64 0 4 0 C4 1.32 4 2.64 4 4 C5.65 4 7.3 4 9 4 C9 5.32 9 6.64 9 8 C12.96 8 16.92 8 21 8 C21 9.32 21 10.64 21 12 C22.32 12 23.64 12 25 12 C25 13.65 25 15.3 25 17 C26.65 17 28.3 17 30 17 C30 18.32 30 19.64 30 21 C31.32 21 32.64 21 34 21 C34 23.64 34 26.28 34 29 C35.32 29 36.64 29 38 29 C38 34.61 38 40.22 38 46 C39.32 46 40.64 46 42 46 C42 59.53 42 73.06 42 87 C43.32 87 44.64 87 46 87 C46 92.61 46 98.22 46 104 C44.68 104 43.36 104 42 104 C42 106.64 42 109.28 42 112 C40.68 112 39.36 112 38 112 C38 113.65 38 115.3 38 117 C31.07 117 24.14 117 17 117 C17 115.35 17 113.7 17 112 C15.68 112 14.36 112 13 112 C13 110.68 13 109.36 13 108 C11.68 108 10.36 108 9 108 C9 106.68 9 105.36 9 104 C7.35 104 5.7 104 4 104 C4 101.36 4 98.72 4 96 C5.65 96 7.3 96 9 96 C9 80.82 9 65.64 9 50 C7.35 50 5.7 50 4 50 C4 47.36 4 44.72 4 42 C2.68 42 1.36 42 0 42 C0 40.35 0 38.7 0 37 C-2.64 37 -5.28 37 -8 37 C-8 38.65 -8 40.3 -8 42 C-10.64 42 -13.28 42 -16 42 C-16 43.32 -16 44.64 -16 46 C-17.65 46 -19.3 46 -21 46 C-21 47.32 -21 48.64 -21 50 C-22.32 50 -23.64 50 -25 50 C-25 51.32 -25 52.64 -25 54 C-26.32 54 -27.64 54 -29 54 C-29 56.64 -29 59.28 -29 62 C-30.32 62 -31.64 62 -33 62 C-33 63.65 -33 65.3 -33 67 C-34.32 67 -35.64 67 -37 67 C-37 73.6 -37 80.2 -37 87 C-38.32 87 -39.64 87 -41 87 C-41 92.61 -41 98.22 -41 104 C-42.65 104 -44.3 104 -46 104 C-46 108.29 -46 112.58 -46 117 C-47.32 117 -48.64 117 -50 117 C-50 118.32 -50 119.64 -50 121 C-55.28 121 -60.56 121 -66 121 C-66 119.68 -66 118.36 -66 117 C-68.97 117 -71.94 117 -75 117 C-75 114.03 -75 111.06 -75 108 C-76.32 108 -77.64 108 -79 108 C-79 80.61 -79 53.22 -79 25 C-80.32 25 -81.64 25 -83 25 C-83 22.36 -83 19.72 -83 17 C-81.68 17 -80.36 17 -79 17 C-79 15.35 -79 13.7 -79 12 C-77.68 12 -76.36 12 -75 12 C-75 10.68 -75 9.36 -75 8 C-68.07 8 -61.14 8 -54 8 C-54 9.32 -54 10.64 -54 12 C-52.68 12 -51.36 12 -50 12 C-50 13.65 -50 15.3 -50 17 C-48.68 17 -47.36 17 -46 17 C-46 18.32 -46 19.64 -46 21 C-43.03 21 -40.06 21 -37 21 C-37 19.68 -37 18.36 -37 17 C-35.68 17 -34.36 17 -33 17 C-33 15.35 -33 13.7 -33 12 C-31.68 12 -30.36 12 -29 12 C-29 10.68 -29 9.36 -29 8 C-24.71 8 -20.42 8 -16 8 C-16 6.68 -16 5.36 -16 4 C-10.72 4 -5.44 4 0 4 C0 2.68 0 1.36 0 0 Z " fill="#000000" transform="translate(92,8)"/>
</svg>
