<?xml version="1.0" encoding="UTF-8"?>
<!-- Generator: visioncortex VTracer 0.6.12 -->
<svg version="1.1" xmlns="http://www.w3.org/2000/svg" width="67" height="117">
<path d="M0 0 C2.938 0 2.938 0 6 1 C8.954 5.649 9.719 10.019 10.25 15.375 C10.332 16.16 10.415 16.945 10.499 17.754 C11.304 26.507 10.662 34.976 9.703 43.703 C8.662 53.442 8.911 63.218 9 73 C9.28 72.005 9.559 71.01 9.848 69.984 C14.803 52.6 20.414 35.946 29 20 C29.584 18.89 30.168 17.78 30.77 16.637 C34.658 9.342 34.658 9.342 37 7 C39.5 6.75 39.5 6.75 42 7 C44.491 9.491 44.351 10.489 44.438 13.938 C44.457 14.375 44.457 14.375 44.559 16.59 C44.374 17.385 44.19 18.181 44 19 C43.218 19.444 42.436 19.888 41.63 20.345 C38.568 22.272 37.814 23.627 36.359 26.895 C35.929 27.85 35.498 28.806 35.055 29.791 C34.624 30.788 34.194 31.785 33.75 32.812 C33.527 33.305 33.527 33.305 32.398 35.799 C30.314 40.502 28.458 44.815 28 50 C28.66 50 29.32 50 30 50 C44.668 78.595 44.668 78.595 42 89 C40.845 89.165 40.845 89.165 35 90 C32.378 84.184 30.35 78.25 28.375 72.188 C27.759 70.306 27.142 68.424 26.523 66.543 C26.255 65.718 25.986 64.893 25.708 64.044 C25 62 25 62 24 60 C23.769 60.813 23.539 61.627 23.301 62.465 C22.411 65.592 21.514 68.718 20.616 71.843 C19.979 74.073 19.353 76.306 18.727 78.539 C18.297 80.047 17.868 81.555 17.438 83.062 C17.24 83.776 17.043 84.489 16.839 85.224 C15.695 89.201 14.409 92.619 12 96 C9.201 97.399 7.095 97.253 4 97 C0.378 94.542 -0.657 90.454 -1.626 86.346 C-2.916 78.823 -3.273 71.562 -3.188 63.938 C-3.187 62.844 -3.186 61.75 -3.186 60.623 C-3.159 55.683 -3.026 50.825 -2.484 45.914 C-1.54 36.589 -1.978 27.142 -2.096 17.782 C-2.126 15.228 -2.144 12.675 -2.16 10.121 C-2.174 9.335 -2.187 8.548 -2.201 7.738 C-2.21 5.824 -2.114 3.91 -2 2 C-1.34 1.34 -0.68 0.68 0 0 Z " fill="#000000" transform="translate(13,10)"/>
</svg>
