<?xml version="1.0" encoding="UTF-8"?>
<!-- Generator: visioncortex VTracer 0.6.12 -->
<svg version="1.1" xmlns="http://www.w3.org/2000/svg" width="145" height="134">
<path d="M0 0 C6.6 0 13.2 0 20 0 C20 1.32 20 2.64 20 4 C21.65 4 23.3 4 25 4 C25 10.93 25 17.86 25 25 C23.35 25 21.7 25 20 25 C20 26.32 20 27.64 20 29 C18.68 29 17.36 29 16 29 C16 30.32 16 31.64 16 33 C14.68 33 13.36 33 12 33 C12 34.65 12 36.3 12 38 C10.68 38 9.36 38 8 38 C8 39.32 8 40.64 8 42 C6.68 42 5.36 42 4 42 C4 45.96 4 49.92 4 54 C5.32 54 6.64 54 8 54 C8 56.97 8 59.94 8 63 C10.64 63 13.28 63 16 63 C16 64.32 16 65.64 16 67 C17.32 67 18.64 67 20 67 C20 68.32 20 69.64 20 71 C21.65 71 23.3 71 25 71 C25 72.32 25 73.64 25 75 C28.96 75 32.92 75 37 75 C37 76.32 37 77.64 37 79 C38.32 79 39.64 79 41 79 C41 80.32 41 81.64 41 83 C42.32 83 43.64 83 45 83 C45 88.61 45 94.22 45 100 C43.68 100 42.36 100 41 100 C41 101.32 41 102.64 41 104 C39.68 104 38.36 104 37 104 C37 105.32 37 106.64 37 108 C28.75 108 20.5 108 12 108 C12 104.04 12 100.08 12 96 C10.68 96 9.36 96 8 96 C8 98.64 8 101.28 8 104 C6.68 104 5.36 104 4 104 C4 102.68 4 101.36 4 100 C2.68 100 1.36 100 0 100 C0 97.36 0 94.72 0 92 C-1.65 92 -3.3 92 -5 92 C-5 90.68 -5 89.36 -5 88 C-6.32 88 -7.64 88 -9 88 C-9 86.35 -9 84.7 -9 83 C-10.32 83 -11.64 83 -13 83 C-13 81.68 -13 80.36 -13 79 C-14.32 79 -15.64 79 -17 79 C-17 80.32 -17 81.64 -17 83 C-19.64 83 -22.28 83 -25 83 C-25 84.65 -25 86.3 -25 88 C-26.65 88 -28.3 88 -30 88 C-30 89.32 -30 90.64 -30 92 C-31.32 92 -32.64 92 -34 92 C-34 93.32 -34 94.64 -34 96 C-35.32 96 -36.64 96 -38 96 C-38 97.32 -38 98.64 -38 100 C-39.32 100 -40.64 100 -42 100 C-42 101.32 -42 102.64 -42 104 C-46.29 104 -50.58 104 -55 104 C-55 105.32 -55 106.64 -55 108 C-60.28 108 -65.56 108 -71 108 C-71 106.68 -71 105.36 -71 104 C-72.32 104 -73.64 104 -75 104 C-75 102.68 -75 101.36 -75 100 C-76.65 100 -78.3 100 -80 100 C-80 94.39 -80 88.78 -80 83 C-78.35 83 -76.7 83 -75 83 C-75 81.68 -75 80.36 -75 79 C-73.68 79 -72.36 79 -71 79 C-71 77.68 -71 76.36 -71 75 C-69.68 75 -68.36 75 -67 75 C-67 73.68 -67 72.36 -67 71 C-64.36 71 -61.72 71 -59 71 C-59 69.68 -59 68.36 -59 67 C-57.68 67 -56.36 67 -55 67 C-55 65.68 -55 64.36 -55 63 C-52.03 63 -49.06 63 -46 63 C-46 61.35 -46 59.7 -46 58 C-44.68 58 -43.36 58 -42 58 C-42 52.72 -42 47.44 -42 42 C-43.32 42 -44.64 42 -46 42 C-46 40.68 -46 39.36 -46 38 C-47.32 38 -48.64 38 -50 38 C-50 36.35 -50 34.7 -50 33 C-51.65 33 -53.3 33 -55 33 C-55 31.68 -55 30.36 -55 29 C-56.32 29 -57.64 29 -59 29 C-59 20.75 -59 12.5 -59 4 C-50.75 4 -42.5 4 -34 4 C-34 6.97 -34 9.94 -34 13 C-32.68 13 -31.36 13 -30 13 C-30 14.32 -30 15.64 -30 17 C-28.35 17 -26.7 17 -25 17 C-25 18.32 -25 19.64 -25 21 C-21.04 21 -17.08 21 -13 21 C-13 19.68 -13 18.36 -13 17 C-11.68 17 -10.36 17 -9 17 C-9 14.03 -9 11.06 -9 8 C-7.68 8 -6.36 8 -5 8 C-5 6.68 -5 5.36 -5 4 C-3.35 4 -1.7 4 0 4 C0 2.68 0 1.36 0 0 Z M-9 54 C-9 55.32 -9 56.64 -9 58 C-6.03 58 -3.06 58 0 58 C0 56.68 0 55.36 0 54 C-2.97 54 -5.94 54 -9 54 Z " fill="#000000" transform="translate(90,12)"/>
</svg>
