<?xml version="1.0" encoding="UTF-8"?>
<!-- Generator: visioncortex VTracer 0.6.12 -->
<svg version="1.1" xmlns="http://www.w3.org/2000/svg" width="57" height="104">
<path d="M0 0 C2.312 0.125 2.312 0.125 5 1 C9.019 6.358 9.185 13.537 10 20 C10.398 19.578 10.797 19.157 11.207 18.723 C11.737 18.175 12.267 17.627 12.812 17.062 C13.335 16.517 13.857 15.972 14.395 15.41 C17.844 12.38 22.174 12.525 26.547 12.621 C29 13 29 13 32.125 15.125 C35.579 20.288 34.713 27.125 34 33 C32.277 39.335 27.914 43.824 23 48 C19.987 49.507 17.317 49.178 14 49 C12 47 12 47 11.875 44.688 C13.183 41.562 13.95 41.24 16.812 39.625 C21.067 37.166 23.535 34.762 25 30 C25.291 26.964 25.248 24.037 25 21 C22 20 22 20 19.562 21.125 C14.284 24.988 12.451 28.833 11 35 C10.34 35 9.68 35 9 35 C9.093 38.951 9.2 42.902 9.317 46.853 C9.375 48.859 9.422 50.865 9.469 52.871 C9.507 54.128 9.546 55.385 9.586 56.68 C9.617 57.842 9.649 59.005 9.681 60.203 C10 63 10 63 12 65 C12.047 68.117 12.047 68.117 11.75 71.875 C11.706 72.492 11.706 72.492 11.484 75.617 C11.055 78.617 10.685 80.517 9 83 C6.688 84 6.688 84 4 84 C0.675 81.884 -0.742 80.773 -2 77 C-2.134 74.676 -2.208 72.349 -2.253 70.022 C-2.26 69.669 -2.26 69.669 -2.298 67.882 C-2.344 65.548 -2.384 63.213 -2.422 60.879 C-2.436 60.081 -2.45 59.284 -2.464 58.462 C-2.537 54.243 -2.605 50.024 -2.667 45.804 C-2.733 41.445 -2.818 37.086 -2.907 32.727 C-2.972 29.376 -3.024 26.024 -3.071 22.672 C-3.097 21.065 -3.127 19.458 -3.163 17.851 C-3.211 15.603 -3.24 13.356 -3.265 11.108 C-3.286 9.829 -3.307 8.55 -3.33 7.232 C-2.98 3.804 -2.344 2.458 0 0 Z " fill="#000000" transform="translate(13,10)"/>
</svg>
