<?xml version="1.0" encoding="UTF-8"?>
<!-- Generator: visioncortex VTracer 0.6.12 -->
<svg version="1.1" xmlns="http://www.w3.org/2000/svg" width="136" height="297">
<path d="M0 0 C5.61 0 11.22 0 17 0 C17 1.32 17 2.64 17 4 C18.32 4 19.64 4 21 4 C21 10.93 21 17.86 21 25 C19.68 25 18.36 25 17 25 C17 26.32 17 27.64 17 29 C15.68 29 14.36 29 13 29 C13 30.65 13 32.3 13 34 C11.35 34 9.7 34 8 34 C8 35.32 8 36.64 8 38 C5.36 38 2.72 38 0 38 C0 36.68 0 35.36 0 34 C-2.64 34 -5.28 34 -8 34 C-8 32.35 -8 30.7 -8 29 C-9.32 29 -10.64 29 -12 29 C-12 27.68 -12 26.36 -12 25 C-13.65 25 -15.3 25 -17 25 C-17 21.04 -17 17.08 -17 13 C-15.35 13 -13.7 13 -12 13 C-12 10.03 -12 7.06 -12 4 C-8.04 4 -4.08 4 0 4 C0 2.68 0 1.36 0 0 Z " fill="#000000" transform="translate(81,9)"/>
<path d="M0 0 C2.97 0 5.94 0 9 0 C9 1.32 9 2.64 9 4 C10.32 4 11.64 4 13 4 C13 5.32 13 6.64 13 8 C14.32 8 15.64 8 17 8 C17 19.22 17 30.44 17 42 C18.32 42 19.64 42 21 42 C21 45.96 21 49.92 21 54 C22.32 54 23.64 54 25 54 C25 59.61 25 65.22 25 71 C26.32 71 27.64 71 29 71 C29 76.28 29 81.56 29 87 C30.65 87 32.3 87 34 87 C34 91.29 34 95.58 34 100 C35.32 100 36.64 100 38 100 C38 106.93 38 113.86 38 121 C39.32 121 40.64 121 42 121 C42 134.53 42 148.06 42 162 C40.68 162 39.36 162 38 162 C38 167.61 38 173.22 38 179 C36.68 179 35.36 179 34 179 C34 183.29 34 187.58 34 192 C32.35 192 30.7 192 29 192 C29 194.64 29 197.28 29 200 C27.68 200 26.36 200 25 200 C25 202.64 25 205.28 25 208 C23.68 208 22.36 208 21 208 C21 209.32 21 210.64 21 212 C19.68 212 18.36 212 17 212 C17 213.65 17 215.3 17 217 C15.68 217 14.36 217 13 217 C13 218.32 13 219.64 13 221 C10.03 221 7.06 221 4 221 C4 222.32 4 223.64 4 225 C1.36 225 -1.28 225 -4 225 C-4 226.32 -4 227.64 -4 229 C-7.96 229 -11.92 229 -16 229 C-16 230.32 -16 231.64 -16 233 C-20.29 233 -24.58 233 -29 233 C-29 234.32 -29 235.64 -29 237 C-34.61 237 -40.22 237 -46 237 C-46 235.68 -46 234.36 -46 233 C-48.64 233 -51.28 233 -54 233 C-54 231.68 -54 230.36 -54 229 C-56.64 229 -59.28 229 -62 229 C-62 227.68 -62 226.36 -62 225 C-63.32 225 -64.64 225 -66 225 C-66 223.68 -66 222.36 -66 221 C-67.65 221 -69.3 221 -71 221 C-71 218.03 -71 215.06 -71 212 C-72.32 212 -73.64 212 -75 212 C-75 195.5 -75 179 -75 162 C-73.68 162 -72.36 162 -71 162 C-71 159.36 -71 156.72 -71 154 C-69.35 154 -67.7 154 -66 154 C-66 151.36 -66 148.72 -66 146 C-64.68 146 -63.36 146 -62 146 C-62 144.68 -62 143.36 -62 142 C-60.68 142 -59.36 142 -58 142 C-58 140.35 -58 138.7 -58 137 C-55.36 137 -52.72 137 -50 137 C-50 135.68 -50 134.36 -50 133 C-47.03 133 -44.06 133 -41 133 C-41 131.68 -41 130.36 -41 129 C-38.36 129 -35.72 129 -33 129 C-33 127.68 -33 126.36 -33 125 C-30.36 125 -27.72 125 -25 125 C-25 126.32 -25 127.64 -25 129 C-23.68 129 -22.36 129 -21 129 C-21 130.32 -21 131.64 -21 133 C-18.03 133 -15.06 133 -12 133 C-12 138.61 -12 144.22 -12 150 C-13.32 150 -14.64 150 -16 150 C-16 151.32 -16 152.64 -16 154 C-17.65 154 -19.3 154 -21 154 C-21 155.32 -21 156.64 -21 158 C-23.64 158 -26.28 158 -29 158 C-29 159.32 -29 160.64 -29 162 C-31.64 162 -34.28 162 -37 162 C-37 163.65 -37 165.3 -37 167 C-38.32 167 -39.64 167 -41 167 C-41 177.89 -41 188.78 -41 200 C-39.68 200 -38.36 200 -37 200 C-37 201.32 -37 202.64 -37 204 C-31.72 204 -26.44 204 -21 204 C-21 202.68 -21 201.36 -21 200 C-16.71 200 -12.42 200 -8 200 C-8 198.68 -8 197.36 -8 196 C-6.68 196 -5.36 196 -4 196 C-4 194.68 -4 193.36 -4 192 C-2.68 192 -1.36 192 0 192 C0 189.03 0 186.06 0 183 C1.32 183 2.64 183 4 183 C4 176.07 4 169.14 4 162 C5.65 162 7.3 162 9 162 C9 149.79 9 137.58 9 125 C7.35 125 5.7 125 4 125 C4 116.75 4 108.5 4 100 C2.68 100 1.36 100 0 100 C0 95.71 0 91.42 0 87 C-1.32 87 -2.64 87 -4 87 C-4 81.72 -4 76.44 -4 71 C-5.32 71 -6.64 71 -8 71 C-8 66.71 -8 62.42 -8 58 C-9.32 58 -10.64 58 -12 58 C-12 52.72 -12 47.44 -12 42 C-13.32 42 -14.64 42 -16 42 C-16 35.07 -16 28.14 -16 21 C-14.68 21 -13.36 21 -12 21 C-12 16.71 -12 12.42 -12 8 C-10.68 8 -9.36 8 -8 8 C-8 6.68 -8 5.36 -8 4 C-5.36 4 -2.72 4 0 4 C0 2.68 0 1.36 0 0 Z " fill="#000000" transform="translate(85,51)"/>
</svg>
