<?xml version="1.0" encoding="UTF-8"?>
<!-- Generator: visioncortex VTracer 0.6.12 -->
<svg version="1.1" xmlns="http://www.w3.org/2000/svg" width="139" height="140">
<path d="M0 0 C13.86 0 27.72 0 42 0 C42 1.32 42 2.64 42 4 C43.32 4 44.64 4 46 4 C46 5.32 46 6.64 46 8 C47.32 8 48.64 8 50 8 C50 14.93 50 21.86 50 29 C48.68 29 47.36 29 46 29 C46 31.64 46 34.28 46 37 C39.07 37 32.14 37 25 37 C25 35.68 25 34.36 25 33 C18.07 33 11.14 33 4 33 C4 34.32 4 35.64 4 37 C2.68 37 1.36 37 0 37 C0 38.65 0 40.3 0 42 C-1.32 42 -2.64 42 -4 42 C-4 43.32 -4 44.64 -4 46 C-5.32 46 -6.64 46 -8 46 C-8 47.32 -8 48.64 -8 50 C-9.65 50 -11.3 50 -13 50 C-13 55.61 -13 61.22 -13 67 C-11.35 67 -9.7 67 -8 67 C-8 69.64 -8 72.28 -8 75 C-5.36 75 -2.72 75 0 75 C0 76.32 0 77.64 0 79 C1.32 79 2.64 79 4 79 C4 80.32 4 81.64 4 83 C6.64 83 9.28 83 12 83 C12 84.65 12 86.3 12 88 C16.29 88 20.58 88 25 88 C25 86.35 25 84.7 25 83 C28.96 83 32.92 83 37 83 C37 81.68 37 80.36 37 79 C38.65 79 40.3 79 42 79 C42 77.68 42 76.36 42 75 C48.6 75 55.2 75 62 75 C62 76.32 62 77.64 62 79 C63.65 79 65.3 79 67 79 C67 80.32 67 81.64 67 83 C68.32 83 69.64 83 71 83 C71 88.61 71 94.22 71 100 C69.68 100 68.36 100 67 100 C67 101.32 67 102.64 67 104 C65.35 104 63.7 104 62 104 C62 105.32 62 106.64 62 108 C59.36 108 56.72 108 54 108 C54 109.65 54 111.3 54 113 C51.36 113 48.72 113 46 113 C46 114.32 46 115.64 46 117 C40.39 117 34.78 117 29 117 C29 118.32 29 119.64 29 121 C23.39 121 17.78 121 12 121 C12 119.68 12 118.36 12 117 C8.04 117 4.08 117 0 117 C0 115.68 0 114.36 0 113 C-4.29 113 -8.58 113 -13 113 C-13 111.35 -13 109.7 -13 108 C-16.96 108 -20.92 108 -25 108 C-25 105.36 -25 102.72 -25 100 C-26.32 100 -27.64 100 -29 100 C-29 98.68 -29 97.36 -29 96 C-30.32 96 -31.64 96 -33 96 C-33 94.68 -33 93.36 -33 92 C-34.65 92 -36.3 92 -38 92 C-38 89.03 -38 86.06 -38 83 C-39.32 83 -40.64 83 -42 83 C-42 79.04 -42 75.08 -42 71 C-43.32 71 -44.64 71 -46 71 C-46 64.07 -46 57.14 -46 50 C-44.68 50 -43.36 50 -42 50 C-42 44.39 -42 38.78 -42 33 C-40.68 33 -39.36 33 -38 33 C-38 31.68 -38 30.36 -38 29 C-36.35 29 -34.7 29 -33 29 C-33 27.68 -33 26.36 -33 25 C-31.68 25 -30.36 25 -29 25 C-29 22.36 -29 19.72 -29 17 C-27.68 17 -26.36 17 -25 17 C-25 15.35 -25 13.7 -25 12 C-23.68 12 -22.36 12 -21 12 C-21 10.68 -21 9.36 -21 8 C-18.36 8 -15.72 8 -13 8 C-13 6.68 -13 5.36 -13 4 C-8.71 4 -4.42 4 0 4 C0 2.68 0 1.36 0 0 Z M46 96 C46 97.32 46 98.64 46 100 C48.64 100 51.28 100 54 100 C54 98.68 54 97.36 54 96 C51.36 96 48.72 96 46 96 Z " fill="#000000" transform="translate(55,9)"/>
</svg>
