<?xml version="1.0" encoding="UTF-8"?>
<!-- Generator: visioncortex VTracer 0.6.12 -->
<svg version="1.1" xmlns="http://www.w3.org/2000/svg" width="135" height="219">
<path d="M0 0 C5.61 0 11.22 0 17 0 C17 1.32 17 2.64 17 4 C18.32 4 19.64 4 21 4 C21 5.65 21 7.3 21 9 C22.32 9 23.64 9 25 9 C25 26.82 25 44.64 25 63 C23.68 63 22.36 63 21 63 C21 65.64 21 68.28 21 71 C22.32 71 23.64 71 25 71 C25 72.32 25 73.64 25 75 C23.68 75 22.36 75 21 75 C21 76.65 21 78.3 21 80 C22.32 80 23.64 80 25 80 C25 81.32 25 82.64 25 84 C37.54 84 50.08 84 63 84 C63 86.64 63 89.28 63 92 C64.32 92 65.64 92 67 92 C67 96.29 67 100.58 67 105 C65.68 105 64.36 105 63 105 C63 106.32 63 107.64 63 109 C61.35 109 59.7 109 58 109 C58 111.64 58 114.28 58 117 C56.68 117 55.36 117 54 117 C54 118.32 54 119.64 54 121 C48.72 121 43.44 121 38 121 C38 119.68 38 118.36 38 117 C36.35 117 34.7 117 33 117 C33 118.32 33 119.64 33 121 C30.36 121 27.72 121 25 121 C25 127.93 25 134.86 25 142 C26.32 142 27.64 142 29 142 C29 147.61 29 153.22 29 159 C30.32 159 31.64 159 33 159 C33 162.96 33 166.92 33 171 C31.68 171 30.36 171 29 171 C29 175.29 29 179.58 29 184 C27.68 184 26.36 184 25 184 C25 187.96 25 191.92 25 196 C23.68 196 22.36 196 21 196 C21 197.32 21 198.64 21 200 C16.71 200 12.42 200 8 200 C8 198.68 8 197.36 8 196 C5.36 196 2.72 196 0 196 C0 194.68 0 193.36 0 192 C-1.32 192 -2.64 192 -4 192 C-4 189.36 -4 186.72 -4 184 C-5.32 184 -6.64 184 -8 184 C-8 175.75 -8 167.5 -8 159 C-6.68 159 -5.36 159 -4 159 C-4 156.03 -4 153.06 -4 150 C-5.32 150 -6.64 150 -8 150 C-8 140.43 -8 130.86 -8 121 C-9.32 121 -10.64 121 -12 121 C-12 119.68 -12 118.36 -12 117 C-17.61 117 -23.22 117 -29 117 C-29 115.68 -29 114.36 -29 113 C-31.64 113 -34.28 113 -37 113 C-37 111.68 -37 110.36 -37 109 C-39.97 109 -42.94 109 -46 109 C-46 103.39 -46 97.78 -46 92 C-44.68 92 -43.36 92 -42 92 C-42 90.68 -42 89.36 -42 88 C-37.71 88 -33.42 88 -29 88 C-29 86.68 -29 85.36 -29 84 C-23.39 84 -17.78 84 -12 84 C-12 70.14 -12 56.28 -12 42 C-10.68 42 -9.36 42 -8 42 C-8 31.11 -8 20.22 -8 9 C-6.68 9 -5.36 9 -4 9 C-4 7.35 -4 5.7 -4 4 C-2.68 4 -1.36 4 0 4 C0 2.68 0 1.36 0 0 Z M0 29 C0 31.97 0 34.94 0 38 C2.64 38 5.28 38 8 38 C8 35.03 8 32.06 8 29 C5.36 29 2.72 29 0 29 Z M4 75 C4 76.65 4 78.3 4 80 C6.97 80 9.94 80 13 80 C13 78.35 13 76.7 13 75 C10.03 75 7.06 75 4 75 Z " fill="#000000" transform="translate(58,9)"/>
</svg>
