<?xml version="1.0" encoding="UTF-8"?>
<!-- Generator: visioncortex VTracer 0.6.12 -->
<svg version="1.1" xmlns="http://www.w3.org/2000/svg" width="80" height="82">
<path d="M0 0 C2.536 2.607 3.128 4.958 3.766 8.492 C3.408 13.846 0.289 17.585 -2.922 21.68 C-3.355 22.277 -3.788 22.873 -4.234 23.488 C-10.476 31.532 -19.766 37.106 -28.277 42.488 C-29.922 43.68 -29.922 43.68 -30.922 45.68 C-18.712 45.68 -6.502 45.68 6.078 45.68 C6.738 44.36 7.398 43.04 8.078 41.68 C11.203 40.93 11.203 40.93 14.078 40.68 C16.078 43.68 16.078 43.68 16.016 46.555 C14.797 50.615 13.473 52.133 10.078 54.68 C4.15 56.678 -1.743 56.935 -7.938 56.727 C-8.756 56.706 -9.575 56.686 -10.419 56.665 C-12.133 56.62 -13.847 56.569 -15.562 56.513 C-18.179 56.429 -20.796 56.368 -23.414 56.309 C-25.089 56.262 -26.763 56.214 -28.438 56.164 C-28.826 56.155 -28.826 56.155 -30.793 56.11 C-34.881 55.963 -38.289 55.637 -41.922 53.68 C-43.57 50.383 -43.521 47.23 -42.922 43.68 C-39.776 35.918 -31.489 31.661 -24.797 27.293 C-19.301 23.659 -14.653 19.709 -10.484 14.555 C-9.784 13.706 -9.084 12.858 -8.363 11.984 C-7.888 11.224 -7.412 10.463 -6.922 9.68 C-7.922 6.68 -7.922 6.68 -10.116 5.5 C-13.18 4.604 -15.622 4.481 -18.809 4.555 C-19.911 4.57 -21.014 4.586 -22.15 4.602 C-22.721 4.614 -22.721 4.614 -25.609 4.68 C-27.884 4.731 -30.159 4.773 -32.434 4.805 C-32.936 4.816 -32.936 4.816 -35.479 4.875 C-37.922 4.68 -37.922 4.68 -39.922 2.68 C-39.797 0.18 -39.797 0.18 -38.922 -2.32 C-29.414 -9.363 -9.117 -6.264 0 0 Z " fill="#000000" transform="translate(53.921875,15.3203125)"/>
</svg>
