<?xml version="1.0" encoding="UTF-8"?>
<!-- Generator: visioncortex VTracer 0.6.12 -->
<svg version="1.1" xmlns="http://www.w3.org/2000/svg" width="163" height="160">
<path d="M0 0 C12.21 0 24.42 0 37 0 C37 1.32 37 2.64 37 4 C46.9 4 56.8 4 67 4 C67 10.93 67 17.86 67 25 C68.32 25 69.64 25 71 25 C71 40.18 71 55.36 71 71 C72.32 71 73.64 71 75 71 C75 79.25 75 87.5 75 96 C72.36 96 69.72 96 67 96 C67 98.64 67 101.28 67 104 C68.32 104 69.64 104 71 104 C71 102.68 71 101.36 71 100 C73.64 100 76.28 100 79 100 C79 109.57 79 119.14 79 129 C77.68 129 76.36 129 75 129 C75 130.65 75 132.3 75 134 C73.68 134 72.36 134 71 134 C71 135.32 71 136.64 71 138 C64.07 138 57.14 138 50 138 C50 136.68 50 135.36 50 134 C48.68 134 47.36 134 46 134 C46 132.35 46 130.7 46 129 C37.75 129 29.5 129 21 129 C21 130.65 21 132.3 21 134 C12.75 134 4.5 134 -4 134 C-4 132.35 -4 130.7 -4 129 C-9.61 129 -15.22 129 -21 129 C-21 127.68 -21 126.36 -21 125 C-22.32 125 -23.64 125 -25 125 C-25 123.68 -25 122.36 -25 121 C-26.32 121 -27.64 121 -29 121 C-29 119.68 -29 118.36 -29 117 C-33.29 117 -37.58 117 -42 117 C-42 115.68 -42 114.36 -42 113 C-43.32 113 -44.64 113 -46 113 C-46 111.68 -46 110.36 -46 109 C-47.32 109 -48.64 109 -50 109 C-50 107.35 -50 105.7 -50 104 C-51.32 104 -52.64 104 -54 104 C-54 102.68 -54 101.36 -54 100 C-55.32 100 -56.64 100 -58 100 C-58 97.36 -58 94.72 -58 92 C-59.65 92 -61.3 92 -63 92 C-63 83.75 -63 75.5 -63 67 C-61.35 67 -59.7 67 -58 67 C-58 60.07 -58 53.14 -58 46 C-56.68 46 -55.36 46 -54 46 C-54 40.39 -54 34.78 -54 29 C-52.68 29 -51.36 29 -50 29 C-50 27.68 -50 26.36 -50 25 C-48.68 25 -47.36 25 -46 25 C-46 23.68 -46 22.36 -46 21 C-44.68 21 -43.36 21 -42 21 C-42 19.68 -42 18.36 -42 17 C-40.68 17 -39.36 17 -38 17 C-38 15.68 -38 14.36 -38 13 C-36.35 13 -34.7 13 -33 13 C-33 11.35 -33 9.7 -33 8 C-31.68 8 -30.36 8 -29 8 C-29 6.68 -29 5.36 -29 4 C-19.43 4 -9.86 4 0 4 C0 2.68 0 1.36 0 0 Z M-21 21 C-21 23.64 -21 26.28 -21 29 C-18.36 29 -15.72 29 -13 29 C-13 26.36 -13 23.72 -13 21 C-15.64 21 -18.28 21 -21 21 Z M37 21 C37 22.32 37 23.64 37 25 C38.65 25 40.3 25 42 25 C42 23.68 42 22.36 42 21 C40.35 21 38.7 21 37 21 Z M21 25 C21 26.32 21 27.64 21 29 C19.68 29 18.36 29 17 29 C17 30.32 17 31.64 17 33 C19.64 33 22.28 33 25 33 C25 35.97 25 38.94 25 42 C23.68 42 22.36 42 21 42 C21 40.68 21 39.36 21 38 C9.78 38 -1.44 38 -13 38 C-13 39.32 -13 40.64 -13 42 C-14.32 42 -15.64 42 -17 42 C-17 43.32 -17 44.64 -17 46 C-18.32 46 -19.64 46 -21 46 C-21 48.64 -21 51.28 -21 54 C-22.32 54 -23.64 54 -25 54 C-25 56.97 -25 59.94 -25 63 C-26.32 63 -27.64 63 -29 63 C-29 66.96 -29 70.92 -29 75 C-27.68 75 -26.36 75 -25 75 C-25 77.64 -25 80.28 -25 83 C-22.36 83 -19.72 83 -17 83 C-17 85.97 -17 88.94 -17 92 C-15.68 92 -14.36 92 -13 92 C-13 93.32 -13 94.64 -13 96 C-4.75 96 3.5 96 12 96 C12 94.68 12 93.36 12 92 C13.65 92 15.3 92 17 92 C17 90.68 17 89.36 17 88 C18.32 88 19.64 88 21 88 C21 86.35 21 84.7 21 83 C22.32 83 23.64 83 25 83 C25 77.72 25 72.44 25 67 C26.32 67 27.64 67 29 67 C29 57.43 29 47.86 29 38 C30.32 38 31.64 38 33 38 C33 35.03 33 32.06 33 29 C31.68 29 30.36 29 29 29 C29 27.68 29 26.36 29 25 C26.36 25 23.72 25 21 25 Z M-38 50 C-38 52.64 -38 55.28 -38 58 C-36.35 58 -34.7 58 -33 58 C-33 55.36 -33 52.72 -33 50 C-34.65 50 -36.3 50 -38 50 Z M29 67 C29 68.32 29 69.64 29 71 C30.32 71 31.64 71 33 71 C33 72.32 33 73.64 33 75 C34.32 75 35.64 75 37 75 C37 73.68 37 72.36 37 71 C38.65 71 40.3 71 42 71 C42 69.68 42 68.36 42 67 C37.71 67 33.42 67 29 67 Z M54 100 C54 109.57 54 119.14 54 129 C55.32 129 56.64 129 58 129 C58 130.65 58 132.3 58 134 C60.97 134 63.94 134 67 134 C67 132.35 67 130.7 67 129 C68.32 129 69.64 129 71 129 C71 126.36 71 123.72 71 121 C68.03 121 65.06 121 62 121 C62 119.68 62 118.36 62 117 C60.68 117 59.36 117 58 117 C58 114.36 58 111.72 58 109 C59.32 109 60.64 109 62 109 C62 106.03 62 103.06 62 100 C59.36 100 56.72 100 54 100 Z " fill="#000000" transform="translate(73,9)"/>
</svg>
