<?xml version="1.0" encoding="UTF-8"?>
<!-- Generator: visioncortex VTracer 0.6.12 -->
<svg version="1.1" xmlns="http://www.w3.org/2000/svg" width="149" height="241">
<path d="M0 0 C5.61 0 11.22 0 17 0 C17 6.93 17 13.86 17 21 C18.32 21 19.64 21 21 21 C21 41.46 21 61.92 21 83 C22.32 83 23.64 83 25 83 C25 95.54 25 108.08 25 121 C26.32 121 27.64 121 29 121 C29 119.68 29 118.36 29 117 C30.32 117 31.64 117 33 117 C33 115.68 33 114.36 33 113 C35.97 113 38.94 113 42 113 C42 111.35 42 109.7 42 108 C44.64 108 47.28 108 50 108 C50 106.68 50 105.36 50 104 C62.54 104 75.08 104 88 104 C88 105.32 88 106.64 88 108 C90.64 108 93.28 108 96 108 C96 110.97 96 113.94 96 117 C97.32 117 98.64 117 100 117 C100 118.32 100 119.64 100 121 C101.32 121 102.64 121 104 121 C104 124.96 104 128.92 104 133 C105.32 133 106.64 133 108 133 C108 151.15 108 169.3 108 188 C109.65 188 111.3 188 113 188 C113 190.64 113 193.28 113 196 C114.32 196 115.64 196 117 196 C117 199.96 117 203.92 117 208 C115.68 208 114.36 208 113 208 C113 210.97 113 213.94 113 217 C110.03 217 107.06 217 104 217 C104 218.32 104 219.64 104 221 C98.72 221 93.44 221 88 221 C88 219.68 88 218.36 88 217 C86.35 217 84.7 217 83 217 C83 215.68 83 214.36 83 213 C81.68 213 80.36 213 79 213 C79 211.35 79 209.7 79 208 C77.68 208 76.36 208 75 208 C75 199.75 75 191.5 75 183 C76.32 183 77.64 183 79 183 C79 170.79 79 158.58 79 146 C77.68 146 76.36 146 75 146 C75 143.36 75 140.72 75 138 C73.68 138 72.36 138 71 138 C71 136.35 71 134.7 71 133 C68.36 133 65.72 133 63 133 C63 134.65 63 136.3 63 138 C60.03 138 57.06 138 54 138 C54 139.32 54 140.64 54 142 C52.68 142 51.36 142 50 142 C50 143.32 50 144.64 50 146 C48.68 146 47.36 146 46 146 C46 149.96 46 153.92 46 158 C44.68 158 43.36 158 42 158 C42 159.65 42 161.3 42 163 C40.68 163 39.36 163 38 163 C38 166.96 38 170.92 38 175 C36.35 175 34.7 175 33 175 C33 180.61 33 186.22 33 192 C31.68 192 30.36 192 29 192 C29 194.64 29 197.28 29 200 C27.68 200 26.36 200 25 200 C25 205.61 25 211.22 25 217 C23.68 217 22.36 217 21 217 C21 218.32 21 219.64 21 221 C15.39 221 9.78 221 4 221 C4 218.36 4 215.72 4 213 C2.68 213 1.36 213 0 213 C0 210.03 0 207.06 0 204 C-1.32 204 -2.64 204 -4 204 C-4 169.68 -4 135.36 -4 100 C-5.32 100 -6.64 100 -8 100 C-8 79.21 -8 58.42 -8 37 C-9.32 37 -10.64 37 -12 37 C-12 28.75 -12 20.5 -12 12 C-10.68 12 -9.36 12 -8 12 C-8 10.68 -8 9.36 -8 8 C-6.68 8 -5.36 8 -4 8 C-4 6.68 -4 5.36 -4 4 C-2.68 4 -1.36 4 0 4 C0 2.68 0 1.36 0 0 Z M4 100 C4 101.32 4 102.64 4 104 C5.32 104 6.64 104 8 104 C8 102.68 8 101.36 8 100 C6.68 100 5.36 100 4 100 Z M96 183 C96 184.65 96 186.3 96 188 C94.68 188 93.36 188 92 188 C92 190.64 92 193.28 92 196 C93.32 196 94.64 196 96 196 C96 194.68 96 193.36 96 192 C97.32 192 98.64 192 100 192 C100 189.03 100 186.06 100 183 C98.68 183 97.36 183 96 183 Z " fill="#000000" transform="translate(22,10)"/>
</svg>
