<?xml version="1.0" encoding="UTF-8"?>
<!-- Generator: visioncortex VTracer 0.6.12 -->
<svg version="1.1" xmlns="http://www.w3.org/2000/svg" width="158" height="258">
<path d="M0 0 C6.93 0 13.86 0 21 0 C21 4.29 21 8.58 21 13 C22.32 13 23.64 13 25 13 C25 35.11 25 57.22 25 80 C26.32 80 27.64 80 29 80 C29 92.21 29 104.42 29 117 C30.32 117 31.64 117 33 117 C33 123.93 33 130.86 33 138 C38.61 138 44.22 138 50 138 C50 136.68 50 135.36 50 134 C52.64 134 55.28 134 58 134 C58 132.68 58 131.36 58 130 C59.32 130 60.64 130 62 130 C62 127.03 62 124.06 62 121 C63.32 121 64.64 121 66 121 C66 119.68 66 118.36 66 117 C67.65 117 69.3 117 71 117 C71 114.36 71 111.72 71 109 C72.32 109 73.64 109 75 109 C75 106.03 75 103.06 75 100 C76.32 100 77.64 100 79 100 C79 98.68 79 97.36 79 96 C80.32 96 81.64 96 83 96 C83 94.68 83 93.36 83 92 C84.32 92 85.64 92 87 92 C87 90.68 87 89.36 87 88 C92.61 88 98.22 88 104 88 C104 89.32 104 90.64 104 92 C105.32 92 106.64 92 108 92 C108 97.61 108 103.22 108 109 C106.68 109 105.36 109 104 109 C104 112.96 104 116.92 104 121 C102.68 121 101.36 121 100 121 C100 123.97 100 126.94 100 130 C97.03 130 94.06 130 91 130 C91 131.32 91 132.64 91 134 C89.68 134 88.36 134 87 134 C87 136.64 87 139.28 87 142 C85.68 142 84.36 142 83 142 C83 144.97 83 147.94 83 151 C81.68 151 80.36 151 79 151 C79 153.64 79 156.28 79 159 C77.68 159 76.36 159 75 159 C75 160.32 75 161.64 75 163 C76.32 163 77.64 163 79 163 C79 167.29 79 171.58 79 176 C80.32 176 81.64 176 83 176 C83 178.64 83 181.28 83 184 C84.32 184 85.64 184 87 184 C87 185.32 87 186.64 87 188 C92.61 188 98.22 188 104 188 C104 186.68 104 185.36 104 184 C105.32 184 106.64 184 108 184 C108 182.68 108 181.36 108 180 C110.64 180 113.28 180 116 180 C116 178.68 116 177.36 116 176 C117.65 176 119.3 176 121 176 C121 177.32 121 178.64 121 180 C122.32 180 123.64 180 125 180 C125 181.32 125 182.64 125 184 C126.32 184 127.64 184 129 184 C129 189.61 129 195.22 129 201 C127.68 201 126.36 201 125 201 C125 203.64 125 206.28 125 209 C123.68 209 122.36 209 121 209 C121 211.64 121 214.28 121 217 C118.03 217 115.06 217 112 217 C112 218.32 112 219.64 112 221 C110.68 221 109.36 221 108 221 C108 222.65 108 224.3 108 226 C102.39 226 96.78 226 91 226 C91 224.35 91 222.7 91 221 C88.36 221 85.72 221 83 221 C83 219.68 83 218.36 83 217 C80.36 217 77.72 217 75 217 C75 215.68 75 214.36 75 213 C72.03 213 69.06 213 66 213 C66 211.68 66 210.36 66 209 C64.68 209 63.36 209 62 209 C62 207.68 62 206.36 62 205 C60.68 205 59.36 205 58 205 C58 203.68 58 202.36 58 201 C56.68 201 55.36 201 54 201 C54 198.03 54 195.06 54 192 C52.68 192 51.36 192 50 192 C50 189.36 50 186.72 50 184 C48.68 184 47.36 184 46 184 C46 182.68 46 181.36 46 180 C44.35 180 42.7 180 41 180 C41 190.89 41 201.78 41 213 C42.65 213 44.3 213 46 213 C46 215.64 46 218.28 46 221 C44.35 221 42.7 221 41 221 C41 225.29 41 229.58 41 234 C34.4 234 27.8 234 21 234 C21 235.32 21 236.64 21 238 C16.71 238 12.42 238 8 238 C8 236.68 8 235.36 8 234 C5.36 234 2.72 234 0 234 C0 232.68 0 231.36 0 230 C-1.32 230 -2.64 230 -4 230 C-4 225.71 -4 221.42 -4 217 C-5.65 217 -7.3 217 -9 217 C-9 160.57 -9 104.14 -9 46 C-7.35 46 -5.7 46 -4 46 C-4 40.72 -4 35.44 -4 30 C-5.65 30 -7.3 30 -9 30 C-9 24.39 -9 18.78 -9 13 C-7.35 13 -5.7 13 -4 13 C-4 10.36 -4 7.72 -4 5 C-2.68 5 -1.36 5 0 5 C0 3.35 0 1.7 0 0 Z " fill="#000000" transform="translate(19,10)"/>
</svg>
