<?xml version="1.0" encoding="UTF-8"?>
<!-- Generator: visioncortex VTracer 0.6.12 -->
<svg version="1.1" xmlns="http://www.w3.org/2000/svg" width="74" height="174">
<path d="M0 0 C1.32 0 2.64 0 4 0 C4 1.32 4 2.64 4 4 C6.64 4 9.28 4 12 4 C12 5.32 12 6.64 12 8 C13.32 8 14.64 8 16 8 C16 9.32 16 10.64 16 12 C17.65 12 19.3 12 21 12 C21 14.97 21 17.94 21 21 C19.35 21 17.7 21 16 21 C16 22.32 16 23.64 16 25 C14.68 25 13.36 25 12 25 C12 27.64 12 30.28 12 33 C9.36 33 6.72 33 4 33 C4 34.32 4 35.64 4 37 C2.68 37 1.36 37 0 37 C0 35.68 0 34.36 0 33 C-2.97 33 -5.94 33 -9 33 C-9 31.68 -9 30.36 -9 29 C-10.32 29 -11.64 29 -13 29 C-13 27.68 -13 26.36 -13 25 C-14.32 25 -15.64 25 -17 25 C-17 19.39 -17 13.78 -17 8 C-14.36 8 -11.72 8 -9 8 C-9 6.68 -9 5.36 -9 4 C-6.03 4 -3.06 4 0 4 C0 2.68 0 1.36 0 0 Z M0 8 C0 9.32 0 10.64 0 12 C1.32 12 2.64 12 4 12 C4 10.68 4 9.36 4 8 C2.68 8 1.36 8 0 8 Z " fill="#000000" transform="translate(28,9)"/>
<path d="M0 0 C8.25 0 16.5 0 25 0 C25 19.14 25 38.28 25 58 C26.32 58 27.64 58 29 58 C29 62.29 29 66.58 29 71 C30.32 71 31.64 71 33 71 C33 74.96 33 78.92 33 83 C31.68 83 30.36 83 29 83 C29 87.29 29 91.58 29 96 C27.68 96 26.36 96 25 96 C25 98.64 25 101.28 25 104 C20.71 104 16.42 104 12 104 C12 102.68 12 101.36 12 100 C9.36 100 6.72 100 4 100 C4 98.68 4 97.36 4 96 C2.68 96 1.36 96 0 96 C0 94.68 0 93.36 0 92 C-1.65 92 -3.3 92 -5 92 C-5 82.1 -5 72.2 -5 62 C-6.32 62 -7.64 62 -9 62 C-9 59.36 -9 56.72 -9 54 C-7.68 54 -6.36 54 -5 54 C-5 52.68 -5 51.36 -5 50 C-6.32 50 -7.64 50 -9 50 C-9 36.14 -9 22.28 -9 8 C-7.68 8 -6.36 8 -5 8 C-5 6.68 -5 5.36 -5 4 C-3.35 4 -1.7 4 0 4 C0 2.68 0 1.36 0 0 Z " fill="#000000" transform="translate(24,59)"/>
</svg>
