<?xml version="1.0" encoding="UTF-8"?>
<!-- Generator: visioncortex VTracer 0.6.12 -->
<svg version="1.1" xmlns="http://www.w3.org/2000/svg" width="64" height="76">
<path d="M0 0 C4.6 3.723 6.536 8.585 7.625 14.25 C8.639 24.393 7.965 34.274 3.188 43.5 C-0.752 48.002 -5.184 52.384 -11.297 53.371 C-17.799 53.547 -22.138 52.438 -27 48 C-33.792 40.321 -36.802 28.637 -36.391 18.57 C-35.436 12.292 -32.488 6.488 -28 2 C-19.075 -4.166 -9.866 -4.482 0 0 Z M-21 6 C-25.4 13.108 -27.556 22.75 -26 31 C-24.094 36.372 -22.031 40.999 -17 44 C-12.786 44 -10.634 43.476 -7.25 40.938 C-1.385 33.28 -0.79 24.436 -1 15 C-2.439 8.467 -2.439 8.467 -5.25 6.125 C-11.058 3.749 -15.122 3.617 -21 6 Z " fill="#000000" transform="translate(46,13)"/>
</svg>
