<?xml version="1.0" encoding="UTF-8"?>
<!-- Generator: visioncortex VTracer 0.6.12 -->
<svg version="1.1" xmlns="http://www.w3.org/2000/svg" width="81" height="128">
<path d="M0 0 C3.25 0.5 3.25 0.5 5.938 3.25 C12.327 13.633 12.114 26.911 13.028 38.723 C13.395 43.319 13.823 47.909 14.25 52.5 C15.289 52.586 16.328 52.673 17.398 52.762 C32.295 54.187 41.837 58.987 51.707 70.578 C56.403 76.427 57.766 81.013 57.25 88.5 C54.247 96.801 48.021 102.577 40.363 106.59 C35.147 108.836 29.868 109.066 24.25 108.5 C22.558 107.544 20.882 106.556 19.25 105.5 C17.187 106.25 17.187 106.25 15.25 107.5 C12.175 108.525 11.463 108.571 8.25 107.5 C2.198 96.153 1.117 83.109 1.315 70.498 C1.52 57.276 1.06 44.234 -0.125 31.062 C-0.188 30.338 -0.252 29.613 -0.317 28.866 C-0.964 21.584 -1.77 14.554 -3.75 7.5 C-3.938 4.062 -3.938 4.062 -3.75 1.5 C-2.75 0.5 -2.75 0.5 0 0 Z M15.25 63.5 C15.018 68.165 15.154 72.832 15.25 77.5 C15.258 78.15 15.258 78.15 15.301 81.438 C15.346 82.675 15.391 83.912 15.438 85.188 C15.472 86.326 15.507 87.464 15.543 88.637 C16.25 91.5 16.25 91.5 18.715 93.258 C19.551 93.668 20.388 94.078 21.25 94.5 C21.704 95.222 22.157 95.944 22.625 96.688 C24.25 98.5 24.25 98.5 27.438 99 C35.129 97.991 40.116 94.53 44.949 88.508 C46.25 86.5 46.25 86.5 47.062 83.5 C45.844 79.002 43.27 75.981 40.25 72.5 C39.466 71.593 38.683 70.685 37.875 69.75 C33.519 66.016 20.635 58.115 15.25 63.5 Z " fill="#000000" transform="translate(13.75,9.5)"/>
</svg>
