<?xml version="1.0" encoding="UTF-8"?>
<!-- Generator: visioncortex VTracer 0.6.12 -->
<svg version="1.1" xmlns="http://www.w3.org/2000/svg" width="34" height="148">
<path d="M0 0 C0.654 1.225 1.297 2.455 1.938 3.688 C2.297 4.372 2.657 5.056 3.027 5.762 C5.043 10.4 5.142 14.969 5.205 19.976 C5.215 20.66 5.225 21.344 5.235 22.049 C5.267 24.313 5.292 26.576 5.316 28.84 C5.337 30.442 5.358 32.045 5.379 33.647 C5.423 37.022 5.464 40.398 5.503 43.773 C5.551 48.003 5.605 52.232 5.661 56.462 C5.873 72.621 6.043 88.781 6.09 104.941 C6.097 106.155 6.103 107.368 6.11 108.618 C6.115 114.494 6.083 120.213 5 126 C4.67 126.33 4.67 126.33 3 128 C-0.625 127.625 -0.625 127.625 -4 127 C-5.911 120.55 -6.299 114.687 -6.303 107.982 C-6.311 106.906 -6.32 105.83 -6.329 104.722 C-6.354 101.186 -6.366 97.65 -6.379 94.113 C-6.395 91.648 -6.412 89.183 -6.43 86.718 C-6.476 80.241 -6.511 73.764 -6.543 67.287 C-6.595 56.909 -6.66 46.532 -6.731 36.155 C-6.754 32.532 -6.77 28.908 -6.786 25.285 C-6.799 23.067 -6.813 20.848 -6.826 18.63 C-6.829 17.623 -6.832 16.615 -6.834 15.577 C-6.841 14.648 -6.848 13.719 -6.855 12.761 C-6.857 12.36 -6.857 12.36 -6.867 10.326 C-7 8 -7 8 -7.579 5.316 C-8 3 -8 3 -6.875 1.188 C-4.462 -0.341 -2.804 -0.227 0 0 Z " fill="#000000" transform="translate(18,10)"/>
</svg>
