<?xml version="1.0" encoding="UTF-8"?>
<!-- Generator: visioncortex VTracer 0.6.12 -->
<svg version="1.1" xmlns="http://www.w3.org/2000/svg" width="66" height="89">
<path d="M0 0 C1.875 1.375 1.875 1.375 2.578 3.566 C2.935 6.939 2.355 9.411 1.5 12.688 C-0.557 20.654 -1.32 28.309 -1.375 36.5 C-1.396 37.272 -1.416 38.044 -1.438 38.84 C-1.477 44.651 -0.463 48.788 3.559 53.238 C3.848 53.477 3.848 53.477 5.312 54.688 C5.889 55.179 6.465 55.67 7.059 56.176 C9.049 57.49 10.516 58.051 12.875 58.375 C15.875 57.375 15.875 57.375 17.898 54.266 C20.86 47.947 21.509 40.965 22.5 34.125 C22.9 31.431 23.312 28.739 23.727 26.047 C23.813 25.454 23.813 25.454 24.252 22.456 C24.805 19.723 25.476 17.761 26.875 15.375 C28.525 15.375 30.175 15.375 31.875 15.375 C34.152 18.941 33.921 21.347 33.336 25.469 C33.167 26.665 32.998 27.861 32.824 29.094 C32.729 29.718 32.729 29.718 32.25 32.875 C32.084 34.092 31.917 35.309 31.746 36.562 C28.547 58.416 28.547 58.416 20.875 65.375 C17.228 67.469 14.765 68.358 10.562 68.438 C1.008 65.684 -5.54 60.053 -10.758 51.789 C-12.599 47.191 -12.615 43.16 -12.562 38.25 C-12.557 37.291 -12.552 36.332 -12.546 35.344 C-12.31 23.971 -11.261 10.267 -5.125 0.375 C-2.125 -0.625 -2.125 -0.625 0 0 Z " fill="#000000" transform="translate(22.125,10.625)"/>
</svg>
