<?xml version="1.0" encoding="UTF-8"?>
<!-- Generator: visioncortex VTracer 0.6.12 -->
<svg version="1.1" xmlns="http://www.w3.org/2000/svg" width="79" height="166">
<path d="M0 0 C3.385 2.784 5.25 4.702 6 9 C6.57 17.182 6.665 27.002 2 34 C0.35 33.67 -1.3 33.34 -3 33 C-2.835 31.804 -2.67 30.608 -2.5 29.375 C-0.64 12.719 -0.64 12.719 -3 8 C-7.259 8.491 -10.152 10.981 -13 14 C-15.124 17.159 -16.85 20.478 -18.562 23.875 C-19.042 24.815 -19.522 25.754 -20.016 26.722 C-26.986 40.667 -30.228 54.745 -33 70 C-32.687 70.025 -32.687 70.025 -31.104 70.152 C-28.277 70.384 -25.451 70.629 -22.625 70.875 C-21.64 70.954 -20.655 71.032 -19.641 71.113 C-19.17 71.155 -19.17 71.155 -16.789 71.367 C-15.92 71.441 -15.05 71.514 -14.155 71.589 C-12 72 -12 72 -10 74 C-10.165 74.66 -10.165 74.66 -11 78 C-18.59 78.33 -26.18 78.66 -34 79 C-35.007 114.987 -35.007 114.987 -29 127 C-28.34 124.69 -27.68 122.38 -27 120 C-25.25 119.25 -25.25 119.25 -23 119 C-20.824 120.523 -20.824 120.523 -19 123 C-18.941 126.461 -18.941 126.461 -19.562 130.375 C-19.749 131.661 -19.936 132.948 -20.129 134.273 C-20.985 137.936 -22.084 140.773 -24 144 C-26.853 145.427 -28.835 145.31 -32 145 C-37.783 141.696 -39.93 136.419 -41.844 130.305 C-45.26 117.492 -46.3 104.846 -46.125 91.625 C-46.115 90.292 -46.106 88.958 -46.098 87.625 C-46.074 84.416 -46.042 81.208 -46 78 C-47.98 78 -49.96 78 -52 78 C-52.625 75.625 -52.625 75.625 -53 73 C-51 71 -51 71 -48.059 70.566 C-45 69 -45 69 -44.063 66.867 C-43.283 63.905 -42.654 60.942 -42.062 57.938 C-37.664 38.345 -29.386 13.371 -12.312 1.062 C-7.833 -0.996 -4.853 -1.386 0 0 Z " fill="#000000" transform="translate(63,11)"/>
</svg>
