<?xml version="1.0" encoding="UTF-8"?>
<!-- Generator: visioncortex VTracer 0.6.12 -->
<svg version="1.1" xmlns="http://www.w3.org/2000/svg" width="75" height="81">
<path d="M0 0 C2.6 1.752 4.81 3.764 7 6 C7.99 5.319 8.98 4.639 10 3.938 C13.358 2.06 15.921 1.513 19.812 2.258 C25.143 4.066 30.339 6.765 33.73 11.328 C36.633 17.437 36.261 24.295 36.5 30.938 C36.889 41.708 36.889 41.708 37.656 46.066 C37.77 47.034 37.883 48.003 38 49 C36 51 36 51 33.625 51.5 C31 51 31 51 28.75 48.25 C26.424 43.929 25.872 40.846 25.973 35.973 C25.979 35.494 25.979 35.494 26.01 33.072 C26.045 31.07 26.084 29.067 26.127 27.064 C26.138 26.106 26.149 25.148 26.16 24.16 C26.169 23.725 26.169 23.725 26.211 21.524 C25.916 17.998 25.124 15.013 22.449 12.602 C19.454 10.941 17.678 9.97 14.188 10.125 C12 11 12 11 10 13 C9.733 15.463 9.581 17.842 9.5 20.312 C9.186 27.252 8.672 34.149 8 41.062 C7.917 41.93 7.834 42.797 7.748 43.691 C7.509 46.128 7.255 48.564 7 51 C6.929 51.768 6.858 52.536 6.785 53.328 C6.226 58.774 6.226 58.774 4 61 C1.563 61.375 1.563 61.375 -1 61 C-3.583 58.553 -3.989 57.106 -4.363 53.531 C-4.365 52.187 -4.347 50.843 -4.312 49.5 C-4.304 48.786 -4.296 48.072 -4.287 47.336 C-4.171 42.148 -3.43 37.243 -2.453 32.148 C-1.253 23.813 -0.914 14.912 -4 7 C-6.375 7.688 -6.375 7.688 -9 9 C-10.312 11.625 -10.312 11.625 -11 14 C-12.65 14 -14.3 14 -16 14 C-16.75 11.312 -16.75 11.312 -17 8 C-13.259 1.566 -7.306 -1.154 0 0 Z " fill="#000000" transform="translate(27,10)"/>
</svg>
