<?xml version="1.0" encoding="UTF-8"?>
<!-- Generator: visioncortex VTracer 0.6.12 -->
<svg version="1.1" xmlns="http://www.w3.org/2000/svg" width="142" height="223">
<path d="M0 0 C15.18 0 30.36 0 46 0 C46 1.32 46 2.64 46 4 C49.96 4 53.92 4 58 4 C58 5.32 58 6.64 58 8 C59.32 8 60.64 8 62 8 C62 9.32 62 10.64 62 12 C63.65 12 65.3 12 67 12 C67 13.32 67 14.64 67 16 C68.32 16 69.64 16 71 16 C71 38.11 71 60.22 71 83 C72.32 83 73.64 83 75 83 C75 109.07 75 135.14 75 162 C76.32 162 77.64 162 79 162 C79 163.32 79 164.64 79 166 C80.32 166 81.64 166 83 166 C83 170.29 83 174.58 83 179 C81.68 179 80.36 179 79 179 C79 181.64 79 184.28 79 187 C77.68 187 76.36 187 75 187 C75 189.64 75 192.28 75 195 C73.68 195 72.36 195 71 195 C71 197.97 71 200.94 71 204 C64.07 204 57.14 204 50 204 C50 202.68 50 201.36 50 200 C48.68 200 47.36 200 46 200 C46 198.35 46 196.7 46 195 C44.68 195 43.36 195 42 195 C42 170.25 42 145.5 42 120 C40.35 120 38.7 120 37 120 C37 116.04 37 112.08 37 108 C35.68 108 34.36 108 33 108 C33 106.68 33 105.36 33 104 C31.68 104 30.36 104 29 104 C29 105.32 29 106.64 29 108 C23.39 108 17.78 108 12 108 C12 109.32 12 110.64 12 112 C10.68 112 9.36 112 8 112 C8 110.68 8 109.36 8 108 C2.72 108 -2.56 108 -8 108 C-8 106.68 -8 105.36 -8 104 C-10.97 104 -13.94 104 -17 104 C-17 102.68 -17 101.36 -17 100 C-18.32 100 -19.64 100 -21 100 C-21 98.35 -21 96.7 -21 95 C-22.32 95 -23.64 95 -25 95 C-25 93.68 -25 92.36 -25 91 C-26.32 91 -27.64 91 -29 91 C-29 89.68 -29 88.36 -29 87 C-30.32 87 -31.64 87 -33 87 C-33 84.36 -33 81.72 -33 79 C-34.65 79 -36.3 79 -38 79 C-38 72.07 -38 65.14 -38 58 C-39.32 58 -40.64 58 -42 58 C-42 56.68 -42 55.36 -42 54 C-40.68 54 -39.36 54 -38 54 C-38 49.71 -38 45.42 -38 41 C-36.35 41 -34.7 41 -33 41 C-33 37.04 -33 33.08 -33 29 C-31.68 29 -30.36 29 -29 29 C-29 26.03 -29 23.06 -29 20 C-27.68 20 -26.36 20 -25 20 C-25 17.36 -25 14.72 -25 12 C-23.68 12 -22.36 12 -21 12 C-21 10.68 -21 9.36 -21 8 C-18.36 8 -15.72 8 -13 8 C-13 6.68 -13 5.36 -13 4 C-8.71 4 -4.42 4 0 4 C0 2.68 0 1.36 0 0 Z M-4 16 C-4 18.97 -4 21.94 -4 25 C-1.36 25 1.28 25 4 25 C4 22.03 4 19.06 4 16 C1.36 16 -1.28 16 -4 16 Z M12 29 C12 30.32 12 31.64 12 33 C10.68 33 9.36 33 8 33 C8 34.32 8 35.64 8 37 C6.68 37 5.36 37 4 37 C4 38.32 4 39.64 4 41 C2.68 41 1.36 41 0 41 C0 43.97 0 46.94 0 50 C-1.32 50 -2.64 50 -4 50 C-4 55.28 -4 60.56 -4 66 C-2.68 66 -1.36 66 0 66 C0 67.32 0 68.64 0 70 C1.32 70 2.64 70 4 70 C4 71.65 4 73.3 4 75 C8.29 75 12.58 75 17 75 C17 73.35 17 71.7 17 70 C18.32 70 19.64 70 21 70 C21 68.68 21 67.36 21 66 C22.32 66 23.64 66 25 66 C25 63.36 25 60.72 25 58 C26.32 58 27.64 58 29 58 C29 55.36 29 52.72 29 50 C30.32 50 31.64 50 33 50 C33 43.07 33 36.14 33 29 C26.07 29 19.14 29 12 29 Z M33 79 C33 80.32 33 81.64 33 83 C31.68 83 30.36 83 29 83 C29 84.32 29 85.64 29 87 C27.68 87 26.36 87 25 87 C25 89.64 25 92.28 25 95 C28.96 95 32.92 95 37 95 C37 91.04 37 87.08 37 83 C38.65 83 40.3 83 42 83 C42 81.68 42 80.36 42 79 C39.03 79 36.06 79 33 79 Z M12 95 C12 97.97 12 100.94 12 104 C14.97 104 17.94 104 21 104 C21 101.03 21 98.06 21 95 C18.03 95 15.06 95 12 95 Z M58 179 C58 182.96 58 186.92 58 191 C60.97 191 63.94 191 67 191 C67 189.68 67 188.36 67 187 C68.32 187 69.64 187 71 187 C71 184.36 71 181.72 71 179 C66.71 179 62.42 179 58 179 Z " fill="#000000" transform="translate(49,9)"/>
</svg>
