<?xml version="1.0" encoding="UTF-8"?>
<!-- Generator: visioncortex VTracer 0.6.12 -->
<svg version="1.1" xmlns="http://www.w3.org/2000/svg" width="90" height="69">
<path d="M0 0 C2.438 0.938 2.438 0.938 3.573 2.709 C6.351 9.872 4.015 18.328 2.25 25.5 C2.152 25.941 2.152 25.941 1.654 28.17 C0.164 34.383 -2.195 39.516 -5.562 44.938 C-6.222 44.938 -6.882 44.938 -7.562 44.938 C-7.892 45.928 -8.222 46.917 -8.562 47.938 C-12.046 49.679 -15.754 49.376 -19.562 48.938 C-25.993 45.979 -30.903 39.806 -33.672 33.352 C-34.383 31.225 -35.022 29.113 -35.562 26.938 C-36.222 26.938 -36.883 26.938 -37.562 26.938 C-37.645 27.989 -37.727 29.041 -37.812 30.125 C-38.638 34.323 -39.341 36.139 -42.562 38.938 C-46.221 39.47 -48.608 39.331 -52.027 37.922 C-55.62 35.11 -56.903 31.813 -58.688 27.688 C-59.021 26.949 -59.355 26.21 -59.699 25.449 C-60.672 23.286 -61.617 21.113 -62.562 18.938 C-62.866 18.27 -63.17 17.603 -63.483 16.916 C-65.597 12.21 -65.597 12.21 -65.25 9.5 C-65.023 8.984 -64.796 8.469 -64.562 7.938 C-58.624 7.938 -58.624 7.938 -55.938 10.469 C-52.27 15.282 -49.363 20.585 -46.562 25.938 C-46.297 24.757 -46.031 23.576 -45.758 22.359 C-45.401 20.802 -45.045 19.245 -44.688 17.688 C-44.6 17.299 -44.6 17.299 -44.16 15.332 C-44.073 14.955 -44.073 14.955 -43.633 13.047 C-43.476 12.356 -43.319 11.664 -43.157 10.952 C-42.509 8.757 -41.734 6.905 -40.562 4.938 C-38.25 3.875 -38.25 3.875 -35.562 3.938 C-30.976 7.67 -29.297 11.33 -27.5 16.75 C-26.994 18.181 -26.485 19.61 -25.973 21.039 C-25.732 21.716 -25.491 22.393 -25.243 23.091 C-23.192 28.659 -20.485 33.454 -16.562 37.938 C-14.163 36.985 -12.839 36.441 -11.573 34.137 C-11.349 33.426 -11.125 32.714 -10.895 31.98 C-10.641 31.197 -10.388 30.414 -10.127 29.607 C-9.879 28.788 -9.631 27.969 -9.375 27.125 C-9.115 26.317 -8.856 25.51 -8.588 24.678 C-6.452 17.94 -5.455 12.32 -5.82 5.242 C-5.562 2.938 -5.562 2.938 -4.215 1.129 C-2.562 -0.062 -2.562 -0.062 0 0 Z " fill="#000000" transform="translate(75.5625,10.0625)"/>
</svg>
