<?xml version="1.0" encoding="UTF-8"?>
<!-- Generator: visioncortex VTracer 0.6.12 -->
<svg version="1.1" xmlns="http://www.w3.org/2000/svg" width="75" height="84">
<path d="M0 0 C5.833 0.53 10.02 3.73 13.758 8.016 C15.549 10.313 17.277 12.65 19 15 C20.266 16.629 21.537 18.254 22.812 19.875 C24.644 22.213 26.35 24.525 28 27 C31.737 25.522 33.331 23.545 35.562 20.25 C36.168 19.359 36.774 18.469 37.398 17.551 C39 15 39 15 40.688 11.438 C42 9 42 9 44.062 8 C44.702 8 45.341 8 46 8 C46.66 8.66 47.32 9.32 48 10 C47.842 17.753 43.735 23.724 39.25 29.812 C37.296 32.581 36.629 33.849 36 37 C36.99 37.33 37.98 37.66 39 38 C40.543 39.602 40.543 39.602 42.188 41.625 C44.731 44.674 47.312 47.119 50.438 49.562 C53.627 52.229 53.944 52.56 54.5 56.938 C54.418 57.443 54.418 57.443 54 60 C51.316 60.762 51.316 60.762 48 61 C45.402 59.27 45.402 59.27 42.938 56.812 C39.733 53.679 36.521 50.773 33 48 C31.649 46.685 30.309 45.357 29 44 C28.301 44.699 27.603 45.397 26.883 46.117 C21.922 51.078 16.961 56.039 12 61 C11.429 61.623 10.858 62.245 10.27 62.887 C9.851 63.254 9.432 63.621 9 64 C6.813 63.688 6.813 63.688 5 63 C4.659 58.838 5.289 57.013 7.938 53.812 C8.568 53.043 9.198 52.273 9.848 51.48 C12.888 47.976 16.008 44.55 19.18 41.164 C21 39 21 39 22 36 C20.524 33.967 19.05 32.169 17.375 30.312 C13.94 26.365 10.855 22.466 8.223 17.938 C6.244 14.802 3.837 12.01 1.453 9.176 C-0.182 6.727 -0.71 4.917 -1 2 C-0.67 1.34 -0.34 0.68 0 0 Z " fill="#000000" transform="translate(11,10)"/>
</svg>
