<?xml version="1.0" encoding="UTF-8"?>
<!-- Generator: visioncortex VTracer 0.6.12 -->
<svg version="1.1" xmlns="http://www.w3.org/2000/svg" width="70" height="91">
<path d="M0 0 C0.959 -0.026 1.918 -0.052 2.906 -0.078 C5.5 0.25 5.5 0.25 7.309 1.52 C9.005 3.984 9.094 6.373 8.98 9.309 C8.5 11.25 8.5 11.25 5.875 13.75 C2.395 15.297 0.255 15.608 -3.5 15.25 C-3.665 14.755 -3.665 14.755 -4.5 12.25 C-2.866 10.542 -1.631 9.315 0.5 8.25 C-8.052 9.256 -16.183 16.776 -21.5 23.25 C-27.107 31.883 -31.049 40.816 -30.5 51.25 C-29.256 56.746 -29.256 56.746 -26.625 58.5 C-25.924 58.748 -25.223 58.995 -24.5 59.25 C-24.191 59.446 -24.191 59.446 -22.625 60.438 C-19.425 61.661 -17.797 61.245 -14.5 60.25 C-9.968 57.937 -5.661 55.569 -3.562 50.75 C-3.212 49.595 -2.861 48.44 -2.5 47.25 C-2.108 46.116 -1.716 44.981 -1.312 43.812 C-1.044 42.967 -0.776 42.121 -0.5 41.25 C1.875 40.625 1.875 40.625 4.5 40.25 C6.5 42.25 6.5 42.25 6.875 44.75 C6.082 52.156 3.347 58.523 -2.5 63.25 C-2.887 63.592 -2.887 63.592 -4.844 65.324 C-10.637 70.094 -15.035 72.458 -22.637 71.906 C-29.991 70.221 -35.265 65.282 -39.5 59.25 C-42.74 53.695 -42.104 47.265 -40.883 41.168 C-36.124 23.756 -25.196 11.846 -10.34 2.273 C-6.867 0.342 -3.904 0.063 0 0 Z " fill="#000000" transform="translate(51.5,9.75)"/>
</svg>
