<?xml version="1.0" encoding="UTF-8"?>
<!-- Generator: visioncortex VTracer 0.6.12 -->
<svg version="1.1" xmlns="http://www.w3.org/2000/svg" width="154" height="274">
<path d="M0 0 C2.64 0 5.28 0 8 0 C8 1.65 8 3.3 8 5 C9.32 5 10.64 5 12 5 C12 7.64 12 10.28 12 13 C13.32 13 14.64 13 16 13 C16 40.39 16 67.78 16 96 C17.65 96 19.3 96 21 96 C21 98.97 21 101.94 21 105 C19.35 105 17.7 105 16 105 C16 106.32 16 107.64 16 109 C17.65 109 19.3 109 21 109 C21 129.46 21 149.92 21 171 C22.32 171 23.64 171 25 171 C25 182.22 25 193.44 25 205 C27.64 205 30.28 205 33 205 C33 206.32 33 207.64 33 209 C34.32 209 35.64 209 37 209 C37 212.96 37 216.92 37 221 C35.68 221 34.36 221 33 221 C33 222.65 33 224.3 33 226 C31.68 226 30.36 226 29 226 C29 227.32 29 228.64 29 230 C27.68 230 26.36 230 25 230 C25 232.64 25 235.28 25 238 C22.03 238 19.06 238 16 238 C16 239.32 16 240.64 16 242 C13.36 242 10.72 242 8 242 C8 238.04 8 234.08 8 230 C6.68 230 5.36 230 4 230 C4 231.32 4 232.64 4 234 C2.68 234 1.36 234 0 234 C0 235.32 0 236.64 0 238 C-2.97 238 -5.94 238 -9 238 C-9 239.32 -9 240.64 -9 242 C-23.85 242 -38.7 242 -54 242 C-54 240.68 -54 239.36 -54 238 C-59.61 238 -65.22 238 -71 238 C-71 236.68 -71 235.36 -71 234 C-72.32 234 -73.64 234 -75 234 C-75 232.68 -75 231.36 -75 230 C-76.32 230 -77.64 230 -79 230 C-79 228.68 -79 227.36 -79 226 C-80.65 226 -82.3 226 -84 226 C-84 224.35 -84 222.7 -84 221 C-85.32 221 -86.64 221 -88 221 C-88 219.68 -88 218.36 -88 217 C-89.32 217 -90.64 217 -92 217 C-92 213.04 -92 209.08 -92 205 C-93.32 205 -94.64 205 -96 205 C-96 198.07 -96 191.14 -96 184 C-97.32 184 -98.64 184 -100 184 C-100 182.68 -100 181.36 -100 180 C-98.68 180 -97.36 180 -96 180 C-96 173.07 -96 166.14 -96 159 C-94.68 159 -93.36 159 -92 159 C-92 154.71 -92 150.42 -92 146 C-90.68 146 -89.36 146 -88 146 C-88 144.68 -88 143.36 -88 142 C-86.68 142 -85.36 142 -84 142 C-84 140.68 -84 139.36 -84 138 C-82.35 138 -80.7 138 -79 138 C-79 135.36 -79 132.72 -79 130 C-77.68 130 -76.36 130 -75 130 C-75 128.35 -75 126.7 -75 125 C-72.36 125 -69.72 125 -67 125 C-67 123.68 -67 122.36 -67 121 C-62.71 121 -58.42 121 -54 121 C-54 119.68 -54 118.36 -54 117 C-40.47 117 -26.94 117 -13 117 C-13 104.79 -13 92.58 -13 80 C-14.32 80 -15.64 80 -17 80 C-17 56.57 -17 33.14 -17 9 C-14.36 9 -11.72 9 -9 9 C-9 7.68 -9 6.36 -9 5 C-6.03 5 -3.06 5 0 5 C0 3.35 0 1.7 0 0 Z M-50 150 C-50 151.65 -50 153.3 -50 155 C-51.32 155 -52.64 155 -54 155 C-54 156.32 -54 157.64 -54 159 C-55.65 159 -57.3 159 -59 159 C-59 160.32 -59 161.64 -59 163 C-60.32 163 -61.64 163 -63 163 C-63 172.57 -63 182.14 -63 192 C-61.68 192 -60.36 192 -59 192 C-59 194.97 -59 197.94 -59 201 C-57.35 201 -55.7 201 -54 201 C-54 202.32 -54 203.64 -54 205 C-52.68 205 -51.36 205 -50 205 C-50 206.32 -50 207.64 -50 209 C-43.07 209 -36.14 209 -29 209 C-29 207.68 -29 206.36 -29 205 C-27.68 205 -26.36 205 -25 205 C-25 203.68 -25 202.36 -25 201 C-23.68 201 -22.36 201 -21 201 C-21 199.35 -21 197.7 -21 196 C-19.68 196 -18.36 196 -17 196 C-17 193.36 -17 190.72 -17 188 C-15.68 188 -14.36 188 -13 188 C-13 186.68 -13 185.36 -13 184 C-11.68 184 -10.36 184 -9 184 C-9 179.71 -9 175.42 -9 171 C-10.32 171 -11.64 171 -13 171 C-13 167.04 -13 163.08 -13 159 C-14.32 159 -15.64 159 -17 159 C-17 157.68 -17 156.36 -17 155 C-19.64 155 -22.28 155 -25 155 C-25 153.35 -25 151.7 -25 150 C-33.25 150 -41.5 150 -50 150 Z M-84 176 C-84 177.32 -84 178.64 -84 180 C-82.35 180 -80.7 180 -79 180 C-79 182.64 -79 185.28 -79 188 C-80.65 188 -82.3 188 -84 188 C-84 189.32 -84 190.64 -84 192 C-79.71 192 -75.42 192 -71 192 C-71 189.36 -71 186.72 -71 184 C-72.32 184 -73.64 184 -75 184 C-75 181.36 -75 178.72 -75 176 C-77.97 176 -80.94 176 -84 176 Z " fill="#000000" transform="translate(107,9)"/>
</svg>
