<?xml version="1.0" encoding="UTF-8"?>
<!-- Generator: visioncortex VTracer 0.6.12 -->
<svg version="1.1" xmlns="http://www.w3.org/2000/svg" width="141" height="140">
<path d="M0 0 C15.18 0 30.36 0 46 0 C46 1.32 46 2.64 46 4 C49.96 4 53.92 4 58 4 C58 5.65 58 7.3 58 9 C59.32 9 60.64 9 62 9 C62 10.32 62 11.64 62 13 C63.65 13 65.3 13 67 13 C67 15.64 67 18.28 67 21 C68.32 21 69.64 21 71 21 C71 26.61 71 32.22 71 38 C72.32 38 73.64 38 75 38 C75 43.61 75 49.22 75 55 C73.68 55 72.36 55 71 55 C71 61.6 71 68.2 71 75 C69.68 75 68.36 75 67 75 C67 76.65 67 78.3 67 80 C65.35 80 63.7 80 62 80 C62 82.64 62 85.28 62 88 C60.68 88 59.36 88 58 88 C58 89.32 58 90.64 58 92 C56.68 92 55.36 92 54 92 C54 94.64 54 97.28 54 100 C52.68 100 51.36 100 50 100 C50 101.65 50 103.3 50 105 C47.36 105 44.72 105 42 105 C42 106.32 42 107.64 42 109 C40.35 109 38.7 109 37 109 C37 110.32 37 111.64 37 113 C33.04 113 29.08 113 25 113 C25 114.32 25 115.64 25 117 C19.39 117 13.78 117 8 117 C8 118.32 8 119.64 8 121 C4.04 121 0.08 121 -4 121 C-4 119.68 -4 118.36 -4 117 C-8.29 117 -12.58 117 -17 117 C-17 115.68 -17 114.36 -17 113 C-14.03 113 -11.06 113 -8 113 C-8 110.36 -8 107.72 -8 105 C-12.29 105 -16.58 105 -21 105 C-21 106.32 -21 107.64 -21 109 C-23.64 109 -26.28 109 -29 109 C-29 107.68 -29 106.36 -29 105 C-30.32 105 -31.64 105 -33 105 C-33 102.03 -33 99.06 -33 96 C-34.65 96 -36.3 96 -38 96 C-38 94.68 -38 93.36 -38 92 C-39.32 92 -40.64 92 -42 92 C-42 89.36 -42 86.72 -42 84 C-43.32 84 -44.64 84 -46 84 C-46 79.71 -46 75.42 -46 71 C-47.32 71 -48.64 71 -50 71 C-50 69.68 -50 68.36 -50 67 C-48.68 67 -47.36 67 -46 67 C-46 61.39 -46 55.78 -46 50 C-44.68 50 -43.36 50 -42 50 C-42 47.36 -42 44.72 -42 42 C-40.68 42 -39.36 42 -38 42 C-38 36.39 -38 30.78 -38 25 C-36.35 25 -34.7 25 -33 25 C-33 23.68 -33 22.36 -33 21 C-31.68 21 -30.36 21 -29 21 C-29 19.68 -29 18.36 -29 17 C-25.04 17 -21.08 17 -17 17 C-17 15.68 -17 14.36 -17 13 C-15.68 13 -14.36 13 -13 13 C-13 11.68 -13 10.36 -13 9 C-10.03 9 -7.06 9 -4 9 C-4 7.35 -4 5.7 -4 4 C-2.68 4 -1.36 4 0 4 C0 2.68 0 1.36 0 0 Z M-4 25 C-4 27.97 -4 30.94 -4 34 C-1.36 34 1.28 34 4 34 C4 31.03 4 28.06 4 25 C1.36 25 -1.28 25 -4 25 Z M12 34 C12 35.32 12 36.64 12 38 C10.68 38 9.36 38 8 38 C8 39.32 8 40.64 8 42 C6.68 42 5.36 42 4 42 C4 43.32 4 44.64 4 46 C2.68 46 1.36 46 0 46 C0 50.29 0 54.58 0 59 C-1.32 59 -2.64 59 -4 59 C-4 65.93 -4 72.86 -4 80 C-1.36 80 1.28 80 4 80 C4 81.32 4 82.64 4 84 C9.61 84 15.22 84 21 84 C21 82.68 21 81.36 21 80 C22.32 80 23.64 80 25 80 C25 78.35 25 76.7 25 75 C27.64 75 30.28 75 33 75 C33 73.68 33 72.36 33 71 C34.32 71 35.64 71 37 71 C37 67.04 37 63.08 37 59 C38.65 59 40.3 59 42 59 C42 52.07 42 45.14 42 38 C40.35 38 38.7 38 37 38 C37 36.68 37 35.36 37 34 C28.75 34 20.5 34 12 34 Z M-29 59 C-29 60.32 -29 61.64 -29 63 C-27.68 63 -26.36 63 -25 63 C-25 64.32 -25 65.64 -25 67 C-23.68 67 -22.36 67 -21 67 C-21 65.68 -21 64.36 -21 63 C-19.68 63 -18.36 63 -17 63 C-17 61.68 -17 60.36 -17 59 C-20.96 59 -24.92 59 -29 59 Z M42 75 C42 77.97 42 80.94 42 84 C40.35 84 38.7 84 37 84 C37 86.64 37 89.28 37 92 C41.29 92 45.58 92 50 92 C50 90.68 50 89.36 50 88 C51.32 88 52.64 88 54 88 C54 85.36 54 82.72 54 80 C52.68 80 51.36 80 50 80 C50 78.35 50 76.7 50 75 C47.36 75 44.72 75 42 75 Z M0 100 C0 101.65 0 103.3 0 105 C1.32 105 2.64 105 4 105 C4 103.35 4 101.7 4 100 C2.68 100 1.36 100 0 100 Z M4 109 C4 110.32 4 111.64 4 113 C5.32 113 6.64 113 8 113 C8 111.68 8 110.36 8 109 C6.68 109 5.36 109 4 109 Z " fill="#000000" transform="translate(57,9)"/>
</svg>
