<?xml version="1.0" encoding="UTF-8"?>
<!-- Generator: visioncortex VTracer 0.6.12 -->
<svg version="1.1" xmlns="http://www.w3.org/2000/svg" width="96" height="83">
<path d="M0 0 C6.01 4.204 11.918 10.215 14.164 17.359 C14.62 20.637 14.467 23.815 14.371 27.121 C14.192 34.919 15.886 40.512 20.965 46.469 C23.252 48.376 25.601 48.424 28.496 48.746 C28.764 47.942 29.032 47.137 29.309 46.309 C29.934 44.433 30.563 42.558 31.227 40.695 C33.178 35.119 34.464 29.56 35.496 23.746 C37.871 23.621 37.871 23.621 40.496 23.746 C42.496 25.746 42.496 25.746 42.648 28.039 C41.905 38.051 40.144 49.888 32.684 57.246 C29.93 59.245 27.918 60.2 24.496 60.059 C17.824 58.496 12.183 53.35 8.496 47.746 C8.128 46.422 7.788 45.089 7.496 43.746 C6.809 44.095 6.122 44.445 5.414 44.805 C4.964 45.032 4.964 45.032 2.684 46.184 C1.79 46.636 0.897 47.089 -0.023 47.555 C-5.547 50.208 -10.614 50.513 -16.504 48.809 C-23.479 45.943 -27.688 38.38 -30.723 31.773 C-34.134 22.92 -34.188 14.374 -30.578 5.535 C-28.061 1.343 -23.946 -0.596 -19.629 -2.566 C-12.247 -4.19 -6.697 -3.688 0 0 Z M-21.504 10.746 C-22.044 11.348 -22.584 11.95 -23.141 12.57 C-25.407 16.188 -24.731 19.379 -24.277 23.496 C-22.759 29.877 -19.333 35.728 -13.957 39.562 C-10.667 41.15 -8.976 40.759 -5.504 39.746 C-1.905 37.989 0.59 36.305 2.496 32.746 C1.906 29.68 1.906 29.68 0.559 26.184 C0.441 25.877 0.441 25.877 -0.152 24.327 C-2.704 17.863 -5.545 10.705 -10.504 5.746 C-16.077 4.879 -17.981 6.557 -21.504 10.746 Z " fill="#000000" transform="translate(43.50390625,13.25390625)"/>
</svg>
