<?xml version="1.0" encoding="UTF-8"?>
<!-- Generator: visioncortex VTracer 0.6.12 -->
<svg version="1.1" xmlns="http://www.w3.org/2000/svg" width="74" height="90">
<path d="M0 0 C3.242 0.679 4.608 1.995 6.572 4.622 C10.751 11.893 11.792 21.283 13.562 29.375 C18.889 52.995 18.889 52.995 25.688 59.562 C30.112 52.889 32.948 46.712 34.812 38.938 C34.936 38.45 34.936 38.45 35.562 35.984 C37.652 27.447 39.092 18.819 40.219 10.105 C40.356 9.146 40.492 8.187 40.633 7.199 C40.741 6.351 40.85 5.502 40.961 4.628 C41.688 2.562 41.688 2.562 43.566 1.21 C45.688 0.562 45.688 0.562 48.688 1.562 C50.101 4.389 49.858 6.782 49.875 9.938 C49.889 11.08 49.903 12.222 49.918 13.398 C49.381 30.877 44.885 53.69 33.688 67.562 C30.525 69.921 28.271 71.057 24.312 70.75 C19.475 69.98 17.218 67.854 14.309 64.023 C6.999 52.927 4.426 41.376 1.688 28.562 C1.134 26.046 0.576 23.531 0.016 21.016 C-0.317 19.515 -0.645 18.014 -0.969 16.511 C-1.69 13.192 -2.495 9.967 -3.551 6.742 C-3.802 5.693 -4.054 4.644 -4.312 3.562 C-2.312 0.562 -2.312 0.562 0 0 Z " fill="#000000" transform="translate(14.3125,9.4375)"/>
</svg>
