<?xml version="1.0" encoding="UTF-8"?>
<!-- Generator: visioncortex VTracer 0.6.12 -->
<svg version="1.1" xmlns="http://www.w3.org/2000/svg" width="116" height="139">
<path d="M0 0 C4.29 0 8.58 0 13 0 C13 1.32 13 2.64 13 4 C32.14 4 51.28 4 71 4 C71 5.32 71 6.64 71 8 C72.32 8 73.64 8 75 8 C75 9.32 75 10.64 75 12 C76.32 12 77.64 12 79 12 C79 17.61 79 23.22 79 29 C77.68 29 76.36 29 75 29 C75 31.64 75 34.28 75 37 C73.68 37 72.36 37 71 37 C71 38.32 71 39.64 71 41 C64.07 41 57.14 41 50 41 C50 39.68 50 38.36 50 37 C47.36 37 44.72 37 42 37 C42 38.32 42 39.64 42 41 C40.68 41 39.36 41 38 41 C38 43.97 38 46.94 38 50 C36.68 50 35.36 50 34 50 C34 66.5 34 83 34 100 C32.35 100 30.7 100 29 100 C29 105.28 29 110.56 29 116 C27.68 116 26.36 116 25 116 C25 117.65 25 119.3 25 121 C19.72 121 14.44 121 9 121 C9 119.35 9 117.7 9 116 C7.35 116 5.7 116 4 116 C4 114.68 4 113.36 4 112 C2.68 112 1.36 112 0 112 C0 108.04 0 104.08 0 100 C-1.32 100 -2.64 100 -4 100 C-4 98.68 -4 97.36 -4 96 C-2.68 96 -1.36 96 0 96 C0 94.35 0 92.7 0 91 C-1.32 91 -2.64 91 -4 91 C-4 73.18 -4 55.36 -4 37 C-5.32 37 -6.64 37 -8 37 C-8 34.36 -8 31.72 -8 29 C-9.32 29 -10.64 29 -12 29 C-12 22.07 -12 15.14 -12 8 C-10.68 8 -9.36 8 -8 8 C-8 6.68 -8 5.36 -8 4 C-5.36 4 -2.72 4 0 4 C0 2.68 0 1.36 0 0 Z M59 21 C59 22.32 59 23.64 59 25 C57.35 25 55.7 25 54 25 C54 26.32 54 27.64 54 29 C58.29 29 62.58 29 67 29 C67 26.36 67 23.72 67 21 C64.36 21 61.72 21 59 21 Z M25 29 C25 31.64 25 34.28 25 37 C26.32 37 27.64 37 29 37 C29 35.68 29 34.36 29 33 C30.65 33 32.3 33 34 33 C34 31.68 34 30.36 34 29 C31.03 29 28.06 29 25 29 Z M13 58 C13 60.64 13 63.28 13 66 C15.64 66 18.28 66 21 66 C21 64.68 21 63.36 21 62 C22.32 62 23.64 62 25 62 C25 60.68 25 59.36 25 58 C21.04 58 17.08 58 13 58 Z " fill="#000000" transform="translate(22,8)"/>
</svg>
