<?xml version="1.0" encoding="UTF-8"?>
<!-- Generator: visioncortex VTracer 0.6.12 -->
<svg version="1.1" xmlns="http://www.w3.org/2000/svg" width="99" height="47">
<path d="M0 0 C2 2 2 2 2.188 4.75 C0.32 9.862 -3.265 11.604 -8 14 C-25.531 21.293 -55.366 31.645 -74.371 25.195 C-76 24 -76 24 -76.875 20.5 C-76.916 19.345 -76.957 18.19 -77 17 C-74.139 14.139 -71.272 14.749 -67.438 14.688 C-51.634 14.097 -36.062 10.404 -20.938 5.938 C-20.147 5.705 -19.357 5.472 -18.543 5.232 C-13.995 3.818 -9.953 2.063 -5.826 -0.326 C-3.474 -1.194 -2.313 -0.897 0 0 Z " fill="#000000" transform="translate(87,11)"/>
</svg>
